<svg id="bitcoin" xmlns="http://www.w3.org/2000/svg" viewBox="0 0 1500 1500"><defs><style>.cls-1{fill:#fff;}.cls-2{fill:#f7931a;}.cls-3{opacity:0.9;}.cls-4{fill:#d6d238;}</style></defs><title>art-meets-bitcoin-illustrations-1Artboard 54 copy 23</title><path d="M300.31,1342.75a46.36,46.36,0,0,1-45.54-38.16L92,393a46.34,46.34,0,0,1,37.43-53.7L1199,148.37a46.42,46.42,0,0,1,53.7,37.43l58.85,329.61-9.68-8.53a53,53,0,0,0-44.51-12.57L1043.45,532.5a53.34,53.34,0,0,0-43,61.69L1036,793.27a53.34,53.34,0,0,0,61.69,43l213.89-38.19a52.94,52.94,0,0,0,37.42-27.2l6.12-11.34,60.32,337.83a46.35,46.35,0,0,1-37.43,53.7L308.47,1342A46.35,46.35,0,0,1,300.31,1342.75Zm906.81-1186.1a37.37,37.37,0,0,0-6.56.58L131,348.18a37.33,37.33,0,0,0-30.15,43.26L263.63,1303a37.33,37.33,0,0,0,43.26,30.15l1069.53-191a37.33,37.33,0,0,0,30.15-43.26l-56.08-314.12a61.7,61.7,0,0,1-37.33,22.11l-.8-4.43.8,4.43-213.9,38.19a62.25,62.25,0,0,1-72.13-50.28L991.59,595.77a62.33,62.33,0,0,1,50.27-72.13l213.9-38.19a61.65,61.65,0,0,1,42.67,7.83l-54.61-305.9a37.47,37.47,0,0,0-36.7-30.73Z"/><path class="cls-1" d="M300.25,1353.34a57,57,0,0,1-55.9-46.89L81.6,394.88a56.93,56.93,0,0,1,46-66L1197.12,138a56.94,56.94,0,0,1,66,46l64.17,359.45-32.41-28.57a42.39,42.39,0,0,0-35.66-10.09l-213.89,38.19a42.62,42.62,0,0,0-34.44,49.41l35.54,199.08a42.63,42.63,0,0,0,49.41,34.44l213.89-38.19a42.42,42.42,0,0,0,30-21.81l20.65-38.41,65.52,368.07a56.93,56.93,0,0,1-46,66l-1069.53,191A57.4,57.4,0,0,1,300.25,1353.34Zm9.2-5.82.44,2.46-.44-2.46,1069.53-191a51.94,51.94,0,0,0,41.94-60.18l-63-353.92-13.84,25.75a47.43,47.43,0,0,1-33.49,24.37L1096.7,830.77a47.63,47.63,0,0,1-55.21-38.48l-35.55-199.08A47.65,47.65,0,0,1,1044.43,538l213.89-38.18a47.4,47.4,0,0,1,39.85,11.26l21.66,19.1-61.66-345.35A51.91,51.91,0,0,0,1198,142.88l-1069.53,191A51.93,51.93,0,0,0,86.52,394l162.75,911.56a51.93,51.93,0,0,0,60.18,42Z"/><path class="cls-2" d="M1378.75,1080.87l-48.09-269.22-244.14,43.59c-29.91,5.34-65.55-33.47-70.85-63.17l-33.8-189.32c-5.31-29.7,9.28-76.88,47.95-87.85l237.25-42.35L1224,214a40,40,0,0,0-46.39-32.09l-1024.71,183A40,40,0,0,0,120.45,411l154.77,866.89A40,40,0,0,0,321.61,1310l1024.71-183A40,40,0,0,0,1378.75,1080.87ZM386.63,1245.56c-25.88-1.77-66-11.65-82.87-70.42s-40.84-252.6-40.84-252.6,40,197.91,132.19,251.2c76,44,432-2.56,432-2.56S412.51,1247.33,386.63,1245.56Z"/><path class="cls-1" d="M314.51,1312.61a41.89,41.89,0,0,1-41.26-34.37L118.48,411.35a41.28,41.28,0,0,1,7-31.2,41.94,41.94,0,0,1,27.07-17.28l1024.7-183a42,42,0,0,1,48.72,33.7l43.43,260.55-239.1,42.69c-37.8,10.79-51.46,57.41-46.44,85.54l33.81,189.32c2.53,14.22,12.35,30.93,25.61,43.63,14.31,13.7,30,20.23,42.92,17.92l246.11-43.94,48.43,271.19a41.25,41.25,0,0,1-7,31.19,41.86,41.86,0,0,1-27.07,17.28L322,1311.94A42.22,42.22,0,0,1,314.51,1312.61ZM1184.68,183.26a38.84,38.84,0,0,0-6.75.6l-1024.71,183a37.91,37.91,0,0,0-24.49,15.64,37.33,37.33,0,0,0-6.32,28.2l154.78,866.89A37.93,37.93,0,0,0,321.26,1308L1346,1125.06a37.89,37.89,0,0,0,24.49-15.65,37.3,37.3,0,0,0,6.32-28.19L1329,814l-242.16,43.24a36.32,36.32,0,0,1-6.23.54c-30.57,0-62.09-38.08-67-65.33L979.9,603.1c-2.88-16.11,0-35.6,7.64-52.14,9-19.41,23.81-32.9,41.74-38l.19,0,235.3-42L1222,214.31A37.88,37.88,0,0,0,1184.68,183.26ZM387.58,1247.59c-.42,0-.78,0-1.09,0-18.1-1.23-33.07-5.86-45.76-14.15-18.23-11.9-31.31-31.32-38.9-57.71-16.73-58.24-40.66-251-40.9-252.91l3.95-.64a745.64,745.64,0,0,0,31.45,105.35c19.52,50.9,52.68,117.29,99.78,144.52C435,1194.46,549.9,1192.52,639.49,1187c97.3-6.07,186.47-17.64,187.36-17.76l.62,4C810.73,1176.22,421.8,1247.59,387.58,1247.59Zm-.81-4c19.37,1.33,264.18-42.44,380-63.43-34.29,3.61-79.7,7.86-127,10.81-131.12,8.16-213.76,3-245.63-15.46-48.13-27.83-81.78-95.08-101.53-146.61-10.23-26.66-17.89-52-23.11-71.18,7.78,58.79,24,174.26,36.21,216.9C318.19,1218.13,344.71,1240.69,386.77,1243.56Z"/><g id="g16"><g id="coin"><path d="M938.82,773.49l-7-.74c.29-2.75.53-5.55.71-8.33s.31-5.58.38-8.35l7,.17c-.07,2.86-.2,5.77-.38,8.63S939.12,770.65,938.82,773.49Z"/><path d="M734.22,959.31c-2.16,0-4.35,0-6.51-.11l.22-7c5.5.17,11.11.11,16.6-.17l.36,7C741.36,959.21,737.77,959.31,734.22,959.31ZM710.58,958c-5.67-.65-11.38-1.55-17-2.66l1.37-6.87c5.39,1.08,10.91,1.94,16.39,2.57Zm51.42-.54-1-6.94c5.46-.75,11-1.74,16.32-2.94l1.53,6.83C773.34,955.61,767.65,956.64,762,957.42Zm-85.07-6.19c-5.48-1.58-11-3.42-16.29-5.46l2.5-6.54c5.15,2,10.44,3.74,15.73,5.27Zm118.56-1.33-2.1-6.68c5.25-1.66,10.49-3.56,15.59-5.65l2.66,6.47C806.36,946.21,800.93,948.18,795.49,949.9ZM644.86,939c-5.14-2.48-10.23-5.2-15.16-8.1l3.56-6c4.75,2.8,9.68,5.43,14.64,7.82Zm182.38-2.12-3.19-6.23c4.9-2.51,9.75-5.27,14.43-8.19l3.71,5.94C837.34,931.39,832.32,934.25,827.24,936.85Zm-212-15.31c-4.66-3.29-9.23-6.82-13.61-10.49l4.5-5.36c4.23,3.54,8.65,7,13.15,10.13Zm241.09-2.86-4.18-5.61c4.41-3.29,8.74-6.81,12.88-10.47l4.63,5.25C865.42,911.63,860.94,915.28,856.37,918.68ZM589,899.48c-4.05-4-8-8.23-11.71-12.56l5.31-4.56c3.6,4.19,7.4,8.27,11.32,12.15ZM882.09,896,877,891.11c3.81-4,7.51-8.17,11-12.45l5.44,4.41C889.86,887.5,886,891.83,882.09,896Zm-315.46-22.5c-3.35-4.62-6.55-9.42-9.52-14.3l6-3.63c2.87,4.71,6,9.35,9.2,13.81Zm337.09-4.15-5.78-3.95c3.1-4.55,6.06-9.29,8.78-14.08l6.09,3.45C910,859.68,906.93,864.59,903.72,869.3ZM548.79,844.14c-2.56-5.1-4.94-10.37-7.07-15.65l6.5-2.61c2.06,5.1,4.35,10.19,6.83,15.12Zm371.87-4.7-6.35-2.94c2.32-5,4.45-10.16,6.34-15.34l6.58,2.41C925.27,828.92,923.06,834.26,920.66,839.44ZM536,812.33c-1.7-5.45-3.19-11-4.43-16.59l6.83-1.53c1.2,5.37,2.64,10.77,4.28,16Zm396.5-5.12-6.75-1.86c1.46-5.3,2.71-10.74,3.74-16.17l6.88,1.3C935.27,796.09,934,801.72,932.46,807.21Zm-404-28.37c-.78-5.64-1.34-11.39-1.66-17.09l7-.39c.32,5.51.86,11.07,1.62,16.52Zm5.06-34.09-7-.17c.07-2.91.2-5.85.39-8.75s.42-5.6.71-8.38l7,.73c-.28,2.69-.51,5.42-.68,8.11S533.6,741.94,533.53,744.75Zm399.13-5.67c-.32-5.51-.87-11.06-1.63-16.52l6.93-1c.79,5.64,1.36,11.39,1.69,17.08ZM537,711.75l-6.88-1.29c1-5.61,2.35-11.23,3.85-16.73l6.75,1.85C539.25,700.89,538,706.33,537,711.75Zm391.07-5.52c-1.21-5.38-2.66-10.77-4.3-16l6.68-2.09c1.7,5.44,3.2,11,4.45,16.58ZM545.74,679.76l-6.58-2.39c2-5.36,4.15-10.7,6.54-15.88l6.36,2.93C549.75,669.42,547.62,674.58,545.74,679.76Zm372.41-5.18c-2.06-5.11-4.37-10.19-6.85-15.12l6.25-3.15c2.57,5.1,5,10.36,7.09,15.64ZM559.63,649.64l-6.09-3.45c2.8-5,5.85-9.86,9.07-14.59l5.79,3.94C565.29,640.11,562.34,644.85,559.63,649.64ZM903.24,645c-2.88-4.71-6-9.36-9.22-13.81l5.66-4.12c3.35,4.6,6.56,9.41,9.53,14.28ZM578.3,622.22l-5.44-4.41c3.58-4.43,7.4-8.77,11.35-12.89l5,4.83C585.45,613.74,581.76,617.93,578.3,622.22Zm305.41-4.09c-3.59-4.17-7.41-8.25-11.33-12.13l4.91-5c4.07,4,8,8.23,11.73,12.55ZM601.22,598.24,596.58,593c4.27-3.78,8.75-7.43,13.32-10.85l4.19,5.61C609.67,591.06,605.35,594.59,601.22,598.24Zm258.87-3.4c-4.23-3.54-8.66-6.94-13.16-10.12l4-5.72c4.66,3.29,9.25,6.81,13.62,10.47ZM627.78,578.38l-3.71-5.93c4.84-3,9.86-5.89,14.93-8.5l3.2,6.23C637.31,572.7,632.46,575.46,627.78,578.38ZM833,575.72c-4.76-2.79-9.68-5.42-14.65-7.8l3-6.31c5.14,2.47,10.24,5.19,15.17,8.08ZM657.25,563.21l-2.67-6.47c5.28-2.17,10.71-4.15,16.14-5.87l2.12,6.67C667.59,559.2,662.35,561.11,657.25,563.21Zm145.83-1.84c-5.15-2-10.44-3.73-15.74-5.25l1.93-6.73c5.49,1.58,11,3.41,16.3,5.44Zm-114.24-8.16-1.54-6.83c5.56-1.26,11.25-2.29,16.9-3.07l1,6.93C699.7,551,694.21,552,688.84,553.21Zm82.38-1c-5.4-1.07-10.91-1.93-16.4-2.55l.79-6.95c5.68.64,11.39,1.53,17,2.63Zm-49.55-3.55-.37-7c5.68-.3,11.47-.36,17.18-.19l-.21,7C732.75,548.31,727.16,548.37,721.67,548.66Z"/></g><g id="symbol"><path class="cls-1" d="M816.28,705.77c-.82-27.64-23.68-38.5-53.13-43.21l2.48-38.08-22.94-1.61L740.28,660c-6-.43-12.21-.74-18.34-1.05l2.43-37.32L701.44,620,699,658c-5-.25-9.86-.5-14.62-.83v-.12l-31.65-2.24-1.6,24.76s17,.87,16.66,1.16c9.29.66,12,6.33,12.54,11.09l-6.8,104.33c-.6,2.92-2.63,7.51-9.12,7.07.28.28-16.68-1.18-16.68-1.18l-6.36,27.36,29.86,2.1c5.55.4,11,.88,16.38,1.29l-2.5,38.52L708,873l2.48-38.11c6.28.57,12.37,1,18.31,1.47l-2.48,37.93,23,1.61,2.51-38.44c38.71.48,66.35-7.44,72.08-43.8,4.63-29.28-8.23-43.39-29.78-50.25,13.74-5.9,22.85-17.38,22.21-37.6Zm-37.46,80.09c-1.86,28.79-50.43,22.08-66,21l3.33-51C731.72,756.92,780.78,755.84,778.82,785.86Zm-6-72.75c-1.72,26.19-42.2,20.27-55.15,19.36l3-46.29C733.66,687.09,774.61,685.8,772.84,713.11Z"/></g></g><rect x="171.86" y="382.77" width="22.8" height="6.52" transform="translate(-64.99 38.22) rotate(-10.12)"/><path d="M1340,1110l-28.86,5.15-1.14-6.42,28.86-5.15a17.05,17.05,0,0,0,11.32-7.47l5.44,3.59A23.51,23.51,0,0,1,1340,1110Zm-50.38,9-45.2,8.07-1.14-6.41,45.19-8.07Zm-66.72,11.91-45.2,8.07-1.14-6.41,45.19-8.07Zm-66.72,11.92-45.2,8.06-1.14-6.41,45.2-8.07Zm-66.72,11.91-45.19,8.07-1.15-6.42,45.2-8.07Zm-66.72,11.91-45.19,8.07-1.15-6.42,45.2-8.06ZM956,1178.51l-45.19,8.07-1.15-6.41,45.2-8.07Zm-66.72,11.91-45.19,8.07-1.15-6.41,45.2-8.07Zm-66.71,11.92-45.2,8.06L776.2,1204l45.2-8.07Zm-66.72,11.91-45.2,8.07-1.14-6.42,45.19-8.07Zm-66.72,11.91-45.2,8.07-1.14-6.42,45.19-8.07Zm-66.72,11.91-45.2,8.07-1.14-6.41,45.19-8.07ZM555.67,1250l-45.2,8.07-1.14-6.41,45.19-8.07ZM489,1261.89l-45.2,8.07-1.14-6.41,45.2-8.07Zm-66.72,11.92L377,1281.88l-1.15-6.42,45.2-8.07ZM1358,1076.22l-6.41,1.15-8.07-45.2L1350,1031Zm-11.91-66.72-6.42,1.15-8.06-45.2,6.41-1.14Zm-11.91-66.71-6.42,1.14-8.07-45.2,6.42-1.14Zm-11.92-66.72-6.41,1.14-8.07-45.2,6.42-1.14Zm-73-409.18-6.41,1.15-8.07-45.2,6.41-1.14Zm-11.38-63.76-6.42,1.14-8.07-45.19,6.42-1.15Zm-11.92-66.72-6.41,1.14-8.07-45.19,6.42-1.15ZM1214,269.69l-6.41,1.14-8.07-45.19,6.41-1.15Zm-21.3-55.17a17,17,0,0,0-13.18-3.06l-28.91,5.16-1.14-6.42,28.9-5.16a23.51,23.51,0,0,1,18.18,4.22Zm-63.61,5.94-45.19,8.07-1.15-6.42,45.2-8.06Zm-66.72,11.91-45.19,8.07-1.15-6.41,45.2-8.07Zm-66.72,11.91-45.19,8.07-1.15-6.41,45.2-8.07ZM929,256.2l-45.2,8.06-1.15-6.41,45.2-8.07Zm-66.72,11.91-45.2,8.07-1.15-6.42,45.2-8.07ZM795.53,280l-45.2,8.07-1.14-6.42,45.19-8.06Zm-66.72,11.91L683.61,300l-1.14-6.41,45.19-8.07Zm-66.72,11.91-45.2,8.07-1.14-6.41,45.19-8.07Zm-66.72,11.92-45.2,8.06L549,317.41l45.2-8.07Zm-66.72,11.91-45.2,8.07-1.14-6.42,45.2-8.07Zm-66.72,11.91-45.19,8.07-1.15-6.42,45.2-8.07Zm-66.72,11.91L350,359.56l-1.15-6.41,45.2-8.07ZM328.5,363.4l-45.2,8.07-1.15-6.41,45.2-8.07Zm-66.72,11.91-45.2,8.07L215.43,377l45.2-8.07Z"/><rect x="332.27" y="1281.26" width="22.8" height="6.52" transform="translate(-220.42 80.4) rotate(-10.12)"/><g class="cls-3"><rect class="cls-2" x="1025.58" y="520.23" width="303.85" height="290.11" rx="45.44" ry="45.44" transform="translate(-98.6 217.32) rotate(-10.12)"/></g><path d="M1088.56,810.08l-.31-3,1.49-.21,16.13-2.88.53,3-16.14,2.88C1089.69,809.94,1089.13,810,1088.56,810.08ZM1078,808.79a21,21,0,0,1-13-13.41l2.87-.89a18,18,0,0,0,11.2,11.48Zm38.2-3.59-.53-3,17.72-3.17.53,3Zm27.56-4.92-.52-2.95,17.72-3.17.52,3Zm27.57-4.92-.53-3,17.72-3.17.53,3Zm27.56-4.92-.53-3,17.72-3.16.53,2.95Zm27.57-4.92-.53-3,17.72-3.16.53,3Zm-163.43-.13-3.16-17.72,2.95-.53,3.16,17.72Zm191-4.79-.53-3,17.72-3.16.53,2.95Zm27.56-4.93-.52-2.95,17.72-3.16.52,3Zm27.57-4.92-.53-3,17.72-3.16.53,3Zm-251-12.93L1055,740.1l3-.52,3.16,17.72Zm-4.92-27.56-3.17-17.72,3-.53,3.16,17.72Zm-4.92-27.56L1045.14,685l3-.53,3.16,17.72Zm-4.93-27.57-3.16-17.72,3-.53,3.17,17.72Zm-4.92-27.56-3.16-17.72,3-.53,3.17,17.72ZM1033.54,620l-3.16-17.72,2.95-.52,3.17,17.72Zm-4.92-27.56-1.39-7.81a19.74,19.74,0,0,1-.31-3.51,20.15,20.15,0,0,1,1.32-7.18l2.81,1.06a17.23,17.23,0,0,0-1.13,6.12,16.78,16.78,0,0,0,.26,3l1.39,7.8Zm7.7-24.94-2-2.26a23.38,23.38,0,0,1,11.29-5.38l6.06-1.08.53,3-6.06,1.08A20.38,20.38,0,0,0,1036.32,567.5Zm25.74-7.52-.53-3,17.72-3.16.53,2.95Zm27.57-4.93-.53-2.95,17.72-3.16.53,2.95Zm27.56-4.92-.53-3,17.72-3.16.53,3Zm27.56-4.92-.52-3L1162,539.1l.52,2.95Zm27.57-4.92-.53-2.95,17.72-3.17.53,3Zm27.56-4.92-.53-3,17.72-3.17.53,3Zm27.57-4.92-.53-3,17.72-3.17.53,2.95Zm27.56-4.92-.53-3,17.72-3.16.53,3Zm27.56-4.92-.52-3,.23,0,.52,3Z"/><polygon class="cls-4" points="934.27 737.88 868.37 810.47 862.75 803.72 928.65 731.13 934.27 737.88"/><path class="cls-4" d="M934.27,737.88c-4.69,6.06-9.66,12.25-14.69,18.5-2.48,3.13-5.11,6.25-7.67,9.41s-5.17,6.32-7.82,9.49q-7.92,9.5-16.14,19t-16.64,18.85l-3,3.38L865.32,813l-5.64-6.73-2.24-2.67,2.35-2.57,8.27-9,8.33-9q8.39-8.94,16.88-17.78t17.21-17.49l4.34-4.33,4.4-4.28q4.38-4.3,8.87-8.51l.67-.64.48.67C931.06,733.16,932.69,735.64,934.27,737.88Zm0,0c-2.16-2.27-4.28-4.29-6.21-6.26l1.16,0q-3.76,4.86-7.61,9.64l-3.84,4.8-3.89,4.74q-7.78,9.49-15.75,18.81t-16.07,18.52l-8.14,9.16-8.21,9.1.11-5.24,5.6,6.76-6-.12q8.07-8.8,16.32-17.45t16.81-17.29q4.26-4.32,8.65-8.66c2.93-2.89,5.8-5.82,8.8-8.74C922,749.82,928,743.91,934.27,737.88Z"/><polygon class="cls-4" points="865.59 735.04 938.19 800.94 931.44 806.56 858.84 740.66 865.59 735.04"/><path class="cls-4" d="M865.59,735c6.07,4.69,12.25,9.66,18.5,14.69,3.13,2.49,6.26,5.11,9.41,7.67s6.32,5.18,9.49,7.82q9.51,7.92,19,16.14T940.85,798l3.39,3L940.73,804,934,809.63l-2.68,2.24-2.57-2.35-9-8.27-9-8.33q-8.94-8.38-17.78-16.88t-17.48-17.21l-4.34-4.34-4.28-4.4q-4.3-4.38-8.51-8.86l-.63-.68.66-.48C860.87,738.25,863.36,736.62,865.59,735Zm0,0c-2.27,2.16-4.28,4.28-6.26,6.21l0-1.16q4.86,3.76,9.65,7.61l4.79,3.84,4.74,3.9q9.5,7.77,18.82,15.74t18.51,16.07l9.16,8.14,9.1,8.21-5.24-.11,6.77-5.6-.13,6q-8.79-8.07-17.44-16.31t-17.3-16.81q-4.32-4.28-8.66-8.66c-2.89-2.93-5.82-5.8-8.73-8.8C877.54,747.34,871.62,741.33,865.59,735Z"/><rect class="cls-4" x="1192.77" y="1003.53" width="54.66" height="8.89" transform="translate(-273.84 485.67) rotate(-20.29)"/><path class="cls-4" d="M1143.95,1024.75h42a0,0,0,0,1,0,0v8.89a0,0,0,0,1,0,0h-42a4.45,4.45,0,0,1-4.45-4.45v0A4.45,4.45,0,0,1,1143.95,1024.75Z" transform="translate(-284.76 467.08) rotate(-20.29)"/><rect class="cls-4" x="1184.27" y="1014.64" width="6.88" height="10.67" transform="translate(-279.21 473.01) rotate(-20.21)"/><rect class="cls-4" x="1192.08" y="1012.15" width="4.81" height="10.67" transform="translate(-277.93 475.2) rotate(-20.21)"/><polygon class="cls-4" points="1162.43 1007.38 1164.7 1013.51 1167.76 1012.38 1171.69 1023.02 1147.83 1031.84 1143.9 1021.2 1146.96 1020.07 1144.7 1013.94 1141.63 1015.08 1138.18 1005.72 1162.04 996.9 1165.5 1006.25 1162.43 1007.38"/><path class="cls-4" d="M1241.55,1000.13c6.74,18.22,25.55,28.06,42,22s24.34-25.8,17.61-44-25.55-28.07-42-22S1234.81,981.9,1241.55,1000.13Zm5.67-2.1c-5.46-14.76.92-30.72,14.26-35.65s28.56,3,34,17.8-.92,30.73-14.26,35.66S1252.67,1012.8,1247.22,998Z"/><path d="M899.25,816.09l-7.58-2.56c1.25-3.72,2.22-5.88,2.26-6l7.3,3.28S900.36,812.78,899.25,816.09Z"/><path d="M1225.76,953.93a59,59,0,0,0-9.71-5.3l3.19-7.34a66.89,66.89,0,0,1,11,6Zm-172.09-2.85-.12-8c3.84-.06,7.78-.17,11.71-.34l.34,8C1061.6,950.91,1057.58,951,1053.67,951.08Zm-12,0c-4-.06-8-.19-12-.38l.4-8c3.82.19,7.76.31,11.68.38Zm35.8-1-.54-8c3.82-.26,7.76-.57,11.69-.94l.74,8C1085.41,949.49,1081.41,949.81,1077.52,950.07Zm-59.71-.18c-4-.34-8-.77-11.92-1.26l1-7.93c3.78.47,7.68.89,11.6,1.22Zm83.45-2-.9-7.95c3.8-.43,7.72-.92,11.66-1.44l1.06,7.93C1109.09,947,1105.12,947.46,1101.26,947.9Zm-107.25-1c-4-.69-8-1.48-11.8-2.33l1.75-7.81c3.7.83,7.54,1.59,11.41,2.25ZM1205.43,945a104.9,104.9,0,0,0-11.14-2.37l1.25-7.9a112.4,112.4,0,0,1,12,2.55Zm-80.57-.19-1.18-7.91c3.61-.54,6.87-1.05,9.73-1.5l1.94-.31,1.23,7.91-1.93.3C1131.78,943.7,1128.5,944.22,1124.86,944.76Zm-154.33-3.17c-3.92-1.11-7.8-2.33-11.51-3.63l2.65-7.55c3.56,1.24,7.27,2.42,11,3.48Zm177.31,0-.26-8c1.18,0,2.69-.13,4.46-.22,2.1-.12,4.57-.25,7.33-.36l.31,8c-2.71.1-5.14.23-7.21.35C1150.63,941.45,1149.07,941.53,1147.84,941.57Zm35-.3c-3.67-.27-7.56-.43-11.56-.47l.08-8c4.17,0,8.23.21,12.08.49Zm-235.12-7.7c-2.89-1.24-5.74-2.56-8.49-3.93l-2.47-1.27,3.72-7.08c.77.4,1.54.8,2.33,1.19,2.61,1.31,5.32,2.56,8.07,3.74Zm-21.48-11.4a106.79,106.79,0,0,1-9.86-7.32l5.15-6.13a98.75,98.75,0,0,0,9.11,6.77ZM907.5,906.32a83.89,83.89,0,0,1-7.67-9.74l6.63-4.47a76.87,76.87,0,0,0,6.95,8.82Zm-13.8-20.56a81.93,81.93,0,0,1-4.39-11.62l7.68-2.25a73.43,73.43,0,0,0,4,10.49Zm-7-23.74a95.46,95.46,0,0,1-.9-12.31l8-.07a86.63,86.63,0,0,0,.82,11.27Zm7.67-23.72-8-.86a112.74,112.74,0,0,1,2-12.09l7.81,1.71A110.52,110.52,0,0,0,894.38,838.3Z"/><path d="M1237.42,965.3A43.92,43.92,0,0,0,1234,961l5.91-5.39a51,51,0,0,1,4.07,5.09Z"/><rect x="1216.43" y="1029.35" width="54.66" height="8.89" transform="translate(-369.74 1144.66) rotate(-43.66)"/><path d="M1227,1056.59l-6.83-7.15,40.27-38.43,6.83,7.15Zm-5.41-7.12,5.45,5.71,38.82-37.05-5.45-5.71Z"/><path d="M1180.73,1071.6h42a0,0,0,0,1,0,0v8.89a0,0,0,0,1,0,0h-42a4.45,4.45,0,0,1-4.45-4.45v0A4.45,4.45,0,0,1,1180.73,1071.6Z" transform="translate(-411.16 1125.78) rotate(-43.66)"/><path d="M1185.92,1094a5,5,0,0,1-3.41-8.53l30.72-29.31,6.83,7.15-30.72,29.32A5,5,0,0,1,1185.92,1094Zm27.27-36.43-30,28.63a3.95,3.95,0,0,0-.13,5.58,4,4,0,0,0,5.58.13l30-28.63Z"/><rect x="1215.35" y="1052.34" width="6.88" height="10.67" transform="translate(-393.24 1131.64) rotate(-43.58)"/><path d="M1220,1064.62l-8-8.46,5.7-5.43,8.05,8.46Zm-6.64-8.42,6.67,7,4.26-4-6.67-7Z"/><rect x="1221.61" y="1047.36" width="4.81" height="10.67" transform="translate(-388.37 1133.87) rotate(-43.58)"/><path d="M1225.93,1058.93l-8-8.46,4.21-4,8,8.46Zm-6.63-8.42,6.67,7,2.76-2.62-6.67-7Z"/><polygon points="1190.59 1056.14 1195.1 1060.87 1197.46 1058.61 1205.29 1066.82 1186.89 1084.38 1179.06 1076.18 1181.42 1073.92 1176.91 1069.19 1174.55 1071.45 1167.66 1064.24 1186.07 1046.67 1192.95 1053.88 1190.59 1056.14"/><path d="M1186.87,1085.09l-8.52-8.93,2.36-2.26-3.82-4-2.36,2.26-7.57-7.94,19.12-18.25,7.58,7.93-2.37,2.26,3.83,4,2.36-2.26,8.52,8.93Zm-7.11-8.9,7.15,7.49,17.68-16.88-7.15-7.48-2.36,2.25-5.2-5.45,2.36-2.25-6.19-6.49-17.68,16.87,6.19,6.49,2.37-2.25,5.2,5.45Z"/><path d="M1260.34,1018.09c13.41,14.06,34.58,15.63,47.28,3.51s12.11-33.33-1.31-47.39-34.58-15.63-47.28-3.51S1246.92,1004,1260.34,1018.09Zm4.36-4.17c-10.86-11.38-11.33-28.57-1-38.39s27.43-8.54,38.3,2.85,11.34,28.57,1,38.39S1275.57,1025.31,1264.7,1013.92Z"/><path d="M1286.77,1030.25c-.85,0-1.7,0-2.56-.09a37.45,37.45,0,0,1-24.23-11.72c-13.59-14.24-14.17-35.82-1.29-48.1a30.56,30.56,0,0,1,23.75-8.2,37.47,37.47,0,0,1,24.24,11.72c13.58,14.24,14.16,35.81,1.28,48.1A30.27,30.27,0,0,1,1286.77,1030.25ZM1279.89,963a29.29,29.29,0,0,0-20.51,8c-12.48,11.91-11.88,32.85,1.32,46.68h0a36.41,36.41,0,0,0,23.58,11.42,29.63,29.63,0,0,0,23-7.92c12.48-11.91,11.89-32.85-1.32-46.69a36.45,36.45,0,0,0-23.58-11.41C1281.54,963.08,1280.71,963,1279.89,963Zm6.22,60.83c-.69,0-1.38,0-2.08-.08a30.42,30.42,0,0,1-19.69-9.52h0a30.41,30.41,0,0,1-8.59-20.12,24.51,24.51,0,0,1,26.87-25.64,31.19,31.19,0,0,1,28.29,29.64,24.45,24.45,0,0,1-24.8,25.72Zm-5.57-54.44a23.46,23.46,0,0,0-23.79,24.69,29.41,29.41,0,0,0,8.32,19.46h0a29.4,29.4,0,0,0,19,9.21,23.52,23.52,0,0,0,25.8-24.62,30.22,30.22,0,0,0-27.37-28.67C1281.87,969.45,1281.2,969.43,1280.54,969.43Z"/></svg>