<svg id="bitcoin" xmlns="http://www.w3.org/2000/svg" xmlns:xlink="http://www.w3.org/1999/xlink" viewBox="0 0 1500 1500"><defs><style>.cls-1{fill:none;}.cls-2{fill:#f7931a;}.cls-3{fill:#fff;}.cls-4{clip-path:url(#clip-path);}</style><clipPath id="clip-path"><path class="cls-1" d="M513.47,662.67H971.4a111.13,111.13,0,0,1,111.13,111.13v350.38A111.13,111.13,0,0,1,971.4,1235.3H513.47a111.12,111.12,0,0,1-111.12-111.12V773.79A111.13,111.13,0,0,1,513.47,662.67Z"/></clipPath></defs><title>art-meets-bitcoin-illustrations-1Artboard 54 copy 19</title><path class="cls-2" d="M969.33,665.67H516.67c-60.45,0-109.9,49-109.9,108.88v351.57c0,59.88,49.45,108.88,109.9,108.88H969.33c60.45,0,109.9-49,109.9-108.88V774.55C1079.23,714.67,1029.78,665.67,969.33,665.67ZM755.86,774.13c40.29,0,79.38,41.25,79.38,94.88,0,41-19.09,76-46.08,90.27L821.58,1135H708.09l27.68-175.57a71.52,71.52,0,0,1-19.42-15c-16.49-17.8-27-45-27-75.46C689.32,815.38,715.56,774.13,755.86,774.13Zm296.27,335.29c-4.66,62.14-32.61,79.28-51.24,85.71s-330.74,4.29-330.74,4.29,265.52-17.15,315.21-75C1045.62,1054.26,1049,848,1049,848S1056.79,1047.28,1052.13,1109.42Z"/><path class="cls-3" d="M969.33,1235H516.67c-62.26,0-112.9-49.94-112.9-111.32V774c0-61.38,50.64-111.33,112.9-111.33H969.33c62.26,0,112.9,50,112.9,111.33v349.77C1082.23,1185.1,1031.59,1235,969.33,1235ZM516.67,668.62c-58.95,0-106.9,47.25-106.9,105.33v349.77c0,58.07,48,105.32,106.9,105.32H969.33c58.95,0,106.9-47.25,106.9-105.32V774c0-58.08-48-105.33-106.9-105.33Z"/><path d="M971.4,1267.44H513.47c-79,0-143.26-64.27-143.26-143.27V773.79c0-79,64.27-143.26,143.26-143.26H971.4c79,0,143.27,64.27,143.27,143.26v350.38C1114.67,1203.17,1050.4,1267.44,971.4,1267.44ZM513.47,649.81a124.12,124.12,0,0,0-124,124v350.38a124.12,124.12,0,0,0,124,124H971.4a124.12,124.12,0,0,0,124-124V773.79a124.12,124.12,0,0,0-124-124Z"/><path class="cls-3" d="M971.4,1283.29H513.47c-87.74,0-159.12-71.38-159.12-159.12V773.79a160,160,0,0,1,46.72-112.48A291.52,291.52,0,0,1,380,552.39c0-176.84,159-320.7,354.42-320.7s354.42,143.86,354.42,320.7a291.77,291.77,0,0,1-17,98.13,159.26,159.26,0,0,1,58.64,123.27v350.38C1130.52,1211.91,1059.14,1283.29,971.4,1283.29Zm-237-1045.6C542.31,237.69,386,378.86,386,552.39a285.77,285.77,0,0,0,21.37,108.52l.76,1.87-1.45,1.41a153.94,153.94,0,0,0-46.34,109.6v350.38c0,84.43,68.69,153.12,153.12,153.12H971.4c84.43,0,153.12-68.69,153.12-153.12V773.79a152.38,152.38,0,0,0-58-119.92l-1.7-1.35.74-2a285.69,285.69,0,0,0,17.34-98.1C1082.85,378.86,926.55,237.69,734.43,237.69Zm237,1000.61H513.47a114.25,114.25,0,0,1-114.12-114.13V773.79A114.24,114.24,0,0,1,513.47,659.67H971.4a114.25,114.25,0,0,1,114.13,114.12v350.38A114.26,114.26,0,0,1,971.4,1238.3ZM513.47,665.67A108.24,108.24,0,0,0,405.35,773.79v350.38A108.25,108.25,0,0,0,513.47,1232.3H971.4a108.26,108.26,0,0,0,108.13-108.13V773.79A108.25,108.25,0,0,0,971.4,665.67ZM448.2,635.3l-1.08-3.09a242.08,242.08,0,0,1-13.54-79.82c0-148.42,135-269.17,300.85-269.17S1035.28,404,1035.28,552.39a242.06,242.06,0,0,1-11.67,74.21l-.93,2.89-2.88-1a151.8,151.8,0,0,0-48.4-7.86H513.47A153.85,153.85,0,0,0,451.18,634ZM734.43,289.22c-162.58,0-294.85,118.06-294.85,263.17a236,236,0,0,0,12.16,74.79,160.11,160.11,0,0,1,61.73-12.51H971.4a157.93,157.93,0,0,1,47.4,7.23,235.78,235.78,0,0,0,10.48-69.51C1029.28,407.28,897,289.22,734.43,289.22Z"/><g class="cls-4"><g id="g16"><g id="coin"><path class="cls-3" d="M521.74,1280.31a152.5,152.5,0,0,1-37.26-4.65c-81.81-20.64-131.77-104.74-111.36-187.49A153.35,153.35,0,0,1,443.4,992.6a150.5,150.5,0,0,1,115.1-17.11c81.83,20.63,131.8,104.75,111.4,187.51a153.43,153.43,0,0,1-70.28,95.56A150.83,150.83,0,0,1,521.74,1280.31Zm-.48-307.47a148.79,148.79,0,0,0-76.83,21.47,151.42,151.42,0,0,0-69.37,94.34c-20.15,81.68,29.16,164.7,109.91,185.07a148.57,148.57,0,0,0,113.62-16.88A151.42,151.42,0,0,0,668,1162.52l1,.24-1-.24c20.14-81.69-29.19-164.73-110-185.09A150.29,150.29,0,0,0,521.26,972.84Z"/></g><g id="symbol"><path class="cls-3" d="M517.53,1221.29l-18.61-4.69,6.81-27.59c-3.92-1-7.66-2-11.36-3l-6.83,27.7L469,1209l6.9-28-3.74-1c-2.37-.63-4.76-1.26-7.19-1.87l-22.83-5.76,9.08-21.18.84.23c2.88.77,7.05,1.87,9.63,2.52l-.07-.11,2.54.64c3.81,1,5.61-1.27,6.45-3.34l18.67-75.74c.23-4.54-2.14-7.46-7-8.7l-2.16-.54.11-.08c-2.29-.59-6.33-1.56-10-2.42l-1-.23,4.92-20,24.91,6.29,0,.09c2.84.7,5.75,1.38,8.73,2.07l6.84-27.72,18.61,4.69-6.7,27.14c3.6.82,7.54,1.74,11.42,2.71l6.65-27,18.62,4.69-6.85,27.79c16.2,5.75,36.69,16.13,33.22,39.58-1.92,13.12-8.52,21.5-19.64,24.93,15.55,9.1,20,22.51,13.63,40.91-9.83,28.41-34.09,28.26-59,23.6Zm-16.19-6.14,14.73,3.71L523,1191l.93.18c41.25,7.89,52.1-6,57.69-22.11,6.37-18.4,1.65-31-14.84-39.69l-2.38-1.25,2.62-.61c11.69-2.73,18.6-10.78,20.53-23.94h0c2.52-17-7.89-29-32.77-37.69l-.86-.3,6.81-27.63L546,1034.2l-6.65,27-1-.25c-4.53-1.14-9.21-2.22-13.34-3.17l-1-.23,6.7-27.18L516,1026.64l-6.83,27.68-1-.22c-3.65-.85-7.22-1.67-10.67-2.54l-.94-.24,0-.08-21.08-5.33-3.95,16c7.34,1.71,10.09,2.37,11.15,2.83,5.81,1.47,8.83,5.31,8.51,10.83l0,.18-18.76,76c-.74,1.87-3.09,6.05-8.81,4.61h0c-1.19-.12-4-.86-11.3-2.83L444.85,1171l20.56,5.19c2.44.61,4.84,1.25,7.21,1.87l4.69,1.23,1,.25-6.9,28,14.71,3.71,6.84-27.74,1,.27c4.31,1.18,8.65,2.32,13.27,3.48l1,.24Zm28.52-44c-9.87,0-20.79-2.92-27.8-4.79-1.22-.33-2.31-.62-3.24-.85l-1-.25,9.64-39.07,1,.25c1.13.29,2.51.6,4.07.95,10.59,2.41,30.29,6.88,37,17.78a16.2,16.2,0,0,1,1.8,12.82h0a15.37,15.37,0,0,1-7.24,10C540.2,1170.26,535.18,1171.11,529.86,1171.11Zm-29.58-7.34,2.3.61c10.5,2.81,30.05,8,40.52,1.83a13.28,13.28,0,0,0,6.32-8.73h0a14.23,14.23,0,0,0-1.57-11.3c-6.29-10.19-25.45-14.54-35.75-16.88l-3.14-.72Zm37.06-47.83c-8.09,0-16.82-2.36-22.45-3.88l-2.72-.72-1-.24,8.78-35.61,1,.24c.95.24,2.1.5,3.42.79,8.63,1.94,24.69,5.53,30.49,14.9a15.37,15.37,0,0,1,1.65,12.2h0a14.66,14.66,0,0,1-6.85,9.54C546.2,1115.2,541.87,1115.94,537.34,1115.94Zm-23.72-6.29,1.79.48c8.5,2.3,24.32,6.57,33.24,1.31a12.56,12.56,0,0,0,5.93-8.3,13.29,13.29,0,0,0-1.41-10.67c-5.36-8.65-20.89-12.13-29.23-14l-2.49-.56Z"/></g></g></g><path class="cls-3" d="M815.59,870.14c0-53.33-21.58-97.14-61.88-97.14s-84,43.81-84,97.14c0,30.3,10.54,57.34,27,75a71.25,71.25,0,0,0,19.42,14.88l-27.68,174.59H801.94L769.51,959.91C796.5,945.74,815.59,910.91,815.59,870.14Z"/><path d="M825.67,871.39c0-53.18-31.06-96.29-69.38-96.29s-69.39,43.11-69.39,96.29c0,30.21,10,57.18,25.71,74.83a68.6,68.6,0,0,0,18.47,14.84l-26.33,174.1H812.69L781.85,960.91C807.52,946.78,825.67,912,825.67,871.39Z"/><path d="M423.72,552.39c0-153.86,139.39-279,310.71-279s310.71,125.17,310.71,279a252.35,252.35,0,0,1-17.44,92.15,146.77,146.77,0,0,1,24.69,12.63A276.77,276.77,0,0,0,1073,552.39c0-168.09-151.88-304.85-338.56-304.85S395.87,384.3,395.87,552.39a277,277,0,0,0,24.37,113.54,144.75,144.75,0,0,1,23.43-15.2A252.62,252.62,0,0,1,423.72,552.39Z"/></svg>