<svg id="bitcoin" xmlns="http://www.w3.org/2000/svg" viewBox="0 0 1500 1500"><defs><style>.cls-1{fill:#f7931a;}.cls-2{fill:#fff;}.cls-3{opacity:0.5;}.cls-4{fill:#b3b3b3;}.cls-5{fill:#d6d238;}</style></defs><title>art-meets-bitcoin-illustrations-1Artboard 54 copy 20</title><path d="M782.42,1140l-589.23-.69c-18.48,0-36.77-16.21-63.1-56-15.48-23.36-28.11-46.59-28.64-47.56l-6-11.11,6.31-10.94c.48-.83,11.92-20.63,26.42-40.77,24.34-33.83,42.34-48.26,60.19-48.26H191l49,11.76,87-28.92,51.86,25.53,64.18-26.33,54.48,32.07,48.79-21.46,59,12.65,47.18-20.69L779.41,909l-.94,3.21c-14.07,48.17-19.57,91-16.83,131,2.39,34.82,10.74,63,18.1,87.78l1.73,5.84ZM101.17,1024.77l4.68,8.64c.53,1,13.05,24,28.41,47.19,25.28,38.15,42.35,53.71,58.93,53.71h0l582.54.69-.78-2.63c-14.67-49.44-32.89-110.85-2.2-218.36l-119.17.31-47.71,20.93-59-12.65L497.2,944.44l-54.55-32.11-64,26.24L326.64,913l-86.38,28.73-49.82-12h-2.08c-16.05,0-32.84,13.81-56.13,46.18-14.35,19.94-25.68,39.52-26.15,40.35Z"/><path d="M759.09,1119.22H193.19c-10.25,0-25.41-15.36-46.35-47-15.08-22.75-27.59-45.8-27.72-46l-.66-1.23.7-1.21c4.66-8.09,46.2-79,69.2-79h.3l52.28,12.55,84.59-28.14,52.59,25.89,63.33-26,54.76,32.23,52.25-23,59,12.64,49.27-21.6H759.15l-.94,3.2c-1.44,4.93-2.67,9.46-3.76,13.87h0a324.94,324.94,0,0,0,3.7,169.52Zm-634.9-94.14c19.78,36.3,54,89.14,69,89.14H752.42a330,330,0,0,1-2.82-168.93h0c.86-3.5,1.81-7.08,2.89-10.87h-94.7L608,956.25l-59-12.64L495.88,967,441.05,934.7l-63.11,25.89-52.78-26-84,27.94-53.08-12.74C171.25,950.4,137,1003.12,124.19,1025.08Z"/><g id="coin"><path class="cls-1" d="M1359.78,1092.23c-38.9,157.79-196.91,253.81-352.95,214.46s-250.91-199.15-212-356.93,196.9-253.84,352.88-214.5,251,199.18,212.07,357Z"/><path class="cls-2" d="M1077.76,1320.05a294.4,294.4,0,0,1-72-9c-76.6-19.32-141.19-67.66-181.85-136.12a299.89,299.89,0,0,1-33.42-226.26c19.23-78,67.47-143.63,135.84-184.72a290.92,290.92,0,0,1,222.51-33.06c76.63,19.32,141.23,67.66,181.9,136.13a299.89,299.89,0,0,1,33.44,226.28h0c-19.23,78-67.48,143.61-135.85,184.69A291.52,291.52,0,0,1,1077.76,1320.05Zm-.93-589.14a282.46,282.46,0,0,0-145.89,40.76C864.63,811.52,817.85,875.15,799.2,950.84a290.91,290.91,0,0,0,32.42,219.5c39.43,66.39,102,113.26,176.31,132a282.13,282.13,0,0,0,215.74-32c66.3-39.83,113.09-103.45,131.74-179.13A290.94,290.94,0,0,0,1323,871.62c-39.44-66.39-102.07-113.27-176.36-132A285.22,285.22,0,0,0,1076.83,730.91Z"/></g><g id="symbol"><path class="cls-2" d="M1205.66,979c5.8-39.19-23.71-60.26-64.05-74.31l13.08-53.09-32-8.06L1110,895.25c-8.4-2.11-17-4.11-25.6-6.09l12.83-52-31.93-8-13.1,53.07c-7-1.6-13.78-3.19-20.4-4.85l0-.17L987.77,866l-8.5,34.52s23.71,5.49,23.2,5.83c12.95,3.27,15.28,11.93,14.89,18.8l-35.85,145.43c-1.59,4-5.6,9.94-14.65,7.68.32.47-23.22-5.86-23.22-5.86l-15.86,37,41.58,10.48c7.73,2,15.31,4,22.78,6l-13.23,53.69,31.92,8.06,13.1-53.13q13.07,3.58,25.46,6.68L1036.34,1194l32,8,13.22-53.59c54.49,10.43,95.46,6.22,112.71-43.62,13.9-40.13-.69-63.28-29.36-78.37,20.88-4.87,36.6-18.76,40.8-47.45Zm-73,103.54c-9.87,40.13-76.68,18.43-98.34,13l17.55-71.14C1073.52,1029.88,1143,1040.71,1132.65,1082.56Zm9.89-104.12c-9,36.5-64.62,18-82.66,13.41l15.91-64.52C1093.83,931.88,1151.92,940.36,1142.54,978.44Z"/></g><g class="cls-3"><path class="cls-4" d="M752,945.89c1.16-4.71,2.43-9.36,3.78-14H657.26l-49.52,21.72-59-12.65L496,964.17l-54.79-32.25L378,957.85l-52.69-25.93-84.29,28-52.69-12.65c-22.22,0-67,77.73-67,77.73s49.65,91.68,71.87,91.68H755.75A326.13,326.13,0,0,1,752,945.89Z"/><path class="cls-2" d="M757.09,1117.72H193.19c-22.56,0-70.71-88.44-72.75-92.21l-.26-.49.28-.48c1.84-3.2,45.36-78.23,67.9-78.23l.23,0L241,958.92l84.42-28.08,52.65,25.92,63.26-26,54.78,32.24L548.62,940l59,12.64,49.42-21.67h100.1l-.38,1.28c-1.45,4.95-2.68,9.5-3.77,13.93h0a326.35,326.35,0,0,0,3.71,170.31Zm-634.62-92.67c1.89,3.46,13.52,24.5,27.29,45.28,19.68,29.7,34.7,45.39,43.43,45.39H754.42a328.38,328.38,0,0,1-3.36-170.07c1-4.07,2.12-8.25,3.42-12.73h-97l-49.63,21.76-59-12.64L496,965.3,441.17,933,378,959l-52.72-26-84.18,28-52.84-12.69C167.7,948.57,126.3,1018.51,122.47,1025.05Z"/></g><rect x="134.78" y="1021.76" width="601.51" height="14.07" rx="3.5" ry="3.5"/><path class="cls-2" d="M732.79,1036.83H138.28a4.51,4.51,0,0,1-4.5-4.5v-7.07a4.51,4.51,0,0,1,4.5-4.5H732.79a4.51,4.51,0,0,1,4.5,4.5v7.07A4.51,4.51,0,0,1,732.79,1036.83Zm-594.51-14.07a2.5,2.5,0,0,0-2.5,2.5v7.07a2.51,2.51,0,0,0,2.5,2.5H732.79a2.51,2.51,0,0,0,2.5-2.5v-7.07a2.5,2.5,0,0,0-2.5-2.5Z"/><path class="cls-2" d="M1078.08,1359h0a333.09,333.09,0,0,1-219-82.31,341.07,341.07,0,0,1-90.22-125.34H193.19c-27,0-48.75-24.53-73.15-61.35-15.78-23.82-28.65-47.48-29.19-48.48l-9.22-17,9.67-16.77c.5-.86,12.29-21.24,27.08-41.79,27.23-37.84,47.5-53.27,70-53.27h4.1l47,11.29,88.39-29.4,51.43,25.31L444,893.34l54.32,32L545,904.76l59,12.65L650,897.27H765.48A336.4,336.4,0,0,1,887.66,741.08,331.15,331.15,0,0,1,1159,691.34c179.29,45.2,288.79,229.45,244.11,410.71-18.45,74.83-60.06,139.23-120.33,186.23C1224.24,1333.9,1151.56,1359,1078.08,1359Zm0-5h0c72.37,0,144-24.75,201.58-69.68,59.39-46.3,100.38-109.75,118.56-183.48,44-178.61-63.86-360.14-240.49-404.67a326.12,326.12,0,0,0-267.21,49,331.48,331.48,0,0,0-121,155.47l-.61,1.62H651.05l-46.46,20.37-59-12.65L498,930.92l-54.39-32-64.47,26.44L327.52,900l-87.79,29.2-47.86-11.48h-3.51c-20.66,0-39.75,14.83-65.92,51.19-14.64,20.35-26.31,40.52-26.8,41.37l-8.28,14.35,7.89,14.58c.54,1,13.29,24.46,29,48.1,23.51,35.48,44.24,59.11,69,59.11h579l.63,1.55a336.16,336.16,0,0,0,89.52,125A328.12,328.12,0,0,0,1078.07,1354Z"/><path d="M1078.37,1351.51A326.91,326.91,0,0,1,859,1266.67a334.13,334.13,0,0,1-85-122.86H193.19c-20.2,0-39.57-16.79-66.85-58-15.59-23.52-28.31-46.92-28.84-47.9l-7.21-13.32,7.56-13.12c.48-.84,12-20.83,26.67-41.15,25.28-35.14,44.37-50.13,63.84-50.13h3.21l48.27,11.59,87.5-29.11L379,928.15l64.37-26.4,54.42,32,48-21.13,59,12.65,46.72-20.48H770.72A329.29,329.29,0,0,1,921.91,728.77a323.46,323.46,0,0,1,235.2-30.11c84.92,21.41,156.5,75,201.57,150.86a334.52,334.52,0,0,1-19.26,370.2,327.72,327.72,0,0,1-94.22,85.18A323.08,323.08,0,0,1,1078.37,1351.51Zm-972-326.67,3.49,6.43c.52,1,13,23.83,28.2,46.84,24,36.24,40.52,51.7,55.18,51.7H783.53l1.72,4.5a320.19,320.19,0,0,0,83.12,122,312.81,312.81,0,0,0,210,81.2A309.1,309.1,0,0,0,1238,1292.9a315.94,315.94,0,0,0,144.15-196,318.39,318.39,0,0,0-35.49-240.23c-43.16-72.65-111.68-123.94-193-144.43h0a309.47,309.47,0,0,0-225.06,28.81A315.42,315.42,0,0,0,782.26,914.13l-1.63,4.7H654.52L606.35,940l-59-12.65-50.42,22.19-54.62-32.15L378.52,943.5l-52.21-25.7-85.85,28.55-50.55-12.13h-1.55c-14.25,0-30.43,13.67-52.48,44.31-14.22,19.75-25.43,39.15-25.9,40Z"/><path d="M712.49,601l.94-3.21,1.73-5.84c7.37-24.82,15.72-53,18.11-87.78,2.74-40-2.77-82.8-16.84-131L715.5,370l126.88.34L889.56,391l59-12.65,48.78,21.46,54.48-32.07L1116,394.09l51.87-25.53,87,28.92,49-11.76h2.67c17.85,0,35.86,14.43,60.2,48.26,14.55,20.22,25.94,39.94,26.42,40.77l6.3,10.94-6,11.1c-.53,1-13.15,24.21-28.63,47.57-26.34,39.74-44.62,55.95-63.1,55.95Zm9.67-226c30.69,107.51,12.47,168.92-2.2,218.36l-.78,2.63,582.53-.69c16.58,0,33.65-15.56,58.94-53.71,15.36-23.18,27.88-46.22,28.41-47.19l4.68-8.64-4.91-8.52c-.48-.82-11.75-20.33-26.15-40.35-23.29-32.37-40.08-46.18-56.14-46.18h-2.08l-49.82,12L1168.27,374l-52,25.62-64-26.24L997.7,405.44,948.05,383.6l-59,12.65-47.7-20.93Z"/><path d="M1301.71,580.22H735.81l1-3.21a324.94,324.94,0,0,0,3.69-169.52h0c-1.08-4.4-2.31-8.93-3.76-13.87l-.94-3.2H838.17L887.43,412l59-12.64,52.26,23,54.75-32.23,63.33,26,52.6-25.89L1254,418.36l52.28-12.55h.29c10.21,0,24.57,13.06,43.89,39.9,13.89,19.31,25.21,38.88,25.32,39.08l.7,1.21-.67,1.23c-.12.23-12.64,23.28-27.71,46C1327.13,564.86,1312,580.22,1301.71,580.22Zm-559.23-5h559.23c4.69,0,16.4-5.81,42.17-44.7,13-19.58,24-39.4,26.83-44.45-12.8-22-47.06-74.67-63.89-75.25l-53.07,12.74-84-27.95-52.78,26-63.12-25.89L999,428l-53.12-23.37-59,12.64-49.78-21.83h-94.7c1.07,3.79,2,7.37,2.89,10.87A330,330,0,0,1,742.48,575.22Z"/><g id="coin-2" data-name="coin"><path d="M700.08,553.23C661.18,711,503.17,807,347.13,767.69s-250.91-199.15-212-356.93S332,156.92,488,196.26s251,199.18,212.07,357Z"/><path class="cls-5" d="M418.06,781.05a294.4,294.4,0,0,1-72-9c-76.6-19.32-141.19-67.66-181.85-136.12a299.89,299.89,0,0,1-33.42-226.26C150,331.65,198.23,266.05,266.6,225A290.93,290.93,0,0,1,489.11,191.9C565.74,211.22,630.34,259.56,671,328a299.89,299.89,0,0,1,33.44,226.28h0C685.22,632.33,637,697.92,568.6,739A291.52,291.52,0,0,1,418.06,781.05Zm-.92-589.14a282.39,282.39,0,0,0-145.9,40.77C204.93,272.52,158.15,336.15,139.5,411.84a290.91,290.91,0,0,0,32.42,219.5c39.43,66.39,102.05,113.26,176.31,132A282.13,282.13,0,0,0,564,731.28c66.3-39.83,113.09-103.45,131.74-179.13a290.94,290.94,0,0,0-32.44-219.53c-39.44-66.39-102.07-113.27-176.36-132A285.2,285.2,0,0,0,417.14,191.91Z"/></g><g id="symbol-2" data-name="symbol"><path class="cls-2" d="M546,440c5.8-39.19-23.71-60.26-64.05-74.31L495,312.62,463,304.56,450.3,356.25c-8.4-2.11-17-4.11-25.6-6.09l12.83-52-31.93-8.05-13.1,53.07c-6.95-1.6-13.78-3.19-20.4-4.85l0-.17L328.07,327l-8.5,34.52s23.71,5.49,23.2,5.83c13,3.27,15.28,11.93,14.89,18.8L321.81,531.58c-1.59,4-5.6,9.94-14.65,7.68.32.47-23.22-5.86-23.22-5.86l-15.86,37,41.58,10.48c7.73,2,15.31,4,22.78,6l-13.23,53.69,31.92,8.06,13.1-53.13q13.06,3.59,25.46,6.68L376.64,655l31.95,8,13.22-53.59c54.49,10.43,95.46,6.22,112.71-43.62,13.9-40.13-.69-63.28-29.36-78.37C526,482.6,541.76,468.71,546,440ZM473,543.56c-9.87,40.13-76.68,18.43-98.34,13l17.55-71.14C413.82,490.88,483.27,501.71,473,543.56Zm9.89-104.12c-9,36.5-64.62,18-82.66,13.41l15.91-64.52C434.13,392.88,492.22,401.36,482.84,439.44Z"/></g><g class="cls-3"><path class="cls-5" d="M742.88,406.89c-1.16-4.71-2.44-9.36-3.79-14h98.55l49.53,21.72,59-12.65,52.68,23.18,54.79-32.25,63.23,25.93,52.68-25.93,84.3,28,52.68-12.65c22.23,0,67,77.73,67,77.73s-49.64,91.68-71.87,91.68H739.15A326.23,326.23,0,0,0,742.88,406.89Z"/><path class="cls-2" d="M1301.71,578.72H737.82l.38-1.28a326.55,326.55,0,0,0,3.71-170.31h0c-1.09-4.42-2.32-9-3.78-13.93l-.37-1.28H837.85l49.42,21.67,59-12.64,52.52,23.1,54.77-32.24,63.27,25.95,52.65-25.92,84.41,28.08,52.53-12.61h.11c22.55,0,66.07,75,67.91,78.23l.28.48-.27.49C1372.42,490.28,1324.28,578.72,1301.71,578.72Zm-561.22-2h561.22c8.74,0,23.76-15.69,43.43-45.38,13.78-20.79,25.4-41.83,27.3-45.29-3.83-6.54-45.24-76.48-65.78-76.73L1253.81,422l-84.17-28L1116.91,420,1053.73,394l-54.8,32.27L946.07,403l-59,12.64-49.63-21.76h-97c1.3,4.49,2.42,8.67,3.42,12.73h0A328.48,328.48,0,0,1,740.49,576.72Z"/></g><rect x="758.62" y="482.76" width="601.51" height="14.07" rx="3.5" ry="3.5" transform="translate(2118.74 979.59) rotate(180)"/><path class="cls-2" d="M1356.62,497.83H762.12a4.5,4.5,0,0,1-4.5-4.5v-7.07a4.5,4.5,0,0,1,4.5-4.5h594.5a4.51,4.51,0,0,1,4.5,4.5v7.07A4.51,4.51,0,0,1,1356.62,497.83Zm-594.5-14.07a2.5,2.5,0,0,0-2.5,2.5v7.07a2.51,2.51,0,0,0,2.5,2.5h594.5a2.51,2.51,0,0,0,2.5-2.5v-7.07a2.5,2.5,0,0,0-2.5-2.5Z"/><path class="cls-2" d="M416.83,820.52h0c-73.58,0-146.37-25.16-205-70.84-60.37-47.07-102-111.57-120.51-186.51-44.75-181.53,64.92-366,244.48-411.32A335.1,335.1,0,0,1,729.76,357.77H845l45.89,20.12,59-12.65,46.61,20.51,54.31-32,64.71,26.54L1167,355l88.44,29.42,47-11.27h4.15c22.66,0,43,15.49,70.39,53.47,14.86,20.66,26.61,41,27.1,41.84l9.82,17-9.36,17.28c-.54,1-13.4,24.66-29.21,48.51-24.49,37-46.37,61.58-73.57,61.58H726.39a341.66,341.66,0,0,1-90.22,125.22,333.69,333.69,0,0,1-219.34,82.43Zm.46-672.83a327.61,327.61,0,0,0-80,10C160.93,202.14,53.21,383.4,97.17,561.74c18.15,73.62,59.09,137,118.38,183.21,57.54,44.86,129,69.57,201.27,69.57v0a327.56,327.56,0,0,0,215.39-80.95,335.58,335.58,0,0,0,89.39-124.84l.76-1.86h579.34c24.52,0,45.15-23.54,68.57-58.89,15.67-23.64,28.4-47.07,28.93-48.06l7.76-14.33-8.13-14.11c-.49-.85-12.09-20.92-26.78-41.33-26.06-36.21-45-51-65.52-51h-3.45l-47.93,11.5-87.74-29.18-51.63,25.41-64.46-26.44-54.39,32-47.65-21-59,12.65-46.51-20.39H725.62l-.73-1.94A330.92,330.92,0,0,0,604.1,206.59,325.31,325.31,0,0,0,417.29,147.69Z"/><path d="M416.54,812.51A323,323,0,0,1,249.71,765.9,329.93,329.93,0,0,1,99.17,561.25a332.33,332.33,0,0,1,37.05-250.73c45.07-75.87,116.66-129.45,201.58-150.86A323.46,323.46,0,0,1,573,189.77,329.27,329.27,0,0,1,724.18,365.83H843.32L890,386.31l59-12.65,48,21.13,54.43-32,64.36,26.4,51.71-25.45,87.49,29.11,48.28-11.59h3.2c19.47,0,38.56,15,63.85,50.13,14.68,20.41,26.18,40.32,26.67,41.16l7.56,13.11-7.21,13.32c-.54,1-13.25,24.38-28.84,47.9-27.29,41.18-46.66,58-66.86,58H721a334.25,334.25,0,0,1-85,122.86,326.91,326.91,0,0,1-219.42,84.84Zm.7-648.74a310.36,310.36,0,0,0-76,9.47h0c-81.28,20.49-149.81,71.78-193,144.43A320.53,320.53,0,0,0,166.7,672.34a313.74,313.74,0,0,0,90.22,81.56c71.5,43,155.32,55.42,236,35.07a313.05,313.05,0,0,0,133.6-71.66,320.19,320.19,0,0,0,83.12-122l1.72-4.5h590.33c14.67,0,31.17-15.46,55.19-51.7,15.25-23,27.68-45.88,28.2-46.84l3.48-6.43-3.65-6.34c-.47-.82-11.63-20.14-25.9-40-22-30.64-38.24-44.31-52.49-44.31H1305l-50.56,12.13L1168.6,378.8l-52.21,25.7-63.78-26.16L998,410.49,947.57,388.3l-59,12.65-48.17-21.12H714.28l-1.64-4.7A315.34,315.34,0,0,0,566.27,202.05,309.79,309.79,0,0,0,417.24,163.77Z"/></svg>