<svg id="bitcoin" xmlns="http://www.w3.org/2000/svg" viewBox="0 0 1500 1500"><defs><style>.cls-1{fill:#d6d238;}.cls-2{fill:#fff;}.cls-3{fill:#f7931a;}</style></defs><title>art-meets-bitcoin-illustrations-1Artboard 54 copy 29</title><rect class="cls-1" x="595.35" y="624" width="317.29" height="14" transform="translate(-215.31 466.32) rotate(-30.28)"/><path class="cls-2" d="M619.63,720.46l-9.58-16.4L888.37,541.54l9.58,16.4Zm-2.74-14.61,4.54,7.78L891.11,556.15l-4.54-7.78Z"/><rect class="cls-1" x="672.82" y="839.5" width="401.36" height="14" transform="matrix(0.99, -0.15, 0.15, 0.99, -114.95, 137.61)"/><path class="cls-2" d="M673.92,885.76,671.13,867l401.95-59.73,2.79,18.79Zm2.89-14.58,1.32,8.9,392.06-58.26-1.32-8.9Z"/><rect class="cls-1" x="639.26" y="680.5" width="491.49" height="14" transform="translate(-213.63 466.36) rotate(-26.46)"/><path class="cls-2" d="M667,806.62l-8.47-17L1103,568.38l8.47,17Zm-1.77-14.76,4,8,435.53-216.77-4-8Z"/><rect class="cls-1" x="714.5" y="233.61" width="14" height="285.77" transform="translate(59.85 850.35) rotate(-63.17)"/><path class="cls-2" d="M846.94,450.61,587.48,319.35l8.58-17L855.52,433.65ZM594.2,317.14,844.74,443.89l4.06-8L598.26,309.11Z"/><rect class="cls-1" x="411.32" y="419.5" width="240.35" height="14" transform="translate(-36.28 803.36) rotate(-72.32)"/><path class="cls-2" d="M503.29,546.27l-18.1-5.77,74.52-233.77,18.1,5.77Zm-11.82-9,8.58,2.73,71.48-224.23L563,313Z"/><rect class="cls-1" x="194.77" y="452" width="409.46" height="14" transform="translate(-208.13 426.38) rotate(-45.89)"/><path class="cls-2" d="M262.08,614.41l-13.64-13.23L536.92,303.59l13.64,13.23Zm-6.57-13.34,6.46,6.27L543.49,316.93,537,310.66Z"/><rect class="cls-1" x="974.09" y="1004" width="215.82" height="14" transform="translate(-330.1 1456.88) rotate(-60.58)"/><path class="cls-2" d="M1036.05,1111.84l-16.55-9.33L1128,910.16l16.55,9.33Zm-9.74-11.23,7.84,4.42,103.54-183.64-7.84-4.42Z"/><rect class="cls-1" x="1158.5" y="911.89" width="14" height="187.22" transform="translate(-264.02 434.62) rotate(-19.02)"/><path class="cls-2" d="M1187.83,1099.46,1125.2,917.73l18-6.19,62.63,181.73Zm-56.27-178.63,59.37,172.27,8.51-2.93L1140.07,917.9Z"/><rect class="cls-1" x="187.6" y="920.5" width="473.8" height="14" transform="translate(-527.18 560.4) rotate(-44.31)"/><path class="cls-2" d="M259.85,1101.54,246.57,1088l1.79-1.75L589.15,753.46l13.28,13.59-1.79,1.75Zm-6.2-13.51,6.28,6.44L595.35,767l-6.28-6.44Z"/><rect class="cls-1" x="351.56" y="1075.5" width="413.88" height="14" transform="translate(-558.15 1569.13) rotate(-86.26)"/><path class="cls-2" d="M554.32,1292.12l-19-1.25,27.32-418,19,1.25Zm-13.65-5.91,9,.59,26.68-408-9-.59Z"/><path d="M631.31,330.52H505.2c-5,0-16.05.46-16.05-4.58L493.74,303c0-5,6.42-9.17,11.46-9.17h133a9.2,9.2,0,0,1,9.17,9.17l-6.88,22.93C635.89,330.52,636.35,330.52,631.31,330.52Z"/><path class="cls-2" d="M502.84,333c-6.12,0-11.72-.35-14.53-3.15a5.42,5.42,0,0,1-1.66-3.94l.05-.49,4.54-22.71c.2-5.34,6.23-11.4,14-11.4h133A11.68,11.68,0,0,1,649.86,303v.37l-7.17,23.88-1.48,1.49c-4,4-4.61,4.27-9.9,4.27H502.84Zm-11.17-6.93a.66.66,0,0,0,.16.24c1.77,1.75,9.07,1.71,12.18,1.69h127.3a11.8,11.8,0,0,0,3.49-.23,14.52,14.52,0,0,0,2.86-2.56l.61-.61,6.58-21.95a6.68,6.68,0,0,0-6.66-6.33h-133c-3.91,0-9,3.23-9,6.67l-.05.49Z"/><path d="M1286.31,1224.52H1160.2c-5,0-16,.46-16-4.58l4.59-22.93c0-5,6.42-9.17,11.46-9.17h133a9.2,9.2,0,0,1,9.17,9.17l-6.88,22.93C1290.89,1224.52,1291.35,1224.52,1286.31,1224.52Z"/><path class="cls-2" d="M1157.84,1227c-6.12,0-11.72-.35-14.53-3.15a5.42,5.42,0,0,1-1.66-3.94l0-.49,4.54-22.71c.2-5.34,6.23-11.4,14-11.4h133a11.69,11.69,0,0,1,11.67,11.67v.37l-7.17,23.88-1.48,1.49c-4,4-4.61,4.27-9.9,4.27H1157.84Zm-11.17-6.93a.66.66,0,0,0,.16.24c1.77,1.75,9.06,1.7,12.18,1.69h127.3a11.8,11.8,0,0,0,3.49-.23,14.52,14.52,0,0,0,2.86-2.56l.61-.61,6.58-21.95a6.68,6.68,0,0,0-6.66-6.33h-133c-3.91,0-9,3.23-9,6.67l0,.49Z"/><path d="M578.31,1408.52H452.2c-5,0-16.05.46-16.05-4.58l4.59-22.93c0-5,6.42-9.17,11.46-9.17h133a9.2,9.2,0,0,1,9.17,9.17l-6.88,22.93C582.89,1408.52,583.35,1408.52,578.31,1408.52Z"/><path class="cls-2" d="M449.84,1411c-6.12,0-11.72-.35-14.53-3.15a5.42,5.42,0,0,1-1.66-3.94l.05-.49,4.54-22.71c.2-5.34,6.23-11.4,14-11.4h133A11.69,11.69,0,0,1,596.86,1381v.37l-7.17,23.88-1.48,1.49c-4,4-4.61,4.27-9.9,4.27H449.84Zm-11.17-6.93a.66.66,0,0,0,.16.24c1.77,1.75,9.06,1.71,12.18,1.69h127.3a11.8,11.8,0,0,0,3.49-.23,14.52,14.52,0,0,0,2.86-2.56l.61-.61,6.58-21.95a6.68,6.68,0,0,0-6.66-6.33h-133c-3.91,0-9,3.23-9,6.67l-.05.49Z"/><path d="M1180.15,935.8H1054c-5,0-16,.45-16-4.59l4.59-22.93c0-5,6.42-9.17,11.46-9.17h133a9.2,9.2,0,0,1,9.17,9.17l-6.88,22.93C1184.74,935.8,1185.2,935.8,1180.15,935.8Z"/><path class="cls-2" d="M1051.68,938.3c-6.12,0-11.72-.35-14.53-3.15a5.45,5.45,0,0,1-1.65-3.94l0-.49,4.55-22.71c.2-5.34,6.22-11.4,14-11.4h133a11.68,11.68,0,0,1,11.67,11.67v.37l-7.16,23.88-1.49,1.49c-4,4-4.6,4.28-9.9,4.28H1051.68Zm-11.17-6.93a.59.59,0,0,0,.16.24c1.77,1.75,9.06,1.7,12.18,1.69h127.3a11.32,11.32,0,0,0,3.49-.24,14.52,14.52,0,0,0,2.86-2.56l.61-.61,6.58-21.95a6.67,6.67,0,0,0-6.66-6.33H1054c-3.91,0-9,3.24-9,6.67l0,.49Z"/><path d="M1047.17,1224.7H921.06c-5,0-16,.45-16-4.59l4.58-22.93c0-5,6.42-9.17,11.47-9.17h133a9.2,9.2,0,0,1,9.18,9.17l-6.88,22.93C1051.75,1224.7,1052.21,1224.7,1047.17,1224.7Z"/><path class="cls-2" d="M918.7,1227.21c-6.12,0-11.73-.36-14.54-3.16a5.43,5.43,0,0,1-1.65-3.94l0-.49,4.54-22.71c.2-5.33,6.23-11.4,14-11.4h133a11.69,11.69,0,0,1,11.68,11.67v.37l-7.17,23.88-1.48,1.49c-4,4-4.61,4.28-9.9,4.28H918.7Zm-11.17-6.94a.46.46,0,0,0,.16.24c1.76,1.75,9.06,1.71,12.18,1.69h127.3a11.24,11.24,0,0,0,3.48-.24,14.12,14.12,0,0,0,2.86-2.55l.61-.62,6.59-22a6.68,6.68,0,0,0-6.67-6.33h-133c-3.91,0-9,3.24-9,6.67l0,.49Z"/><path d="M318.17,1241.7H192.06c-5.05,0-16.05.45-16.05-4.59l4.58-22.93c0-5,6.42-9.17,11.47-9.17H325a9.2,9.2,0,0,1,9.18,9.17l-6.88,22.93C322.75,1241.7,323.21,1241.7,318.17,1241.7Z"/><path class="cls-2" d="M189.7,1244.21c-6.13,0-11.73-.36-14.54-3.16a5.43,5.43,0,0,1-1.65-3.94l.05-.49,4.54-22.71c.2-5.33,6.23-11.4,14-11.4H325a11.69,11.69,0,0,1,11.68,11.67v.37l-7.17,23.88-1.48,1.49c-4,4-4.61,4.28-9.9,4.28H189.7Zm-11.17-6.94a.46.46,0,0,0,.16.24c1.76,1.75,9.06,1.71,12.17,1.69H318.17a11.24,11.24,0,0,0,3.48-.24,14,14,0,0,0,2.86-2.56l.61-.61,6.59-22a6.68,6.68,0,0,0-6.67-6.33h-133c-3.91,0-9,3.24-9,6.67l0,.49Z"/><path d="M331.79,761.54H205.69c-5.05,0-16.05.46-16.05-4.59L194.22,734c0-5,6.42-9.17,11.47-9.17h133a9.2,9.2,0,0,1,9.17,9.17L341,757C336.38,761.54,336.84,761.54,331.79,761.54Z"/><path class="cls-2" d="M203.33,764.05c-6.12,0-11.73-.36-14.54-3.15a5.47,5.47,0,0,1-1.65-3.95l.05-.49,4.54-22.71c.2-5.33,6.23-11.4,14-11.4h133A11.68,11.68,0,0,1,350.34,734v.37l-7.16,23.89-1.49,1.49c-3.95,4-4.6,4.27-9.9,4.27H203.33Zm-11.18-6.94a.56.56,0,0,0,.17.24c1.76,1.76,9.06,1.71,12.18,1.69H331.79a11.28,11.28,0,0,0,3.49-.24,13.79,13.79,0,0,0,2.86-2.55l.61-.62,6.59-21.94a6.69,6.69,0,0,0-6.67-6.34h-133c-3.92,0-9,3.24-9,6.67l-.05.49Z"/><path d="M524.39,642.31H398.29c-5.05,0-16.05.46-16.05-4.59l4.58-22.92c0-5,6.42-9.18,11.47-9.18h133a9.2,9.2,0,0,1,9.17,9.18l-6.87,22.92C529,642.31,529.44,642.31,524.39,642.31Z"/><path class="cls-2" d="M395.93,644.82c-6.13,0-11.73-.36-14.54-3.15a5.47,5.47,0,0,1-1.65-3.95l.05-.49,4.54-22.71c.2-5.33,6.23-11.4,14-11.4h133a11.69,11.69,0,0,1,11.67,11.68v.36l-7.16,23.89-1.49,1.49c-3.95,4-4.6,4.27-9.9,4.27H395.93Zm-11.17-6.94a.46.46,0,0,0,.16.24c1.76,1.76,9.06,1.72,12.17,1.69h127.3a11.76,11.76,0,0,0,3.49-.23,14,14,0,0,0,2.86-2.56l.61-.61,6.59-21.95a6.69,6.69,0,0,0-6.67-6.34h-133c-3.92,0-9,3.24-9,6.68l-.05.49Z"/><path d="M969.21,559.77H843.1c-5,0-16.05.46-16.05-4.59l4.59-22.93c0-5,6.42-9.17,11.46-9.17h133a9.2,9.2,0,0,1,9.17,9.17l-6.88,22.93C973.79,559.77,974.25,559.77,969.21,559.77Z"/><path class="cls-2" d="M840.74,562.28c-6.12,0-11.72-.36-14.53-3.16a5.4,5.4,0,0,1-1.66-3.94l.05-.49L829.14,532c.2-5.33,6.23-11.4,14-11.4h133a11.69,11.69,0,0,1,11.67,11.67v.37l-7.17,23.88L979.11,558c-4,4-4.61,4.28-9.9,4.28H840.74Zm-11.17-6.94a.53.53,0,0,0,.16.24c1.77,1.76,9.06,1.71,12.18,1.69h127.3a11.32,11.32,0,0,0,3.49-.24,14.7,14.7,0,0,0,2.86-2.55l.61-.62,6.58-22a6.68,6.68,0,0,0-6.66-6.33h-133c-3.91,0-9,3.24-9,6.67l0,.49Z"/><path d="M1207.67,596.45H1081.56c-5,0-16,.46-16-4.58l4.58-22.93c0-5.05,6.43-9.17,11.47-9.17h133a9.2,9.2,0,0,1,9.17,9.17l-6.88,22.93C1212.25,596.45,1212.71,596.45,1207.67,596.45Z"/><path class="cls-2" d="M1079.2,599c-6.12,0-11.72-.35-14.54-3.15a5.45,5.45,0,0,1-1.65-3.94l0-.49,4.54-22.71c.2-5.34,6.23-11.4,14-11.4h133a11.69,11.69,0,0,1,11.68,11.67v.37l-7.17,23.88-1.48,1.49c-4,4-4.61,4.27-9.9,4.27H1079.2ZM1068,592a.48.48,0,0,0,.16.23c1.76,1.76,9.06,1.72,12.18,1.7h127.3a11.72,11.72,0,0,0,3.48-.23,14,14,0,0,0,2.86-2.56l.61-.61,6.59-21.95a6.68,6.68,0,0,0-6.67-6.33h-133c-3.91,0-9,3.23-9,6.67l0,.49Z"/><rect x="496.03" y="147.1" width="151.33" height="128.4" rx="5" ry="5"/><path class="cls-2" d="M642.36,278H501a7.51,7.51,0,0,1-7.5-7.5V152.1a7.5,7.5,0,0,1,7.5-7.5H642.36a7.51,7.51,0,0,1,7.5,7.5V270.5A7.52,7.52,0,0,1,642.36,278ZM501,149.6a2.5,2.5,0,0,0-2.5,2.5V270.5A2.51,2.51,0,0,0,501,273H642.36a2.51,2.51,0,0,0,2.5-2.5V152.1a2.5,2.5,0,0,0-2.5-2.5Z"/><rect x="1151.03" y="1041.1" width="151.33" height="128.4" rx="5" ry="5"/><path class="cls-2" d="M1297.36,1172H1156a7.51,7.51,0,0,1-7.5-7.5V1046.1a7.5,7.5,0,0,1,7.5-7.5h141.33a7.51,7.51,0,0,1,7.5,7.5v118.4A7.52,7.52,0,0,1,1297.36,1172ZM1156,1043.6a2.5,2.5,0,0,0-2.5,2.5v118.4a2.5,2.5,0,0,0,2.5,2.5h141.33a2.5,2.5,0,0,0,2.5-2.5V1046.1a2.5,2.5,0,0,0-2.5-2.5Z"/><rect x="443.03" y="1225.1" width="151.33" height="128.4" rx="5" ry="5"/><path class="cls-2" d="M589.36,1356H448a7.51,7.51,0,0,1-7.5-7.5V1230.1a7.5,7.5,0,0,1,7.5-7.5H589.36a7.51,7.51,0,0,1,7.5,7.5v118.4A7.52,7.52,0,0,1,589.36,1356ZM448,1227.6a2.5,2.5,0,0,0-2.5,2.5v118.4a2.5,2.5,0,0,0,2.5,2.5H589.36a2.5,2.5,0,0,0,2.5-2.5V1230.1a2.5,2.5,0,0,0-2.5-2.5Z"/><rect x="1044.87" y="752.37" width="151.33" height="128.4" rx="5" ry="5"/><path class="cls-2" d="M1191.2,883.27H1049.87a7.52,7.52,0,0,1-7.5-7.5V757.37a7.51,7.51,0,0,1,7.5-7.5H1191.2a7.5,7.5,0,0,1,7.5,7.5v118.4A7.51,7.51,0,0,1,1191.2,883.27Zm-141.33-128.4a2.51,2.51,0,0,0-2.5,2.5v118.4a2.51,2.51,0,0,0,2.5,2.5H1191.2a2.5,2.5,0,0,0,2.5-2.5V757.37a2.5,2.5,0,0,0-2.5-2.5Z"/><rect x="911.89" y="1041.27" width="151.33" height="128.4" rx="5" ry="5"/><path class="cls-2" d="M1058.22,1172.17H916.89a7.51,7.51,0,0,1-7.5-7.5v-118.4a7.5,7.5,0,0,1,7.5-7.5h141.33a7.51,7.51,0,0,1,7.5,7.5v118.4A7.52,7.52,0,0,1,1058.22,1172.17Zm-141.33-128.4a2.5,2.5,0,0,0-2.5,2.5v118.4a2.5,2.5,0,0,0,2.5,2.5h141.33a2.51,2.51,0,0,0,2.5-2.5v-118.4a2.51,2.51,0,0,0-2.5-2.5Z"/><rect x="182.89" y="1058.27" width="151.33" height="128.4" rx="5" ry="5"/><path class="cls-2" d="M329.22,1189.17H187.89a7.51,7.51,0,0,1-7.5-7.5v-118.4a7.5,7.5,0,0,1,7.5-7.5H329.22a7.51,7.51,0,0,1,7.5,7.5v118.4A7.52,7.52,0,0,1,329.22,1189.17Zm-141.33-128.4a2.5,2.5,0,0,0-2.5,2.5v118.4a2.5,2.5,0,0,0,2.5,2.5H329.22a2.51,2.51,0,0,0,2.5-2.5v-118.4a2.51,2.51,0,0,0-2.5-2.5Z"/><rect x="196.52" y="578.11" width="151.33" height="128.4" rx="5" ry="5"/><path class="cls-2" d="M342.84,709H201.52a7.5,7.5,0,0,1-7.5-7.5V583.11a7.5,7.5,0,0,1,7.5-7.5H342.84a7.5,7.5,0,0,1,7.5,7.5v118.4A7.5,7.5,0,0,1,342.84,709ZM201.52,580.61a2.5,2.5,0,0,0-2.5,2.5v118.4a2.5,2.5,0,0,0,2.5,2.5H342.84a2.5,2.5,0,0,0,2.5-2.5V583.11a2.5,2.5,0,0,0-2.5-2.5Z"/><rect x="389.12" y="458.88" width="151.33" height="128.4" rx="5" ry="5"/><path class="cls-2" d="M535.44,589.78H394.12a7.5,7.5,0,0,1-7.5-7.5V463.88a7.51,7.51,0,0,1,7.5-7.5H535.44a7.51,7.51,0,0,1,7.5,7.5v118.4A7.5,7.5,0,0,1,535.44,589.78ZM394.12,461.38a2.5,2.5,0,0,0-2.5,2.5v118.4a2.5,2.5,0,0,0,2.5,2.5H535.44a2.5,2.5,0,0,0,2.5-2.5V463.88a2.5,2.5,0,0,0-2.5-2.5Z"/><rect x="833.93" y="376.34" width="151.33" height="128.4" rx="5" ry="5"/><path class="cls-2" d="M980.26,507.24H838.93a7.51,7.51,0,0,1-7.5-7.5V381.34a7.5,7.5,0,0,1,7.5-7.5H980.26a7.5,7.5,0,0,1,7.5,7.5v118.4A7.51,7.51,0,0,1,980.26,507.24ZM838.93,378.84a2.5,2.5,0,0,0-2.5,2.5v118.4a2.5,2.5,0,0,0,2.5,2.5H980.26a2.5,2.5,0,0,0,2.5-2.5V381.34a2.5,2.5,0,0,0-2.5-2.5Z"/><rect x="1072.39" y="413.02" width="151.33" height="128.4" rx="5" ry="5"/><path class="cls-2" d="M1218.72,543.92H1077.39a7.5,7.5,0,0,1-7.5-7.5V418a7.51,7.51,0,0,1,7.5-7.5h141.33a7.52,7.52,0,0,1,7.5,7.5v118.4A7.51,7.51,0,0,1,1218.72,543.92Zm-141.33-128.4a2.51,2.51,0,0,0-2.5,2.5v118.4a2.5,2.5,0,0,0,2.5,2.5h141.33a2.51,2.51,0,0,0,2.5-2.5V418a2.51,2.51,0,0,0-2.5-2.5Z"/><g id="coin"><path d="M966.79,920.6c-36.71,148.51-185.51,238.81-332.37,201.68S398.33,934.65,435.05,786.15s185.5-238.84,332.32-201.72S1003.5,772.08,966.79,920.6Z"/><path class="cls-1" d="M701.35,1132.66a274.75,274.75,0,0,1-67.42-8.44C562.4,1106.13,502.12,1061,464.19,997a280,280,0,0,1-31.08-211.33c18-72.86,63.09-134.1,127-172.43a271.68,271.68,0,0,1,207.78-30.75c71.54,18.09,131.84,63.27,169.78,127.23a280.09,280.09,0,0,1,31.09,211.36h0c-18,72.85-63.1,134.08-127,172.4A272.19,272.19,0,0,1,701.35,1132.66Zm-.87-554.6a268.15,268.15,0,0,0-138.35,38.61c-62.95,37.78-107.39,98.14-125.13,170A276,276,0,0,0,467.63,995c37.39,63,96.79,107.56,167.28,125.38a267.82,267.82,0,0,0,204.8-30.29c62.95-37.77,107.39-98.12,125.14-169.93l1.94.48-1.94-.48A276.15,276.15,0,0,0,934.2,711.76c-37.4-63-96.82-107.57-167.32-125.39A270.86,270.86,0,0,0,700.48,578.06Z"/></g><path d="M803.47,595c-101.79-43.21-241.83-29.08-323.62,56.52-105.72,110.57-103.63,279.93,5.26,385.15,22.51,21.74,52,40.94,77.15,55.37"/><path class="cls-1" d="M803.39,595.14,797,592.72l-3.18-1.21-3.22-1.09-6.44-2.18c-2.16-.68-4.34-1.3-6.51-2-4.31-1.37-8.72-2.43-13.09-3.61-2.18-.58-4.41-1-6.61-1.55s-4.4-1-6.63-1.44c-4.44-.84-8.87-1.76-13.35-2.39-2.24-.34-4.46-.72-6.7-1l-6.73-.81L721.2,575l-3.37-.3-6.75-.59c-2.25-.16-4.51-.25-6.77-.38s-4.5-.29-6.76-.3a329.14,329.14,0,0,0-54,2.55,310.09,310.09,0,0,0-52.66,11.68c-4.25,1.46-8.56,2.75-12.74,4.41l-6.31,2.38-6.2,2.61c-4.17,1.67-8.2,3.65-12.29,5.51-1,.46-2,1-3,1.48l-3,1.54c-2,1-4,2-6,3.11a249.35,249.35,0,0,0-44.05,30.63l-5,4.52-2.47,2.27-2.37,2.37-4.74,4.76c-1.55,1.61-3,3.31-4.54,5l-4.52,5c-.77.82-1.48,1.69-2.18,2.56l-2.14,2.6-4.27,5.2-1.07,1.3-1,1.35-2,2.7a278,278,0,0,0-28,45.79A269.09,269.09,0,0,0,405.73,828a265.44,265.44,0,0,0,2.35,53.67c.16,1.11.26,2.23.47,3.33l.61,3.31,1.2,6.62c.36,2.22.94,4.39,1.43,6.58l1.51,6.56.38,1.64.45,1.62.91,3.24,1.81,6.49c1.32,4.29,2.81,8.53,4.21,12.8a269.44,269.44,0,0,0,55.75,91.66l9.36,9.78c1.62,1.57,3.23,3.15,4.87,4.69s3.29,3.09,5,4.57c6.75,6,13.8,11.67,21,17.11s14.68,10.62,22.25,15.61,15.24,9.84,23,14.51l-.2.35a503.21,503.21,0,0,1-45.85-29.4c-7.35-5.35-14.51-11-21.39-16.89-1.74-1.46-3.4-3-5.1-4.52s-3.32-3.1-5-4.66l-9.57-9.7a271.67,271.67,0,0,1-57.14-92,268.39,268.39,0,0,1-16-107.12A272.79,272.79,0,0,1,429.42,723,280.67,280.67,0,0,1,458,676.64l2.05-2.73,1-1.36,1.09-1.32L466.5,666l2.17-2.63c.72-.88,1.44-1.76,2.22-2.59l4.6-5c1.54-1.67,3-3.39,4.61-5l4.84-4.81,2.41-2.41,2.52-2.29,5.06-4.58a253.25,253.25,0,0,1,44.79-30.93,283.27,283.27,0,0,1,50.25-21,312.55,312.55,0,0,1,53.26-11.3c2.25-.34,4.52-.49,6.78-.74s4.52-.48,6.78-.64l6.8-.45,3.4-.22,3.41-.11,6.81-.21c2.27,0,4.54,0,6.81,0,4.55-.06,9.09.17,13.63.32,2.27,0,4.53.25,6.8.39s4.53.3,6.79.49l6.78.69,3.39.35,3.38.46,6.75.92c2.25.34,4.48.75,6.72,1.13,4.49.69,8.92,1.69,13.38,2.59,2.23.42,4.42,1,6.63,1.55s4.43,1,6.61,1.65c4.37,1.25,8.78,2.37,13.08,3.82,2.16.7,4.33,1.37,6.49,2.09l6.41,2.31,3.2,1.16,3.16,1.27,6.32,2.54Z"/><path d="M803.47,595c-101.79-43.21-241.83-29.08-323.62,56.52-105.72,110.57-103.63,279.93,5.26,385.15,22.51,21.74,52,40.94,77.15,55.37"/><path class="cls-1" d="M803.39,595.14,797,592.72l-3.18-1.21-3.22-1.09-6.44-2.18c-2.16-.68-4.34-1.3-6.51-2-4.31-1.37-8.72-2.43-13.09-3.61-2.18-.58-4.41-1-6.61-1.55s-4.4-1-6.63-1.44c-4.44-.84-8.87-1.76-13.35-2.39-2.24-.34-4.46-.72-6.7-1l-6.73-.81L721.2,575l-3.37-.3-6.75-.59c-2.25-.16-4.51-.25-6.77-.38s-4.5-.29-6.76-.3a329.14,329.14,0,0,0-54,2.55,310.09,310.09,0,0,0-52.66,11.68c-4.25,1.46-8.56,2.75-12.74,4.41l-6.31,2.38-6.2,2.61c-4.17,1.67-8.2,3.65-12.29,5.51-1,.46-2,1-3,1.48l-3,1.54c-2,1-4,2-6,3.11a249.35,249.35,0,0,0-44.05,30.63l-5,4.52-2.47,2.27-2.37,2.37-4.74,4.76c-1.55,1.61-3,3.31-4.54,5l-4.52,5c-.77.82-1.48,1.69-2.18,2.56l-2.14,2.6-4.27,5.2-1.07,1.3-1,1.35-2,2.7a278,278,0,0,0-28,45.79A269.09,269.09,0,0,0,405.73,828a265.44,265.44,0,0,0,2.35,53.67c.16,1.11.26,2.23.47,3.33l.61,3.31,1.2,6.62c.36,2.22.94,4.39,1.43,6.58l1.51,6.56.38,1.64.45,1.62.91,3.24,1.81,6.49c1.32,4.29,2.81,8.53,4.21,12.8a269.44,269.44,0,0,0,55.75,91.66l9.36,9.78c1.62,1.57,3.23,3.15,4.87,4.69s3.29,3.09,5,4.57c6.75,6,13.8,11.67,21,17.11s14.68,10.62,22.25,15.61,15.24,9.84,23,14.51l-.2.35a503.21,503.21,0,0,1-45.85-29.4c-7.35-5.35-14.51-11-21.39-16.89-1.74-1.46-3.4-3-5.1-4.52s-3.32-3.1-5-4.66l-9.57-9.7a271.67,271.67,0,0,1-57.14-92,268.39,268.39,0,0,1-16-107.12A272.79,272.79,0,0,1,429.42,723,280.67,280.67,0,0,1,458,676.64l2.05-2.73,1-1.36,1.09-1.32L466.5,666l2.17-2.63c.72-.88,1.44-1.76,2.22-2.59l4.6-5c1.54-1.67,3-3.39,4.61-5l4.84-4.81,2.41-2.41,2.52-2.29,5.06-4.58a253.25,253.25,0,0,1,44.79-30.93,283.27,283.27,0,0,1,50.25-21,312.55,312.55,0,0,1,53.26-11.3c2.25-.34,4.52-.49,6.78-.74s4.52-.48,6.78-.64l6.8-.45,3.4-.22,3.41-.11,6.81-.21c2.27,0,4.54,0,6.81,0,4.55-.06,9.09.17,13.63.32,2.27,0,4.53.25,6.8.39s4.53.3,6.79.49l6.78.69,3.39.35,3.38.46,6.75.92c2.25.34,4.48.75,6.72,1.13,4.49.69,8.92,1.69,13.38,2.59,2.23.42,4.42,1,6.63,1.55s4.43,1,6.61,1.65c4.37,1.25,8.78,2.37,13.08,3.82,2.16.7,4.33,1.37,6.49,2.09l6.41,2.31,3.2,1.16,3.16,1.27,6.32,2.54Z"/><rect class="cls-1" x="541.54" y="605.04" width="30.5" height="4"/><rect class="cls-1" x="511.04" y="625.12" width="30.5" height="4"/><rect class="cls-1" x="486.5" y="645.2" width="31.24" height="4"/><rect class="cls-1" x="468.65" y="666.03" width="28.27" height="4"/><rect class="cls-1" x="453.77" y="685.37" width="26.78" height="4"/><rect class="cls-1" x="440.38" y="705.45" width="26.78" height="4"/><rect class="cls-1" x="430.71" y="725.54" width="26.03" height="4"/><rect class="cls-1" x="421.79" y="745.62" width="25.29" height="4"/><rect class="cls-1" x="415.09" y="765.7" width="24.55" height="4"/><rect class="cls-1" x="410.63" y="785.79" width="23.8" height="4"/><rect class="cls-1" x="406.91" y="806.61" width="23.8" height="4"/><rect class="cls-1" x="405.42" y="825.95" width="22.31" height="4"/><rect class="cls-1" x="403.93" y="846.04" width="23.06" height="4"/><rect class="cls-1" x="405.42" y="866.12" width="21.57" height="4"/><rect class="cls-1" x="408.4" y="886.2" width="20.83" height="4"/><rect class="cls-1" x="413.6" y="906.28" width="18.6" height="4"/><rect class="cls-1" x="418.81" y="926.37" width="18.6" height="4"/><rect class="cls-1" x="426.99" y="946.45" width="16.36" height="4"/><rect class="cls-1" x="435.92" y="966.53" width="15.62" height="4"/><rect class="cls-1" x="448.56" y="986.62" width="13.39" height="4"/><rect class="cls-1" x="462.7" y="1007.44" width="11.16" height="4"/><rect class="cls-1" x="479.8" y="1026.78" width="8.93" height="4"/><rect class="cls-1" x="502.12" y="1046.87" width="4.46" height="4"/><rect class="cls-1" x="587.66" y="585.7" width="31.98" height="4"/><g id="coin-2" data-name="coin"><path class="cls-3" d="M959.5,918.61c-35.68,144.74-180.63,232.82-323.77,196.73S405.56,932.65,441.26,787.92,621.88,555.06,765,591.15,995.18,773.86,959.5,918.61Z"/><path d="M700.8,1128a270.41,270.41,0,0,1-66.17-8.26c-70.37-17.75-129.69-62.15-167-125a275.39,275.39,0,0,1-30.7-207.83c17.66-71.68,62-131.94,124.78-169.68a267.25,267.25,0,0,1,204.4-30.37c70.38,17.74,129.72,62.15,167.08,125a275.49,275.49,0,0,1,30.72,207.85h0c-17.67,71.67-62,131.92-124.79,169.65A267.73,267.73,0,0,1,700.8,1128ZM700,587.53A258.76,258.76,0,0,0,566.3,624.87C505.57,661.37,462.71,719.66,445.63,789a266.47,266.47,0,0,0,29.7,201.08c36.12,60.81,93.47,103.75,161.5,120.9a258.39,258.39,0,0,0,197.62-29.35c60.73-36.49,103.59-94.77,120.68-164.09h0a266.56,266.56,0,0,0-29.71-201.1c-36.13-60.82-93.5-103.76-161.55-120.92A261.34,261.34,0,0,0,700,587.53Z"/></g><g id="symbol"><path class="cls-2" d="M818.12,814.76c5.32-36-21.75-55.28-58.76-68.17l12-48.7-29.31-7.39-11.69,47.42c-7.71-1.95-15.62-3.78-23.48-5.59l11.77-47.73-29.3-7.39-12,48.68c-6.38-1.47-12.64-2.92-18.72-4.45l0-.15-40.43-10.21-7.79,31.66s21.74,5,21.28,5.36c11.88,3,14,10.94,13.66,17.24L612.5,898.75c-1.45,3.65-5.13,9.12-13.43,7,.29.43-21.31-5.38-21.31-5.38l-14.55,33.93L601.35,944c7.1,1.8,14.06,3.68,20.9,5.45l-12.13,49.26,29.28,7.39,12-48.73c8,2.19,15.76,4.22,23.36,6.13l-12,48.5,29.31,7.39,12.13-49.17c50,9.57,87.57,5.71,103.39-40,12.74-36.81-.64-58-26.94-71.89,19.15-4.47,33.58-17.21,37.43-43.52Zm-67,95c-9.06,36.81-70.34,16.91-90.21,11.92L677,856.4C696.9,861.41,760.62,871.34,751.15,909.73Zm9.07-95.51c-8.27,33.49-59.28,16.48-75.82,12.31L699,767.34C715.54,771.51,768.82,779.29,760.22,814.22Z"/><path d="M693.94,1022.39l-34.16-8.61,12-48.51c-6.38-1.62-12.48-3.22-18.52-4.86l-12,48.69-34.12-8.61,12.13-49.28-5.87-1.54c-4.16-1.1-8.36-2.21-12.62-3.29l-41-10.33,16.56-38.62,2.09.57c5.26,1.41,10.92,2.9,15,4l-.12-.18,6.35,1.59c5,1.24,8.47-.57,10.45-5.38l32.79-133c.34-7.52-3.62-12.39-11.79-14.45l-5.39-1.36.2-.14c-4.14-1-10.34-2.52-16-3.84l-2.47-.57,9-36.57,45.21,11.42,0,.14c4.54,1.12,9.19,2.21,13.92,3.3l12-48.73,34.14,8.61-11.76,47.68c5.9,1.36,12.31,2.86,18.62,4.42l11.69-47.42,34.16,8.61L762.33,745c28.63,10.24,64.39,28.69,58.26,70.14-3.33,22.76-14.58,37.51-33.47,43.93,26.54,16.17,34,39.76,22.87,71.94-7.75,22.4-21,36.24-40.5,42.31-15.74,4.9-35.93,4.83-63.39-.22Zm-28.12-12.25,24.46,6.17,12.1-49,2.33.45c27.81,5.32,47.93,5.57,63.29.79,17.88-5.56,30.07-18.37,37.26-39.16,11.06-31.92,2.88-53.8-25.73-68.87l-5.93-3.12,6.53-1.52c20.23-4.73,32.18-18.67,35.52-41.46h0C820,784.84,801.87,764,758.54,749l-2.15-.75,12-48.5-24.47-6.16L732.2,741l-2.44-.61c-7.92-2-16.16-3.9-23.44-5.58l-2.47-.57,11.78-47.78-24.44-6.16-12,48.63-2.4-.55c-6.42-1.48-12.68-2.93-18.77-4.46l-2.35-.59,0-.16-35.64-9-6.59,26.76c11.91,2.76,16.85,3.93,19,4.82,14.19,3.64,15.76,13.95,15.43,19.78l-.07.46L614.89,899.51l-.07.16c-2.86,7.18-9,10.38-16.31,8.56-1.69-.22-4.76-1-10.8-2.6-3.24-.84-6.48-1.7-8.5-2.24l-12.55,29.25,35.31,8.9c4.27,1.08,8.49,2.19,12.66,3.29l8.25,2.17,2.39.61-12.13,49.25,24.43,6.16,12-48.78,2.47.68c7.58,2.07,15.2,4.07,23.31,6.11l2.41.61ZM715.05,934c-17.45,0-36.69-5.14-49-8.44-2.13-.57-4-1.08-5.67-1.49l-2.42-.61,17.3-70.11,2.43.61c2,.5,4.37,1,7.15,1.67,18.7,4.25,53.52,12.15,65.52,31.59,4.25,6.88,5.35,14.66,3.27,23.1a27.83,27.83,0,0,1-13.08,18C733.48,932.49,724.53,934,715.05,934ZM664,919.85l3.34.89c18.35,4.9,52.51,14,70.66,3.29,5.59-3.3,9.11-8.18,10.76-14.9h0c1.78-7.19.9-13.5-2.67-19.28-10.89-17.65-44.38-25.25-62.37-29.33l-4.82-1.1Zm64.24-82.8c-14.32,0-29.72-4.16-39.65-6.84-1.79-.48-3.4-.92-4.76-1.26l-2.42-.61,15.79-64,2.44.62c1.64.41,3.65.86,6,1.38,16.35,3.66,43.71,9.79,54.07,26.51,4,6.46,5,13.86,3,22h0c-1.9,7.71-6.07,13.51-12.39,17.24S736.29,837.05,728.2,837.05Zm-40.79-12.32,2.45.65c14.83,4,42.43,11.46,57.85,2.37,5.19-3.06,8.49-7.68,10.08-14.13,1.7-6.89.91-12.83-2.39-18.17-9.25-14.94-36.35-21-50.91-24.27l-3.67-.83Z"/></g></svg>