<svg id="bitcoin" xmlns="http://www.w3.org/2000/svg" viewBox="0 0 1500 1500"><defs><style>.cls-1{fill:#fff;}.cls-2{fill:#f7931a;}.cls-3{fill:#b3b3b3;}.cls-4{fill:#d6d238;}</style></defs><title>art-meets-bitcoin-illustrations-1Artboard 54 copy 27</title><path d="M1349.21,690.9c-6.18-5.25-154.06-130.15-388.93-256.72-138-74.39-277.39-133.68-414.22-176.25C374.3,204.5,206,177.41,45.83,177.41c-9.91,0-19.94.1-29.8.31q-7.85.17-15.69.4h0v1161.7h0c5.23.15,10.47.29,15.72.39,9,.18,18.07.28,27.09.28h.05c168.1,0,341.63-31.48,515.77-93.55,138.73-49.44,278.16-118.32,414.44-204.71,231.8-147,372.57-292,378.45-298.12l27-28Z"/><path class="cls-1" d="M16.79,214.27q-8.22.16-16.45.43V1303.24q8.21.26,16.45.42c731.14,14.63,1308.74-584.91,1308.74-584.91S715,199.64,16.79,214.27Z"/><path class="cls-2" d="M42.92,1311.93q-13.17,0-26.29-.27c-5-.1-10.23-.23-16.53-.42l-7.76-.23V207l7.75-.25c5.51-.17,11.08-.32,16.53-.43h0c160.12-3.36,328.84,21.2,501.53,73C656.17,320.65,797,379.43,936.77,454c237.91,126.88,392.41,257.38,393.94,258.69l6.49,5.51-5.91,6.13c-.36.38-37.12,38.4-102.24,94a2419.6,2419.6,0,0,1-279.46,205.18C812.17,1109.75,671.79,1177.9,532.34,1226,367,1283.06,202.45,1311.92,42.92,1311.93ZM8.34,1295.47l8.61.2c165.82,3.32,337.47-25.21,510.17-84.79,138.3-47.71,277.58-115.32,414-201,205.62-129.11,342.82-261,372.61-290.59-31.91-26.05-176-140.1-384.8-251.43-138.79-74-278.6-132.33-415.56-173.38-171-51.26-338-75.57-496.37-72.25h0c-2.85,0-5.73.12-8.62.2Z"/><path class="cls-3" d="M.34,213.05V1301.23c300.5,0,544.09-243.6,544.09-544.09S300.84,213.05.34,213.05Z"/><path d="M.34,223.72V1290.56c294.6,0,533.42-238.82,533.42-533.42S294.94,223.72.34,223.72Z"/><path class="cls-4" d="M.34,244.73V1269.54c283,0,512.4-229.41,512.4-512.4S283.33,244.73.34,244.73Z"/><polygon points="5.14 788.24 175.18 1255.4 185.48 1251.65 15.45 784.48 5.14 772.2 5.14 788.24"/><polygon points="1.56 767.94 1.48 768.15 1.48 778.19 5.14 788.24 5.14 772.2 1.56 767.94"/><polygon points="15.45 784.48 335.01 1165.32 343.41 1158.28 23.84 777.43 9.96 769.42 15.45 784.48"/><polygon points="5.14 766.63 5.14 772.2 15.45 784.48 9.96 769.42 5.14 766.63"/><polygon points="1.56 767.94 5.14 772.2 5.14 766.63 2.57 765.15 1.56 767.94"/><polygon points="23.84 777.43 454.39 1026.01 459.87 1016.51 29.33 767.94 13.54 765.15 23.84 777.43"/><polygon points="8.06 764.19 9.96 769.42 23.84 777.43 13.54 765.15 8.06 764.19"/><polygon points="5.14 766.63 9.96 769.42 8.06 764.19 5.14 763.67 5.14 766.63"/><polygon points="3.23 763.34 2.57 765.15 5.14 766.63 5.14 763.67 3.23 763.34"/><polygon points="15.45 759.92 29.33 767.94 518.93 854.27 520.83 843.46 31.24 757.14 15.45 759.92"/><polygon points="9.96 760.89 13.54 765.15 29.33 767.94 15.45 759.92 9.96 760.89"/><polygon points="8.06 764.19 13.54 765.15 9.96 760.89 7.04 761.4 8.06 764.19"/><polygon points="5.14 761.74 5.14 763.67 8.06 764.19 7.04 761.4 5.14 761.74"/><polygon points="3.23 763.34 5.14 763.67 5.14 761.74 3.73 761.99 3.23 763.34"/><polygon points="31.24 757.14 520.83 670.81 518.93 660.01 29.33 746.34 15.45 754.35 31.24 757.14"/><polygon points="10.62 757.14 15.45 759.92 31.24 757.14 15.45 754.35 10.62 757.14"/><polygon points="8.06 758.62 9.96 760.89 15.45 759.92 10.62 757.14 8.06 758.62"/><polygon points="6.38 759.59 7.04 761.4 9.96 760.89 8.06 758.62 6.38 759.59"/><polygon points="5.14 761.74 7.04 761.4 6.38 759.59 5.14 760.3 5.14 761.74"/><polygon points="4.13 760.89 3.73 761.99 5.14 761.74 5.14 760.3 4.13 760.89"/><polygon points="29.33 746.34 459.87 497.76 454.39 488.26 23.84 736.84 13.54 749.12 29.33 746.34"/><polygon points="9.96 753.39 15.45 754.35 29.33 746.34 13.54 749.12 9.96 753.39"/><polygon points="10.62 757.14 15.45 754.35 9.96 753.39 8.06 755.66 10.62 757.14"/><polygon points="6.81 757.14 8.06 758.62 10.62 757.14 8.06 755.66 6.81 757.14"/><polygon points="5.89 758.24 6.38 759.59 8.06 758.62 6.81 757.14 5.89 758.24"/><polygon points="5.14 759.13 5.14 760.3 6.38 759.59 5.89 758.24 5.14 759.13"/><polygon points="4.13 760.89 5.14 760.3 5.14 759.13 4.48 759.92 4.13 760.89"/><polygon points="23.84 736.84 343.41 356 335.01 348.95 15.45 729.79 9.96 744.86 23.84 736.84"/><polygon points="8.06 750.09 13.54 749.12 23.84 736.84 9.96 744.86 8.06 750.09"/><polygon points="9.96 753.39 13.54 749.12 8.06 750.09 7.04 752.87 9.96 753.39"/><polygon points="6.38 754.69 8.06 755.66 9.96 753.39 7.04 752.87 6.38 754.69"/><polygon points="6.81 757.14 8.06 755.66 6.38 754.69 5.89 756.04 6.81 757.14"/><polygon points="5.49 757.14 5.89 758.24 6.81 757.14 5.89 756.04 5.49 757.14"/><polygon points="5.14 758.1 5.14 759.13 5.89 758.24 5.49 757.14 5.14 758.1"/><polygon points="4.48 759.92 5.14 759.13 5.14 758.1 4.48 759.92"/><polygon points="15.45 729.79 185.48 262.62 175.18 258.87 5.14 726.04 5.14 742.07 15.45 729.79"/><polygon points="1.48 746.13 1.56 746.34 5.14 742.07 5.14 726.04 1.48 736.09 1.48 746.13"/><polygon points="1.48 768.15 1.56 767.94 1.48 767.85 1.48 768.15"/><polygon points="1.56 746.34 1.48 746.13 1.48 746.43 1.56 746.34"/><polygon points="1.48 764.52 1.48 767.85 1.56 767.94 2.57 765.15 1.48 764.52"/><polygon points="1.48 763.49 1.48 764.52 2.57 765.15 3.23 763.34 1.82 763.09 1.48 763.49"/><polygon points="2.57 762.19 1.82 763.09 3.23 763.34 3.73 761.99 2.57 762.19"/><polygon points="2.57 762.19 3.73 761.99 4.13 760.89 3.23 761.4 2.57 762.19"/><polygon points="3.23 761.4 4.13 760.89 4.48 759.92 3.23 761.4"/><polygon points="5.14 747.64 9.96 744.86 15.45 729.79 5.14 742.07 5.14 747.64"/><polygon points="5.14 747.64 5.14 742.07 1.56 746.34 2.57 749.12 5.14 747.64"/><polygon points="1.48 749.75 2.57 749.12 1.56 746.34 1.48 746.43 1.48 749.75"/><polygon points="1.48 763.49 1.82 763.09 1.48 763.03 1.48 763.49"/><polygon points="1.48 762.41 1.48 763.03 1.82 763.09 2.57 762.19 1.55 762.37 1.48 762.41"/><polygon points="1.55 762.37 2.57 762.19 3.23 761.4 1.55 762.37"/><polygon points="8.06 750.09 9.96 744.86 5.14 747.64 5.14 750.6 8.06 750.09"/><polygon points="3.23 750.94 5.14 750.6 5.14 747.64 2.57 749.12 3.23 750.94"/><polygon points="1.82 751.19 3.23 750.94 2.57 749.12 1.48 749.75 1.48 750.79 1.82 751.19"/><polygon points="1.82 751.19 1.48 750.79 1.48 751.25 1.82 751.19"/><polygon points="1.48 762.41 1.55 762.37 1.48 762.38 1.48 762.41"/><polygon points="5.14 752.53 7.04 752.87 8.06 750.09 5.14 750.6 5.14 752.53"/><polygon points="5.14 752.53 5.14 750.6 3.23 750.94 3.73 752.29 5.14 752.53"/><polygon points="2.57 752.08 3.73 752.29 3.23 750.94 1.82 751.19 2.57 752.08"/><polygon points="1.48 751.86 1.55 751.9 2.57 752.08 1.82 751.19 1.48 751.25 1.48 751.86"/><polygon points="1.55 751.9 1.48 751.86 1.48 751.89 1.55 751.9"/><polygon points="6.38 754.69 7.04 752.87 5.14 752.53 5.14 753.97 6.38 754.69"/><polygon points="4.13 753.39 5.14 753.97 5.14 752.53 3.73 752.29 4.13 753.39"/><polygon points="4.13 753.39 3.73 752.29 2.57 752.08 3.23 752.87 4.13 753.39"/><polygon points="3.23 752.87 2.57 752.08 1.55 751.9 3.23 752.87"/><polygon points="5.14 755.14 5.89 756.04 6.38 754.69 5.14 753.97 5.14 755.14"/><polygon points="5.14 755.14 5.14 753.97 4.13 753.39 4.48 754.35 5.14 755.14"/><polygon points="4.48 754.35 4.13 753.39 3.23 752.87 4.48 754.35"/><polygon points="5.49 757.14 5.89 756.04 5.14 755.14 5.14 756.17 5.49 757.14"/><polygon points="5.14 756.17 5.14 755.14 4.48 754.35 5.14 756.17"/><polygon points="5.14 758.1 5.49 757.14 5.14 756.17 5.14 758.1"/><polygon points="4.48 754.35 3.23 752.87 1.55 751.9 1.48 751.89 1.48 762.38 1.55 762.37 3.23 761.4 4.48 759.92 5.14 758.1 5.14 756.17 4.48 754.35"/><polygon points="1.48 778.19 -0.34 773.17 -2.17 778.19 -5.83 788.24 -5.83 1285.39 -2.17 1285.39 1.48 1285.39 5.14 1285.39 5.14 788.24 1.48 778.19"/><polygon points="1.48 228.89 -2.17 228.89 -5.83 228.89 -5.83 726.04 -2.17 736.09 -0.34 741.11 1.48 736.09 5.14 726.04 5.14 228.89 1.48 228.89"/><polygon class="cls-1" points="1.48 778.19 1.48 768.15 -0.34 773.17 1.48 778.19"/><polygon class="cls-1" points="1.48 736.09 -0.34 741.11 1.48 746.13 1.48 736.09"/><polygon class="cls-1" points="-0.34 765.67 -2.17 767.85 -2.17 768.15 -0.34 773.17 1.48 768.15 1.48 767.85 -0.34 765.67"/><polygon class="cls-1" points="-0.34 748.61 1.48 746.43 1.48 746.13 -0.34 741.11 -2.17 746.13 -2.17 746.43 -0.34 748.61"/><polygon class="cls-1" points="-0.34 765.67 1.48 767.85 1.48 764.52 0.9 764.19 -0.34 765.67"/><polygon class="cls-1" points="0.9 764.19 1.48 764.52 1.48 763.49 0.9 764.19"/><polygon class="cls-1" points="1.48 749.75 1.48 746.43 -0.34 748.61 0.9 750.09 1.48 749.75"/><polygon class="cls-1" points="-0.34 750.81 0.9 750.09 -0.34 748.61 -1.59 750.09 -0.34 750.81"/><polygon class="cls-1" points="-0.34 763.47 -1.59 764.19 -0.34 765.67 0.9 764.19 -0.34 763.47"/><polygon class="cls-1" points="0.67 762.89 -0.34 763.47 0.9 764.19 1.48 763.49 1.48 763.03 0.67 762.89"/><polygon class="cls-1" points="1.48 763.03 1.48 762.41 0.67 762.89 1.48 763.03"/><polygon class="cls-1" points="1.48 750.79 1.48 749.75 0.9 750.09 1.48 750.79"/><polygon class="cls-1" points="1.48 751.25 1.48 750.79 0.9 750.09 -0.34 750.81 0.67 751.39 1.48 751.25"/><polygon class="cls-1" points="-0.34 751.57 0.67 751.39 -0.34 750.81 -1.35 751.39 -0.34 751.57"/><polygon class="cls-1" points="-0.34 762.71 -1.35 762.89 -0.34 763.47 0.67 762.89 -0.34 762.71"/><polygon class="cls-1" points="-0.34 762.71 0.67 762.89 1.48 762.41 1.48 762.38 -0.34 762.71"/><polygon class="cls-1" points="1.48 751.25 0.67 751.39 1.48 751.86 1.48 751.25"/><polygon class="cls-1" points="1.48 751.86 0.67 751.39 -0.34 751.57 1.48 751.89 1.48 751.86"/><polygon class="cls-1" points="1.48 751.89 -0.34 751.57 -2.17 751.89 -2.17 762.38 -0.34 762.71 1.48 762.38 1.48 751.89"/><path d="M56.53,497.9C69.59,441,109.94,394,117.67,335.49c.25-1.91-2.76-1.89-3,0-7.69,58.13-48,105-61,161.61-.43,1.88,2.46,2.68,2.89.8Z"/><path d="M31.16,503.63Q29.29,476.35,29.59,449c.22-17.29.24-35.2,4.32-52.09,3.87-16,10.21-30.95,12.23-47.45A144.6,144.6,0,0,0,43.53,300c-.43-1.89-3.32-1.09-2.9.79a141.61,141.61,0,0,1,2.08,51.86c-2.5,16.8-9.73,32.22-12.85,48.83-3,16.2-3.13,33-3.29,49.43q-.26,26.38,1.59,52.7c.13,1.92,3.13,1.93,3,0Z"/><path d="M119.55,518.9q52.4-99.09,98.3-201.43c.78-1.75-1.8-3.27-2.59-1.51Q169.38,418.23,117,517.39c-.9,1.7,1.69,3.22,2.59,1.51Z"/><path d="M148,526.85a461.59,461.59,0,0,0,56.12-69.71c1.06-1.62-1.53-3.12-2.59-1.51a458.75,458.75,0,0,1-55.65,69.1c-1.35,1.38.77,3.5,2.12,2.12Z"/><path d="M204.71,566.86l67-61.71c21.72-20,43.13-40.42,66-59.07,1.5-1.21-.64-3.33-2.12-2.12C312.73,462.6,291.32,483,269.6,503l-67,61.71c-1.43,1.31.7,3.43,2.12,2.12Z"/><path d="M217.38,586.09l48.86-34.77c1.56-1.11.06-3.72-1.51-2.59L215.87,583.5c-1.56,1.11-.06,3.71,1.51,2.59Z"/><path d="M236.94,656.57c46.62-27.5,103.3-22.93,153-41.31a133.9,133.9,0,0,0,36.28-19.9c1.51-1.19-.62-3.3-2.13-2.12-42.38,33.18-100,30.41-149.55,44.45A165.66,165.66,0,0,0,235.42,654a1.5,1.5,0,0,0,1.52,2.59Z"/><path d="M259,750.62a639.68,639.68,0,0,0,125.82,1.61c1.91-.16,1.93-3.17,0-3A639.68,639.68,0,0,1,259,747.62c-1.92-.21-1.9,2.79,0,3Z"/><path d="M265.25,780q109.5,5.15,218.27,19.61c1.91.26,1.89-2.75,0-3Q374.86,782.16,265.25,777c-1.93-.09-1.92,2.91,0,3Z"/><path d="M260.64,838.55,353,865.68c1.85.55,2.64-2.34.79-2.89l-92.31-27.13c-1.86-.55-2.65,2.35-.8,2.89Z"/><path d="M250.1,870.48c25.3,5,50.38,10.47,74.06,21,22.23,9.89,42.91,22.86,62.89,36.66,1.59,1.1,3.09-1.5,1.51-2.59-20.47-14.14-41.68-27.41-64.53-37.39-23.44-10.24-48.15-15.64-73.14-20.59-1.88-.37-2.69,2.52-.79,2.89Z"/><path d="M216.3,917a84.81,84.81,0,0,0,43.9,60.77c14,7.28,29.5,11.12,43,19.55,12.34,7.71,23,17.86,32.44,28.86,11,12.84,20.51,26.91,29.89,41,1.06,1.6,3.66.1,2.59-1.51-15.4-23.08-31.35-46.78-53.5-64C303.42,993,291.1,987.28,278,982.17c-14.38-5.6-27.46-12.23-38.08-23.69a82.2,82.2,0,0,1-20.71-42.32c-.32-1.9-3.21-1.09-2.9.8Z"/><path d="M176.28,936.74c17.08,32.2,66,43.64,70.82,83,.23,1.89,3.23,1.92,3,0-5-40.69-53.73-51.49-71.23-84.47-.9-1.71-3.49-.2-2.59,1.51Z"/><path d="M137,988.25l23.42,27c7.93,9.16,16.24,18.14,23.24,28.06,12.79,18.13,18.66,39.55,24.26,60.73a1.51,1.51,0,0,0,2.9-.8c-5.67-21.41-11.63-43.12-24.57-61.45-6.58-9.32-14.3-17.79-21.76-26.4l-25.37-29.29c-1.26-1.46-3.38.67-2.12,2.12Z"/><path d="M109.5,983.63c.44,57.63,40.83,103.66,63.08,154,6.71,15.2,11.86,31.13,13.89,47.67.24,1.89,3.24,1.91,3,0-7.09-57.52-48.59-101.72-67.92-154.77-5.51-15.1-8.93-30.83-9-46.94a1.5,1.5,0,0,0-3,0Z"/><path d="M58,1024.18a54.47,54.47,0,0,1,1.23,37c-3.3,9.94-9.84,18.69-11.86,29.08-1.91,9.85,1.79,18.55,6.29,27.11,5.92,11.26,12.21,22.31,18.75,33.2A1.5,1.5,0,0,0,75,1149c-6.21-10.35-12.19-20.85-17.85-31.52-2.86-5.37-5.9-10.88-7-16.93-1.05-5.83.23-11.65,2.39-17.07,3.91-9.83,9.65-18.64,11.51-29.21a57.6,57.6,0,0,0-3.16-30.93c-.69-1.78-3.59-1-2.89.8Z"/><path d="M28.26,1011.1a276.93,276.93,0,0,0-12.48,92.11,273.06,273.06,0,0,0,5.35,45.15c3.28,16.05,9.26,32.72,3.91,49-.6,1.84,2.29,2.63,2.9.8,4.73-14.4.9-29.13-2.36-43.41a271.81,271.81,0,0,1,5.57-142.83c.58-1.85-2.32-2.64-2.89-.8Z"/><path d="M-5.95,463.29V1051c162,0,293.85-131.82,293.85-293.85S156.08,463.29-5.95,463.29Z"/><circle class="cls-1" cx="112.07" cy="576.18" r="51.18"/><circle class="cls-1" cx="185.18" cy="623.7" r="18.28"/><path class="cls-1" d="M.34,901.54v76.77c73.69,0,133.43-17.19,133.43-38.39S74,901.54.34,901.54Z"/></svg>