<svg id="bitcoin" xmlns="http://www.w3.org/2000/svg" viewBox="0 0 1500 1500"><defs><style>.cls-1{fill:#fff;}.cls-2{fill:#d6d238;}.cls-3{fill:#f7931a;}.cls-4{fill:#1a1718;}</style></defs><title>art-meets-bitcoin-illustrations-1Artboard 54 copy 25</title><circle class="cls-1" cx="1247.02" cy="383.37" r="13.06"/><path d="M1247,397.94a14.57,14.57,0,1,1,14.57-14.57A14.58,14.58,0,0,1,1247,397.94Zm0-26.13a11.57,11.57,0,1,0,11.57,11.56A11.58,11.58,0,0,0,1247,371.81Z"/><polygon class="cls-2" points="407.18 999.97 111.5 1149.41 335.82 1081.2 116.74 1370.13 392.25 1139.59 220.63 1474.58 416.27 1271.37 451 1466 499.25 1149.26 533.95 1436.14 533.92 997.04 407.18 999.97"/><path d="M202.71,1499.68l175.43-342.41-289,241.84,234.73-309.57-211,64.17-3.34-8.32L406.06,995.5l1,0,131.34-3,0,443.7-9,.54-30.74-254.17-47.39,311.07-38-212.73Zm203.65-377.76L238.54,1449.49l180.61-187.6,31.5,176.53L499.76,1116l29.68,245.41,0-359.78-121.12,2.8L159.91,1130l187.88-57.13-203.43,268.3Z"/><path class="cls-1" d="M459.05,1037c-8-4.52-15.33-8.84-21.93-12.88l-3.42-2.1-.17-.1c-4.54-2.62-9-5.28-13.33-7.9C386,993.22,391.81,976,392.38,974.52l.49-.92,0-.82L462.4,527.67l3.62-5.91.14-.23c77.31-125.8,156.92-220.89,236.62-282.65C790.33,171,882.91,128.37,945.16,104.52a912.18,912.18,0,0,1,100.78-32.45Z"/><path class="cls-1" d="M1032,82.55,456.79,1028.23c-5.83-3.35-11.28-6.58-16.29-9.65l-3.37-2.07-.18-.11-.17-.1c-4.47-2.58-8.91-5.21-13.2-7.83-16.23-9.87-22.14-18.42-24.24-23.86-1.65-4.27-1.08-7.05-.9-7.7l.6-1.26.29-1.87L468.63,530c.91-1.51,1.83-3,2.75-4.5h0l.32-.52c76.89-125.12,156-219.64,235.06-280.91a891.5,891.5,0,0,1,126.3-81.32,1018.71,1018.71,0,0,1,114.28-52.06C982.15,97.3,1011.6,88.22,1032,82.55m27.61-20.37S869.81,101.23,698.8,233.74c-70.91,54.94-151.64,143.57-238.18,284.39l-.13.17v.05q-2.14,3.49-4.3,7l-69.7,446.39s-10.83,22.76,30.35,47.8q6.21,3.78,13.44,8l3.46,2.13c8,4.88,17.13,10.23,27.62,16.07L1059.56,62.18Z"/><path class="cls-3" d="M539.65,1079.48c-9.37,0-19.76-3.9-30.89-11.58-2.52-1.74-5.13-3.31-7.9-5-1.82-1.1-3.7-2.23-5.56-3.42l-.18-.11-3.43-2.06c-6.62-4-13.84-8.55-21.53-13.56L1057,78.85a922.46,922.46,0,0,1,17.55,104.4c7.46,66.24,12.15,168.06-7.82,277-18.18,99.18-66,213.61-142.15,340.11l-.15.26q-1.77,2.94-3.57,5.9L557.17,1073.29l-.39.41c-.19.18-6,5.78-17.13,5.78Z"/><path class="cls-1" d="M1054.17,96.06c4.33,20.67,9.8,51,14,88a1015.22,1015.22,0,0,1,6.35,125.44,892.29,892.29,0,0,1-14.11,149.58c-18,98.41-65.59,212.1-141.33,337.93l-.28.47h0q-1.37,2.28-2.76,4.57L553.78,1067.72l-.72.34-.87,1c-.81.69-5,3.9-12.54,3.9-8,0-17.17-3.51-27.2-10.43-2.68-1.85-5.5-3.55-8.23-5.2-1.78-1.07-3.63-2.18-5.42-3.33l-.17-.11-.17-.1-3.41-2c-5-3-10.39-6.38-16.05-10L1054.17,96.06m5.39-33.88h0L461.35,1045.75h0c10,6.62,19,12.3,27,17.13,1.18.72,2.34,1.41,3.48,2.09,4.71,3,9.28,5.53,13.26,8.28,14.1,9.73,25.67,12.73,34.59,12.73,14.36,0,21.82-7.78,21.82-7.78L925.78,811l4.27-7.06,0,0,.09-.19c85.24-141.61,126.8-254.07,143-342.29,39-212.82-13.59-399.25-13.59-399.25Z"/><path d="M1056.55,67.51c4.42,18.5,12.69,57.23,18.48,108.7a1039.08,1039.08,0,0,1,6.47,128,909.91,909.91,0,0,1-14.4,152.63c-18.4,100.4-66.91,216.4-144.18,344.77l-.27.46h0q-1.41,2.35-2.85,4.71l-369.51,271-.72.35-.87,1c-.82.7-5.18,4.06-13,4.06-8.24,0-17.63-3.6-27.9-10.69-2.72-1.88-5.6-3.61-8.38-5.29-1.82-1.1-3.7-2.23-5.53-3.4l-.17-.11-.17-.1-3.49-2.1c-8.18-4.94-17.29-10.73-27.07-17.19l-.41-.27-.42-.23c-10.24-5.72-19.57-11.15-27.73-16.15l-3.44-2.11-.18-.11-.17-.1c-4.57-2.64-9.1-5.33-13.47-8-16.66-10.13-22.71-18.92-24.86-24.52-1.7-4.44-1.08-7.32-.9-8l.61-1.27.29-1.87L463,529l2.85-4.64h0l.31-.51C544.63,396.16,625.32,299.73,706,237.21a911,911,0,0,1,128.88-83A1038.31,1038.31,0,0,1,951.5,101.12a923.8,923.8,0,0,1,105-33.61M1066,51.94h0s-193.54,39.83-368,175C625.72,283,543.37,373.38,455.11,517l-.14.18v0q-2.21,3.57-4.39,7.18L379.49,979.73s-11.05,23.22,30.94,48.76c4.23,2.57,8.79,5.28,13.72,8.13,1.15.72,2.33,1.44,3.53,2.17,8.13,5,17.47,10.43,28.16,16.4h0c10.21,6.75,19.35,12.54,27.51,17.47l3.55,2.13c4.8,3.07,9.46,5.63,13.53,8.44,14.37,9.93,26.18,13,35.28,13,14.64,0,22.25-7.94,22.25-7.94L929.56,815.74q2.21-3.62,4.36-7.2l0,0,.1-.2c86.94-144.44,129.33-259.14,145.83-349.14C1119.68,242.1,1066,51.94,1066,51.94Z"/><path class="cls-1" d="M1076.18,36.78c3.53,13.86,14,58.23,21.06,120.68a1082.37,1082.37,0,0,1,6.74,133,950.78,950.78,0,0,1-14.9,158.81C1070,553.59,1020,674,940.29,807l-.11.18h0l0,0-3.94,6.55-380,280-.32.23-.3.32c-.27.27-6.74,6.65-19.22,6.65-10.15,0-21.36-4.2-33.29-12.48-2.58-1.79-5.29-3.43-8.16-5.17-1.91-1.16-3.89-2.36-5.86-3.62l-.06,0-.07,0-3.61-2.18c-8.48-5.15-17.91-11.17-28-17.88l-.16-.1-.16-.1c-10.58-5.93-20.24-11.58-28.69-16.78-1.22-.75-2.42-1.48-3.58-2.21l-.07,0-.07,0c-4.71-2.74-9.41-5.54-14-8.32-20.3-12.41-27.28-23.84-29.55-31.24s-.44-12.06-.23-12.58l.28-.55.13-.8L454,519c1.32-2.19,2.65-4.37,4-6.53l0,0h0l.12-.2C539,380,622.35,280,705.82,215A941.15,941.15,0,0,1,839.2,128.68,1071.34,1071.34,0,0,1,959.72,73.55C1018.21,51,1062.28,40,1076.18,36.78m3.61-5.93h0s-198.31,41-377,180.16c-74.1,57.7-158.48,150.78-248.92,298.65l-.14.19v0q-2.24,3.68-4.49,7.39L376.35,986.07s-11.33,23.9,31.71,50.2q6.48,4,14.05,8.37l3.61,2.23c8.33,5.13,17.91,10.74,28.86,16.88h0c10.46,6.94,19.83,12.91,28.19,18l3.63,2.2c4.92,3.16,9.7,5.8,13.87,8.69C515,1102.85,527.11,1106,536.42,1106c15,0,22.8-8.17,22.8-8.17L940,817.23q2.25-3.72,4.46-7.42l.05,0a1.24,1.24,0,0,1,.1-.2C1033.66,660.87,1077.1,542.77,1094,450.12c40.77-223.49-14.21-419.27-14.21-419.27Z"/><circle class="cls-4" cx="803.43" cy="482.67" r="116.83"/><path class="cls-2" d="M803.21,604.55A122.23,122.23,0,1,1,832.27,601,122.6,122.6,0,0,1,803.21,604.55Zm.41-233.69a111.79,111.79,0,1,0,57.93,16.26A111.88,111.88,0,0,0,803.62,370.86Z"/><path class="cls-4" d="M865.08,798.92s14.7,223.17-61.11,284.81-130.62,177.76-130.62,177.76L640.66,970.76Z"/><path class="cls-1" d="M669.45,1285,633.79,967.84l237-181.46.79,12.11a869.07,869.07,0,0,1-2.13,120.31c-7.87,86.08-28.51,143.27-61.36,170-73.75,60-128.3,174.35-128.84,175.5ZM647.53,973.69l29.85,265.51c19.17-36,64.41-113.29,122.49-160.51,62.37-50.71,61-219.86,59.29-267.05Z"/><path class="cls-4" d="M495.44,574.1S290.51,663.7,270.65,759.36s-97.76,197.75-97.76,197.75L446.07,852.42Z"/><path class="cls-1" d="M153.84,971.37l13.88-18.2c.77-1,77.24-102,96.56-195.13C272.89,716.59,314.18,672,387,625.38a869.77,869.77,0,0,1,105.85-57.23L504,563.28,451.83,857.17Zm333-386.15C444.2,605.44,293.35,682,277,760.68c-15.22,73.29-63,149-86.18,182.59l249.49-95.61Z"/><path class="cls-4" d="M531.48,1099.54l-145.1-91.16a9.58,9.58,0,0,1-4.36-9.65l6.41-39.41L578,1074l-36.29,24.5A8.37,8.37,0,0,1,531.48,1099.54Z"/><polygon class="cls-1" points="1394.07 542.94 1397.33 555.97 1406.67 546.32 1402.98 559.23 1415.9 555.54 1406.24 564.88 1419.27 568.14 1406.24 571.4 1415.9 580.74 1402.98 577.05 1406.67 589.97 1397.33 580.31 1394.07 593.34 1390.81 580.31 1381.47 589.97 1385.16 577.05 1372.25 580.74 1381.9 571.4 1368.87 568.14 1381.9 564.88 1372.25 555.54 1385.16 559.23 1381.47 546.32 1390.81 555.97 1394.07 542.94"/><path d="M1394.07,599.52,1390,583.3l-11.63,12,4.6-16.08-16.08,4.59,12-11.63-16.23-4.06,16.23-4.06-12-11.63,16.08,4.6-4.6-16.08L1390,553l4.06-16.23,4.06,16.23,11.63-12-4.59,16.08,16.08-4.6-12,11.63,16.22,4.06-16.22,4.06,12,11.63-16.08-4.59,4.59,16.08-11.63-12Zm-2.46-22.19,2.46,9.84,2.46-9.84,7,7.29-2.78-9.75,9.75,2.78-7.29-7,9.83-2.46-9.83-2.46,7.29-7-9.75,2.79,2.78-9.75-7,7.29-2.46-9.84-2.46,9.84-7-7.29,2.79,9.75-9.75-2.79,7.28,7-9.83,2.46,9.83,2.46-7.28,7,9.75-2.78-2.79,9.75Z"/><polygon class="cls-1" points="1393.04 682.56 1398.1 702.79 1412.6 687.8 1406.87 707.86 1426.92 702.13 1411.93 716.62 1432.16 721.69 1411.93 726.75 1426.92 741.25 1406.87 735.52 1412.6 755.57 1398.1 740.58 1393.04 760.81 1387.98 740.58 1373.48 755.57 1379.21 735.52 1359.16 741.25 1374.14 726.75 1353.92 721.69 1374.14 716.62 1359.16 702.13 1379.21 707.86 1373.48 687.8 1387.98 702.79 1393.04 682.56"/><path d="M1393,767l-5.86-23.42-16.79,17.35L1377,737.7l-23.21,6.64,17.35-16.79-23.42-5.86,23.42-5.87L1353.81,699l23.21,6.63-6.63-23.21,16.79,17.35,5.86-23.42,5.86,23.42,16.79-17.36-6.63,23.22,23.21-6.63-17.35,16.78,23.42,5.87-23.42,5.86,17.35,16.79-23.21-6.64,6.63,23.22-16.79-17.35Zm-4.26-29.39,4.26,17,4.26-17,12.21,12.62-4.82-16.89,16.88,4.83L1409,726l17-4.26-17-4.27,12.62-12.21L1404.69,710l4.82-16.88-12.21,12.62-4.26-17-4.26,17-12.21-12.62,4.82,16.88-16.88-4.83,12.62,12.21-17,4.27,17,4.26-12.62,12.21,16.88-4.83-4.82,16.89Z"/><circle class="cls-1" cx="1233.96" cy="581.93" r="13.06"/><path d="M1234,596.5a14.57,14.57,0,1,1,14.56-14.57A14.58,14.58,0,0,1,1234,596.5Zm0-26.13a11.57,11.57,0,1,0,11.56,11.56A11.57,11.57,0,0,0,1234,570.37Z"/><circle class="cls-1" cx="1316.87" cy="496.4" r="13.06"/><path d="M1316.87,511a14.56,14.56,0,1,1,14.57-14.56A14.57,14.57,0,0,1,1316.87,511Zm0-26.12a11.56,11.56,0,1,0,11.57,11.56A11.57,11.57,0,0,0,1316.87,484.84Z"/><path class="cls-1" d="M841.05,517.85c-1.23-4.31-.36-3.67-.36-3.67,12.3,1,26.59,1.44,32.91-21.8,4.34-16-9.49-32.25-11.6-34.6l20.06-18-.26-.3-9.53-10.62-20.07,18-9.8-10.92,20.07-18-10.32-11.51-20.07,18-22.24-24.79-13,11.37L811.17,427l-63.75,57.19-11.11-12.4-17.66,9.71,22.24,24.79-19.47,17.48,9.79,10.92,19.48-17.48L761,528.67l-19.47,17.47,9.79,10.92,19.77-17.74c4.94,7.29,27,25,49.59,17.57C838.54,551,845.54,533.53,841.05,517.85ZM829.45,447l13.77,15.35c7.07,9.36,7.24,18.8.47,24.87S828,494.12,817.9,484l-13.24-14.76ZM784.17,524.8l-.06-.07h0l-18.53-20.66,27.15-24.36,18.53,20.66h0l.06.08c7.57,8.43,7.63,20.72.13,27.45S791.74,533.24,784.17,524.8Z"/><path class="cls-1" d="M809.51,559.67c-17.43,0-33.13-11.78-38.56-18.86l-19.69,17.67-11.14-12.41,19.48-17.48-9-10-19.48,17.48L720,523.64l19.48-17.47-22.41-25,19.45-10.7,11,12.24,62.26-55.85-14.31-15.94,14.47-12.69L832.16,423l20.06-18,11.66,13-20.06,18,8.46,9.43,20.06-18,11.14,12.4-20.08,18c3.76,4.4,15.31,19.53,11.16,34.78-6.53,24-21.69,23.47-33.11,22.6.08.45.24,1.18.56,2.33h0c4.33,15.12-1.5,33.81-21,40.27A36.23,36.23,0,0,1,809.51,559.67Zm-38.22-21.85.64.94c4.06,6,25.59,24.75,48.44,17.18,18.31-6.06,23.78-23.61,19.72-37.82h0c-1-3.46-.83-4.3-.14-4.77a1.16,1.16,0,0,1,1-.16c11.38.88,25.48,1.86,31.71-21.07,4.25-15.63-9.76-31.87-11.38-33.67l-.66-.75,20.06-18-8.46-9.43-20.07,18L841,435.87l20.07-18-9-10-20.07,18-22.24-24.8L798.29,411.1,812.58,427l-65.23,58.52L736.09,473l-15.85,8.72,22.06,24.6-19.47,17.47,8.46,9.43,19.48-17.47,11.66,13L743,546.22l8.46,9.43ZM800,533.16a20,20,0,0,1-2.31-.13,22.68,22.68,0,0,1-13.65-6.86h0l-.51-.57-.13-.14-.07-.07L764.16,504,792.8,478.3l19.93,22.22h0c7.27,8.8,7.07,21.22-.6,28.11A17.89,17.89,0,0,1,800,533.16Zm-15.12-9A20.75,20.75,0,0,0,798,531a16.17,16.17,0,0,0,12.83-3.89c7.08-6.35,7-18-.2-26l-.73-.81h0l-17.2-19.17-25.66,23,17.16,19.12h0l.71.8-.68.73h0Zm48.23-31.4c-6.63,0-12.42-4.46-16-8l-13.94-15.54,26.28-23.57L844,461.71c7.42,9.82,7.55,19.87.4,26.28C840.53,491.43,836.72,492.73,833.15,492.73Zm-27.08-23.38,12.57,14c8.63,8.6,17.08,9.7,24.39,3.15,6.4-5.75,6.17-14.54-.61-23.53l-13-14.54Z"/><path class="cls-1" d="M535.66,1095.62a3.49,3.49,0,0,1-1.86-.53l-144.8-91a3.47,3.47,0,0,1-1.52-3.88l4.35-15.94a3.52,3.52,0,0,1,3.39-2.58,3.41,3.41,0,0,1,1.82.53l152.4,94.47a3.49,3.49,0,0,1,.68,5.39l-11.94,12.44a3.46,3.46,0,0,1-2.52,1.07Z"/><path class="cls-4" d="M396.12,987.56,545.23,1080l-9.81,10.21L392.6,1000.48l3.52-12.92m-.9-10.84A8.49,8.49,0,0,0,387,983l-4.34,15.93a8.49,8.49,0,0,0,3.68,9.43l144.8,91a8.51,8.51,0,0,0,10.65-1.31l11.94-12.44a8.5,8.5,0,0,0-1.65-13.1L399.68,978a8.47,8.47,0,0,0-4.46-1.28Z"/></svg>