<svg id="bitcoin" xmlns="http://www.w3.org/2000/svg" viewBox="0 0 1500 1500"><defs><style>.cls-1{opacity:0.3;}.cls-2{fill:#d6d238;}.cls-3{fill:#fff;}.cls-4{fill:#f7931a;}</style></defs><title>art-meets-bitcoin-illustrations-1Artboard 54 copy 37</title><g class="cls-1"><rect class="cls-2" x="157.42" y="183.39" width="1107.99" height="1107.99" rx="65.37" ry="65.37"/><path class="cls-3" d="M1200,1291.88H222.79A65.94,65.94,0,0,1,156.92,1226V248.76a66,66,0,0,1,65.87-65.87H1200a66,66,0,0,1,65.88,65.87V1226A65.94,65.94,0,0,1,1200,1291.88Zm-977.25-1108a64.94,64.94,0,0,0-64.87,64.87V1226a64.94,64.94,0,0,0,64.87,64.87H1200a65,65,0,0,0,64.88-64.87V248.76A65,65,0,0,0,1200,183.89Z"/></g><path d="M1262.68,120.76H160.16a65.36,65.36,0,0,0-65.37,65.37V1288.65A65.37,65.37,0,0,0,160.16,1354H1262.68a65.37,65.37,0,0,0,65.37-65.37V186.13A65.37,65.37,0,0,0,1262.68,120.76ZM1282.37,1243a65.36,65.36,0,0,1-65.37,65.37H205.83A65.37,65.37,0,0,1,140.46,1243V231.8a65.37,65.37,0,0,1,65.37-65.37H1217a65.37,65.37,0,0,1,65.37,65.37Z"/><path class="cls-2" d="M1262.68,1357H160.16a68.45,68.45,0,0,1-68.37-68.37V186.13a68.45,68.45,0,0,1,68.37-68.37H1262.68a68.45,68.45,0,0,1,68.37,68.37V1288.65A68.45,68.45,0,0,1,1262.68,1357ZM160.16,123.76a62.44,62.44,0,0,0-62.37,62.37V1288.65A62.44,62.44,0,0,0,160.16,1351H1262.68a62.44,62.44,0,0,0,62.37-62.37V186.13a62.44,62.44,0,0,0-62.37-62.37ZM1217,1311.34H205.83A68.45,68.45,0,0,1,137.46,1243V231.8a68.45,68.45,0,0,1,68.37-68.37H1217a68.45,68.45,0,0,1,68.37,68.37V1243A68.45,68.45,0,0,1,1217,1311.34ZM205.83,169.43a62.44,62.44,0,0,0-62.37,62.37V1243a62.44,62.44,0,0,0,62.37,62.37H1217a62.44,62.44,0,0,0,62.37-62.37V231.8A62.44,62.44,0,0,0,1217,169.43Z"/><path d="M1217,1315.34H205.83A72.45,72.45,0,0,1,133.46,1243V231.8a72.46,72.46,0,0,1,72.37-72.37H1217a72.45,72.45,0,0,1,72.37,72.37V1243A72.45,72.45,0,0,1,1217,1315.34ZM205.83,173.43a58.44,58.44,0,0,0-58.37,58.37V1243a58.44,58.44,0,0,0,58.37,58.37H1217a58.43,58.43,0,0,0,58.37-58.37V231.8A58.44,58.44,0,0,0,1217,173.43Z"/><path d="M584.57,1038.65a298.73,298.73,0,1,1,211.22-87.49A296.75,296.75,0,0,1,584.57,1038.65Zm0-576.42A277.71,277.71,0,1,0,781,543.57,275.85,275.85,0,0,0,584.57,462.23Z"/><circle class="cls-2" cx="584.57" cy="739.94" r="246.42"/><path class="cls-2" d="M584.57,991.36a251.42,251.42,0,1,1,177.79-73.64A249.78,249.78,0,0,1,584.57,991.36Zm0-492.84a241.44,241.44,0,1,0,170.71,70.71A239.85,239.85,0,0,0,584.57,498.52Z"/><path class="cls-3" d="M584.57,1055.1a315.17,315.17,0,1,1,222.85-92.31A313.09,313.09,0,0,1,584.57,1055.1Zm0-624.32a309.16,309.16,0,1,0,218.61,90.55A307.16,307.16,0,0,0,584.57,430.78Z"/><path d="M768.06,929.53a8.94,8.94,0,0,1-6.31-2.59l-367-361.18a9,9,0,1,1,12.63-12.82l367,361.17a9,9,0,0,1-6.32,15.42Z"/><path d="M404,932.43a9,9,0,0,1-6.41-15.31l361.18-367a9,9,0,0,1,12.83,12.63l-361.18,367A9,9,0,0,1,404,932.43Z"/><path d="M327.13,751a9,9,0,0,1-.07-18l514.88-4.1H842a9,9,0,0,1,.07,18L327.2,751Z"/><path d="M586.62,1006.38a9,9,0,0,1-9-8.93l-4.1-514.88a9,9,0,0,1,8.93-9.07h.07a9,9,0,0,1,9,8.92l4.1,514.89a9,9,0,0,1-8.92,9.07Z"/><circle class="cls-3" cx="589.42" cy="739.94" r="194"/><path d="M589.42,939.94c-110.28,0-200-89.72-200-200s89.72-200,200-200,200,89.72,200,200S699.7,939.94,589.42,939.94Zm0-388c-103.66,0-188,84.34-188,188s84.34,188,188,188,188-84.34,188-188S693.08,551.94,589.42,551.94Z"/><g id="coin"><path class="cls-4" d="M758.92,782.69C735.58,877.37,640.76,935,547.13,911.38S396.57,791.88,419.92,697.2,538.07,544.89,631.67,568.49,782.26,688,758.92,782.69Z"/><path d="M589.7,920.7a177.87,177.87,0,0,1-43.54-5.44c-95.59-24.11-154-122.36-130.12-219a179.21,179.21,0,0,1,82.1-111.65,175.87,175.87,0,0,1,134.51-20c95.6,24.11,154,122.37,130.15,219h0a179.21,179.21,0,0,1-82.11,111.63A176.21,176.21,0,0,1,589.7,920.7Zm-.56-353.52a168.2,168.2,0,0,0-86.88,24.28,171.31,171.31,0,0,0-78.46,106.7c-22.79,92.4,33,186.31,124.31,209.34a168,168,0,0,0,128.46-19.08A171.28,171.28,0,0,0,755,781.74c22.78-92.42-33-186.34-124.35-209.37A170,170,0,0,0,589.14,567.18Z"/></g><g id="symbol"><path class="cls-3" d="M666.44,714.76c3.48-23.52-14.23-36.16-38.43-44.59l7.85-31.86-19.18-4.83-7.64,31c-5-1.27-10.22-2.47-15.36-3.66l7.7-31.22-19.17-4.83-7.85,31.84c-4.18-1-8.27-1.91-12.25-2.91l0-.1-26.44-6.68-5.1,20.72s14.23,3.29,13.93,3.5c7.76,2,9.17,7.16,8.93,11.28L531.94,769.7c-1,2.39-3.36,6-8.79,4.61.19.28-13.94-3.52-13.94-3.52L499.69,793l25,6.29c4.64,1.18,9.19,2.41,13.66,3.57l-7.93,32.22,19.15,4.83L557.39,808c5.23,1.44,10.31,2.76,15.28,4l-7.83,31.73L584,848.59,592,816.43c32.69,6.26,57.28,3.74,67.62-26.17,8.34-24.08-.41-38-17.61-47,12.53-2.92,22-11.25,24.48-28.47Zm-43.81,62.13c-5.92,24.08-46,11.06-59,7.8L574.15,742C587.15,745.28,628.82,751.78,622.63,776.89Zm5.93-62.48c-5.4,21.91-38.77,10.78-49.59,8.05l9.54-38.72C599.34,686.47,634.19,691.56,628.56,714.41Z"/></g><rect class="cls-3" x="1013.69" y="615.44" width="52" height="273.56" rx="23.62" ry="23.62"/><path d="M1042.07,895h-4.76a29.65,29.65,0,0,1-29.62-29.62V639.06a29.65,29.65,0,0,1,29.62-29.62h4.76a29.66,29.66,0,0,1,29.62,29.62V865.38A29.66,29.66,0,0,1,1042.07,895Zm-4.76-273.56a17.63,17.63,0,0,0-17.62,17.62V865.38A17.63,17.63,0,0,0,1037.31,883h4.76a17.64,17.64,0,0,0,17.62-17.62V639.06a17.64,17.64,0,0,0-17.62-17.62Z"/><circle class="cls-3" cx="1039.69" cy="631.63" r="37.38"/><path d="M1039.69,675a43.38,43.38,0,1,1,43.37-43.38A43.43,43.43,0,0,1,1039.69,675Zm0-74.75a31.38,31.38,0,1,0,31.37,31.37A31.42,31.42,0,0,0,1039.69,600.25Z"/></svg>