<svg id="bitcoin" xmlns="http://www.w3.org/2000/svg" viewBox="0 0 1500 1500"><defs><style>.cls-1{fill:#fff;}.cls-2{fill:#f7931a;}.cls-3{fill:#b3b3b3;}</style></defs><title>art-meets-bitcoin-illustrations-1Artboard 54 copy 26</title><path d="M1478.47,177.72c-9.86-.21-19.89-.31-29.81-.31-160.17,0-328.48,27.09-500.24,80.52C811.58,300.5,672.22,359.79,534.2,434.18,299.33,560.75,151.46,685.65,145.28,690.9l-29.63,25.2,27,28c5.88,6.1,146.66,151.14,378.48,298.09,136.28,86.4,275.71,155.27,414.43,204.72,174.16,62.08,347.7,93.56,515.8,93.56,9.12,0,18-.09,27.09-.28,5.25-.1,10.49-.24,15.72-.39V178.12Q1486.32,177.88,1478.47,177.72Z"/><path class="cls-1" d="M1477.71,214.27C779.47,199.64,169,718.75,169,718.75s577.61,599.54,1308.75,584.91q8.24-.17,16.45-.42V214.7Q1485.94,214.45,1477.71,214.27Z"/><path class="cls-2" d="M1451.57,1311.43c-159.47,0-323.91-28.86-489.25-85.9C822.91,1177.44,682.56,1109.31,545.17,1023a2419.22,2419.22,0,0,1-279.4-205.13c-65.1-55.58-101.84-93.58-102.21-93.95L158,718.21l6.08-5.17c1.53-1.3,156-131.77,393.86-258.63,139.72-74.52,280.54-133.29,418.52-174.67,172.64-51.77,341.32-76.32,501.37-73h0c5.46.11,11,.26,16.53.43l7.27.23V1310.52l-7.28.22c-6.29.19-11.54.32-16.53.42C1469.12,1311.34,1460.34,1311.43,1451.57,1311.43ZM180.07,719.3c29,28.87,166.76,161.55,373.42,291.26,136.38,85.6,275.66,153.18,414,200.87,172.68,59.54,344.31,88,510.11,84.74,2.89-.06,5.88-.13,9.11-.22V222l-9.11-.21c-158.49-3.33-325.61,21-496.75,72.34C843.76,335.2,703.88,393.59,565,467.64,355.33,579.48,211.09,693.93,180.07,719.3Z"/><path class="cls-3" d="M950.06,757.14c0,300.49,243.6,544.09,544.1,544.09V213.05C1193.66,213.05,950.06,456.65,950.06,757.14Z"/><path d="M960.73,757.14c0,294.6,238.82,533.42,533.43,533.42V223.72C1199.55,223.72,960.73,462.54,960.73,757.14Z"/><path class="cls-2" d="M981.75,757.14c0,283,229.41,512.4,512.41,512.4V244.73C1211.16,244.73,981.75,474.15,981.75,757.14Z"/><path d="M1498.16,1273.54h-4a516.41,516.41,0,1,1,0-1032.81h4Zm-8-1024.79a508.4,508.4,0,0,0,0,1016.78Z"/><polygon points="1487.99 726.04 1317.95 258.87 1307.64 262.62 1477.68 729.79 1487.99 742.07 1487.99 726.04"/><polygon points="1477.68 729.79 1158.12 348.95 1149.72 356 1469.28 736.84 1483.16 744.86 1477.68 729.79"/><polygon points="1469.28 736.84 1038.74 488.26 1033.25 497.76 1463.8 746.34 1479.59 749.12 1469.28 736.84"/><polygon points="1463.8 746.34 974.2 660.01 972.29 670.81 1461.88 757.14 1477.68 754.35 1463.8 746.34"/><polygon points="1461.88 757.14 972.29 843.46 974.2 854.27 1463.8 767.94 1477.68 759.92 1461.88 757.14"/><polygon points="1463.8 767.94 1033.25 1016.51 1038.74 1026.01 1469.28 777.43 1479.59 765.15 1463.8 767.94"/><polygon points="1469.28 777.43 1149.72 1158.28 1158.12 1165.32 1477.68 784.48 1483.16 769.42 1469.28 777.43"/><polygon points="1477.68 784.48 1307.64 1251.65 1317.95 1255.4 1487.99 788.24 1487.99 772.2 1477.68 784.48"/><polygon points="1495.3 778.19 1493.47 773.17 1491.64 778.19 1487.99 788.24 1487.99 1285.39 1491.64 1285.39 1495.3 1285.39 1498.95 1285.39 1498.95 788.24 1495.3 778.19"/><polygon points="1495.3 228.89 1491.64 228.89 1487.99 228.89 1487.99 726.04 1491.64 736.09 1493.47 741.11 1495.3 736.09 1498.95 726.04 1498.95 228.89 1495.3 228.89"/><path d="M1361.5,501.36c1.64-26.91,2.92-54.75-8.56-79.87-5.71-12.47-13.64-23.74-19.94-35.91a227.38,227.38,0,0,1-16.2-42.14,1.5,1.5,0,0,0-2.89.8,238.45,238.45,0,0,0,14.42,38.7c5.88,12.14,13.57,23.27,19.69,35.27,13.28,26,12.2,54.8,10.48,83.15-.12,1.93,2.88,1.92,3,0Z"/><path d="M1441.39,484.25c-39.56-58.07-69.86-125.7-67.8-197.26.06-1.93-2.94-1.93-3,0-2.08,72.06,28.37,140.3,68.21,198.77,1.08,1.59,3.68.09,2.59-1.51Z"/><path d="M1287.42,567.91c-6.19-15.31-17.35-27.69-28.51-39.59s-22.65-23-33.93-34.49c-22.53-23-44.2-48-54.07-79.3-.58-1.83-3.48-1-2.89.8,9.38,29.73,29.21,54,50.5,76.15,11.18,11.63,22.81,22.82,34,34.46,12.26,12.77,25.28,26.11,32,42.77.72,1.76,3.62,1,2.9-.8Z"/><path d="M1245.86,650.32q-102-28.14-200.94-65.81c-1.81-.68-2.59,2.22-.8,2.9q98.87,37.62,201,65.81a1.5,1.5,0,0,0,.79-2.9Z"/><path d="M1227,770.72c-62.15-19.61-126.8-1.7-188.71,9.28-19,3.37-38.09,6.06-57.37,7-1.92.09-1.93,3.09,0,3,64.4-3.08,126.41-26.54,191.19-25a194.85,194.85,0,0,1,54.09,8.6c1.85.59,2.64-2.31.8-2.89Z"/><path d="M1033.46,922.4c32.32,1,65.31-1.1,95.79-12.76,27.08-10.36,51.11-26.9,76.82-40,15.18-7.75,31-14.14,47.83-17.22,1.9-.34,1.1-3.23-.79-2.89-28.22,5.15-53.17,19.63-77.78,33.66-26.8,15.29-53.56,28.55-84.36,33.4-19,3-38.31,3.42-57.51,2.84-1.93-.06-1.93,2.94,0,3Z"/><path d="M1159.62,984.21a813.49,813.49,0,0,0,118-68.06c1.57-1.09.08-3.69-1.52-2.59a813.39,813.39,0,0,1-118,68.06c-1.75.82-.23,3.4,1.51,2.59Z"/><path d="M1231.52,987.57a213.27,213.27,0,0,0,106.57-116.93c.67-1.81-2.23-2.6-2.9-.8A210.2,210.2,0,0,1,1230,985c-1.74.84-.22,3.42,1.51,2.59Z"/><path d="M1242.06,1171.09a1039.66,1039.66,0,0,1,94.88-169.62q16.08-23.31,33.43-45.71c1.17-1.51-.94-3.65-2.12-2.12a1040.92,1040.92,0,0,0-104.72,165.23q-12.72,25-24.06,50.7c-.77,1.75,1.81,3.28,2.59,1.52Z"/><path d="M1321.47,1082.86a829.23,829.23,0,0,0,38.63-98.6c.59-1.84-2.31-2.63-2.89-.8a824.68,824.68,0,0,1-38.33,97.89c-.81,1.74,1.77,3.26,2.59,1.51Z"/><path d="M1454.47,1174.22a269,269,0,0,1,13.18-195.51c.82-1.74-1.76-3.26-2.59-1.52A272.06,272.06,0,0,0,1451.58,1175c.58,1.84,3.48,1,2.89-.79Z"/><path d="M1155.07,852.83c42.39.8,87.07,1.12,125.39-19.62,1.7-.92.19-3.51-1.51-2.59-37.83,20.47-82,20-123.88,19.21-1.93,0-1.93,3,0,3Z"/><path d="M1153.05,735.21a615.86,615.86,0,0,0,132.21-2.53c1.89-.24,1.92-3.24,0-3a615.86,615.86,0,0,1-132.21,2.53c-1.92-.18-1.91,2.83,0,3Z"/><path d="M1163.29,661.62a601.09,601.09,0,0,0,138.58,24.3c1.93.11,1.92-2.89,0-3a597.42,597.42,0,0,1-137.78-24.19c-1.85-.56-2.65,2.34-.8,2.89Z"/><path d="M1213,531.31a404.33,404.33,0,0,0,70.5,91.32c1.39,1.34,3.51-.78,2.13-2.13a401.27,401.27,0,0,1-70-90.7,1.5,1.5,0,0,0-2.59,1.51Z"/><path d="M1302.73,433a623.46,623.46,0,0,1,31,69.6q6.45,17.3,11.88,35c3.07,10,10.86,26.55,3.38,36.1-1.17,1.5.94,3.64,2.13,2.12,6.77-8.65,3-19.79.28-29.29q-5.76-20-12.86-39.49a629.37,629.37,0,0,0-33.23-75.51c-.89-1.72-3.48-.2-2.59,1.51Z"/><path d="M1464.64,463.75q-4.1-47.12-5.09-94.42c0-1.92-3-1.93-3,0q1,47.28,5.09,94.42c.17,1.9,3.17,1.92,3,0Z"/><path d="M1200.3,757.14c0,162,131.83,293.85,293.86,293.85V463.29C1332.13,463.29,1200.3,595.11,1200.3,757.14Z"/><path class="cls-1" d="M1360.72,939.92c0,21.2,59.74,38.39,133.44,38.39V901.54C1420.46,901.54,1360.72,918.72,1360.72,939.92Z"/></svg>