<svg id="bitcoin" xmlns="http://www.w3.org/2000/svg" viewBox="0 0 1500 1500"><defs><style>.cls-1{fill:#f7931a;}.cls-2{fill:#fff;}.cls-3{fill:#d6d238;}</style></defs><title>art-meets-bitcoin-illustrations-1Artboard 54 copy 34</title><path d="M1285.32,840.92l1.24-5.31c2.83-12.13,5.35-24.89,7.48-37.9l.28-1.74,1.74-.32a29.7,29.7,0,0,1,17.67,2.36,34.26,34.26,0,0,1,11.66,8l1.37,1.51-1.21,1.65c-8.47,11.52-20.38,21.35-35.4,29.21Zm13.35-40.59c-1.76,10.56-3.77,20.95-6,31,11.35-6.59,20.6-14.43,27.56-23.37a32.08,32.08,0,0,0-8.54-5.34A24.67,24.67,0,0,0,1298.67,800.33Z"/><path d="M1150.28,1114.23l-5.61-1.19c-2.17-.46-4.44-1-6.75-1.64l-4.15-1.12,4.21-4.23,2.12-2.13,2.05-2.1,1.75,2.35c1.26,1.71,2.42,3.44,3.44,5.14Z"/><path d="M1180.56,1069.65l-7.2-2.92,7.18-8.88,0,7.34c0,.25,0,.51,0,.77Z"/><path d="M1197.35,1078.34l-4.88-2.69a150,150,0,0,0-15.32-7.4l-1.57-.65,0-1.69c0-.23,0-.45,0-.66V1064l.56-.69c3.89-4.84,7.29-9.19,10.39-13.29l3.14-4.16,1.28,5.05c1.62,6.41,3.14,13.1,4.61,19.56Zm-15.87-13.69q4.15,1.8,8.54,4c-.87-3.82-1.76-7.69-2.68-11.5C1185.51,1059.57,1183.56,1062,1181.48,1064.65Z"/><path d="M1075.58,1179.11l-2.9-4.44a74.11,74.11,0,0,1-3.91-6.62l-1-1.91,1.72-1.25c.87-.63,1.73-1.27,2.58-1.91l5-3.68.42,4.4c0,.3.07.62.11,1a22.67,22.67,0,0,1-.44,9.36Z"/><path d="M1052.39,1187.13a6.59,6.59,0,0,1-4.2-1.15,4.54,4.54,0,0,1-1.73-3.85v-1.33l1.12-.74c7.53-5,14.91-10.06,21.93-15.17l2.37-1.72,1.33,2.6a67.67,67.67,0,0,0,3.64,6.16l.64,1-.35,1.13c-1.63,5.26-6,8.92-13.05,10.86C1058.67,1186.4,1055,1187.13,1052.39,1187.13Zm17.77-16.53c-5.36,3.85-10.9,7.7-16.54,11.46a59.77,59.77,0,0,0,9.15-2c4.82-1.33,7.85-3.46,9.21-6.48C1071.31,1172.54,1070.71,1171.55,1070.16,1170.6Z"/><path d="M1215.15,1031.93l-4.28-4c-3.47-3.28-3.84-7.34-1-11.16l6.29-9.76-.79,9.88c-.21,2.75-.29,5.58-.25,9.19Z"/><path d="M1294.07,614.29l-.69-4c-2.24-13.14-5-26.28-8.07-39.06l-.59-2.39,2.38-.62c10.14-2.64,18.31-1,24.26,4.88h0c6.52,6.44,9.32,11.83,8.81,16.95-.72,7.14-7.83,11.8-15.37,16.72-2.47,1.62-5,3.29-7.46,5.1Zm-3.31-41.8c2.59,10.84,4.89,21.91,6.87,33,1.48-1,3-2,4.43-2.94,6.79-4.44,12.66-8.27,13.14-13,.34-3.45-2.06-7.67-7.35-12.89h0C1303.62,572.46,1298,571.09,1290.76,572.49Z"/><path class="cls-1" d="M693.07,710.89l-38.52,134c40.79,11.91,166.23,58,187.92-17.58C865.12,748.47,733.86,722.86,693.07,710.89Z"/><path d="M772.34,872.21c-37.42,0-80.06-13.15-106.8-21.39-4.48-1.38-8.34-2.58-11.69-3.55l-2.39-.7,39.9-138.78,2.42.7c4.07,1.2,9,2.52,14.73,4,38.06,10.17,108.89,29.12,131.66,69.36,7.89,14,9.47,29.47,4.7,46.08-4.49,15.66-13.65,27.33-27.22,34.67C804.87,869.57,789.13,872.21,772.34,872.21Zm-114.7-29c2.79.84,5.9,1.8,9.37,2.87,38,11.73,108.82,33.56,148.26,12.21,12.34-6.68,20.68-17.33,24.79-31.65,4.39-15.28,3-29.49-4.25-42.23-21.73-38.42-91.25-57-128.59-67-4.67-1.25-8.83-2.36-12.44-3.38Z"/><path class="cls-1" d="M1080.46,1167.26c-2.3,2.34-6,6-12.58,11.85a27.81,27.81,0,0,1-5.22,3.71c11.3,4.85,21.57,8,26.62,11.33q11-7.43,21.51-15.32C1112,1165.74,1094.74,1167,1080.46,1167.26Z"/><path d="M1089.3,1197.15l-1.39-.91c-3-1.93-8.16-4-14.19-6.28-3.66-1.42-7.81-3-12-4.84l-4.74-2,4.53-2.46a25.76,25.76,0,0,0,4.76-3.37c6.66-5.93,10.3-9.54,12.46-11.74l.71-.73,3.56-.08c10.91-.26,22.19-.53,27.53,5.16a11.4,11.4,0,0,1,2.8,9.19l-.1,1.11-.89.67c-7.08,5.29-14.35,10.47-21.61,15.39ZM1068,1182.31c2.65,1.08,5.21,2.07,7.57,3a115.88,115.88,0,0,1,13.68,5.88c6.43-4.38,12.86-9,19.14-13.65a6,6,0,0,0-1.51-4.26c-3.8-4-14.41-3.79-23.76-3.57l-1.54,0c-2.27,2.29-5.9,5.82-12,11.24C1069,1181.45,1068.48,1181.89,1068,1182.31Z"/><path class="cls-1" d="M1107,1146.27c-2.68-5.55-2.68-13.43-23.78-6.88-23.64,7.34-16.92,1.68-24.11,9,14.27-.29,31.48-1.52,30.32,11.57Q1098.4,1153.3,1107,1146.27Z"/><path d="M1086.47,1165.35l.5-5.58a6.52,6.52,0,0,0-1.47-5.34c-3.8-4-14.4-3.8-23.76-3.57l-8.67.18,4.28-4.37,1.31-1.35c3-3.11,3.46-3.47,7.09-4.08a118,118,0,0,0,16.76-4.24c19.24-6,23.14-.68,26,6.3.27.67.53,1.3.81,1.89l.85,1.78-1.53,1.24c-5.73,4.67-11.67,9.31-17.64,13.78Zm-17.56-19.6c8.36,0,16.1.85,20.24,5.27a10.21,10.21,0,0,1,2.4,4.25c4.2-3.19,8.36-6.46,12.43-9.74l-.15-.36c-1.84-4.55-3.43-8.48-19.83-3.39A140.39,140.39,0,0,1,1068.91,1145.75Z"/><path class="cls-1" d="M1005.31,1220.08c2.37,3.25,2.34,4.2,16,8.44,6.29,2,8.32,4.22,7.81,6.92q4.85-3.14,9.59-6.37c-5-3.3-15.32-6.48-26.62-11.33A21.23,21.23,0,0,1,1005.31,1220.08Z"/><path d="M1025.56,1240.71l1.1-5.74c.34-1.79-3.67-3.31-6.09-4.06-13-4-14.38-5.32-16.86-8.78l-2.81-3.84,4-.67a19.21,19.21,0,0,0,6-2.08l1.06-.58,1.12.48c4.16,1.79,8.26,3.38,11.88,4.78,6.55,2.54,11.73,4.54,15.12,6.76l3.15,2.06-3.12,2.1c-3.72,2.52-6.78,4.55-9.64,6.4Zm-15.68-19.25c1.65,1.15,4.71,2.36,12.17,4.67,1.92.6,6.66,2.07,8.7,5.26l3.15-2.1c-2.89-1.37-6.63-2.81-10.75-4.41-3.34-1.3-7.1-2.75-11-4.38Q1011.05,1221,1009.88,1221.46Z"/><path class="cls-1" d="M1141.26,1105.22c-4.45-.88-8.9-1.92-13.2-3.19-7,14.07-15.28,22.88-23.07,26.4,16.69-4,30-6.81,36.2-5,2.65.75,6.88,2.34,12,4.16q5-4.87,9.89-9.87C1156,1111.44,1148,1106.57,1141.26,1105.22Z"/><path d="M1105.57,1130.86l-1.61-4.71c7.76-3.5,15.52-12.46,21.86-25.23l.93-1.89,2,.6c3.93,1.16,8.17,2.19,13,3.14h0c6.82,1.35,15,6,23,13l2,1.74-1.83,1.88c-3.16,3.23-6.41,6.47-9.94,9.91l-1.11,1.09-1.47-.53-3.3-1.19c-3.52-1.26-6.55-2.36-8.51-2.92C1134.77,1124.17,1120.71,1127.26,1105.57,1130.86Zm30.83-10.49a20.47,20.47,0,0,1,5.48.62c2.13.61,5.09,1.68,8.83,3l1.82.66c2.39-2.34,4.66-4.6,6.86-6.83-6.6-5.45-13.28-9.12-18.62-10.18-4.15-.82-7.91-1.7-11.42-2.67a74.16,74.16,0,0,1-12.93,18.25C1124.43,1121.52,1131.25,1120.37,1136.4,1120.37Z"/><path class="cls-1" d="M868.81,630.06c20.6-71.71-89.23-92.06-123.19-102L710.7,649.56C744.66,659.52,849,698.81,868.81,630.06Z"/><path d="M806.19,672.27c-30.78,0-64.89-10.61-86.37-17.3-3.77-1.17-7-2.18-9.83-3l-2.38-.7L743.91,525l2.41.7c3.41,1,7.55,2.1,12.36,3.36,31,8.2,88.72,23.45,108.31,58,7.4,13,8.82,27.77,4.22,43.78h0c-4.35,15.12-13,26.26-25.74,33.12C834.18,670,820.54,672.27,806.19,672.27Zm-92.41-24.39c2.26.68,4.75,1.45,7.53,2.32,30.79,9.58,88.12,27.43,121.79,9.27,11.5-6.2,19.34-16.33,23.31-30.1,4.21-14.67,2.94-28.11-3.77-39.93-18.55-32.68-74.94-47.58-105.24-55.59-3.76-1-7.13-1.89-10.07-2.71Z"/><path class="cls-1" d="M1028.16,1163.74c-13.67-4.24-13.63-5.19-16-8.44-14.42,2.4-27-11.64-25.76-23.47-9.11-9.84-15.14-23-14-41.4,2.83-44,4.14,6.31,15.54,36.25,2.62-4.86,8.44-8.68,18.67-9.68,5.15-.51,10.36-1.22,15.56-2.06a122.57,122.57,0,0,0,3.76-12.73c-23.1-13-37.43-30.21-17.45-42.71,26.13-16.35,16.71-5.68,39.46-26.48,17.29-15.81,6.47-44.63,15.26-52-1.43-2.17-3.09-4.89-5-8.32-18.55-32.6,14.94-55,49.56-72.63-3.11-17.92,1.22-38.32-2.9-50.44-3.76-11,2.92-28.47,18.4-31.85a113.37,113.37,0,0,1-5.94-14.78,42.26,42.26,0,0,1-2-9.56c-7.5-18.46-14.42-32-14.42-32s59.09-9.87,68.51-20.53c4.35-4.92-2.65-16.92-8.93-31-20.31-7.39-45.48-12.92-51.67-21.07-10.13-13.33-8.62-39,27.64-42,12.49-1,19.52-7.08,23.36-14.56-12.79-17.42-39.85-33.7-29.32-44,9.1-8.89,10.89-15.6,15.33-27,3.41-8.79,8.38-20.38,19.42-37.91,6-9.54,11.75-12.15,17.3-10.66,1.27-2.9,2.62-5.71,4-8.39-35.27-14.08-64.17-26.3-64.61-28.67-1.16-6.13,2.57-33.5,18.66-49.23s15-7.9,31.1-23.63c4-3.91,11.9-5.81,21.23-6.5q-9.24-13.8-19.28-27c-68.24-89.8-164.22-159.17-279.79-193-138.89-40.72-285.39-24.63-412.51,45.3-129,71-222.59,188.58-263.55,331.18-84,292.27,82.61,598.95,371.47,683.64C728.29,1277,874.83,1260.91,1002,1191q17.43-9.59,34-20.31C1036.48,1168,1034.44,1165.69,1028.16,1163.74ZM711.43,1049.81l-60.16-17.63,28.65-99.58c-15.6-4.56-31.53-9.37-47.93-14.55L603.24,1018.1l-60.1-17.63,29-101.13c-14-4.21-28.32-8.67-42.88-13L451,863.44l32.84-69.18s44.3,13.75,43.73,12.83c17,5,25.1-6.08,28.39-13.53l78.73-273.9c1.24-13-2.58-29.66-27-36.81,1-.61-43.69-12.78-43.69-12.78l18.66-65,83,24.35-.08.32c12.48,3.64,25.34,7.15,38.44,10.7l28.75-99.95,60.13,17.63-28.17,98c16.15,4.38,32.41,8.81,48.23,13.44l28-97.35,60.16,17.63-28.73,100c75.68,29.65,130.25,71.85,116.39,145.93-10.06,54.24-41,79.51-81,87.25,53.4,30.78,79.46,75.85,50.13,151.13-36.4,93.51-114.61,98.53-217.44,74.76Z"/><path d="M741.89,1260.3a543.53,543.53,0,0,1-153.1-22.12c-289.91-85-457.17-392.79-372.83-686.11C257.06,409,351,290.91,480.46,219.69c127.59-70.19,274.63-86.34,414-45.47,112.43,32.95,209.54,100,280.82,193.75,6.56,8.63,13.07,17.76,19.35,27.14l1.91,2.85-3.43.26c-9.84.73-16.75,2.78-20,5.93-8.25,8.06-12.2,10.14-16,12.16s-7.25,3.81-15.08,11.47c-15.37,15-18.9,41-18.16,47,1.69,1.43,11.59,6.88,63.46,27.59l2.07.83-1,2c-1.37,2.58-2.71,5.36-4,8.25l-.69,1.58-1.67-.45c-5.12-1.38-10.06,1.83-15.09,9.8-10.72,17-15.75,28.55-19.24,37.56-.52,1.33-1,2.59-1.45,3.79-3.48,9.17-6,15.8-14.35,24a5.2,5.2,0,0,0-1.78,3.85c0,5.35,7.62,12.77,15.67,20.62,5.57,5.43,11.34,11.05,15.65,16.92l.73,1-.57,1.1c-4.84,9.4-13.24,14.66-25,15.64-10.63.88-24.37,4.33-29.44,15.72-3.22,7.22-2,16.29,3.23,23.11,4.06,5.34,18.69,10,32.83,14.45,6,1.89,12.15,3.85,17.93,5.95l.8.29.35.78c1.08,2.42,2.18,4.79,3.25,7.08,5.48,11.73,9.81,21,5.35,26-8.77,9.93-54.41,18.51-67,20.72,2.32,4.72,7.67,15.88,13.28,29.7l.13.3,0,.32a41,41,0,0,0,1.86,9.11,112.82,112.82,0,0,0,5.83,14.5l1.08,2.27-2.46.54a22.09,22.09,0,0,0-14.53,11c-3.31,5.87-4.23,12.84-2.4,18.21,2.29,6.75,2.1,15.74,1.91,25.26-.18,8.47-.37,17.23,1.07,25.49l.25,1.45-1.31.67c-22.88,11.68-47,26.12-52.58,44.72-2.43,8.11-1.17,16.33,3.85,25.14,1.84,3.24,3.51,6,5,8.21l1,1.49-1.36,1.14c-3,2.51-3.23,9-3.52,16.45-.43,11.46-1,25.73-11.68,35.52-14.25,13-16.14,13.92-21.75,16.62a160.71,160.71,0,0,0-18,10.08c-5.77,3.61-8.65,7.73-8.54,12.23.18,8,9.62,17.85,25.91,27l1.32.74-.36,1.47a122.7,122.7,0,0,1-3.82,12.93l-.39,1.11-1.17.19c-5.61.91-10.74,1.59-15.68,2.08-8.6.84-14.52,3.83-17.1,8.64l-1.66,3.08.4.43-.1.9c-.56,5.26,2,11.28,6.71,15.72s10.88,6.54,16.73,5.57l1.21-.2,1.17,1.6c1.73,2.42,2.38,3.33,14.54,7.1,2.55.79,10.32,3.2,9.18,9.2l-.16.84-.72.46c-11.2,7.25-22.68,14.11-34.11,20.39C921.51,1237.52,832.14,1260.3,741.89,1260.3Zm-.41-1104.19c-89.58,0-178.26,22.61-259.09,67.09-128.52,70.7-221.78,187.89-262.59,330C136.07,844.39,302.11,1150,589.92,1234.34c138.42,40.58,284.42,24.56,411.09-45.12,11-6.07,22.13-12.69,33-19.66-.36-1.39-2.51-2.7-6.41-3.91h0c-12.33-3.82-14.08-5.13-16.33-8.2a23.85,23.85,0,0,1-18.89-6.78c-5.33-5-8.34-11.9-8-18.13-10.29-11.45-15-25.66-13.89-42.24.4-6.21.77-10.58,1.14-13.37s.75-5.64,3-5.77c2.63-.15,3,2.16,5.43,15,1.84,9.88,4.52,24.36,8.55,36.27,3.06-3.31,8.43-6.5,17.88-7.43,4.51-.45,9.19-1.06,14.26-1.86,1.12-3.25,2.07-6.46,2.95-10-10.41-6-26.35-17.29-26.63-29.68-.14-6,3.37-11.3,10.42-15.71a163.8,163.8,0,0,1,18.39-10.3c5.21-2.5,7-3.34,20.78-16,9.47-8.65,10-21.43,10.39-32.71.28-7.53.53-14.15,3.68-18.07-1.29-2-2.71-4.4-4.24-7.09-5.51-9.68-6.92-19.19-4.2-28.26,5.89-19.68,30-34.53,53.29-46.47-1.24-8.19-1.06-16.63-.89-24.8.19-9.16.37-17.81-1.7-23.89-2.18-6.41-1.15-14.64,2.7-21.46a26.22,26.22,0,0,1,14.78-12.34,108.53,108.53,0,0,1-5-12.88,45.68,45.68,0,0,1-2-9.69c-7.33-18-14.16-31.38-14.23-31.51l-1.25-2.44,2.7-.45c16.24-2.71,60-11.56,67.34-19.87,2.73-3.09-1.5-12.14-6-21.72-1-2.06-2-4.18-2.94-6.37-5.47-2-11.32-3.81-17-5.61-16.09-5.09-30-9.49-34.8-15.84-6-8-7.51-18.62-3.71-27.16,3.24-7.27,11.56-16.31,32.77-18.08,9.8-.82,16.91-5,21.16-12.39-4-5.26-9.32-10.42-14.45-15.41-9-8.83-16.87-16.45-16.88-23.48a9.16,9.16,0,0,1,3-6.72c7.72-7.55,10-13.51,13.4-22.53.46-1.21.94-2.48,1.46-3.81,3.56-9.2,8.68-20.94,19.59-38.25,5.51-8.74,11.49-12.72,17.82-11.88.78-1.74,1.59-3.44,2.42-5.07-63-25.21-63.44-27.49-63.79-29.34-1.19-6.33,2.47-34.63,19.23-51,8.25-8.06,12.2-10.14,16-12.15s7.25-3.82,15.08-11.48c3.59-3.52,9.85-5.73,19.08-6.75-5.65-8.33-11.47-16.44-17.33-24.15C1101.37,277.27,1005,210.77,893.38,178.06A539.39,539.39,0,0,0,741.48,156.11Zm233.63,925.51c-.21,2.25-.43,5.17-.67,8.93-1,15.44,3.07,28.15,12.42,38.8l-.75-2c-4.87-12.8-8-29.46-10-40.49C975.77,1085.1,975.43,1083.29,975.11,1081.62ZM712.8,1052.29l-64-18.75L677.44,934c-15.29-4.48-29.76-8.88-44.1-13.39l-28.74,100-63.93-18.75,29-101.14q-7.47-2.25-15-4.56c-8.45-2.58-17.2-5.25-25.94-7.82L448.19,864.7l34.6-72.86,1.65.51c12.2,3.79,30.53,9.37,38.88,11.71l-.22-.35,5,1.46c14.93,4.35,22.35-4.25,26-12.29l78.63-273.59c1.6-17.46-7-29.08-25.53-34.52l-4.27-1.25.37-.23c-7.84-2.46-27.08-7.83-39.76-11.29l-2-.53,19.78-68.89,86.77,25.47-.08.31c11.25,3.27,22.81,6.43,34.63,9.63l28.76-100,64,18.76-28.16,97.95c16.44,4.46,30.4,8.28,44.38,12.36l28-97.35,64,18.75L874.82,488.62c91.14,36.1,128,83,115.92,147.49-9,48.28-35,77.78-77.55,87.77,26.69,16.24,43.89,35,52.53,57.26,10.27,26.43,8.32,57.08-6,93.71-17.44,44.8-45.29,71.81-85.15,82.56-33.05,8.92-75.27,7-132.75-6.16Zm-59.06-21.47,56.33,16.51,29-100.83,1.85.43c57.76,13.35,99.91,15.46,132.66,6.62,38.54-10.4,65.52-36.62,82.47-80.15,26.11-67,10.45-114.26-49.27-148.68l-4.65-2.67,5.27-1c43.73-8.46,70.45-37.27,79.42-85.65,6.41-34.25-1.48-63-24.13-87.92-19.1-21-48.88-39.28-91-55.79L870,491l28.68-99.82-56.32-16.51-28,97.35-1.92-.56c-15.15-4.44-30.16-8.54-48.2-13.43l-2-.53,28.19-98L734.16,343l-28.73,99.91-1.9-.51c-13.16-3.57-26-7.07-38.48-10.71l-1.86-.55.08-.31-79.18-23.25-17.55,61.13c3.63,1,11.78,3.23,19.87,5.51,15.24,4.3,20.42,5.82,22.25,6.85,25.49,7.62,29.32,25.3,28,38.81l-.07.37-78.76,274-.06.12c-2.77,6.26-11.28,20.18-30.52,14.72-2.2-.19-7.51-1.8-22.31-6.27-8.28-2.5-16.61-5.07-20.06-6.13l-31.09,65.49,76,22.29c8.77,2.58,17.52,5.25,26,7.83q8.5,2.6,16.9,5.13l1.9.57-29,101.11,56.26,16.5,28.76-100.09,2,.62c15.55,4.91,31.21,9.67,47.89,14.54l1.91.56Z"/><path class="cls-1" d="M1037.4,1212.79a20,20,0,0,1-4.75-4.82,66.65,66.65,0,0,1-7.86-7.18c-1.27,11.82,11.34,25.87,25.75,23.47C1048.94,1222.07,1046.23,1218.82,1037.4,1212.79Z"/><path d="M1047.3,1227a24.7,24.7,0,0,1-16.9-7c-5.71-5.38-8.81-12.84-8.1-19.47l.59-5.46,3.74,4a63.87,63.87,0,0,0,7.56,6.91l.28.21.2.29a17.76,17.76,0,0,0,4.14,4.23h0c8.66,5.91,11.73,9.29,13.75,12.06l2.4,3.27-4,.67A22.38,22.38,0,0,1,1047.3,1227ZM1028,1207.39a21.82,21.82,0,0,0,5.81,9,20.26,20.26,0,0,0,11.24,5.52,77.69,77.69,0,0,0-9.08-7h0a22.29,22.29,0,0,1-5.15-5.13C1029.87,1209,1028.93,1208.19,1028,1207.39Z"/><path class="cls-1" d="M988,1126.68a14.2,14.2,0,0,0-1.58,5.15,65.8,65.8,0,0,0,7.86,7.18A54.13,54.13,0,0,1,988,1126.68Z"/><path d="M1006.7,1151.87l-14-10.89a68.17,68.17,0,0,1-8.16-7.45l-.77-.84.12-1.13a16.46,16.46,0,0,1,1.86-6.06l2.59-4.82,2,5.11a51.39,51.39,0,0,0,6,11.75Z"/><path class="cls-1" d="M1017.13,1146.59c-11.4-29.95-12.71-80.2-15.54-36.26-1.18,18.36,4.85,31.57,14,41.4A13.9,13.9,0,0,1,1017.13,1146.59Z"/><path d="M1017.44,1157.46l-3.72-4c-10.8-11.66-15.72-26.22-14.63-43.26.4-6.22.78-10.6,1.15-13.4.4-3,.8-6,3.47-6.21s3.41,2.91,4,5.62c.56,2.41,1.2,5.84,1.93,9.8,2,10.87,5.07,27.3,9.8,39.72l.4,1.07-.54,1A11.58,11.58,0,0,0,1018,1152Zm-13-52.22c-.12,1.54-.24,3.28-.37,5.25-.91,14.15,2.47,26,10.31,36l0,0c-4.67-12.7-7.66-28.81-9.65-39.56C1004.65,1106.34,1004.55,1105.79,1004.45,1105.24Z"/><path class="cls-1" d="M1078.69,1116.88a20.26,20.26,0,0,1-5.23,1.59,16.77,16.77,0,0,1-2.1.16c-6.76,1.62-13.94,3.34-21.33,4.95,1.74.7,3.48,1.39,5.23,2,34.13,12.62,29.06,6,41.32,3.64,3.47-.65,7.76.88,12.56,3.25q9-8.07,17.72-16.5c-5.09-1.82-9.33-3.41-12-4.16C1108.66,1110.07,1095.37,1112.91,1078.69,1116.88Z"/><path d="M1082.73,1135.57c-5.14,0-12.88-1.89-28.33-7.61-1.68-.62-3.42-1.3-5.31-2.07l-7.47-3,7.88-1.72c7.26-1.58,14.2-3.23,21.27-4.93l.27-.06h.28a11.63,11.63,0,0,0,1.77-.14,17,17,0,0,0,4.57-1.39l.45-.15c17-4,30.55-7,37.47-5,2.13.61,5.1,1.68,8.87,3l7,2.52-2.87,2.8c-5.82,5.66-11.81,11.24-17.8,16.57l-1.26,1.12-1.51-.74c-3.48-1.72-7.87-3.62-11-3a27.39,27.39,0,0,0-6.23,2A19.13,19.13,0,0,1,1082.73,1135.57Zm-24.06-11.37c22.49,8.15,25.59,6.84,30.2,4.9a32.7,32.7,0,0,1,7.25-2.3c4-.75,8.53.83,12.6,2.73,4.54-4.07,9.07-8.27,13.51-12.53-3.3-1.2-6.15-2.22-8-2.75-5.71-1.63-19.67,1.43-34.72,5a22.5,22.5,0,0,1-5.67,1.68,19.32,19.32,0,0,1-2.14.19C1067.33,1122.17,1063,1123.2,1058.67,1124.2Z"/><path class="cls-1" d="M1103.25,1124.2c-12.26,2.31-7.2,9-41.32-3.65-1.75-.65-3.5-1.33-5.23-2-7.07,1.54-14.32,3-21.6,4.16-2.89,8.13-4.92,11.37-3.74,17.61.91,4.83,9,5,18.27,4.85,7.2-7.35.47-1.68,24.12-9,21.09-6.55,21.09,1.33,23.77,6.88q9.32-7.59,18.28-15.54C1111,1125.08,1106.72,1123.54,1103.25,1124.2Z"/><path d="M1045.45,1147.69c-7.59,0-15.39-.82-16.55-7-1.09-5.77.28-9.4,2.36-14.89.45-1.21,1-2.53,1.48-4l.49-1.39,1.47-.24c6.49-1,13.52-2.4,21.46-4.13l.76-.17.72.3c1.86.76,3.55,1.41,5.15,2,24.81,9.17,28,7.84,32.75,5.83a32.7,32.7,0,0,1,7.25-2.3c4.53-.86,9.68,1.27,14.12,3.46l3.33,1.64-2.77,2.47c-5.72,5.08-11.9,10.34-18.37,15.61l-2.46,2-1.38-2.85c-.35-.73-.65-1.47-.94-2.19-1.84-4.55-3.43-8.48-19.83-3.39a122.26,122.26,0,0,1-17.41,4.39c-2.14.36-2.14.36-4.33,2.62l-1.34,1.38-.71.73-1,0C1048.31,1147.66,1046.88,1147.69,1045.45,1147.69Zm-8.5-22.79-1,2.72c-2,5.19-2.94,7.8-2.12,12.2.56,2.93,9.29,2.94,14.74,2.83l.6-.62c3-3.11,3.46-3.47,7.09-4.08a118.76,118.76,0,0,0,16.76-4.23c18.24-5.66,22.69-1.21,25.51,5.22,4.43-3.65,8.7-7.27,12.75-10.83-2.65-1.08-5.4-1.86-7.55-1.46h0a27.9,27.9,0,0,0-6.23,2c-6.41,2.71-10.94,3.68-36.42-5.74-1.45-.54-3-1.12-4.59-1.78C1049.33,1122.66,1042.92,1123.91,1037,1124.9Z"/><path class="cls-1" d="M1061.66,1166.32c-1.18-6.24.85-9.48,3.74-17.61-5.2.84-10.41,1.55-15.56,2.06-10.23,1-16,4.82-18.67,9.68a54.13,54.13,0,0,0,6.28,12.33c7.69,6,16.44,10.42,24.67,14a27.86,27.86,0,0,0,5.23-3.71c6.58-5.85,10.28-9.51,12.58-11.85C1070.63,1171.36,1062.57,1171.15,1061.66,1166.32Z"/><path d="M1062.25,1189.5l-1.11-.47c-10.48-4.5-18.5-9-25.22-14.28l-.28-.22-.21-.28a56.85,56.85,0,0,1-6.6-12.91l-.4-1.07.54-1c2.32-4.32,7.79-9.73,20.63-11,4.85-.48,9.89-1.15,15.4-2l4.17-.68-1.42,4c-.54,1.53-1,2.88-1.51,4.11-2,5.2-3,7.81-2.12,12.2h0c.58,3.13,10.46,2.92,15.76,2.82l6.12-.13-4.29,4.38c-2.21,2.25-5.93,5.95-12.7,12a30.61,30.61,0,0,1-5.7,4Zm-23-18.47c6.08,4.69,13.32,8.81,22.69,12.9a27,27,0,0,0,3.73-2.77c3.43-3.06,6.07-5.51,8.11-7.46-6.93-.15-13.54-1.32-14.6-6.92-1.08-5.77.28-9.4,2.36-14.89l0-.06c-4,.59-7.8,1.06-11.49,1.42-7.84.78-13.39,3.34-16.15,7.44A50.51,50.51,0,0,0,1039.27,1171Z"/><path class="cls-1" d="M1059.7,1209.86c8.83,6,11.54,9.27,13.15,11.47a21.65,21.65,0,0,0,6.78-2.34c-8.23-3.53-17-8-24.67-14A20,20,0,0,0,1059.7,1209.86Z"/><path d="M1071.74,1224.05l-.91-1.24c-1.1-1.51-3.39-4.64-12.54-10.89h0a22.75,22.75,0,0,1-5.36-5.41l-10.4-14.32,14,10.88c6.38,5,14,9.3,24.12,13.62l4.74,2-4.53,2.46a24,24,0,0,1-7.56,2.62Z"/><path class="cls-1" d="M1269.29,741.9a25.36,25.36,0,0,1-5.54,7.35c14.62,3.84,17.57,10.09,17.7,36.47q3.52-24.15,4.88-48.22C1281.78,736.5,1275.85,738.38,1269.29,741.9Z"/><path d="M1283.93,786.08l-5-.35c-.12-25.46-2.49-30.55-15.84-34.06l-4.19-1.1,3.06-3.08c2.65-2.67,4.2-4.7,5-6.58l.34-.8.77-.41c7.79-4.18,13.93-5.7,18.76-4.64l2.08.46-.12,2.12C1287.91,753.76,1286.26,770.05,1283.93,786.08ZM1268.28,748c7.5,2.7,11.49,6.84,13.57,14.2.77-7.5,1.38-15,1.84-22.5-3.23,0-7.42,1.35-12.49,4A22.48,22.48,0,0,1,1268.28,748Z"/><path class="cls-1" d="M1026,1102.21a122.57,122.57,0,0,1-3.76,12.73c7.28-1.18,14.54-2.62,21.6-4.16A156.38,156.38,0,0,1,1026,1102.21Z"/><path d="M1018.44,1118.08l1.41-4a118.73,118.73,0,0,0,3.69-12.47l.77-3.22,2.89,1.63a155.22,155.22,0,0,0,17.55,8.42l7.47,3-7.88,1.71c-8,1.75-15.14,3.12-21.73,4.19Zm9.16-12.12c-.53,2-1.08,3.92-1.69,5.82,3.1-.54,6.32-1.15,9.71-1.83Q1031.48,1108,1027.6,1106Z"/><path class="cls-1" d="M1171.78,402.72c-16.08,15.73-15,7.91-31.1,23.63s-19.82,43.1-18.66,49.23c.44,2.37,29.34,14.59,64.61,28.67a78.71,78.71,0,0,1,9.53-14.34c-8.86-14.39-8.53-45.37,26-44.81A557.79,557.79,0,0,0,1193,396.22C1183.68,396.91,1175.78,398.81,1171.78,402.72Z"/><path d="M1187.79,507.4l-2.08-.83c-65.31-26.08-65.74-28.34-66.15-30.52-1.21-6.4,2.48-35,19.37-51.48,8.3-8.12,12.28-10.22,16.13-12.25s7.19-3.78,15-11.39c4.11-4,11.56-6.37,22.79-7.2l1.45-.11.81,1.21a560.47,560.47,0,0,1,29.32,49.09l2,3.75-4.23-.07c-12.14-.22-20.86,3.74-25.22,11.41-5.26,9.24-3.23,22.14,1.35,29.59l1,1.56-1.19,1.38a76.62,76.62,0,0,0-9.21,13.88Zm-63.4-32.87c2,1.54,12.3,7.05,61.11,26.57a81.54,81.54,0,0,1,7.62-11.45c-4.79-9-6.46-22.72-.54-33.12,3.41-6,10.57-13,25.48-13.85-8.16-15.11-17-29.84-26.32-43.85-11.25,1-16.11,3.62-18.21,5.67h0c-8.3,8.12-12.29,10.22-16.14,12.25-3.69,1.94-7.18,3.78-15,11.39C1127.34,442.89,1123.75,468.24,1124.39,474.53Zm-.3-.26"/><path class="cls-1" d="M1236.9,903.46c-12.09-.63-20-1.22-25.75-1.49-1.73,5.06-3.37,10.48-4.91,16.11,16,12.63,29.08,19.73,39.49,38.4a128.9,128.9,0,0,0,6.76-11.23c.92-2,1.8-4.08,2.69-6.13a64.88,64.88,0,0,1,3.67-8.63q3-7.17,5.75-14.44C1260.57,909,1253.52,904.34,1236.9,903.46Z"/><path d="M1245.54,961.29l-2-3.59c-8.08-14.5-17.58-21.62-29.62-30.63-3-2.21-6-4.51-9.23-7l-1.29-1,.43-1.59c1.59-5.81,3.25-11.28,5-16.26l.61-1.77,1.87.08c2.64.13,5.66.32,9.49.55,4.34.27,9.74.6,16.28,1h0c15.73.82,24.62,5,29.73,13.83l.59,1-.42,1.12c-1.89,4.93-3.84,9.81-5.78,14.5l-.08.18a59.91,59.91,0,0,0-3.53,8.3l-.29.69c-.82,1.89-1.64,3.78-2.49,5.65l-.06.13a128.42,128.42,0,0,1-6.9,11.46Zm-36.44-44.15c2.68,2.09,5.28,4,7.82,5.93,11.06,8.28,20.73,15.52,28.91,28.66,1.8-2.85,3.25-5.35,4.41-7.57.83-1.84,1.63-3.69,2.43-5.54l.18-.4a65.12,65.12,0,0,1,3.73-8.78c1.76-4.25,3.53-8.67,5.25-13.14-3.07-4.77-8.8-9.49-25.06-10.34h0c-6.55-.34-12-.68-16.31-1l-7.54-.45C1211.61,908.49,1210.33,912.7,1209.1,917.14Z"/><path class="cls-1" d="M1245.17,886.67c-2.89-2,.51-10.94,5.6-22.53-14.22,3.72-25.51,6.12-29.68,9.29-5.68,4.31-11.21,15.53-16.07,29.7,5.71.27,13.66.85,25.75,1.49,16.62.87,23.67,5.57,27.7,12.59q5.37-14,10-28.44C1261.8,885.9,1250.66,890.42,1245.17,886.67Z"/><path d="M1258.93,923l-2.62-4.56c-2.94-5.09-8.28-10.42-25.67-11.33-6.54-.35-11.94-.68-16.29-1-3.82-.24-6.84-.42-9.45-.55l-3.32-.15,1.08-3.15c5.54-16.17,11.23-26.56,16.92-30.88,3.82-2.91,11.93-5,23.16-7.82,2.36-.6,4.83-1.22,7.4-1.9l5-1.3-2.09,4.73c-5,11.27-7.1,17.84-6.38,19.52,2.2,1.41,6.28,1.12,10.22.84,4.35-.31,8.86-.63,12.59,1l2.09.9-.7,2.17c-3.08,9.54-6.47,19.15-10.07,28.56Zm-50.44-22.2,6.17.37c4.33.27,9.72.6,16.24.94,13.14.69,21.51,3.69,26.89,9.83,2.65-7.11,5.18-14.31,7.53-21.49a38.24,38.24,0,0,0-8.07,0c-4.86.35-9.88.71-13.49-1.76h0c-3.8-2.6-2.33-9,2.7-20.89l-2.49.63c-9.85,2.5-18.36,4.66-21.37,6.95S1214.49,884.2,1208.49,900.81Z"/><path class="cls-1" d="M1250.15,854.1c-5.1,11.59-8.49,20.55-5.6,22.53,5.49,3.75,16.63-.77,23.33,2.1,1.91-5.9,3.76-11.83,5.48-17.81q2.17-7.59,4.11-15.18c-5.49,2-10.93,3.77-16.15,5.29C1257.45,852.16,1253.72,853.17,1250.15,854.1Z"/><path d="M1269.42,882.1,1266.9,881c-2.62-1.12-6.51-.85-10.27-.58-4.86.35-9.88.71-13.49-1.76-4.28-2.92-1.88-10.58,4.73-25.6l.48-1.1,1.17-.31c4.22-1.1,7.75-2.07,11.1-3,5.77-1.68,11-3.4,16-5.24l4.47-1.65-1.19,4.62c-1.43,5.57-2.78,10.55-4.13,15.25-1.54,5.36-3.29,11-5.5,17.89Zm-23.36-7.47c2.2,1.41,6.27,1.12,10.21.84a37.72,37.72,0,0,1,10,.15c1.85-5.76,3.36-10.7,4.7-15.4,1-3.32,1.92-6.8,2.91-10.54-3.74,1.29-7.65,2.53-11.84,3.75-3.08.9-6.3,1.79-10.06,2.78C1247.34,866.81,1245.36,873,1246.06,874.63Z"/><path class="cls-1" d="M1276.63,656c1.64-6,3-10.82,4.15-14.74-9.32-5.1-18.53-12.73-27.45-19.31,1.46,32.19,4,63.38,14.06,72.62,8.57,7.84,10,13.33,7.85,18.29,6.57-3.52,12.49-5.39,17-4.4.44-7.7.74-15.39.86-23.06C1275.67,683.67,1267.27,690.46,1276.63,656Z"/><path d="M1270.09,718.44l2.86-6.59c1.28-2.94,1.6-7.36-7.25-15.46-10-9.13-13.09-35.22-14.87-74.35l-.24-5.24,4.22,3.11c2.16,1.6,4.34,3.26,6.54,4.92,6.74,5.13,13.72,10.43,20.63,14.21l1.77,1-.57,1.93c-1.31,4.46-2.66,9.27-4.13,14.7h0c-2.6,9.55-5.27,20.92-2.87,24.12,1.2,1.6,4.49,1.66,9.06,1.74,2.4,0,5.13.1,8.15.39l2.29.23,0,2.3c-.12,7.37-.4,15-.87,23.17l-.17,2.92-2.86-.62c-3.57-.79-8.72.61-15.32,4.15Zm-14-91.34c1.06,22.14,3.36,56.77,13,65.6,6.34,5.81,9.45,10.84,9.57,15.7a28.2,28.2,0,0,1,11.28-2.72c.34-6.3.56-12.22.68-18-2-.12-3.79-.16-5.47-.19-5.75-.1-10.3-.19-13-3.74-3.08-4.1-2.55-11.55,2-28.43,1.28-4.7,2.46-8.94,3.61-12.89-6.64-3.84-13.17-8.81-19.51-13.63Z"/><path class="cls-1" d="M1278.74,670.83a50.25,50.25,0,0,0,11.55,4.75q-1.23-22.1-4.17-43.88C1284.49,657.52,1286,646,1278.74,670.83Z"/><path d="M1293,678.85l-3.31-.85a52.42,52.42,0,0,1-12.13-5l-1.77-1,.57-1.94c1.8-6.12,3.05-10,4-12.86,2.2-6.84,2.2-6.84,2.82-17.48.13-2.24.29-4.93.49-8.24l5-.18c1.94,14.23,3.34,29.06,4.19,44.08Zm-11.26-9.28a48.85,48.85,0,0,0,5.86,2.56q-.54-8.62-1.32-17.14c-.32,1.07-.71,2.29-1.19,3.8C1284.26,661.29,1283.19,664.62,1281.72,669.57Z"/><path class="cls-1" d="M1273.26,752.54c-4.24,4.27-9.82,8.84-14.4,14.9,6.66,13.6,11.77,25.7,12,33.12.26,8.6-3.78,20.46-8.72,32.37,7.56-3.75,15.65-13.87,25.18-21.74,1.38-7.39,2.58-14.79,3.65-22.18C1290.83,762.63,1287.87,756.38,1273.26,752.54Z"/><path d="M1257.27,838.13l2.56-6.16c3.78-9.13,8.79-22.32,8.52-31.34-.22-7.66-6.39-21.17-11.74-32.09l-.67-1.38.92-1.22a92.53,92.53,0,0,1,10.83-11.51c1.35-1.27,2.63-2.48,3.79-3.65l1-1,1.39.36c16.73,4.4,19.44,13.12,19.57,38.88v.18l0,.19c-1.16,8-2.37,15.27-3.68,22.28l-.16.89-.7.58c-3.58,3-7,6.25-10.23,9.43-5.36,5.21-10.42,10.13-15.42,12.62Zm4.52-70.38c7.9,16.27,11.37,26.11,11.56,32.74.19,6.33-1.63,14.41-5.84,25.64,2.46-2.1,5-4.59,7.67-7.16,3.13-3.05,6.37-6.2,9.83-9.12,1.23-6.62,2.36-13.51,3.45-21-.13-24.41-2.36-30-14.47-33.49-.92.89-1.87,1.79-2.87,2.73A96.25,96.25,0,0,0,1261.79,767.75Z"/><path class="cls-1" d="M1270.68,685c-9.37,34.48-1,27.69,16.51,29.4q.3-19.79-.81-39.4a50.66,50.66,0,0,1-11.55-4.74C1273.68,674.22,1272.32,679,1270.68,685Z"/><path d="M1289.65,717.19l-2.7-.26c-2.82-.28-5.45-.33-7.76-.37-5.75-.1-10.3-.19-13-3.74-3.09-4.11-2.55-11.55,2-28.44h0c1.48-5.45,2.84-10.29,4.16-14.79l.87-3,2.73,1.49a47.63,47.63,0,0,0,11,4.52l1.77.46.11,1.82c.74,13.23,1,26.55.81,39.58Zm-13.27-43.27c-1.05,3.63-2.13,7.51-3.29,11.77h0c-2.59,9.56-5.26,20.93-2.86,24.13,1.19,1.6,4.49,1.66,9,1.74,1.67,0,3.49.06,5.45.18.11-11.47-.14-23.15-.75-34.77A51.52,51.52,0,0,1,1276.38,673.92Z"/><path class="cls-1" d="M1252.63,829.64c-3.37,8.12-7.15,16.25-10.3,23.39,3.57-.93,7.3-1.94,11.17-3.06,5.22-1.53,10.66-3.27,16.15-5.3q4.72-18.36,8.15-36.76C1268.27,815.77,1260.18,825.89,1252.63,829.64Z"/><path d="M1238,856.76,1240,852c1-2.31,2.11-4.73,3.22-7.21,2.35-5.25,4.79-10.67,7.06-16.14l.36-.86.83-.42c4.31-2.14,9.09-6.79,14.16-11.72,3.35-3.25,6.8-6.62,10.54-9.7l5.31-4.4-1.26,6.78c-2.33,12.47-5.09,24.89-8.19,36.93l-.32,1.27-1.23.45c-5.1,1.89-10.44,3.64-16.32,5.36-3.36,1-6.93,2-11.23,3.08Zm16.63-25.33c-2.2,5.25-4.52,10.43-6.77,15.44q-.54,1.21-1.08,2.4c2.16-.59,4.14-1.15,6.06-1.7,5.3-1.55,10.14-3.12,14.76-4.8,2.34-9.2,4.48-18.62,6.38-28.1-1.62,1.52-3.22,3.07-4.78,4.59C1264.1,824.18,1259.31,828.84,1254.59,831.43Z"/><path class="cls-1" d="M1256,476.61a40.94,40.94,0,0,0-13,10.41c.42.68.85,1.34,1.31,1.94,4.82,6.35,31.59,20.65,58.31,33.9l1-1.09a558.23,558.23,0,0,0-27.88-66.46C1272,464.07,1265.93,471.79,1256,476.61Z"/><path d="M1303.27,525.93l-1.68-.83c-52.76-26.16-57.6-32.53-59.19-34.63-.46-.61-.92-1.29-1.45-2.14l-1-1.55,1.19-1.39a43.33,43.33,0,0,1,13.75-11h0c8.35-4.06,14.44-10.63,18.62-20.06l2.15-4.87,2.37,4.77a561.71,561.71,0,0,1,28,66.75l.5,1.43-1,1.1-1,1.07Zm-57-38.68.15.19c2.08,2.74,11.86,10.42,53.63,31.29A558.63,558.63,0,0,0,1275.83,461a41.93,41.93,0,0,1-18.71,17.9h0A37.19,37.19,0,0,0,1246.23,487.25Z"/><path class="cls-1" d="M1222.15,959.44c1.19.46,2.36.91,3.53,1.38q3.24-6.33,6.32-12.77c-.28-.52-.57-1-.85-1.52C1228.49,950.55,1225.45,954.88,1222.15,959.44Z"/><path d="M1226.87,964l-2.11-.83-3.5-1.36-3-1.17,1.91-2.63c3.56-4.93,6.48-9.12,8.94-12.83l2.27-3.43,2.25,4,.62,1.12.59,1.12-.55,1.13c-2.14,4.47-4.27,8.78-6.35,12.83Z"/><path class="cls-1" d="M1232,948.05q3-6.33,5.92-12.75a128.23,128.23,0,0,1-6.77,11.23C1231.43,947,1231.72,947.53,1232,948.05Z"/><path d="M1232.11,953.6l-2.32-4.38c-.18-.34-.37-.68-.56-1l-1-1.79.84-1.27a123.53,123.53,0,0,0,6.63-11l4.5,2.18c-2,4.36-4,8.68-6,12.81Z"/><path class="cls-1" d="M1220.15,489.2a41,41,0,0,1,12.94-10.41c9.9-4.82,15.94-12.54,19.82-21.3q-3.29-6.6-6.73-13.1C1211.62,443.83,1211.29,474.81,1220.15,489.2Z"/><path d="M1219.81,493.43l-1.79-2.92c-5.47-8.89-7.72-23.66-1.44-34.69,3.71-6.51,11.86-14.19,29.64-13.93l1.48,0,.69,1.3c2.24,4.22,4.51,8.65,6.76,13.17l.52,1.05-.47,1.07c-4.68,10.56-11.55,17.93-21,22.53a38.69,38.69,0,0,0-12.15,9.8Zm24.87-46.55c-11.38.14-19.57,4.07-23.76,11.42-4.61,8.09-3.62,19-.22,26.6a41.13,41.13,0,0,1,11.3-8.36c8-3.91,14-10.13,18.14-19C1248.32,453.9,1246.49,450.32,1244.68,446.88Z"/><path class="cls-1" d="M1257.43,526.57c-.21-.64-.42-1.28-.64-1.91l-1,1.09Z"/><path d="M1261.76,531.49l-10.09-5,2.27-2.45c.32-.35.64-.69,1-1l2.83-3,1.42,3.84.34,1,.3.89Z"/><path class="cls-1" d="M1252.1,529.85l7.38,2.83q-1-3.06-2-6.11l-1.66-.82C1254.54,527.08,1253.31,528.44,1252.1,529.85Z"/><path d="M1263.5,536.91l-15.61-6,2.32-2.69c1.11-1.29,2.33-2.65,3.73-4.17l1.27-1.37,4.26,2.1.33,1q1,3.06,2,6.14Z"/><path class="cls-1" d="M1302,646.9c5.12,14.23,10.29,32.05,15.71,49.48,10.29,4.11,21.13,9.16,31.44,11.74.77-25.84,2.2-14.32-2.75-39.72-7-17-14.88-33.57-23.48-49.69-7.48,7-15,15.82-22.2,24.7C1301.12,644.55,1301.54,645.71,1302,646.9Z"/><path d="M1351.53,711.3l-3-.75c-8-2-16.27-5.44-24.27-8.77-2.52-1-5-2.09-7.5-3.08l-1.11-.44-.35-1.14c-1.39-4.48-2.77-9-4.13-13.45-4-13.07-7.76-25.41-11.54-35.93h0c-.42-1.17-.85-2.32-1.27-3.45l-.51-1.35.91-1.11c6.7-8.22,14.6-17.61,22.44-25l2.38-2.23,1.53,2.88c8.8,16.5,16.73,33.29,23.59,49.92l.14.47c.63,3.24,1.16,5.88,1.59,8.07,2.18,10.87,2.22,11.07,1.78,18.89-.16,3-.39,7-.58,13.32Zm-31.82-16.8c2.14.86,4.29,1.76,6.46,2.67a206,206,0,0,0,20.56,7.71c.16-4.62.34-7.83.48-10.28.4-7.18.4-7.18-1.69-17.63-.43-2.14-.94-4.71-1.55-7.85-6.37-15.41-13.67-31-21.73-46.31a273,273,0,0,0-18.71,21.07c.27.71.53,1.44.8,2.17h0c3.82,10.64,7.61,23,11.61,36.16C1317.19,686.29,1318.44,690.4,1319.71,694.5Z"/><path class="cls-1" d="M1310.06,516.21a69.1,69.1,0,0,1-10.1,10.06c-6.61,5.43-13.88,9.82-20.31,13.69,4.61,5.68,9.22,9.63,13.88,9.84,6.36.29,9.46,12,11.23,29,9.24-6.76,18.71-13.4,27.73-18.29q-5.38-22.53-12.58-44.47l-7.37-2.83C1311.7,514.22,1310.87,515.2,1310.06,516.21Z"/><path d="M1302.73,583.42l-.46-4.32c-2.4-23.08-6.58-26.7-8.85-26.8-4.93-.22-9.92-3.64-15.71-10.76l-1.82-2.23,2.47-1.49c6.33-3.81,13.51-8.14,20-13.49a66.47,66.47,0,0,0,9.73-9.68h0c.73-.91,1.53-1.88,2.53-3l1.15-1.33,10.13,3.89.37,1.13c4.79,14.59,9,29.62,12.63,44.67l.44,1.86-1.68.92c-9.18,5-19,12-27.44,18.11Zm-19.27-42.84c3.93,4.39,7.28,6.59,10.18,6.73,6.78.3,10.78,8.43,13.12,27a251.05,251.05,0,0,1,22.85-15c-3.37-13.9-7.3-27.78-11.7-41.29l-4.62-1.77c-.47.55-.89,1.06-1.28,1.56h0a71.06,71.06,0,0,1-10.46,10.42A152.71,152.71,0,0,1,1283.46,540.58Z"/><path class="cls-1" d="M1204.1,955.2c-.52,3.17-1,6.29-1.41,9.31-3.35,24.56-7.45,19-25.35,14.56.37,4.74-.62,8.68-4.06,11.3-8.89,6.75,8.56,12.41,26.93,18.12,3.67,1.14,7.36,2.28,10.9,3.44,9.78-14.34,21.82-30,31.75-43.69q-4.74-1.82-9.61-3.55C1223.62,961.27,1213.74,958.11,1204.1,955.2Z"/><path d="M1212.12,1014.88l-1.78-.58c-3.22-1-6.62-2.1-9.92-3.13l-1-.29c-18.55-5.77-29.9-9.72-31-15.93-.29-1.64,0-4.1,3.29-6.57,2.45-1.86,3.43-4.75,3.08-9.11l-.27-3.45,3.36.82c2.7.66,5.07,1.35,7.17,2,5,1.44,8.59,2.48,10.34,1.35,2.55-1.67,3.89-9.3,4.77-15.77.41-3,.89-6.13,1.42-9.38l.46-2.81,2.73.82c11.08,3.36,20.66,6.48,29.27,9.54,3.23,1.15,6.48,2.35,9.66,3.56l3,1.17-1.91,2.63c-3.53,4.89-7.25,9.91-11.19,15.23-7,9.44-14.23,19.2-20.51,28.4Zm-32.26-32.57c-.29,4.38-2,7.69-5.07,10.05-1,.79-1.45,1.43-1.4,1.72.65,3.66,18.15,9.1,27.56,12l1,.3c2.71.84,5.49,1.71,8.2,2.57,6.08-8.82,12.93-18.06,19.56-27,3.23-4.35,6.3-8.49,9.24-12.53-2.15-.81-4.33-1.6-6.49-2.37-7.83-2.78-16.45-5.61-26.31-8.63-.34,2.21-.66,4.36-.94,6.43-1.63,11.92-3.46,17-7,19.28s-8.19,1.08-14.45-.73Z"/><path class="cls-1" d="M1066.38,1125.92c-4.71.07-9-2.08-12.27-6.43-10.13-13.33-17.24-78-21.95-28.89a229.26,229.26,0,0,1-5,31.7,158,158,0,0,0,17.84,8.56C1052.45,1129.25,1059.63,1127.54,1066.38,1125.92Z"/><path d="M1044.83,1133.47l-.72-.29a159.53,159.53,0,0,1-18.13-8.71l-1.64-.92.44-1.84a227.82,227.82,0,0,0,4.89-31.34c1.63-17,3.4-20.14,6.52-20.41,4.06-.35,5.8,5.16,10.25,21.19,2.75,9.91,6.18,22.25,9.66,26.82,2.79,3.68,6.26,5.54,10.24,5.45l22.52-.32-21.9,5.25c-7.09,1.7-14.07,3.36-21.37,5ZM1030.08,1121a155,155,0,0,0,15.2,7.22c3.94-.86,7.8-1.75,11.63-2.65a20.16,20.16,0,0,1-4.79-4.6c-4.06-5.34-7.33-17.12-10.5-28.52-1.5-5.39-3.42-12.33-4.89-15.8-.57,2.12-1.32,6.23-2.08,14.16A240.61,240.61,0,0,1,1030.08,1121Z"/><path class="cls-1" d="M1212.57,1014.22c3.4,0,6.68,0,9.68.15q6.4-25.36,10.41-51.44l-3.78-.19C1223.81,978.91,1217.32,997.53,1212.57,1014.22Z"/><path d="M1224.18,1017l-2-.1c-2.66-.12-5.78-.17-9.56-.15l-3.33,0,.91-3.2c3.08-10.81,6.88-22.41,10.55-33.62,2-6.27,4-12.2,5.79-17.93l.57-1.83,1.92.09c1.28,0,2.54.12,3.81.19l2.75.14-.42,2.73c-2.63,17.25-6.15,34.63-10.45,51.67Zm-8.29-5.25c1.6,0,3.07,0,4.43.08,3.33-13.39,6.16-27,8.46-40.52-1.07,3.31-2.18,6.7-3.32,10.2C1222.16,991.54,1218.76,1001.92,1215.89,1011.72Z"/><path class="cls-1" d="M1202.14,1025.15c-7-14.5-16.56-22.32-31.53-15.23a177.51,177.51,0,0,0-26.17,14.76c.44,2.46.86,5,1.2,7.72,5.76,45.81,7,25.4,37.91,31.24q6.57-7.94,12.83-16.1C1194.33,1042.74,1196.94,1034.78,1202.14,1025.15Z"/><path d="M1184.54,1066.37l-1.45-.27a65.49,65.49,0,0,0-20.25-.62c-5.79.57-10.36,1-13.53-4.11-2.42-3.93-3.92-10.89-6.15-28.66-.3-2.35-.67-4.76-1.18-7.59l-.29-1.57,1.31-.92a182,182,0,0,1,26.54-15c14.57-6.9,26.29-1.38,34.85,16.41l.55,1.15-.6,1.12c-6.6,12.21-6.72,17.74-5.66,20.22l.57,1.34-.89,1.16c-4.19,5.46-8.52,10.91-12.88,16.17Zm-13.13-6.4a67.15,67.15,0,0,1,11.14,1c3.73-4.53,7.43-9.17,11-13.85-1.32-5,.54-12.06,5.75-22-7.31-14.53-15.87-18.51-27.65-12.93a182.42,182.42,0,0,0-24.5,13.64c.39,2.26.69,4.28.94,6.27,1.78,14.18,3.24,23.08,5.45,26.66,1.39,2.26,2.81,2.34,8.79,1.76A87,87,0,0,1,1171.41,1060Z"/><path class="cls-1" d="M1172.92,1044.34c3.27-4.28,6.5-8.59,9.65-13a100.35,100.35,0,0,0-3.89-9.43C1173.48,1031.58,1170.87,1039.54,1172.92,1044.34Z"/><path d="M1172.29,1049.26l-1.67-3.94c-2.23-5.23-.37-13,5.86-24.56l2.33-4.31,2.12,4.42a99.24,99.24,0,0,1,4,9.67l.45,1.23-.77,1.07c-2.89,4-6.06,8.27-9.7,13Zm6.23-21.48a43.81,43.81,0,0,0-3.44,9.57c1.66-2.21,3.21-4.32,4.69-6.36C1179.36,1029.88,1178.94,1028.81,1178.52,1027.78Z"/><path class="cls-1" d="M1182.57,1031.38q8.84-12.27,17-25.05c-2.8-1.08-5.9-2.15-9.14-3.2a218.7,218.7,0,0,0-11.73,18.82A100.35,100.35,0,0,1,1182.57,1031.38Z"/><path d="M1181.82,1036.7l-1.6-4.48a95.1,95.1,0,0,0-3.8-9.18l-.55-1.15.61-1.13a220.5,220.5,0,0,1,11.86-19l1.06-1.55,1.78.58c3.68,1.2,6.71,2.26,9.27,3.25l2.86,1.1-1.65,2.58c-5.55,8.69-11.29,17.15-17.06,25.16Zm-.34-14.66c.6,1.29,1.19,2.65,1.77,4.09,4.22-6,8.42-12.19,12.52-18.54-1.33-.47-2.77-1-4.35-1.5C1187.28,1012.22,1184,1017.46,1181.48,1022Z"/><path class="cls-1" d="M1259.17,748.19c-5.29-1.11-11.79-2.15-19.78-3.66,2.32,4.5,4.63,9,6.84,13.37C1250.54,754.46,1254.9,751.13,1259.17,748.19Z"/><path d="M1245.39,761.78,1244,759c-2.14-4.24-4.36-8.56-6.83-13.35l-2.35-4.56,5,1c3.35.64,6.44,1.19,9.29,1.69,4,.72,7.44,1.33,10.54,2l5.7,1.19-4.79,3.31c-3.82,2.64-8,5.78-12.79,9.61ZM1244,747.91c1.08,2.11,2.12,4.14,3.13,6.13q3.11-2.43,5.91-4.5l-4.73-.85Z"/><path class="cls-1" d="M1255.92,822.42c-17.32-4.35-31.9-14.31-45.76-.27s-8.8,20.71-45.23-4.17c-11.84-8.09-21.73-10.21-29.53-8.85q1,3.17,2,6.38c8.65,16.72,21.16,35.62,32.84,51a183.77,183.77,0,0,0,17.67,20.18c6.53-3,9.59-3.58,19.76-3.09,4.85-14.17,10.38-25.39,16.06-29.7,4.18-3.17,15.47-5.57,29.69-9.29,3.14-7.14,6.92-15.27,10.29-23.39A11.18,11.18,0,0,1,1255.92,822.42Z"/><path d="M1187.42,889.67l-1.24-1.21A186.89,186.89,0,0,1,1168.27,868c-12.93-17-25-35.73-33.07-51.35l-.17-.43c-.65-2.11-1.32-4.24-2-6.32l-.91-2.75,2.85-.5c9.43-1.63,20,1.47,31.37,9.25,14.09,9.62,22.66,15,27.58,16.08,3.52.74,4.86-.62,9-5.48,1.52-1.8,3.25-3.84,5.49-6.11,12-12.13,24.38-8,37.51-3.65,3.44,1.15,7,2.33,10.64,3.25h0a8.8,8.8,0,0,0,6.09-1l6-3-2.56,6.16c-2.29,5.53-4.75,11-7.12,16.28-1.1,2.47-2.18,4.86-3.19,7.16l-.49,1.11-1.17.3c-2.58.68-5.07,1.31-7.43,1.91-9.85,2.5-18.36,4.66-21.37,7-3.36,2.55-8.72,9.57-15.22,28.52l-.61,1.77-1.87-.09c-9.61-.45-12.39,0-18.58,2.87Zm-47.68-75.11c8,15.34,19.8,33.7,32.51,50.42a182.31,182.31,0,0,0,16.22,18.7c5.58-2.44,9.21-3,17.47-2.68,5.34-15.16,10.83-25,16.3-29.11,3.82-2.91,11.94-5,23.17-7.82,2-.5,4.08-1,6.23-1.59.87-2,1.79-4,2.72-6.09,1.65-3.68,3.35-7.45,5-11.26a11.57,11.57,0,0,1-4-.28h0c-3.81-1-7.47-2.18-11-3.35-12.62-4.19-22.59-7.5-32.37,2.41-2.11,2.13-3.77,4.1-5.23,5.83-4,4.77-7.23,8.54-13.82,7.14-5.78-1.22-14.42-6.63-29.37-16.84-8.94-6.1-17.44-9.1-24.8-8.76C1139.07,812.37,1139.41,813.46,1139.74,814.56Z"/><path class="cls-1" d="M1180.21,911.88c-15,4.78-16.27,17.12-14.17,30.61,5.24,1.74,11.9,4.09,20.65,7.72,4.8,2,9.78,4.11,14.82,6.29a383.77,383.77,0,0,1,12.62-37.07,183.14,183.14,0,0,1-13.25-14.63C1196.48,906.26,1190.55,908.59,1180.21,911.88Z"/><path d="M1203.13,959.93l-2.62-1.14c-5.44-2.36-10.28-4.41-14.78-6.28-9.37-3.88-16.17-6.22-20.48-7.65l-1.44-.48-.24-1.5c-3.76-24.2,7.26-30.64,15.88-33.38h0c6.81-2.16,11.63-3.89,15.5-5.27,2-.71,3.64-1.3,5.14-1.8l1.64-.55,1.09,1.35a179.29,179.29,0,0,0,13.07,14.43l1.17,1.16-.61,1.54a383.19,383.19,0,0,0-12.54,36.82Zm-34.84-19.32c4.4,1.48,10.83,3.76,19.35,7.29,3.8,1.57,7.83,3.27,12.25,5.18,3.31-11.29,7.19-22.63,11.31-33.05-4.12-4.17-7.72-8.13-11.16-12.3l-3.41,1.2c-3.9,1.4-8.77,3.14-15.67,5.34C1170,917.76,1166.23,925.44,1168.29,940.61Z"/><path class="cls-1" d="M1247.29,978.56c3.25,1.15,6.45,2.34,9.61,3.54,3.29-4.55,6.33-8.89,9-12.91-10.4-18.67-23.5-25.78-39.48-38.41a387.74,387.74,0,0,0-8.28,38.28C1227.78,972,1237.66,975.13,1247.29,978.56Z"/><path d="M1257.8,985.12l-1.79-.68c-3.14-1.2-6.35-2.39-9.56-3.53-8.53-3-18-6.13-29-9.46l-2.1-.63.36-2.16a388.32,388.32,0,0,1,8.33-38.53l1-3.65,3,2.34c3.14,2.49,6.18,4.76,9.12,7,12,9,22.39,16.76,31,32.19l.74,1.33-.84,1.27c-2.49,3.76-5.45,8-9.06,13ZM1221,967.31c10.2,3.11,19.11,6,27.17,8.89h0c2.63.94,5.27,1.9,7.86,2.88,2.68-3.72,5-7,7-10-7.91-13.62-17.2-20.57-28.87-29.3-2-1.51-4.1-3.07-6.23-4.7C1225.18,945.37,1222.82,956.39,1221,967.31Z"/><path class="cls-1" d="M1191.67,908.12c1.53-5.62,3.18-11,4.91-16.1-10.17-.48-13.23,0-19.75,3.09A179.24,179.24,0,0,0,1191.67,908.12Z"/><path d="M1193.09,912.43l-3-2.35a183,183,0,0,1-15-13.18l-2.58-2.53,3.27-1.52c7-3.26,10.5-3.82,20.93-3.33l3.32.16-1.08,3.15c-1.66,4.87-3.3,10.23-4.86,15.95Zm-11.81-16.51c2.84,2.67,5.79,5.25,9,7.88.94-3.27,1.9-6.42,2.87-9.41C1187.72,894.25,1184.81,894.6,1181.28,895.92Z"/><path class="cls-1" d="M1067.24,1105.67a19.88,19.88,0,0,0,5.23-1.59l-7.33,1.76A16.81,16.81,0,0,0,1067.24,1105.67Z"/><path d="M1042.68,1108.66l23-5.52,6.21-1.49,1.61,4.71a22.06,22.06,0,0,1-5.9,1.78h0a17.83,17.83,0,0,1-2.43.2Z"/><path class="cls-1" d="M1198.25,967.89c.41-3,.88-6.14,1.4-9.32-5.25-1.58-10.45-3.12-15.44-4.54-9.11-2.6-16-4.17-21.4-5.29,3.28,11.87,9.34,24.36,10.08,33.71C1190.79,986.84,1194.9,992.45,1198.25,967.89Z"/><path d="M1189,988.8c-2.73,0-5.91-.92-9.75-2-2-.6-4.38-1.27-7-1.9l-1.76-.43-.14-1.8c-.43-5.47-2.87-12.29-5.45-19.5-1.61-4.5-3.28-9.16-4.55-13.75l-1.08-3.94,4,.83c4.51.93,11.64,2.5,21.57,5.33,4.71,1.34,9.92,2.88,15.49,4.56l2.1.64-.36,2.16c-.52,3.2-1,6.31-1.4,9.25-1.62,11.92-3.45,17-7,19.27A8.28,8.28,0,0,1,1189,988.8Zm-13.83-8.35c2,.52,3.82,1,5.47,1.52,5,1.44,8.59,2.48,10.33,1.34,2.56-1.66,3.9-9.29,4.78-15.76h0c.32-2.31.67-4.73,1.07-7.21-4.76-1.43-9.23-2.75-13.32-3.91-7.16-2-12.84-3.41-17.1-4.36,1,3.13,2.13,6.3,3.24,9.4C1172.09,968.27,1174.41,974.74,1175.19,980.45Z"/><path class="cls-1" d="M1255.77,525.75c-26.72-13.25-53.49-27.55-58.31-33.9a21.13,21.13,0,0,1-1.3-1.94,78.71,78.71,0,0,0-9.53,14.34c21.13,8.43,44.52,17.53,65.47,25.6C1253.31,528.44,1254.54,527.08,1255.77,525.75Z"/><path d="M1252.85,532.82l-1.65-.64c-25.09-9.66-47.13-18.28-65.49-25.61l-2.59-1,1.31-2.46a80.85,80.85,0,0,1,9.83-14.8l2.23-2.59,1.79,2.91c.44.71.81,1.26,1.17,1.73,2.14,2.82,12.45,10.88,57.43,33.18l3,1.48-2.27,2.46c-1.36,1.47-2.54,2.79-3.61,4ZM1190.19,503c17.4,6.94,38,15,61.18,23.92l.33-.37c-45.34-22.61-53.41-29.8-55.68-32.47A77.41,77.41,0,0,0,1190.19,503Z"/><path class="cls-1" d="M1244.28,920.54a63.05,63.05,0,0,0-3.67,8.63Q1242.47,924.88,1244.28,920.54Z"/><path d="M1242.9,930.17l-4.66-1.8a66.77,66.77,0,0,1,3.81-9l4.54,2.1C1245.39,924.38,1244.15,927.29,1242.9,930.17Z"/><path class="cls-1" d="M1114.09,1073.9c1.16-5.06,2.47-11.23,3.34-17.85l-1.3-2.22c0-.08-.08-.16-.13-.24-2.41.69-5.5.42-11-.84-21.24-4.89-41.24,10.31-18.22,31.37,5.84,5.34,13.73,8.81,22.23,11.33.06-.11.11-.2.16-.31C1123,1067.15,1109.2,1095.14,1114.09,1073.9Z"/><path d="M1110.35,1098.44l-2-.59c-10.16-3-17.76-6.9-23.21-11.89-13.65-12.49-11.77-21.83-9.43-26.29,4.41-8.39,17-12.33,29.9-9.36,5.09,1.18,7.82,1.42,9.73.88l1.88-.53,1.1,1.92,1.1,1.88.62,1.06-.11.85c-.91,7-2.29,13.33-3.38,18.09h0c-.5,2.17-.77,3.68-.91,4.72a2.52,2.52,0,0,1,1.47.59c1.66,1.37.88,3-.41,5.75-.94,2-2.56,5.29-5.23,10.72Zm-13.29-44.1c-7.72,0-14.41,2.84-16.94,7.66-2.89,5.49.09,12.69,8.38,20.27,4.52,4.15,10.83,7.48,19.25,10.17,1.76-3.58,3.07-6.25,4-8.09-1.62-1.41-1.6-4.25,0-11,1-4.46,2.31-10.35,3.19-16.77l-.11-.19c-2.47.27-5.53-.1-10.26-1.19A33,33,0,0,0,1097.06,1054.34Z"/><path class="cls-1" d="M1117.34,1042.09c-.86,6.63-2.17,12.8-3.34,17.86-4.89,21.24,8.89-6.75-4.89,21.24l-.15.31c4.3,1.27,8.75,2.31,13.19,3.19,6.79,1.35,14.72,6.22,21.79,12.47l.25-.25C1144.56,1080.78,1132.51,1068,1117.34,1042.09Z"/><path d="M1144.06,1100.6l-1.78-1.56c-7.22-6.39-14.74-10.73-20.62-11.89-5-1-9.33-2.05-13.41-3.25l-2.83-.84,1.45-3c2.16-4.39,3.73-7.58,4.74-9.68-1.61-1.41-1.6-4.26,0-11,1.07-4.66,2.41-10.87,3.29-17.62l1-7.23,3.69,6.29c4,6.79,7.79,12.73,11.14,18,9.49,14.82,16.34,25.53,16,38.16l0,1Zm-31.53-20.69c3.12.84,6.45,1.61,10.11,2.33,5.61,1.11,12.13,4.45,18.72,9.54-1.4-9.13-7-17.94-14.93-30.28-2.37-3.7-5-7.74-7.68-12.19-.75,4.23-1.59,8.06-2.31,11.2-.5,2.17-.77,3.68-.9,4.72a2.4,2.4,0,0,1,1.46.59c1.66,1.37.89,3-.4,5.74C1115.8,1073.26,1114.52,1075.87,1112.53,1079.91Z"/><path class="cls-1" d="M1103.92,1038.27c.14-1,.27-2.12.38-3.19a8.85,8.85,0,0,1-1.8.74c0,.08.08.16.13.24C1103.06,1036.81,1103.49,1037.54,1103.92,1038.27Z"/><path d="M1105.46,1045.82l-3.94-6.7-1.06-1.81-1.67-3,3-.95a5.86,5.86,0,0,0,1.29-.53l4.18-2.27-.5,4.73c-.11,1.1-.25,2.18-.39,3.26Z"/><path class="cls-1" d="M1141.13,1051.1c-1-2.54-2.06-4.9-3.11-7.18-8,9.38-9.71,14.56-12.7,17.37.16,1.07.3,2.13.44,3.19,21.2,21.19,36.1,30.57,39.81,46.27q10.86-19.1,20.13-39C1154.29,1073.92,1158.26,1094,1141.13,1051.1Z"/><path d="M1164.6,1117.51l-1.46-6.19c-2.56-10.81-11-18.58-23.69-30.35-4.61-4.26-9.83-9.09-15.46-14.72l-.61-.61-.1-.85c-.13-1-.28-2.08-.43-3.12l-.2-1.3,1-.9a25.84,25.84,0,0,0,3.43-4.71,101.93,101.93,0,0,1,9.07-12.45l2.53-3,1.65,3.54c1.24,2.69,2.25,5,3.16,7.3h0c5.3,13.27,9,21.52,12,24.42,1.92,1.83,3.31,1.56,9-.52a70.06,70.06,0,0,1,21.13-4.81l4.23-.29-1.79,3.84c-6.27,13.42-13.07,26.6-20.23,39.18Zm-36.47-54.2c5.33,5.31,10.31,9.91,14.71,14,10.88,10.06,19.22,17.77,23.32,27.3,5.38-9.7,10.54-19.73,15.39-29.92a67.89,67.89,0,0,0-15.42,4.09c-5.46,2-9.77,3.6-14.13-.57-3.34-3.19-6.55-9.55-13.19-26.18-.44-1.1-.91-2.22-1.41-3.38a99.19,99.19,0,0,0-6.14,8.8,41.84,41.84,0,0,1-3.29,4.7C1128,1062.53,1128.08,1062.92,1128.13,1063.31Z"/><path class="cls-1" d="M1183.94,999.79c3.45-2.62,4.43-6.56,4.06-11.3a98,98,0,0,0-32-2.47c-44.23,3.48-13.13.92-3.6,53.68a177.51,177.51,0,0,1,26.17-14.76c15-7.09,24.55.73,31.53,15.23a218.7,218.7,0,0,1,11.73-18.82c-3.54-1.16-7.24-2.3-10.91-3.44C1192.51,1012.2,1175.05,1006.54,1183.94,999.79Z"/><path d="M1209.92,1045.67l-2.13-4.42c-7.43-15.44-16.12-19.77-28.2-14a177.77,177.77,0,0,0-25.81,14.54l-3.2,2.25-.69-3.85c-3.86-21.34-11.27-33.36-15.7-40.53-3-4.88-4.83-7.82-3.38-10.67,1.83-3.6,7.12-4,24.67-5.4l.27,0a100.21,100.21,0,0,1,32.84,2.54l1.76.43.14,1.8c.49,6.13-1.16,10.54-5,13.49h0c-1,.79-1.44,1.43-1.39,1.72.64,3.66,18.15,9.1,27.55,12l1,.31c3.31,1,6.72,2.08,10,3.14l3.17,1-1.88,2.75a214.38,214.38,0,0,0-11.59,18.61Zm-74.59-54.49c.13,1,1.71,3.53,3.11,5.8a110.73,110.73,0,0,1,15.64,38.52,195.39,195.39,0,0,1,23.37-12.82c13.37-6.33,24.34-2.21,32.67,12.26,2.14-3.67,4.69-7.72,7.72-12.23-2.23-.71-4.51-1.42-6.73-2.11l-1-.31c-18.56-5.76-29.9-9.71-31-15.92-.29-1.64,0-4.1,3.3-6.57h0c2.09-1.59,3.11-3.94,3.14-7.31a95.57,95.57,0,0,0-29.43-2l-.27,0C1145.3,989.36,1136.88,990,1135.33,991.18Z"/><path class="cls-1" d="M1141.29,786.87c52.61,23.11,65.4,16.89,75.45,16.27s17.24-9.6,28.25-32a43.22,43.22,0,0,1,4.36-7q-1.51-3.09-3.12-6.26c-10.73,8.57-21.08,17.81-28.52,23.47-17.77,13.5-35.1,9.15-44.69-8.09s21.59-26.93,14.21-45.86c-2.86-7.35-13.8-12.79-26.7-17.49,6.28,14.08,13.28,26.08,8.93,31C1160,751.59,1101,761.46,1101,761.46s6.92,13.5,14.42,32C1114.66,782.49,1121.59,778.22,1141.29,786.87Z"/><path d="M1118.87,808.68l-5.81-14.32c-7.38-18.14-14.27-31.63-14.34-31.76l-1.56-3.05,3.38-.56c16.19-2.7,59.8-11.51,67-19.71,2.51-2.85-1.84-12.16-6-21.18-1.08-2.3-2.19-4.69-3.29-7.15l-2.41-5.38,5.54,2c11.29,4.11,24.69,10,28.18,18.94,4.19,10.73-2.38,18.77-8.18,25.86-6.32,7.73-10,12.82-6.18,19.68,4.39,7.89,10.41,12.84,17.41,14.3,7.38,1.55,15.54-.87,23.59-7,3.92-3,8.79-7.08,13.94-11.41,4.68-3.94,9.51-8,14.53-12l2.41-1.92,1.39,2.74q1.6,3.18,3.13,6.29l.67,1.38-.92,1.22a40.22,40.22,0,0,0-4.11,6.59c-10.37,21.07-18.28,32.63-30.35,33.38-1.24.08-2.53.25-4,.44-10.45,1.37-26.26,3.43-72.57-16.91h0c-13.34-5.85-18.38-4.59-20.2-3.32s-2.47,3.7-2.22,7.42Zm23.43-24.1c45,19.79,60,17.83,69.92,16.54,1.52-.2,3-.39,4.36-.48,8.57-.53,15.17-8.25,26.17-30.6a45,45,0,0,1,3.69-6.14l-1-2.11c-4.12,3.34-8.13,6.72-12,10-5.2,4.38-10.11,8.51-14.13,11.57-9.24,7-18.8,9.75-27.64,7.9-8.46-1.77-15.64-7.57-20.76-16.77-5.67-10.18.89-18.2,6.68-25.28,5.41-6.61,10.52-12.86,7.4-20.88-2.27-5.81-11.2-10.47-19.56-13.87l.72,1.53c5.55,11.9,10,21.3,5.27,26.6-8.73,9.87-53.16,18.37-66.66,20.76,2,4,5.64,11.72,9.79,21.41a9.33,9.33,0,0,1,2.75-3c4.83-3.38,13-2.46,25.08,2.83Z"/><path class="cls-1" d="M1115.37,793.42a42.26,42.26,0,0,0,2,9.56,113.37,113.37,0,0,0,5.94,14.78c.33-.08.68-.13,1-.19C1121.5,809.09,1118.39,800.85,1115.37,793.42Z"/><path d="M1121.85,820.63l-.85-1.8a117.3,117.3,0,0,1-6.07-15.11,45.37,45.37,0,0,1-2-10.14l-1-15.42,5.82,14.32c3.43,8.44,6.45,16.62,9,24.31l.9,2.74-3.07.54-.71.13Z"/><path class="cls-1" d="M1217.83,833.28c36.43,24.89,31.37,18.22,45.23,4.18s28.44-4.09,45.77.27a11.24,11.24,0,0,0,7.81-1.22c4.93-11.91,9-23.77,8.71-32.37-.22-7.42-5.33-19.52-12-33.12a43.66,43.66,0,0,0-4.36,7c-11,22.4-18.21,31.37-28.25,32s-22.84,6.84-75.45-16.26c-19.7-8.66-26.63-4.39-25.92,6.55,3,7.43,6.13,15.66,8.92,24.14C1196.1,823.08,1206,825.2,1217.83,833.28Z"/><path d="M1248.43,852.48a12.75,12.75,0,0,1-2.64-.29c-5.77-1.22-14.42-6.63-29.37-16.84h0c-10.13-6.92-19.7-9.85-27.69-8.45l-2.13.37-.67-2.06c-2.49-7.57-5.48-15.64-8.87-24l-.15-.38,0-.4c-.37-5.58,1.09-9.56,4.34-11.83,4.83-3.39,13-2.46,25.08,2.83,45,19.78,60,17.83,69.91,16.53,1.53-.2,3-.39,4.37-.47,8.57-.53,15.17-8.25,26.17-30.6a45.94,45.94,0,0,1,4.6-7.39l2.45-3.25,1.79,3.65c8.39,17.11,12.05,27.33,12.25,34.14.23,7.71-2.52,18-8.9,33.4l-.36.87-.84.42c-3.43,1.69-6.54,2.15-9.53,1.4-3.82-1-7.47-2.17-11-3.34-12.62-4.19-22.58-7.51-32.37,2.41-2.11,2.13-3.77,4.1-5.23,5.83C1256.15,849.13,1253.32,852.48,1248.43,852.48Zm-55.57-30.93c8.11,0,17,3.24,26.38,9.67h0c14.09,9.62,22.66,15,27.59,16.08,3.51.74,4.85-.62,9-5.48,1.52-1.8,3.25-3.84,5.49-6.12,12-12.12,24.38-8,37.51-3.64,3.44,1.15,7,2.33,10.64,3.24a8.19,8.19,0,0,0,5.27-.65c3.74-9.08,8.41-21.71,8.16-30.44-.21-6.78-5.06-18.14-9.88-28.23-.64,1-1.21,2.08-1.73,3.14-10.37,21.07-18.28,32.63-30.35,33.38-1.24.08-2.53.24-4,.44-10.46,1.37-26.26,3.43-72.57-16.91-13.34-5.86-18.38-4.59-20.2-3.32-1.66,1.16-2.41,3.52-2.25,7,3.08,7.59,5.82,15,8.17,21.95C1191,821.59,1191.9,821.55,1192.86,821.55Z"/><path class="cls-1" d="M1145.59,833c-.56-2.3-1-4.54-1.5-6.74-15.83-.38-26.46,15-25.43,26.58,1.13,12.75-7.92,31.54-9.15,49.69,4.75-1.13,9.51-2.18,14.16-3.19C1143.76,895,1147.31,864,1145.59,833Z"/><path d="M1106.79,905.7l.23-3.38c.59-8.8,2.91-17.48,5.14-25.87,2.35-8.81,4.57-17.13,4-23.43-.61-6.89,2.4-14.78,7.85-20.6a26.6,26.6,0,0,1,20.13-8.7l2,0,.4,2c.5,2.43,1,4.6,1.48,6.65l.07.45c2.32,41.81-5.72,65-23.89,68.93-5.55,1.2-10,2.21-14.11,3.17Zm35.28-76.93a21.73,21.73,0,0,0-14.4,7.07c-4.51,4.81-7,11.22-6.52,16.74.64,7.18-1.69,15.91-4.15,25.16-1.88,7-3.82,14.32-4.68,21.53,3.21-.74,6.73-1.52,10.83-2.41,19.12-4.13,21.42-36.78,20-63.53C1142.76,831.88,1142.42,830.37,1142.07,828.77Z"/><path class="cls-1" d="M1124.29,817.57c-.35.06-.7.11-1,.19,1,2,2,4.08,3,6.19Q1125.34,820.74,1124.29,817.57Z"/><path d="M1124.09,825.1c-1-1.93-2-4-3.09-6.27l-1.35-2.84,3.07-.67c.31-.07.62-.13.94-.18l2.33-.41.68,2.06c.7,2.12,1.38,4.28,2,6.43Z"/><path class="cls-1" d="M1149,947.78c-1.56-13.57.15-25.84,15.35-30,10.47-2.89,16.49-5,20.94-6.28A183.19,183.19,0,0,1,1171,888.82c-9.18-17-18.64-37.58-24.62-55.43,4.35,30.73,3.46,61.93-16.18,68-4.56,1.4-9.2,2.86-13.84,4.38.12,6.88,1.34,13.58,4.62,19.64C1130.17,942.47,1131.36,941.14,1149,947.78Z"/><path d="M1152,951.56l-3.83-1.44c-2-.75-3.79-1.4-5.4-2-13-4.73-15.39-5.58-24-21.57-3.17-5.86-4.78-12.66-4.92-20.78l0-1.85,1.75-.57c4-1.33,8.32-2.69,13.88-4.4,18.76-5.76,18.21-38.65,14.44-65.23l4.85-1.14c5.5,16.41,14.41,36.47,24.45,55A180.33,180.33,0,0,0,1187.32,910l2.15,2.89-3.46,1c-1.48.43-3.14,1-5.08,1.57-4,1.24-8.9,2.79-15.88,4.72-11.49,3.16-15.41,11.08-13.53,27.33Zm-33.12-44a38.34,38.34,0,0,0,4.26,16.65c7.74,14.32,9,14.78,21.34,19.25l1.73.63c-1.18-21,9.3-26.47,17.52-28.73,6.9-1.9,11.78-3.44,15.71-4.67l1.79-.57A188.31,188.31,0,0,1,1168.75,890a407.4,407.4,0,0,1-18-37.79c1.6,29.67-5,47-19.87,51.53C1126.16,905.2,1122.37,906.4,1118.87,907.54Z"/><path class="cls-1" d="M1109.92,1031.51c3,6,6,11.5,8.84,16.49a8.43,8.43,0,0,0,1.81-.75c2.16-20.56-.7-44.46-25.4-53.59-8.19-3-12.89-2.81-15.67-.48C1093.44,1014.29,1085.83,983.09,1109.92,1031.51Z"/><path d="M1117.56,1050.93l-1-1.69c-3.21-5.58-6.13-11-8.91-16.61h0c-13.91-28-16.75-28.16-18.62-28.29-3.19-.23-5.89-1.06-11.64-9.79l-1.23-1.86,1.71-1.43c3.75-3.15,9.51-3.14,18.13,0,21,7.78,30.12,26.69,27,56.2l-.13,1.31-1.16.63a11.08,11.08,0,0,1-2.33,1Zm-5.41-20.53c2,4,4.1,8,6.32,12,1.56-24.62-6.38-39.82-24.17-46.4-4.92-1.82-8.65-2.45-11.12-1.88,3.62,5,5,5.14,6.23,5.23,4.69.33,8.3,2,22.74,31.05Z"/><path class="cls-1" d="M1029.32,1082.25c4.71-49.14,11.81,15.55,21.94,28.88,3.32,4.36,7.57,6.5,12.28,6.44l7.33-1.76c7.79-3.52,16.08-12.32,23.07-26.4-8.51-2.52-16.4-6-22.24-11.33-23-21.07-3-36.26,18.22-31.37,5.47,1.26,8.56,1.52,11,.84-2.87-5-5.84-10.44-8.85-16.48-24.09-48.43-16.47-17.22-30.41-38.34-8.79,7.39,2,36.21-15.26,52-22.75,20.8-13.33,10.13-39.46,26.48-20,12.5-5.65,29.68,17.45,42.71A228.81,228.81,0,0,0,1029.32,1082.25Z"/><path d="M1063.32,1120.07c-5.5,0-10.35-2.56-14-7.42-4-5.34-7.33-17.12-10.49-28.52-1.5-5.39-3.43-12.33-4.9-15.8a95.83,95.83,0,0,0-2.08,14.16l-2.48-.24,2.48.24a233.44,233.44,0,0,1-5,32l-.77,3.22-2.89-1.63c-10.4-5.87-27.9-17.69-28.2-30.86-.14-6.2,3.44-11.63,10.66-16.15a165.34,165.34,0,0,1,18.43-10.32c5.17-2.48,6.91-3.31,20.66-15.88,9.32-8.52,9.8-21.19,10.23-32.37.32-8.55.6-15.93,5.11-19.72l2.15-1.81,1.55,2.35c4.84,7.33,6.42,7.44,7.82,7.54,4.69.34,8.3,2,22.74,31.06,2.74,5.5,5.61,10.85,8.77,16.34l1.6,2.78-3.09.88c-2.84.8-6.15.58-12.21-.82-10.56-2.43-21,.5-24.35,6.82-2.88,5.49.09,12.69,8.38,20.27,4.88,4.47,11.83,8,21.26,10.78l2.85.84-1.32,2.67c-6.86,13.8-15.48,23.6-24.28,27.57l-.45.16-6,1.42-1.62.39h-.53Zm-29.62-58.48c3.81,0,5.58,5.66,9.9,21.2,2.75,9.92,6.18,22.26,9.65,26.83,2.73,3.59,6.09,5.42,10,5.45l1.06-.26,5.75-1.37c7.15-3.32,14.29-11.26,20.3-22.53-8.74-2.87-15.41-6.48-20.33-11-13.66-12.5-11.77-21.84-9.44-26.29,4.42-8.39,17-12.33,29.9-9.36a43.92,43.92,0,0,0,6.3,1.1c-2.46-4.4-4.75-8.74-7-13.19-13.91-28-16.75-28.16-18.63-28.29-2.78-.2-5.19-.86-9.59-6.83-1.29,3.13-1.48,8.11-1.69,13.67-.44,11.56-1,25.94-11.85,35.87-14.3,13.07-16.2,14-21.87,16.7a162.39,162.39,0,0,0-17.94,10c-5.62,3.51-8.41,7.48-8.31,11.8.16,7.33,8.41,16.32,22.75,24.92a243.18,243.18,0,0,0,4.14-28.06h0c1.63-17,3.4-20.13,6.51-20.41Z"/><path class="cls-1" d="M1094,987.52c24.71,9.14,27.56,33,25.4,53.6,3.61-2,6.6-6.54,16.67-13.6-9.53-52.76-40.62-50.2,3.61-53.68a98,98,0,0,1,32,2.48c-.74-9.35-6.8-21.84-10.08-33.72-18.48-3.84-19.46-2.34-31.21-17.81-4.17-5.49-6.41-11.92-7.59-18.7-34.62,17.67-68.11,40-49.55,72.64,1.94,3.42,3.6,6.14,5,8.32C1081.12,984.72,1085.83,984.5,1094,987.52Z"/><path d="M1116.43,1045.59l.5-4.73c2.87-27.33-4.91-44-23.79-51h0c-6.57-2.43-11-2.74-13.19-.91l-2.14,1.8-1.55-2.34c-1.52-2.3-3.24-5.14-5.13-8.46-5.57-9.8-7-19.44-4.25-28.65,6.06-20.23,31.12-35.34,54.85-47.44l3-1.54.58,3.34c1.25,7.2,3.57,13,7.11,17.61,9.84,13,11.19,13.22,24,15.74,1.69.33,3.58.7,5.69,1.14l1.49.31.41,1.47c1.22,4.41,2.85,9,4.43,13.39,2.7,7.54,5.24,14.66,5.73,20.79l.27,3.45-3.36-.83a95.42,95.42,0,0,0-31.26-2.41l-.27,0c-10.57.84-19,1.5-20.54,2.66.13,1,1.71,3.52,3.11,5.8,4.62,7.48,12.34,20,16.36,42.27l.29,1.57-1.31.92a97.27,97.27,0,0,0-11.39,9.32,28.89,28.89,0,0,1-5.52,4.43Zm-21.55-60.41c19.61,7.25,28.84,24.2,27.48,50.39l.36-.34a104.33,104.33,0,0,1,10.61-8.82,106.53,106.53,0,0,0-15.4-39c-3-4.87-4.83-7.82-3.38-10.67,1.83-3.59,7.12-4,24.67-5.39l.27,0a101,101,0,0,1,29.27,1.72c-.93-4.77-2.9-10.28-5-16.05-1.43-4-2.92-8.16-4.12-12.27l-4.15-.83c-13.61-2.67-16.07-3.15-27.06-17.62a42.2,42.2,0,0,1-7.39-16.47c-21.88,11.36-44.12,25.28-49.4,42.91-2.38,8-1.14,16.06,3.81,24.75,1.31,2.31,2.54,4.37,3.66,6.17,3.69-1.56,8.78-1,15.74,1.52Z"/><path class="cls-1" d="M1218.23,641.32c-3.74,2.1-7.36,5.69-10.82,11.19-25.42,40.35,8.79,66.92-5,94.91s7.2-9,44.08-1.95l.7.13c-13-25.28-26-50.64-20.61-58.61-5.44,8,7.58,33.33,20.61,58.61,8,1.51,14.49,2.55,19.78,3.65a106.27,106.27,0,0,1,10.12-6.28c2.15-5,.72-10.45-7.85-18.3-10.1-9.24-12.6-40.43-14.07-72.62l-.39-.29C1241.81,642.22,1229.45,635,1218.23,641.32Z"/><path d="M1198.55,760.57a2.75,2.75,0,0,1-1.91-.78c-2-1.86-1-4.33,3.55-13.47,5.56-11.31,2.73-22.35-.56-35.13-4.36-17-9.31-36.25,5.66-60,3.59-5.69,7.42-9.63,11.71-12h0c13-7.29,27.1,1.65,39.28,10.6l1.36,1,0,1.19c1,21.43,2.79,61.31,13.25,70.89,8.73,8,11.34,14.5,8.46,21.13l-.34.8-.77.41a106.17,106.17,0,0,0-9.88,6.14l-.88.61-1-.22c-3-.63-6.45-1.24-10.4-2l-4.31-.77v0l-4.5-.85-.53-.1h0l-.71-.13c-19.41-3.7-34.39,5.51-41.59,9.94C1201.84,759.46,1200,760.57,1198.55,760.57Zm20.9-117.07c-3.5,2-6.84,5.44-9.93,10.34-13.82,21.95-9.36,39.31-5,56.11,3.38,13.17,6.57,25.61.19,38.57-.55,1.13-1.46,3-2.28,4.73,7.39-4.53,21.63-12.94,40.35-10.88-10.78-20.93-19.89-39.32-19.89-50.25a11.4,11.4,0,0,1,1.69-6.54l4.13,2.82a6.61,6.61,0,0,0-.91,3.78c0,10.05,11.43,32.4,21.11,51.19,2.89.54,5.58,1,8.09,1.46,3.55.63,6.66,1.19,9.49,1.76,3.09-2.1,6-3.91,8.66-5.38,1-3.06.56-7.28-7.54-14.69-9.88-9-13-34.7-14.82-73.16-13.66-10-24-15.05-33.3-9.86Z"/><path class="cls-1" d="M1263.75,749.25a25.36,25.36,0,0,0,5.54-7.35,106.45,106.45,0,0,0-10.12,6.29C1260.81,748.53,1262.33,748.88,1263.75,749.25Z"/><path d="M1264.51,752l-1.4-.37c-1.33-.35-2.78-.69-4.45-1l-5.7-1.19,4.79-3.31a109.43,109.43,0,0,1,10.36-6.43l6.33-3.4-2.86,6.59c-1.08,2.52-2.9,5-6.06,8.13Z"/><path class="cls-1" d="M1246.23,757.9q1.61,3.17,3.12,6.26c4.58-6.07,10.16-10.64,14.4-14.91-1.42-.37-2.94-.72-4.58-1.06C1254.9,751.13,1250.54,754.46,1246.23,757.9Z"/><path d="M1248.9,768.91l-1.8-3.65c-1-2-2-4.13-3.1-6.23l-.91-1.82,1.58-1.26c4.89-3.91,9.17-7.12,13.08-9.82l.88-.61,1,.22c1.75.37,3.29.72,4.71,1.1l4.19,1.1-3.06,3.08c-1.22,1.23-2.53,2.46-3.91,3.76a88.39,88.39,0,0,0-10.26,10.88Zm.48-10.32.48,1c1.55-1.78,3.14-3.43,4.71-5C1252.92,755.83,1251.2,757.16,1249.38,758.59Z"/><path class="cls-1" d="M1237.07,557c6.44-3.88,13.71-8.26,20.32-13.7a69,69,0,0,0,10.09-10c.81-1,1.65-2,2.48-3-21-8.06-44.34-17.16-65.46-25.59q-2.14,4-4,8.38C1213.35,516.55,1225.23,542.45,1237.07,557Z"/><path d="M1236.5,560.27l-1.37-1.68c-3.86-4.76-7.77-10.75-11.55-16.55-7.83-12-15.92-24.43-23.77-26.54l-2.81-.76,1.16-2.66c1.31-3,2.7-5.87,4.13-8.56l1-2,2.08.83c18.38,7.34,40.4,16,65.44,25.59l3.32,1.28-2.32,2.69c-1,1.11-1.74,2-2.43,2.89A71,71,0,0,1,1259,545.25c-6.79,5.58-14.14,10-20.62,13.9Zm-32.68-48.59c8.61,4.09,16.4,16,24,27.63,3.41,5.23,6.65,10.2,9.9,14.42a151,151,0,0,0,18.13-12.35,65.5,65.5,0,0,0,9.73-9.68l.27-.33c-22.78-8.78-43-16.68-60.13-23.51C1205,509.1,1204.43,510.38,1203.82,511.68Z"/><path class="cls-1" d="M1160.58,660.07c8.8-9.12,6-18.62-.72-27.81-3.84,7.48-10.87,13.52-23.36,14.56-36.26,3-37.77,28.71-27.64,42,6.19,8.15,31.36,13.68,51.67,21.07-3.92-8.79-7.57-18.39-8-27.6C1152.16,674.35,1154.2,666.66,1160.58,660.07Z"/><path d="M1165.22,714.3l-5.55-2c-5.69-2.07-11.82-4-17.75-5.89-16.17-5.12-30.13-9.54-35.05-16-6.16-8.11-7.64-19-3.76-27.66,3.29-7.4,11.72-16.59,33.18-18.38,10.09-.84,17.27-5.28,21.35-13.21l1.85-3.59,2.39,3.25c8.85,12.06,9,22.21.5,31l-1.8-1.73,1.8,1.73c-5.33,5.52-7.74,12.19-7.35,20.42.42,9.11,4.17,18.6,7.78,26.69ZM1160,636.91c-5.1,7.37-12.91,11.54-23.29,12.41-19,1.58-26.28,9.26-29,15.42-3.14,7.06-1.89,15.93,3.18,22.6,4,5.22,18.51,9.83,32.58,14.28,4.15,1.32,8.4,2.66,12.56,4.07-3-7.25-5.58-15.28-6-23.24-.44-9.54,2.5-17.66,8.75-24.12h0C1164.78,652.12,1165.2,645.42,1160,636.91Z"/><path class="cls-1" d="M1163,598.66s3.86-50,19.61-86c-5.55-1.49-11.29,1.12-17.3,10.66-11,17.53-16,29.12-19.42,37.91-4.44,11.45-6.23,18.16-15.33,27-10.53,10.3,16.53,26.58,29.32,44C1167.17,618.05,1163,598.66,1163,598.66Z"/><path d="M1160.24,637l-2.39-3.26c-4.09-5.57-9.72-11-15.16-16.36-9.13-8.9-17-16.59-17-23.83a9.61,9.61,0,0,1,3.14-7.07c7.64-7.48,9.77-13.08,13.28-22.35.46-1.22.94-2.49,1.46-3.82,3.58-9.22,8.7-21,19.64-38.34,6.12-9.73,12.88-13.68,20.06-11.75l2.81.76-1.17,2.66c-14.72,33.67-19,80.4-19.38,84.87.58,2.92,3.73,21-3.41,34.9ZM1179,514.76c-2.69.28-6.73,2.2-11.57,9.88-10.71,17-15.72,28.48-19.21,37.48-.51,1.32-1,2.57-1.44,3.78-3.5,9.23-6,15.9-14.47,24.15a4.73,4.73,0,0,0-1.63,3.49c0,5.14,7.89,12.83,15.52,20.26a183.21,183.21,0,0,1,13.06,13.62c4.55-12.75,1.33-28.06,1.3-28.23l-.08-.36,0-.36C1160.52,598,1164.34,550.46,1179,514.76Z"/><path class="cls-1" d="M1191.68,724.05c7.37,18.93-23.82,28.61-14.22,45.85s26.92,21.6,44.7,8.09c7.43-5.65,17.79-14.89,28.52-23.47-2.22-4.39-4.53-8.87-6.85-13.37l-.7-.13c-36.88-7-57.85,30-44.08,2s-20.43-54.57,5-94.91c3.47-5.5,7.08-9.09,10.82-11.19,11.22-6.29,23.59.89,36.57,10.43l.4.3c-.84-18.23-1.33-36.78-2.69-51.85-.11-1.26-.24-2.49-.36-3.7-22.25,16.28-43.12,33.09-52.73,27-14.57-9.18-5.92-28.69,2.72-42.21a144.41,144.41,0,0,1,8.65-12c3-3.74,9.11-7.4,16.25-11.7-11.84-14.56-23.72-40.46-36.62-43.93-15.75,36-19.62,86-19.62,86s4.2,19.39-3.11,33.61c6.74,9.18,9.52,18.69.71,27.8-6.38,6.6-8.42,14.28-8,22.27.43,9.2,4.08,18.81,8,27.6C1177.87,711.25,1188.81,716.7,1191.68,724.05Z"/><path d="M1201.5,788.44a26.45,26.45,0,0,1-5.47-.56c-8.46-1.77-15.64-7.57-20.76-16.76-5.66-10.19.9-18.21,6.68-25.28,5.41-6.62,10.52-12.87,7.4-20.88h0c-2.79-7.17-15.74-12.6-25.23-16.05l-1-.37-.43-1c-3.8-8.51-7.75-18.56-8.21-28.5-.45-9.54,2.49-17.65,8.74-24.12,6.73-7,6.44-14.54-.93-24.58l-.91-1.25.7-1.38c6.81-13.23,2.94-31.74,2.9-31.93l-.08-.35,0-.37c0-.5,4.08-50.84,19.82-86.83l.86-2,2.08.56c9.7,2.61,18.32,15.84,26.66,28.64a194.31,194.31,0,0,0,11.25,16.12l1.81,2.23-2.58,1.56c-6.85,4.13-12.77,7.69-15.47,11.06a138.8,138.8,0,0,0-8.49,11.78c-8,12.51-11.38,22.94-9.77,30.16a13.19,13.19,0,0,0,6.27,8.58c7.23,4.56,25.66-9,43.48-22.19l6.44-4.74,3.51-2.57.45,4.32c.13,1.22.25,2.47.37,3.74,1,11.26,1.54,24.2,2.1,37.91.19,4.66.38,9.36.59,14l.24,5.24-4.61-3.41c-13.94-10.23-24.47-15.52-33.87-10.26-3.5,2-6.84,5.44-9.92,10.34-13.82,21.94-9.36,39.31-5.05,56.11,3.38,13.16,6.58,25.6.2,38.57-.56,1.13-1.47,3-2.28,4.73,7.94-4.87,23.77-14.21,44.58-10.24l1.9.36.56,1.08c2.58,5,4.72,9.16,6.85,13.39l.91,1.81-1.58,1.27c-5,4-9.78,8-14.43,11.93-5.2,4.38-10.12,8.51-14.14,11.57C1216.31,785.57,1208.75,788.44,1201.5,788.44Zm-7.49-65.3c4.18,10.74-2.39,18.77-8.19,25.86-6.32,7.73-10,12.82-6.18,19.68,4.4,7.9,10.42,12.84,17.42,14.31,7.38,1.54,15.53-.87,23.58-7,3.93-3,8.8-7.08,13.95-11.42,4.18-3.52,8.49-7.14,12.94-10.74-1.67-3.29-3.39-6.64-5.36-10.45-19.17-3.45-34,5.64-41.1,10-3.82,2.35-5.92,3.65-7.8,1.94-2-1.87-1-4.34,3.54-13.48,5.56-11.3,2.73-22.34-.55-35.12-4.37-17-9.31-36.25,5.66-60,3.58-5.7,7.41-9.64,11.71-12,11.67-6.54,24.21,0,35.46,7.86q-.19-4.47-.37-8.9c-.54-13.37-1.06-26-2-37l-2.89,2.13c-20.92,15.44-39,28.78-49.11,22.4a18.23,18.23,0,0,1-8.48-11.72c-1.93-8.67,1.58-20.09,10.44-33.94a143.63,143.63,0,0,1,8.8-12.22c2.91-3.63,8.22-7,14.48-10.82-3.28-4.33-6.58-9.38-9.78-14.29-7.16-11-14.54-22.32-21.76-25.79-14,33.48-18.08,78.32-18.46,82.7.56,2.82,3.53,19.83-2.74,33.51,8,11.52,7.84,21.28-.38,29.79-5.33,5.51-7.73,12.19-7.35,20.41.41,8.75,3.88,17.86,7.36,25.73,11.06,4.09,23.79,9.87,27.18,18.57Z"/><path class="cls-2" d="M1202.59,1153.89a76.91,76.91,0,0,1,5.5,6.6q18.75-19.14,35.56-40c-3-1.22-5.89-2.22-8.57-3Q1219.59,1136.44,1202.59,1153.89Z"/><path d="M1207.83,1164.34l-1.75-2.36a74.6,74.6,0,0,0-5.32-6.38l-1.62-1.75,1.66-1.7c11.13-11.42,22-23.62,32.35-36.27l1.06-1.3,1.6.49c2.85.87,5.79,1.91,8.77,3.11l3.13,1.26-2.12,2.63c-11.27,14-23.29,27.48-35.71,40.17ZM1206,1154c.79.9,1.55,1.82,2.29,2.73,10.81-11.15,21.29-22.94,31.23-35.09-1.21-.44-2.41-.85-3.59-1.24C1226.35,1132,1216.29,1143.32,1206,1154Z"/><path class="cls-2" d="M1281.72,839.72c0-2.88,0-5.9,0-9.07v-.11q-1.17,5.15-2.45,10.3Z"/><path d="M1275.59,845.14l1.2-4.9c.93-3.78,1.73-7.13,2.44-10.25l5.28-23.27-.34,23.86.06,10.75-1.48.67-2.53,1.13Z"/><path class="cls-2" d="M1197.44,1133.28c-2.34,2.4-4.72,4.76-7.11,7.12,3,1,6.13,1.95,9.29,2.8,1.11-1.11,2.23-2.2,3.32-3.32A74,74,0,0,0,1197.44,1133.28Z"/><path d="M1200.37,1146l-1.4-.38c-2.92-.79-6-1.72-9.42-2.84l-3.89-1.28,2.91-2.88c2.27-2.24,4.69-4.63,7.08-7.09l1.83-1.88,1.79,1.92a79.54,79.54,0,0,1,5.68,6.82l1.27,1.71-1.49,1.52c-.72.74-1.45,1.46-2.17,2.19Zm-5.35-6.73q2,.62,3.87,1.14l.13-.14.61-.61c-.73-.92-1.49-1.83-2.27-2.73Z"/><path class="cls-2" d="M1189.89,1091.26c.21-.26.43-.52.64-.79a38.29,38.29,0,0,0-1.78-11.55q-3.68,4.69-7.43,9.3C1184,1089,1186.85,1090,1189.89,1091.26Z"/><path d="M1190.67,1094.27l-1.72-.69c-2.84-1.14-5.65-2.14-8.36-3l-3.56-1.08,2.36-2.89c2.39-2.92,4.87-6,7.39-9.26l3-3.79,1.4,4.6a40.65,40.65,0,0,1,1.89,12.27v.89Zm-5.11-7.3,2.37.85a32.72,32.72,0,0,0-.4-3.32Z"/><path class="cls-2" d="M1233.34,444.37c-.53.09-1.09.17-1.65.24.36.7.74,1.38,1.1,2.08C1233,445.92,1233.16,445.15,1233.34,444.37Z"/><path d="M1233.61,453.72l-3-5.88c-.19-.37-.39-.74-.59-1.11l-2.16-4.13,3.54-.47c.53-.07,1.06-.14,1.56-.23l3.67-.62-.81,3.63c-.18.8-.37,1.59-.57,2.39Z"/><path class="cls-2" d="M1391.54,718.45a47.77,47.77,0,0,1,8.25,3q.51-22.86-.79-45.48a22.55,22.55,0,0,1-8.14,2.45Q1391.91,698.34,1391.54,718.45Z"/><path d="M1402.2,725.39l-3.49-1.65a44.07,44.07,0,0,0-7.82-2.88l-1.88-.51,0-2c.25-13.24,0-26.64-.67-39.82l-.13-2.41,2.4-.21a19.92,19.92,0,0,0,7.24-2.2l3.4-1.71.22,3.8c.87,15.19,1.13,30.56.79,45.68Zm-8.13-8.82c1.12.35,2.21.73,3.29,1.14.2-12.6,0-25.36-.66-38a23.11,23.11,0,0,1-3.22.89C1394.05,692.52,1394.25,704.6,1394.07,716.57Z"/><path class="cls-2" d="M1241.78,1018.46c4.74,2.62,7,5.38,4.8,8.35l.93-1.45a96.12,96.12,0,0,1,2.9-16.5c2.12-8.44,5.34-11.05,12-8q6.48-11.29,12.46-22.91c-.22-.86-.45-1.73-.7-2.6q-3-1.36-6.12-2.69Q1255.92,996.33,1241.78,1018.46Z"/><path d="M1248.58,1028.31l-4.1-2.86.35-.54a.82.82,0,0,0,.09-.54c-.08-.35-.62-1.66-4.35-3.73l-2.33-1.28,1.43-2.25c9.4-14.73,18.19-30.07,26.13-45.59l1.06-2.07,2.14.91c2,.85,4,1.74,6.17,2.71l1.06.48.31,1.11c.26.9.5,1.79.73,2.68l.23.91-.43.85c-3.85,7.49-8.06,15.23-12.52,23l-1.14,2-2.07-1c-2.17-1-3.79-1.24-4.84-.74-1.42.68-2.66,3.06-3.67,7.08a94.14,94.14,0,0,0-2.83,16.08l0,.63-.81,1.26A7.08,7.08,0,0,1,1248.58,1028.31Zm-3.33-10.66.63.45c.11-.66.23-1.34.36-2Zm12.47-20.52a11.66,11.66,0,0,1,3.56.62c3.86-6.79,7.52-13.53,10.9-20.09,0-.17-.09-.34-.14-.51l-2.86-1.27q-5.54,10.71-11.58,21.25Z"/><path class="cls-2" d="M1363.36,762.46h0a47.69,47.69,0,0,1,7.83,7q1.08-14.61,1.41-29.17a48.08,48.08,0,0,0-8.25-3Q1364.16,749.85,1363.36,762.46Z"/><path d="M1373.29,775.37l-3.9-4.17a45.31,45.31,0,0,0-7.35-6.62l-1.25-.75.07-1.53c.52-8.24.87-16.67,1-25.06l.06-3.2,3.09.83a49.43,49.43,0,0,1,8.67,3.19l1.47.69,0,1.62c-.23,9.83-.7,19.69-1.42,29.31Zm-7.35-14.15c1.12.83,2.17,1.72,3.16,2.62.47-7.24.8-14.59,1-21.93-1.08-.47-2.17-.89-3.28-1.27C1366.64,747.53,1366.35,754.44,1365.94,761.22Z"/><path class="cls-2" d="M1303,789.49a31.68,31.68,0,0,1,9-3.19q4.1-25,5.94-50a47.22,47.22,0,0,0-7.83-7l0,0A563.61,563.61,0,0,1,1303,789.49Z"/><path d="M1299.72,794l.86-5a563.72,563.72,0,0,0,7.05-59.92l.27-4.21,3.66,2.32a49.46,49.46,0,0,1,8.26,7.38l.75.8-.09,1.09c-1.23,16.65-3.24,33.53-6,50.17l-.28,1.74-1.74.32a28.61,28.61,0,0,0-8.3,3Zm12.58-59.83c-1.23,17-3.25,34.17-6,51.1a31.19,31.19,0,0,1,3.58-1.1c2.5-15.59,4.37-31.37,5.56-47C1314.46,736.25,1313.42,735.21,1312.3,734.21Z"/><path class="cls-2" d="M1361,604.9a562,562,0,0,1,6.32,59.59,22.42,22.42,0,0,0,8.14-2.45,571,571,0,0,0-7.22-63.66A47.37,47.37,0,0,0,1361,604.9Z"/><path d="M1364.93,667.21l-.14-2.58a560.78,560.78,0,0,0-6.29-59.33l-.18-1.16.77-.89a49.51,49.51,0,0,1,7.63-6.87l3.27-2.45.69,4a576.59,576.59,0,0,1,7.24,63.94l.1,1.64-1.47.74a24.77,24.77,0,0,1-9,2.7Zm-1.3-61.51c2.91,18.38,4.93,37.16,6,55.88a20.17,20.17,0,0,0,3.2-1.09,570.62,570.62,0,0,0-6.38-57.49A38.66,38.66,0,0,0,1363.63,605.7Z"/><path class="cls-2" d="M1239.48,966.64a93.16,93.16,0,0,0-3-8.83c-1,2.06-2.06,4.1-3.1,6.14C1235.45,964.84,1237.48,965.73,1239.48,966.64Z"/><path d="M1243.37,971.15l-4.92-2.23c-2.12-1-4.11-1.84-6.06-2.67l-2.47-1,1.22-2.4c1-2,2.07-4.06,3.09-6.11l2.49-5,2.07,5.22c1.21,3.05,2.25,6.1,3.1,9.06Z"/><path class="cls-2" d="M1294.65,857.41q3.93-13.71,7.14-27.45-3.6,1.88-7.28,3.54C1294.58,844.83,1294.63,853.57,1294.65,857.41Z"/><path d="M1292.26,874.88l-.11-17.46c0-3.83-.07-12.57-.14-23.9V831.9l1.48-.67c2.48-1.13,4.89-2.31,7.15-3.49l4.83-2.53-1.24,5.32c-2.12,9.07-4.53,18.35-7.16,27.57ZM1297,835.1c0,1.3,0,2.57,0,3.8.37-1.44.72-2.88,1.07-4.32Z"/><path class="cls-2" d="M1346.36,596.06a46,46,0,0,1,7.24-6.53q-3.39-19.8-8.12-39.23a56,56,0,0,0-7.75,2.69Q1342.88,574.29,1346.36,596.06Z"/><path d="M1344.73,601.7l-.84-5.25c-2.34-14.53-5.22-29-8.59-42.87l-.49-2.06,2-.83a58.4,58.4,0,0,1,8.09-2.81l2.46-.64.6,2.47c3.14,12.89,5.89,26.15,8.15,39.4l.26,1.51-1.23.91a44.38,44.38,0,0,0-6.86,6.18Zm-4.06-47.2c2.81,11.84,5.28,24,7.36,36.34.88-.79,1.83-1.58,2.84-2.38-2-11.77-4.46-23.53-7.2-35C1342.69,553.75,1341.69,554.1,1340.67,554.5Z"/><path class="cls-2" d="M1398.33,760.4q-2.52,14.63-5.83,29.23v.11c0,3.17,0,6.2,0,9.08,2.44-1.12,4.87-2.29,7.28-3.55,3-12.68,5.43-25.37,7.51-38.06A31.57,31.57,0,0,0,1398.33,760.4Z"/><path d="M1390.07,802.69,1390,789.6v-.26l.06-.26c2.16-9.53,4.11-19.32,5.8-29.1l.21-1.22,1.1-.57a33.67,33.67,0,0,1,9.72-3.44l3.49-.63-.58,3.49c-2.14,13.12-4.68,26-7.54,38.23L1402,797l-1,.53c-2.34,1.22-4.83,2.43-7.39,3.6Zm4.93-12.78,0,5c.89-.43,1.76-.87,2.62-1.31,2.46-10.62,4.67-21.7,6.59-33a30.07,30.07,0,0,0-3.67,1.49C1398.94,771.43,1397.07,780.79,1395,789.91Z"/><path class="cls-2" d="M1172.39,1182q-9.11,8.2-18.53,16h.81c3-.15,5.58,1.3,7.86,3.86q7.88-6.58,15.49-13.45c.37-.94.75-1.87,1.16-2.81C1176.87,1184.45,1174.6,1183.22,1172.39,1182Z"/><path d="M1162.27,1205.34l-1.61-1.81c-1.92-2.16-3.79-3.13-5.87-3-.27,0-.51,0-.75,0l-7.11,0,5.33-4.41c6.24-5.15,12.45-10.51,18.45-15.92L1172,1179l1.56.85c2.48,1.36,4.57,2.48,6.71,3.56l2.11,1.06-.94,2.16c-.4.92-.76,1.83-1.12,2.73l-.22.55-.43.39c-5.2,4.69-10.44,9.23-15.57,13.52Zm-2.69-8.85a13.32,13.32,0,0,1,3.08,2c4.38-3.7,8.83-7.57,13.26-11.55l.06-.16-3.24-1.73C1168.43,1188.92,1164,1192.75,1159.58,1196.49Z"/><path class="cls-2" d="M1329.14,855.75c-1.75,7.11-3.6,14.22-5.64,21.33h0a571.69,571.69,0,0,1-19.09,55.49c1.14,3.84,2.32,8,4,12.29a585.69,585.69,0,0,0,23.11-65.47c.08-.28.15-.56.23-.85,0-3.83-.08-12.57-.14-23.9C1330.81,855,1330,855.39,1329.14,855.75Z"/><path d="M1308.36,951.47l-2.25-5.69c-1.59-4-2.71-7.8-3.78-11.45l-.56-1.89.32-.81a569,569,0,0,0,19-55.25c1.82-6.34,3.66-13.28,5.62-21.23l.29-1.2,1.13-.49,2.46-1.1,3.52-1.6,0,3.86c.06,11.34.11,20.07.14,23.91v.36l-.33,1.19a587.41,587.41,0,0,1-23.21,65.75Zm-1.3-18.78.06.23c.48,1.62,1,3.28,1.51,5a583.73,583.73,0,0,0,20.51-59.18l.14-.48c0-2.53,0-6.88-.08-12.52-1.12,4.29-2.21,8.28-3.3,12.07A575.52,575.52,0,0,1,1307.06,932.69Z"/><path class="cls-2" d="M1130.53,1209.35c.83-.61,1.66-1.22,2.48-1.84C1130.5,1206.12,1130.32,1207.13,1130.53,1209.35Z"/><path d="M1128.47,1214l-.43-4.4c-.12-1.32-.34-3.53,1.45-4.7s3.93,0,4.73.44l3.37,1.87-3.08,2.31-1.81,1.35Z"/><path class="cls-2" d="M1112.94,1222.59q-8.61,6.33-17.43,12.33c.78,4.27-1.48,8.54-1.5,11.13q11.22-7.4,22-15.25A38.14,38.14,0,0,1,1112.94,1222.59Z"/><path d="M1091.47,1250.71l0-4.69a17.63,17.63,0,0,1,.76-4.1c.55-2.07,1.17-4.42.78-6.55l-.29-1.6,1.35-.92c5.8-3.94,11.64-8.07,17.34-12.27l3-2.21.9,3.61a36.52,36.52,0,0,0,2.91,7.68l1,1.9-1.73,1.26c-7.1,5.17-14.55,10.32-22.13,15.31Zm6.69-14.57a17.49,17.49,0,0,1-.41,4.41c5.16-3.47,10.23-7,15.14-10.55-.49-1.09-.94-2.2-1.33-3.31C1107.13,1229.92,1102.64,1233.08,1098.16,1236.14Z"/><path class="cls-2" d="M1151.91,1203.61h-.81q-11.86,9.78-24.21,18.89a38.68,38.68,0,0,0,3.11,8.21c1.34-1,2.66-2,4-3-.22-2.21,0-3.23,2.47-1.83q11.91-8.94,23.31-18.44C1157.5,1204.91,1155,1203.46,1151.91,1203.61Z"/><path d="M1129.11,1234.46l-1.34-2.61a41.75,41.75,0,0,1-3.31-8.74l-.4-1.63,1.35-1c8.11-6,16.22-12.31,24.1-18.81l.69-.57h1.59c3.61-.19,6.92,1.41,9.85,4.7l1.72,1.92-2,1.66c-7.49,6.25-15.36,12.48-23.41,18.52l-1.29,1-.07,0v.06l-2.52,1.88-2.63,1.94Zm.65-11c.34,1.14.75,2.27,1.21,3.39l.13-.1.33-.24a3.68,3.68,0,0,1,1.53-3.25,3.61,3.61,0,0,1,3.19-.27c6.79-5.12,13.45-10.37,19.84-15.66a6.14,6.14,0,0,0-4-1.26h0C1144.72,1212.09,1137.25,1217.94,1129.76,1223.49Z"/><path class="cls-2" d="M1300,996c1.18,3,2.19,5.94,3,8.82l1.63.74Q1314,987.2,1322,968.1c-1.7-4.32-2.88-8.45-4-12.29Q1309.73,976.38,1300,996Z"/><path d="M1305.77,1008.81l-2.19-1-1.16-.52-1.51-.69-.31-1.11c-.81-2.8-1.79-5.7-2.94-8.59l-.41-1,.5-1c6.51-13.11,12.54-26.56,17.94-40l2.68-6.65,2.35,7.95c1,3.54,2.13,7.2,3.64,11l.37,1-.39.94c-5.33,12.65-11.21,25.3-17.48,37.6Zm-3.06-12.72q.87,2.26,1.61,4.51c5.35-10.69,10.39-21.61,15-32.54-.62-1.64-1.17-3.23-1.67-4.8C1313.06,974.28,1308.05,985.29,1302.71,996.09Z"/><path class="cls-2" d="M1253.52,959.11c.31-.61.61-1.24.93-1.86l-1.64-.74C1253.06,957.38,1253.3,958.25,1253.52,959.11Z"/><path d="M1252.73,966.12l-1.64-6.39c-.21-.84-.44-1.68-.68-2.54l-1.48-5.19,5.47,2.48,1.09.5,2.36,1.09-1.17,2.31-.42.83c-.17.35-.34.7-.52,1Z"/><path class="cls-2" d="M1162.91,1173.44c-.4.93-.78,1.87-1.15,2.8.81-.72,1.61-1.45,2.41-2.18Z"/><path d="M1155.54,1185.19l3.9-9.87c.38-1,.76-1.91,1.18-2.88l1.05-2.42,2.36,1.18,1.23.61,3.32,1.61-3.4,3.1c-.58.52-1.16,1.06-1.75,1.58Z"/><path class="cls-2" d="M1276.42,410.78c.52-.24,1-.48,1.5-.73-.32-3.57-.81-7.1-1.38-10.51q-15.75-15.19-32.61-29.16c-3.21.83-6.42,1.73-9.55,2.71A564.53,564.53,0,0,1,1276.42,410.78Z"/><path d="M1275.91,413.79l-1.25-1.23c-13.23-13.12-27.31-25.74-41.85-37.52l-3.62-2.94,4.44-1.39c3-.95,6.29-1.88,9.68-2.75l1.23-.32,1,.82c11.16,9.23,22.18,19.08,32.75,29.28l.6.57.13.81c.66,3.9,1.12,7.41,1.41,10.71l.15,1.67-1.49.77c-.5.26-1,.52-1.58.77Zm-36.3-39.65c12.21,10.06,24.06,20.69,35.34,31.69-.21-1.62-.46-3.3-.74-5.07-10-9.6-20.37-18.89-30.89-27.64Z"/><path class="cls-2" d="M1298.7,398.4A564.2,564.2,0,0,1,1350,456.23c1.39-3,2.65-5.78,3.68-8.52a577.69,577.69,0,0,0-49.58-55.36,33.8,33.8,0,0,1-5.62,3.67C1298.57,396.81,1298.64,397.6,1298.7,398.4Z"/><path d="M1350.54,461l-2.5-3.24A565.93,565.93,0,0,0,1297,400.18l-.67-.66-.07-.94c-.06-.78-.13-1.55-.2-2.32l-.17-1.67,1.49-.78a32.35,32.35,0,0,0,5.21-3.39l1.73-1.42,1.6,1.57a580.25,580.25,0,0,1,49.8,55.6l.87,1.11-.5,1.32c-1,2.51-2.14,5.27-3.76,8.69Zm-49.32-63.62a570.88,570.88,0,0,1,48.24,54.07c.52-1.18,1-2.27,1.39-3.3a574.61,574.61,0,0,0-46.95-52.49C1303.06,396.24,1302.16,396.81,1301.22,397.37Z"/><path class="cls-2" d="M1319.89,473.24c3.43,1.66,6.8,3.29,10.07,4.85q-4.07-13.11-8.74-26c-1.83,2.27-3.91,4.57-6.15,6.93C1316.73,463.74,1318.35,468.48,1319.89,473.24Z"/><path d="M1334,482.81l-5.16-2.47c-3.27-1.56-6.64-3.18-10.08-4.85l-1-.47-.33-1c-1.47-4.53-3.08-9.29-4.8-14.15l-.51-1.44,1-1.11c2.51-2.64,4.43-4.8,6-6.78l2.78-3.45,1.51,4.16c3.12,8.59,6.07,17.38,8.78,26.11Zm-12.1-11.36,3.9,1.89c-1.75-5.47-3.6-10.93-5.51-16.33-.74.83-1.53,1.7-2.4,2.63C1319.35,463.67,1320.69,467.64,1321.94,471.45Z"/><path class="cls-2" d="M1269.8,536.64l9.64,3.68c-.36-1.2-.73-2.4-1.1-3.59l-10.07-4.85C1268.78,533.46,1269.3,535.05,1269.8,536.64Z"/><path d="M1283.31,544.47l-4.76-1.81L1268.9,539l-1.13-.43-.36-1.15c-.5-1.59-1-3.16-1.52-4.74l-1.81-5.58,5.28,2.56,10.06,4.84,1,.47.32,1c.37,1.2.74,2.4,1.1,3.61Z"/><path class="cls-2" d="M1239.82,442.64q-2.27-4.36-4.6-8.71c-.5,3.43-1.1,6.94-1.88,10.44A34,34,0,0,0,1239.82,442.64Z"/><path d="M1230.08,447.45l.82-3.63c.69-3.1,1.3-6.45,1.84-10.25l1.08-7.49,3.6,6.66c1.65,3.06,3.16,5.93,4.62,8.76l1.29,2.48-2.61,1a36.15,36.15,0,0,1-7,1.85Z"/><path class="cls-2" d="M1068.78,1246.05c1.5-2.41,6.41-5.56,8-9.85q-25.63,4.38-51.41,7.19a57.16,57.16,0,0,0-12.44,6.78,19.25,19.25,0,0,0-3.46,3.26c1.07-.09,2.13-.16,3.19-.26Q1040.93,1250.5,1068.78,1246.05Z"/><path d="M1003.8,1256.46l3.72-4.6a21.61,21.61,0,0,1,3.9-3.69,59.76,59.76,0,0,1,13-7.09l.33-.14.35,0c17.12-1.86,34.36-4.28,51.26-7.16l4.26-.73-1.49,4.06c-1.19,3.23-3.78,5.74-5.87,7.76a19.32,19.32,0,0,0-2.35,2.54l-.6,1-1.13.18c-18.89,3-37.83,5.4-56.28,7.13l-1.72.15-1.48.12Zm22.19-10.62a61.31,61.31,0,0,0-8.67,4.36c16.46-1.64,33.27-3.81,50-6.46a33.85,33.85,0,0,1,2.4-2.49c.54-.52,1.09-1.06,1.63-1.62C1056.38,1242.09,1041.13,1244.17,1026,1245.84Z"/><path class="cls-2" d="M1374.84,518.35a55.32,55.32,0,0,1,7.74-2.68q-3.72-15.28-8.29-30.29l-9.64-3.69Q1370.34,499.82,1374.84,518.35Z"/><path d="M1373.1,521.81l-.69-2.87c-2.91-12.06-6.33-24.33-10.15-36.5l-1.55-4.93,4.83,1.85,9.64,3.68,1.15.44.35,1.17c3.12,10.31,5.92,20.54,8.33,30.42l.59,2.39-2.39.62a54.63,54.63,0,0,0-7.4,2.57Zm-4.55-35.95c3,9.71,5.65,19.47,8,29.1,1-.38,2-.72,3-1-2.16-8.69-4.62-17.64-7.33-26.65Z"/><path class="cls-2" d="M1292.76,1060.65q-10.24,16-21.45,31.26c1,3.4,1.94,6.93,2.85,10.53q12.28-16.26,23.39-33.43C1299.77,1066,1297.5,1063.28,1292.76,1060.65Z"/><path d="M1273,1108.11l-1.28-5.06c-1-3.92-1.91-7.34-2.82-10.44l-.35-1.19.74-1c7.39-10,14.57-20.48,21.35-31.11l1.26-2,2.06,1.14c4.1,2.27,6.26,4.51,6.81,7a6,6,0,0,1-1.17,4.92c-7.39,11.42-15.28,22.7-23.46,33.52Zm1-15.71c.4,1.39.8,2.85,1.21,4.38,7-9.46,13.79-19.24,20.18-29.13l.1-.14c.42-.56.37-.83.34-.94-.06-.28-.4-1.14-2.35-2.5C1287.32,1073.73,1280.77,1083.25,1274.06,1092.4Z"/><path class="cls-2" d="M1204.92,1077.14a38,38,0,0,1,1.78,11.56q5.31-6.6,10.44-13.35c-.91-3.6-1.85-7.13-2.85-10.54Q1209.69,1071.05,1204.92,1077.14Z"/><path d="M1204.26,1095.73l-.06-7a35.46,35.46,0,0,0-1.67-10.85l-.38-1.24.8-1c3.24-4.14,6.38-8.27,9.33-12.27l3-4.06,1.41,4.84c.93,3.18,1.87,6.66,2.87,10.63l.3,1.16-.73.95c-3.14,4.17-6.57,8.56-10.48,13.41Zm3.42-18.06a41.07,41.07,0,0,1,1,4.53c2-2.58,3.94-5,5.74-7.4-.4-1.55-.78-3-1.16-4.42C1211.45,1072.79,1209.58,1075.22,1207.68,1077.67Z"/><path class="cls-2" d="M1263.52,1038.9a96.24,96.24,0,0,0-2.91,16.5q7.74-12,14.88-24.5C1268.86,1027.86,1265.64,1030.46,1263.52,1038.9Z"/><path d="M1257.34,1065.12l.78-9.92a98.91,98.91,0,0,1,3-16.91h0c1.45-5.76,3.41-9,6.36-10.37,2.48-1.19,5.45-1,9.08.71l2.49,1.14-1.36,2.38c-4.81,8.38-9.83,16.66-14.94,24.6Zm13.51-32.94a2.8,2.8,0,0,0-1.24.25c-1.43.68-2.66,3.07-3.67,7.08h0c-.38,1.52-.72,3-1,4.33q3.49-5.71,6.89-11.56A4.9,4.9,0,0,0,1270.85,1032.18Z"/><path class="cls-2" d="M1181.45,1147.15l-2.2,2.2a80.48,80.48,0,0,1-4.56,8.91,95,95,0,0,0-5.11,10.11l1.25.62q10.2-9.29,19.91-19C1187.58,1149.1,1184.45,1148.14,1181.45,1147.15Z"/><path d="M1171.26,1172l-1.52-.74-1.28-.63-2.11-1.07.93-2.16a97.07,97.07,0,0,1,5.26-10.38,79.64,79.64,0,0,0,4.41-8.64l.2-.46.35-.34c.43-.42.84-.84,1.26-1.26l2-2,1.45.48c3.33,1.09,6.33,2,9.17,2.76l4.16,1.13-3,3c-6.46,6.49-13.19,12.93-20,19.12Zm10.09-21.19a83.92,83.92,0,0,1-4.5,8.73l-.6,1c3.28-3.09,6.52-6.23,9.71-9.38-1.24-.37-2.51-.76-3.83-1.19Z"/><path class="cls-2" d="M1169.74,1146.06q-8.07,7.89-16.46,15.43c2.21,1.21,4.48,2.44,6.79,3.59a93.21,93.21,0,0,1,5.12-10.11A82.05,82.05,0,0,0,1169.74,1146.06Z"/><path d="M1161.31,1168.5l-2.36-1.18c-2.43-1.22-4.82-2.52-6.87-3.64L1149,1162l2.61-2.36c5.93-5.35,11.28-10.37,16.38-15.36l9.06-8.86-5,11.64a84.42,84.42,0,0,1-4.7,9.18,93.63,93.63,0,0,0-5,9.85Zm-3.74-7.53,1.3.69c.53-1.15,1.09-2.29,1.66-3.41C1159.56,1159.15,1158.58,1160.06,1157.57,1161Z"/><path class="cls-2" d="M1281.54,805c0-6.27-.06-12.63-.08-18.89,0-.13,0-.26,0-.39-1.07,7.39-2.27,14.79-3.65,22.19C1279,806.9,1280.27,805.92,1281.54,805Z"/><path d="M1274.07,814.22l1.27-6.77c1.3-7,2.49-14.17,3.64-22.09l5,.33v.41c0,6.26,0,12.62.08,18.89v1.29l-1,.75c-1.16.84-2.34,1.75-3.61,2.8Z"/><path class="cls-2" d="M1209.58,1114.27c2,1.74,3.85,3.59,5.63,5.5q17-17.43,32.49-36.43a79.08,79.08,0,0,0-8.78-2.19h0q-14,16.89-29.32,32.65C1209.59,1114,1209.59,1114.11,1209.58,1114.27Z"/><path d="M1215.17,1123.4l-1.79-1.93c-1.7-1.82-3.54-3.62-5.46-5.34l-.88-.78.08-2.6.68-.7c10-10.26,19.83-21.2,29.19-32.5l.75-.9h1.52l.24.06a87.82,87.82,0,0,1,8.94,2.24L1252,1082l-2.36,2.89c-10.43,12.76-21.41,25.08-32.64,36.6Zm-2.23-9.45q1.17,1.1,2.28,2.22c9.64-10,19.08-20.55,28.12-31.47q-1.75-.45-3.45-.81C1231.22,1094.3,1222.16,1104.4,1212.94,1114Z"/><path class="cls-2" d="M1094.17,1198.53v-.06q-10.55,7.89-21.51,15.32h0c3.14,2.06,4.47,4.4,4.89,6.73q8.84-6,17.43-12.32A28.45,28.45,0,0,1,1094.17,1198.53Z"/><path d="M1075.79,1224.75l-.69-3.78a7.64,7.64,0,0,0-3.74-5l-3.35-2,3.25-2.19c7.2-4.88,14.41-10,21.41-15.25l4.22-3.16-.22,5.18v.27h0a25.94,25.94,0,0,0,.75,8.83l.41,1.62-1.35,1c-5.76,4.24-11.65,8.41-17.5,12.38Zm1-10.77a12.15,12.15,0,0,1,2,2.66c4.48-3.08,9-6.26,13.38-9.49a32.8,32.8,0,0,1-.53-3.71C1086.77,1207,1081.8,1210.56,1076.82,1214Z"/><path class="cls-2" d="M1169.12,1136l2.2-2.2-1.16-.38C1169.84,1134.29,1169.5,1135.14,1169.12,1136Z"/><path d="M1161.81,1146.65l5-11.62c.37-.85.7-1.68,1-2.46l.84-2.26,7.32,2.41-3.8,3.78-1.31,1.3Z"/><path class="cls-2" d="M1061.92,1190.42h0c-3.18,2.14-6.37,4.27-9.6,6.36-1,5.46-12.59,12.67-20.84,22.48q18.08-10.38,35.34-22.11C1066.38,1194.81,1065.06,1192.48,1061.92,1190.42Z"/><path d="M1020.48,1228.46l9.08-10.81a116.66,116.66,0,0,1,11.33-11.27c4.19-3.8,8.52-7.72,9-10.07l.2-1,.89-.58c2.8-1.81,5.84-3.82,9.56-6.34l1.52-1,1.34,1.08a12.63,12.63,0,0,1,5.9,8.32l.29,1.6-1.34.91c-11.47,7.79-23.41,15.26-35.5,22.21Zm34-30.09c-.87,2.46-3,4.93-5.85,7.68q7.76-4.86,15.28-9.94a7.49,7.49,0,0,0-2.05-2.64C1059.08,1195.34,1056.69,1196.92,1054.46,1198.37Z"/><path class="cls-2" d="M1130.52,1093.34l.24.22c0-.16,0-.31,0-.47A3,3,0,0,1,1130.52,1093.34Z"/><polygon points="1133.06 1098.96 1126.91 1093.46 1128.97 1091.36 1133.45 1086.72 1133.06 1098.96"/><path class="cls-2" d="M1240.49,929.49l.12-.32c-.89,2.05-1.78,4.09-2.69,6.13A41.9,41.9,0,0,0,1240.49,929.49Z"/><path d="M1240.14,936.45l-4.5-2.18q1.24-2.79,2.46-5.6l.21-.49L1243,930c0,.1-.07.19-.11.28h0l0,0h0A43.85,43.85,0,0,1,1240.14,936.45Z"/><path class="cls-2" d="M1354.31,816.35q-3.43,18.39-8.15,36.76c3.18-1.17,6.38-2.44,9.57-3.83q1.27-5.14,2.45-10.3c0-7.91-.09-16.63-.13-25.53Q1356.15,814.83,1354.31,816.35Z"/><path d="M1342.55,857.11l1.19-4.62c3.07-11.93,5.8-24.25,8.11-36.6l.17-.89.7-.58c1.35-1.12,2.62-2.1,3.87-3l3.94-2.84,0,4.86c0,8.9.09,17.61.13,25.53v.29l-.06.28c-.72,3.16-1.52,6.54-2.46,10.34l-.3,1.2-1.13.49c-3.08,1.34-6.34,2.65-9.7,3.89Zm13-34.22c-1.75,8.81-3.7,17.57-5.83,26.16,1.3-.51,2.58-1,3.83-1.57.78-3.18,1.46-6.06,2.08-8.77C1355.65,833.7,1355.62,828.38,1355.6,822.89Z"/><path class="cls-2" d="M1127.37,1186.88c1.21,2.51,3,4.54,7.47,4.55q9.44-7.79,18.53-16c-2.67-1.46-5.26-2.89-7.71-4.1Q1136.71,1179.31,1127.37,1186.88Z"/><path d="M1135.73,1193.94h-.9c-6.14,0-8.48-3.41-9.71-6l-.85-1.78,1.52-1.24c6.42-5.23,12.55-10.44,18.21-15.48l1.26-1.12,1.51.75c2.31,1.14,4.69,2.44,7.21,3.82l3.68,2-2.61,2.36c-6.07,5.47-12.34,10.87-18.62,16.06Zm-5.08-6.51a4.54,4.54,0,0,0,3.33,1.47c5.08-4.21,10.14-8.56,15.09-13-1-.56-2-1.1-3-1.6C1141.2,1178.62,1136,1183,1130.65,1187.43Z"/><path class="cls-2" d="M1160.65,1130.16c-2.63-.88-5.15-1.76-7.49-2.6q-8.67,8.43-17.72,16.5c2.45,1.21,5,2.63,7.71,4.1q8.37-7.54,16.46-15.43C1160,1131.85,1160.33,1131,1160.65,1130.16Z"/><path d="M1143.51,1151.2l-2.13-1.16c-2.47-1.36-4.82-2.64-7-3.74l-3.33-1.64,2.77-2.47c5.93-5.27,11.86-10.8,17.64-16.42l1.11-1.09,1.47.53c2.85,1,5.22,1.83,7.44,2.57l2.46.82L1163,1131c-.32.86-.68,1.76-1.08,2.69l-.2.45-.35.34c-5.15,5-10.56,10.11-16.53,15.5Zm-3.7-7.7,3,1.61c5.15-4.66,9.87-9.1,14.38-13.49l-3.38-1.18C1149.19,1134.88,1144.51,1139.26,1139.81,1143.5Z"/><path class="cls-2" d="M1118.31,1165.73q-8.62,7-17.56,13.72s0,0,0,.07a28.67,28.67,0,0,0,.82,9.66q12.36-9.11,24.22-18.9C1121.29,1170.27,1119.52,1168.24,1118.31,1165.73Z"/><path d="M1100,1193.4l-.9-3.61a30.59,30.59,0,0,1-.89-10.4l.07-1.25.93-.69c5.93-4.45,11.81-9,17.48-13.66l2.46-2,1.37,2.86c.82,1.71,1.79,3.12,5.23,3.14l6.91,0-5.33,4.4c-7.95,6.56-16.13,13-24.32,19Zm3.12-12.63a23.61,23.61,0,0,0,.13,4c5.71-4.27,11.4-8.7,17-13.24a8.84,8.84,0,0,1-2.58-2.1C1113,1173.26,1108.08,1177.06,1103.16,1180.77Z"/><path class="cls-2" d="M1177.15,1103.87l-.24-.22q-4.87,5-9.89,9.87c2.34.84,4.86,1.72,7.49,2.6A38.92,38.92,0,0,0,1177.15,1103.87Z"/><path d="M1176,1119.25l-2.29-.76c-2.26-.76-4.65-1.59-7.54-2.62l-3.77-1.34,2.87-2.8c3.5-3.41,6.72-6.62,9.84-9.82l1.67-1.72,2.9,2.6,0,1.17a41.23,41.23,0,0,1-2.8,13Zm-4.37-6.75,1.32.45c.27-.83.5-1.65.71-2.47Z"/><path class="cls-2" d="M1271.11,928.18q-1.8,4.34-3.67,8.63c0,.11-.08.21-.11.32a41.9,41.9,0,0,1-2.57,5.81q-2.9,6.42-5.92,12.76h0a96.4,96.4,0,0,1,4.45,9.74q9.72-19.58,18-40.15a74.13,74.13,0,0,0-3-8.58A82,82,0,0,0,1271.11,928.18Z"/><path d="M1263.05,971.59l-2.07-5.21a95.28,95.28,0,0,0-4.23-9.29l0,0-.68-1.35.53-1.11c2-4.1,4-8.37,5.89-12.69l.07-.13a38.22,38.22,0,0,0,2.41-5.45c0-.11.07-.2.11-.29l.09-.23c1.24-2.85,2.47-5.74,3.66-8.6l.08-.18a83.09,83.09,0,0,1,7.46-11.81l2.57-3.46,1.73,4a75.91,75.91,0,0,1,3.08,8.86l.24.84-.32.81c-5.44,13.52-11.53,27.09-18.11,40.34Zm-1.42-15.94c.63,1.23,1.24,2.49,1.84,3.79,5.47-11.29,10.58-22.8,15.21-34.27-.34-1.12-.66-2.18-1-3.17a74.14,74.14,0,0,0-4.3,7.23c-1.17,2.83-2.39,5.69-3.61,8.51l-.06.15A44.28,44.28,0,0,1,1267,944C1265.23,948,1263.43,951.88,1261.63,955.65Z"/><path class="cls-2" d="M1279.54,964.49q-3.09,6.43-6.32,12.77c2.61,1,5.18,2.07,7.69,3.13,1-2,2.08-4.08,3.1-6.14a96.54,96.54,0,0,0-4.46-9.74Z"/><path d="M1282.07,983.61l-2.14-.91c-2.37-1-4.93-2.06-7.63-3.12l-2.56-1,1.25-2.45c2.06-4,4.18-8.3,6.3-12.71l2.38-5,2.13,5a99,99,0,0,1,4.53,9.92l.41,1-.49,1q-1.55,3.09-3.12,6.16Zm-5.38-7.66c1,.42,2.06.83,3,1.24.52-1,1-2,1.54-3.05q-.84-2.05-1.71-4C1278.6,972.14,1277.64,974.07,1276.69,976Z"/><path class="cls-2" d="M1266,905.08c7.92-10.67,15.72-17.5,13.34-25.7a8.28,8.28,0,0,0-4.8-5.72q-4.65,14.42-10,28.44C1265.06,903.05,1265.55,904.05,1266,905.08Z"/><path d="M1265.45,910l-1.73-3.94a26.69,26.69,0,0,0-1.37-2.73l-.59-1,.42-1.11c3.57-9.33,6.93-18.86,10-28.32l.84-2.6,2.52,1.07a10.77,10.77,0,0,1,6.22,7.33c2.25,7.74-3,14.24-9,21.77-1.55,1.94-3.15,3.94-4.77,6.11Zm10.4-32.29c-2.13,6.46-4.4,12.94-6.77,19.35,5.47-6.84,9.38-11.81,7.87-17A7.22,7.22,0,0,0,1275.85,877.73Z"/><path class="cls-2" d="M1191.4,1054.82q-6.27,8.17-12.82,16.11h0a79.77,79.77,0,0,1,8.79,2.19q3.75-4.62,7.42-9.31a83.84,83.84,0,0,0-3.38-9S1191.4,1054.84,1191.4,1054.82Z"/><path d="M1188.24,1076l-1.6-.49a80.68,80.68,0,0,0-8.3-2.09h-5.08l3.39-4.09c4.31-5.21,8.61-10.6,12.76-16l2.53-3.29,1.85,4.07a88.28,88.28,0,0,1,3.4,9l.38,1.24-.81,1c-2.52,3.22-5,6.37-7.46,9.35Zm-5.14-6.65c1.11.27,2.24.57,3.38.9,1.81-2.24,3.67-4.57,5.53-6.94-.37-1.11-.79-2.28-1.28-3.53C1188.22,1063,1185.67,1066.2,1183.1,1069.35Z"/><path class="cls-2" d="M1172.92,1044.34a.08.08,0,0,0,0,0,86.86,86.86,0,0,1,3.38,8.94q4.77-6.09,9.37-12.32c-1-3.34-2-6.56-3.11-9.62C1179.42,1035.75,1176.19,1040.06,1172.92,1044.34Z"/><path d="M1175.32,1058.65l-1.4-4.6a82.12,82.12,0,0,0-3.29-8.68L1170,1044l.91-1.19c3.61-4.71,6.76-8.93,9.61-12.9l2.78-3.86,1.6,4.48c1.08,3,2.14,6.27,3.16,9.75l.35,1.19-.74,1c-3,4-6.14,8.2-9.41,12.38Zm.46-14c.51,1.22,1,2.36,1.39,3.44,2-2.57,3.9-5.12,5.76-7.63-.39-1.29-.78-2.54-1.17-3.76C1179.9,1039.26,1177.92,1041.9,1175.78,1044.7Z"/><path class="cls-2" d="M1187.81,1113.29a38.78,38.78,0,0,1-2.63,12.24l1.15.39c2.39-2.36,4.77-4.72,7.11-7.13C1191.66,1116.88,1189.77,1115,1187.81,1113.29Z"/><path d="M1187,1128.77l-5.09-1.69.92-2.42a36.13,36.13,0,0,0,2.47-11.46l.21-5.31,4,3.53c2,1.82,4,3.72,5.79,5.67l1.62,1.74-1.66,1.71c-2.39,2.46-4.84,4.88-7.14,7.15Zm2.73-10.22c0,.18-.07.37-.11.55l.33-.33Z"/><path class="cls-2" d="M1202.21,1048q1.65,4.59,3.11,9.62,11.21-15.19,21.44-31.25a61.16,61.16,0,0,0-7.57-3.42Q1211,1035.72,1202.21,1048Z"/><path d="M1204.34,1063.16l-1.42-4.84c-1-3.39-2-6.57-3.06-9.48l-.45-1.24.77-1.06c5.72-7.94,11.41-16.33,16.9-24.94l1.1-1.72,1.91.74a62.4,62.4,0,0,1,7.88,3.56l2.33,1.29-1.43,2.24c-6.84,10.72-14.08,21.29-21.54,31.39Zm.66-14.76c.42,1.19.83,2.43,1.24,3.71,5.83-8,11.5-16.35,16.93-24.77-.91-.42-1.9-.86-3-1.31C1215.23,1033.73,1210.13,1041.23,1205,1048.4Z"/><path class="cls-2" d="M1244.28,920.54a81.42,81.42,0,0,1,7.24-11.46,28.55,28.55,0,0,0-1.49-3Q1247.26,913.38,1244.28,920.54Z"/><path d="M1246.5,921.68l-4.53-2.1c1.93-4.64,3.85-9.48,5.73-14.37l1.88-4.92,2.62,4.56a32.2,32.2,0,0,1,1.61,3.22l.59,1.33-.87,1.17A78.1,78.1,0,0,0,1246.5,921.68Z"/><path class="cls-2" d="M1286.77,864.74c-1.72,6-3.56,11.91-5.47,17.81a8.27,8.27,0,0,1,4.81,5.72c2.38,8.19-5.42,15-13.35,25.69a74.13,74.13,0,0,1,3,8.58,570.76,570.76,0,0,0,19.09-55.49h0c2-7.1,3.89-14.21,5.64-21.32-3.19,1.38-6.39,2.65-9.57,3.83C1289.59,854.62,1288.23,859.68,1286.77,864.74Z"/><path d="M1275.37,930.13l-2-6.88a70.86,70.86,0,0,0-2.86-8.28l-.58-1.33.86-1.17c1.67-2.24,3.3-4.28,4.88-6.25,5.57-7,9.6-12,8.08-17.25a5.8,5.8,0,0,0-3.39-4.12l-2.1-.9.7-2.17c2.19-6.79,3.93-12.42,5.45-17.73h0c1.33-4.62,2.67-9.57,4.1-15.12l.32-1.26,1.23-.46c3.28-1.21,6.45-2.48,9.44-3.78l4.64-2-1.21,4.9c-2,8-3.83,15-5.67,21.42a576.17,576.17,0,0,1-19.17,55.73Zm.25-15.81.33.86q.51-1.29,1-2.58Zm8.69-33a10.29,10.29,0,0,1,2.67,2.79q2.87-8.88,5.43-17.8c1.45-5,2.9-10.43,4.42-16.41-1.26.51-2.55,1-3.85,1.49-1.31,5.09-2.56,9.68-3.8,14C1287.78,870.28,1286.22,875.39,1284.31,881.37Z"/><path class="cls-2" d="M1036,1170.66q-16.54,10.69-34,20.31c-127.15,69.94-273.69,86-412.63,45.29-288.86-84.69-455.5-391.37-371.47-683.64,41-142.6,134.56-260.21,263.55-331.18,127.12-69.93,273.62-86,412.51-45.3,115.57,33.87,211.55,103.24,279.79,193q10.05,13.23,19.28,27c3.23-.24,6.63-.32,10.1-.3C1133.24,289.44,1027.18,206.46,896.3,168.1c-293.71-86.1-601.1,85-686.47,382.21s83.49,607.88,377.17,694c149.55,43.84,302.6,21,428.12-51.17C1023.37,1183.32,1034.92,1176.11,1036,1170.66Z"/><path d="M741.11,1273.61a559.22,559.22,0,0,1-353.4-126.88A563.19,563.19,0,0,1,250.1,979.79a573.05,573.05,0,0,1,57.16-632.2A561,561,0,0,1,474,208a556.43,556.43,0,0,1,602.77,42.89A562.08,562.08,0,0,1,1209,392.08l7.16,10.9-13-.06c-3.49,0-6.71.07-9.55.28l-4.06.3-2.27-3.38c-6.18-9.23-12.58-18.22-19-26.71C1098,281.16,1002.54,215.26,892,182.86c-137.09-40.2-281.7-24.32-407.17,44.72-127.35,70.06-219.75,186.18-260.19,327-83,288.57,81.54,591.37,366.71,675,137.14,40.21,281.78,24.33,407.28-44.7,11.25-6.19,22.54-12.94,33.56-20.06l13.75-8.89-3.07,16.08c-1,5.47-5.85,9.82-11.93,15.32a110.55,110.55,0,0,0-10.43,10.35l-.79.94-1.08.62a556,556,0,0,1-277.5,74.41Z"/><path class="cls-2" d="M1257.43,526.57q5.47,2.7,10.84,5.31-2.31-7.14-4.82-14.21c-2.13,2.25-4.39,4.57-6.66,7C1257,525.29,1257.22,525.93,1257.43,526.57Z"/><path d="M1272.45,536.69l-5.27-2.57c-3.58-1.73-7.21-3.51-10.85-5.31l-.93-.46-.33-1-.32-1c-.1-.32-.21-.64-.32-1l-.49-1.42,1-1.1c1.38-1.47,2.75-2.9,4.09-4.3.87-.91,1.74-1.81,2.58-2.7l2.81-3,1.36,3.85c1.76,5,3.35,9.66,4.84,14.27ZM1259.91,525l4.13,2q-.78-2.31-1.6-4.68Z"/><path class="cls-2" d="M1301.59,485.44c2.27-2.42,4.52-4.74,6.66-7a566.11,566.11,0,0,0-30.67-71,70.46,70.46,0,0,1-3.87,11.51A558.23,558.23,0,0,1,1301.59,485.44Z"/><path d="M1300.58,490.17l-1.35-3.92a558.92,558.92,0,0,0-27.76-66.16l-.52-1,.48-1.07a69.35,69.35,0,0,0,3.73-11.1l1.61-6.43,3,5.89a569.43,569.43,0,0,1,30.79,71.29l.51,1.44-1,1.11-2.62,2.75c-1.32,1.38-2.67,2.79-4,4.23Zm-24.11-71.26a563.2,563.2,0,0,1,26.13,61.83l1.23-1.28,1.55-1.62a567.38,567.38,0,0,0-27.16-63.6C1277.68,415.86,1277.1,417.41,1276.47,418.91Z"/><path class="cls-2" d="M1259.48,532.68l10.32,4c-.5-1.59-1-3.18-1.53-4.76q-5.36-2.61-10.84-5.31Q1258.48,529.62,1259.48,532.68Z"/><path d="M1273.73,540.82l-16.26-6.23-.37-1.13c-.67-2-1.34-4.06-2-6.08l-2-5.73,5.43,2.68c3.64,1.8,7.26,3.57,10.82,5.3l1,.46.33,1c.51,1.59,1,3.18,1.53,4.78Z"/><path class="cls-2" d="M1350,545.94c4.3-2.47,8.51-4.7,12.6-6.64Q1358.27,513,1352,487.47l-15.21-4.37Q1344.81,513.94,1350,545.94Z"/><path d="M1348.15,549.91l-.58-3.56c-3.46-21.19-7.92-42.25-13.25-62.62l-1.11-4.25,4.22,1.21,15.21,4.38,1.39.4.34,1.4c4.25,17.28,7.86,34.78,10.73,52l.31,1.86-1.71.81c-3.93,1.86-8.11,4.07-12.42,6.55Zm-7.9-63.2c4.6,18.06,8.52,36.62,11.67,55.3,2.71-1.5,5.37-2.89,7.94-4.15-2.72-16.05-6.08-32.31-10-48.39Z"/><path class="cls-2" d="M1256.23,443.76q3.45,6.51,6.72,13.11a70.46,70.46,0,0,0,3.87-11.51c-.36-.7-.74-1.39-1.1-2.08a64.93,64.93,0,0,1-9.46.48Z"/><path d="M1263.08,462.75l-2.37-4.77c-2.22-4.47-4.47-8.85-6.69-13l-2-3.68h4.19a60.9,60.9,0,0,0,9.14-.46l1.73-.23,1.31,2.49.6,1.15.44.84-.23.92a73.83,73.83,0,0,1-4,11.91Zm-2.74-16.52c.77,1.48,1.55,3,2.32,4.49.51-1.51,1-3.08,1.42-4.74C1262.87,446.1,1261.63,446.18,1260.34,446.23Z"/><path class="cls-2" d="M1238.9,439.41h0a63.36,63.36,0,0,0,9.45-.49q-13.07-25.05-28.58-48.69c-3.47,0-6.87.07-10.1.31A556.25,556.25,0,0,1,1238.9,439.41Z"/><path d="M1237.45,442l-.76-1.44a554.4,554.4,0,0,0-29.06-48.65l-2.38-3.57,4.28-.32c3.1-.23,6.56-.34,10.3-.31h1.34l.73,1.12c10.36,15.79,20,32.25,28.71,48.91l1.65,3.16-3.54.47a66.3,66.3,0,0,1-9.74.51Zm-23.23-49.22c9.28,14.12,18.08,28.94,26.18,44.12,1.42,0,2.76,0,4-.13-8-15-16.68-29.79-26-44.06C1217,392.73,1215.58,392.76,1214.22,392.8Z"/><path class="cls-2" d="M1337.16,744.43q-1.37,24.06-4.88,48.22c0,.14,0,.26,0,.39,0,6.26,0,12.63.08,18.9a48.89,48.89,0,0,1,6-3.7,563.61,563.61,0,0,0,7.09-60.18,24,24,0,0,0-8.2-3.62Z"/><path d="M1329.89,816.8l0-4.85c0-6.27-.06-12.64-.08-18.9v-.57l0-.19c2.31-15.88,3.94-32,4.85-48l.18-3.12,2.93.83a26.27,26.27,0,0,1,9,4l1.18.8-.09,1.43a571.4,571.4,0,0,1-7.11,60.45l-.21,1.22-1.1.57a45.27,45.27,0,0,0-5.65,3.51Zm4.9-24V793c0,4.73,0,9.52.06,14.29.4-.24.81-.48,1.21-.7a567.24,567.24,0,0,0,6.76-57.25,22.5,22.5,0,0,0-3.35-1.64C1338.52,762.75,1337,777.9,1334.79,792.82Z"/><path class="cls-2" d="M1244.66,1019.09q4-25.94,5.54-52.49-4.1.06-8.3.23-1.53,26.29-5.55,52.19A61,61,0,0,1,1244.66,1019.09Z"/><path d="M1246.77,1021.79l-2.34-.21a59.91,59.91,0,0,0-8-.07l-3.06.15.47-3c2.66-17.21,4.52-34.69,5.52-51.95l.13-2.27,2.27-.09c2.91-.11,5.72-.19,8.36-.23l2.69,0-.15,2.69c-1,17.55-2.9,35.29-5.57,52.72Zm-6.42-5.37c.76,0,1.49,0,2.18,0,2.34-15.65,4-31.54,5-47.3l-3.28.1c-1,15.68-2.65,31.53-5,47.17Z"/><path class="cls-2" d="M1322.92,715.33c-.12,7.67-.43,15.36-.87,23.06h.06a23.63,23.63,0,0,1,8.19,3.62q.79-12.62,1-25.18A51.51,51.51,0,0,0,1322.92,715.33Z"/><path d="M1332.52,746.53l-3.62-2.44a21.34,21.34,0,0,0-7.23-3.23l-.32-.07-1.9-.56.11-2c.46-8.16.74-15.67.86-23l0-2.71,2.7.26a53.92,53.92,0,0,1,8.81,1.59l1.89.51,0,1.95c-.16,8.47-.51,17-1,25.28Zm-7.86-10a23.76,23.76,0,0,1,3.38,1.34c.36-6.3.61-12.68.75-19.05-1.13-.25-2.27-.46-3.43-.64C1325.24,724,1325,730.07,1324.66,736.5Z"/><path class="cls-2" d="M1371,832.76q3.32-14.61,5.83-29.23a48.14,48.14,0,0,0-6,3.7C1370.89,816.13,1370.93,824.85,1371,832.76Z"/><path d="M1368.59,854.57l-.12-21.79c0-7.92-.08-16.63-.12-25.54V806l1-.75a52.41,52.41,0,0,1,6.26-3.88l4.48-2.34-.86,5c-1.7,9.86-3.67,19.74-5.85,29.36Zm4.76-46.05v.13l0-.14Z"/><path class="cls-2" d="M1384.17,607.27h0a24.2,24.2,0,0,1,6.39-14.8q-3.48-21.75-8.62-43.07-3.89,1.67-7.93,3.86C1378.25,571,1381.68,589,1384.17,607.27Z"/><path d="M1384.1,625.25l-2.41-17.65c-2.41-17.65-5.81-35.74-10.11-53.77l-.45-1.86,1.69-.92c2.8-1.52,5.54-2.85,8.15-4l2.71-1.15.69,2.87c3.4,14,6.31,28.6,8.66,43.26l.19,1.16-.78.88a21.76,21.76,0,0,0-5.77,13.23l0,.28Zm-7.21-70.7c3.25,13.83,6,27.68,8.13,41.35a31,31,0,0,1,2.89-4.18c-2.13-13.13-4.72-26.17-7.7-38.81C1379.12,553.42,1378,554,1376.89,554.55Z"/><path class="cls-2" d="M1318.47,628.14h0q3,21.76,4.17,43.87a31.27,31.27,0,0,0,5.44.93,18.86,18.86,0,0,0,3.1,0,559.53,559.53,0,0,0-6.32-59.6A24.23,24.23,0,0,0,1318.47,628.14Z"/><path d="M1329.51,675.51q-.81,0-1.62-.06a35.19,35.19,0,0,1-5.87-1l-1.78-.46-.1-1.83c-.83-14.89-2.23-29.58-4.15-43.67l0-.33,0-.25a26.51,26.51,0,0,1,7-16.21l3.51-4,.84,5.25a568,568,0,0,1,6.35,59.85l.13,2.41-2.41.22C1330.78,675.48,1330.15,675.51,1329.51,675.51ZM1325,670a28,28,0,0,0,3.26.45l.26,0c-1-16.94-2.71-33.93-5.2-50.62a20.44,20.44,0,0,0-2.36,8.2C1322.82,641.62,1324.18,655.72,1325,670Z"/><path class="cls-2" d="M1286.38,675q1.09,19.61.81,39.4a51.14,51.14,0,0,1,8.41,1.51q.38-20.09-.67-40a18.86,18.86,0,0,1-3.1,0A31.25,31.25,0,0,1,1286.38,675Z"/><path d="M1298,719.2l-3.08-.83a48.41,48.41,0,0,0-8-1.44l-2.29-.23,0-2.3c.2-12.91-.07-26.1-.81-39.22l-.19-3.4,3.31.84a28.4,28.4,0,0,0,5,.86,16.11,16.11,0,0,0,2.69,0l2.58-.23.13,2.59c.7,13.29.93,26.81.68,40.17Zm-8.32-7c1.16.16,2.3.36,3.43.59.15-11.42-.05-22.93-.6-34.29l-.91,0c-.86-.07-1.72-.17-2.59-.31C1289.62,689.55,1289.85,701,1289.72,712.22Z"/><path class="cls-1" d="M1246.28,553.54c-3,.89-8.19,2.48-13.83,4.71-14.68,5.81-32.68,15.94-25.65,29.22,4.64,8.76,31.32,6.15,58.84,4.57,7.94-13.08,11.87-23,6.73-26.09-3.76-2.28-5.4-7.24-6.09-13.44C1258,552.35,1250.85,552.21,1246.28,553.54Z"/><path d="M1230.84,596.19c-13.48,0-23.13-1.65-26.25-7.55a14.12,14.12,0,0,1-1-11.91c2.8-7.58,12.19-14.58,27.92-20.8,4.35-1.72,9.21-3.38,14-4.79s12.19-1.29,20.62-1.13l2.32,0,.24,2.18c.7,6.22,2.3,10,4.91,11.59,3.51,2.12,4.39,6.21,2.64,12.15-1.3,4.36-4.09,10-8.54,17.37l-.68,1.12-1.31.08-8,.47C1247.88,595.62,1238.71,596.19,1230.84,596.19Zm27.89-41.28c-4.83,0-8.92.21-11.75,1h0c-4.69,1.37-9.4,3-13.61,4.64-14.15,5.6-22.82,11.78-25.07,17.88a9.19,9.19,0,0,0,.71,7.84c3.44,6.49,27.38,5,48.5,3.72l6.67-.4c3.82-6.41,6.23-11.34,7.33-15.07,1-3.49.89-5.66-.43-6.46-4.62-2.8-6.27-8.41-7-13.12C1262.22,554.94,1260.43,554.91,1258.73,554.91Z"/><path class="cls-3" d="M958.35,877.28c29.33-75.28,3.27-120.35-50.14-151.13,40-7.74,70.95-33,81-87.25,13.87-74.09-40.7-116.28-116.38-145.93l28.73-100-60.16-17.63-28,97.35c-15.81-4.64-32.07-9.06-48.23-13.44l28.17-98-60.13-17.63-28.74,100c-13.11-3.55-26-7.06-38.44-10.71l.08-.31-83-24.35-18.67,65S609.18,485.4,608.2,486c24.37,7.15,28.19,23.79,26.94,36.81l-78.72,273.9c-3.3,7.44-11.36,18.49-28.39,13.53.57.92-43.74-12.83-43.74-12.83L451.45,866.6l78.3,22.94c14.56,4.29,28.83,8.75,42.87,13l-29,101.13,60.09,17.63L632.44,921.2c16.4,5.19,32.33,10,47.92,14.56l-28.64,99.58L711.88,1053l29-100.94C843.74,975.81,921.94,970.79,958.35,877.28ZM711.14,652.72l34.93-121.51c34,9.95,143.79,30.3,123.19,102C849.48,702,745.1,662.67,711.14,652.72ZM655,848l38.52-134c40.78,12,172.05,37.58,149.39,116.4C821.23,906,695.78,859.94,655,848Z"/><path class="cls-3" d="M715.64,1059.8l-70.72-20.72,28.64-99.59c-12.91-3.8-25.23-7.54-37.4-11.35l-28.72,99.95-70.65-20.72L565.84,906.2l-11.73-3.57c-8.45-2.57-17.18-5.24-25.92-7.81l-84.47-24.76,37.65-79.31,4.55,1.42c10.44,3.24,21.68,6.66,30,9.14l-.23-.37,13.83,4c10,2.91,17.28-.5,21.68-10.15l78.47-273c1.29-15.39-6.47-25.65-23.06-30.52l-11.74-3.45.42-.26c-9.05-2.64-22.19-6.3-32.27-9l-5.38-1.47,21.73-75.68,93.41,27.42-.08.29c9.11,2.62,18.45,5.19,28,7.77l28.78-100.05,70.68,20.72L772,455.42c13.7,3.72,25.73,7,37.64,10.47l28-97.36,70.72,20.72L879.5,489.7c40.8,16.46,70,34.76,89.18,55.87,24,26.41,32.72,58.15,26,94.35-8.67,46.77-33,76.46-72.4,88.43,23.54,15.67,39,33.64,47.2,54.69,10.6,27.27,8.65,58.75-6,96.24C945.6,925.19,917,952.89,876,964c-33,8.9-74.8,7.2-131.21-5.4Zm-57.13-28.2,49.61,14.54L737.06,945.5l5.09,1.17c57.17,13.23,98.79,15.34,131,6.66,37.4-10.09,63.6-35.62,80.12-78h0c25.37-65.11,10.19-111-47.75-144.37l-12.78-7.37,14.48-2.8c20-3.87,36.46-12.17,48.89-24.67,13.84-13.9,23.17-33.48,27.75-58.18C990,604.8,982.4,577,960.54,553c-18.74-20.62-48.08-38.57-89.71-54.88l-4.66-1.83,28.6-99.53-49.6-14.54-28,97.35-5.3-1.55c-15.13-4.44-30.11-8.53-48.13-13.42l-5.38-1.46,28.2-98.1L737,350.48l-28.71,99.84-5.23-1.42c-13.2-3.57-26.07-7.08-38.55-10.73l-5.13-1.5.08-.32-72.53-21.29L571.32,469.4c4.22,1.16,10.37,2.86,16.48,4.58,6.37,1.8,11.46,3.27,15.12,4.37a54.78,54.78,0,0,1,7.54,2.6c12.74,3.9,32.81,14.52,30.16,42.39l0,.51-79,274.75-.15.35c-6.49,14.63-19.28,20.87-34.31,16.77a17.5,17.5,0,0,1-2.48-.5c-1.21-.31-2.95-.79-5.17-1.42-3.67-1-8.74-2.55-15.09-4.47s-13-4-17.18-5.25l-28,59,72.1,21.14c8.79,2.59,17.56,5.26,26,7.84,5.67,1.73,11.29,3.45,16.89,5.12l5.2,1.57-29,101.09,49.54,14.53,28.79-100.16,5.38,1.7c15.48,4.89,31.12,9.64,47.81,14.52l5.26,1.53ZM772.78,878.36c-37.93,0-80.77-13.22-107.68-21.52-4.46-1.38-8.32-2.56-11.64-3.54l-5.26-1.53,41.56-144.55,5.31,1.55c4,1.19,9,2.5,14.66,4,38.48,10.29,110.11,29.44,133.49,70.78,8.31,14.69,10,31,5,48.39-4.73,16.46-14.37,28.74-28.68,36.48C806.27,875.62,790,878.36,772.78,878.36Zm-111-34c2,.61,4.21,1.29,6.55,2C706,857.93,776,879.52,814.29,858.77c11.77-6.37,19.4-16.13,23.33-29.84,4.23-14.68,2.92-27.74-4-39.93-21.11-37.32-89.84-55.7-126.76-65.58-3.49-.93-6.69-1.78-9.6-2.59Zm144.84-165.9c-31.27,0-65.59-10.69-87.26-17.43-3.75-1.16-7-2.17-9.77-3l-5.26-1.54,38-132.08,5.3,1.55c3.37,1,7.5,2.08,12.28,3.34,33.64,8.89,89.94,23.77,110.16,59.38,7.81,13.76,9.32,29.27,4.49,46.09-4.58,15.92-13.73,27.67-27.2,34.93C835.57,676,821.44,678.42,806.63,678.42ZM717.93,649l4.71,1.46c30.38,9.46,86.92,27,119.48,9.5C853,654.1,860.19,644.85,864,631.7c4-14.06,2.9-26.37-3.49-37.62C842.55,562.5,787,547.8,757.08,539.91L749.84,538Z"/><path d="M947.35,894.28c29.33-75.28,3.27-120.35-50.14-151.13,40-7.74,70.95-33,81-87.25,13.87-74.09-40.7-116.28-116.38-145.93l28.73-100-60.16-17.63-28,97.35c-15.81-4.64-32.07-9.06-48.23-13.44l28.17-98-60.13-17.63-28.74,100c-13.11-3.55-26-7.06-38.44-10.71l.08-.31-83-24.35-18.67,65S598.18,502.4,597.2,503c24.37,7.15,28.19,23.79,26.94,36.81l-78.72,273.9c-3.3,7.44-11.36,18.49-28.39,13.53.57.92-43.74-12.83-43.74-12.83L440.45,883.6l78.3,22.94c14.56,4.29,28.83,8.75,42.87,13l-29,101.13,60.09,17.63L621.44,938.2c16.4,5.19,32.33,10,47.92,14.56l-28.64,99.58L700.88,1070l29-100.94C832.74,992.81,910.94,987.79,947.35,894.28ZM700.14,669.72l34.93-121.51c34,9.95,143.79,30.3,123.19,102C838.48,719,734.1,679.67,700.14,669.72ZM644,865l38.52-134c40.78,12,172.05,37.58,149.39,116.4C810.23,923,684.78,876.94,644,865Z"/><path class="cls-2" d="M705.66,1078.66l-73.6-21.56,28.65-99.59c-11.88-3.51-23.28-7-34.53-10.48L597.47,1047l-73.53-21.57,29-101.18-10.32-3.14c-8.44-2.58-17.17-5.24-25.9-7.81L430.61,888l39-82.07,5.8,1.8c8,2.47,17.92,5.51,26.22,8l-.21-.34,17.6,5.13c3.42,1,13.75,4,19.85-9.23l78.4-272.76c1.18-14.7-6-24.12-22-28.81l-14.94-4.39.4-.25c-8.17-2.35-18.92-5.35-29-8.1l-6.84-1.87,22.56-78.59,96.26,28.25-.07.29q12.3,3.51,25.1,7L717.46,352,791,373.52l-28.14,97.85c12.55,3.42,23.73,6.49,34.75,9.66l28-97.37,73.6,21.57-28.9,100.59c40.35,16.42,69.33,34.68,88.47,55.74,24.33,26.77,33.18,59,26.31,95.63-8.57,46.21-32.25,76-70.49,88.67,51.94,36,64.76,85.51,39.26,151-18.06,46.39-47,74.38-88.51,85.58-33,8.9-74.58,7.29-130.55-5.08Zm-56.29-31.08,46.73,13.69L725,960.72l6.47,1.49c56.92,13.17,98.3,15.28,130.22,6.67,36.9-10,62.78-35.19,79.11-77.14h0c13.42-34.44,15.37-63,6-87.18-8.34-21.47-25.69-39.57-53.06-55.34l-16.27-9.38,18.43-3.56c19.72-3.81,35.91-12,48.12-24.25,13.62-13.69,22.82-33,27.34-57.4,6.1-32.61-1.39-60-22.91-83.65-18.58-20.45-47.74-38.27-89.14-54.49l-5.94-2.33,28.57-99.41-46.73-13.69-28,97.34-6.75-2c-15.12-4.43-30.09-8.52-48.1-13.41l-6.86-1.86L773.72,383,727,369.34l-28.71,99.81-6.65-1.8c-13.21-3.57-26.09-7.09-38.58-10.74l-6.54-1.91.09-.32L577,433.93l-14.76,51.43c4.11,1.13,9.58,2.65,15,4.18,6.38,1.8,11.47,3.27,15.14,4.38a58.15,58.15,0,0,1,7.64,2.62c29.82,9.14,32.32,31.41,31.12,43.95l-.06.64-79,275-.2.44c-6.8,15.34-20.22,21.9-36,17.63a19.4,19.4,0,0,1-2.54-.52c-1.24-.31-2.95-.78-5.21-1.43-3.68-1-8.76-2.56-15.11-4.47-5.88-1.78-11.78-3.59-16-4.87l-26.73,56.29,70.43,20.64c8.79,2.59,17.56,5.26,26,7.85,5.66,1.72,11.29,3.44,16.88,5.12l6.62,2-29,101.08,46.66,13.69,28.79-100.2,6.85,2.17c15.47,4.89,31.1,9.63,47.78,14.51l6.7,2ZM761.78,896.85c-38.18,0-81.12-13.25-108.12-21.58-4.46-1.37-8.31-2.56-11.62-3.53l-6.7-2,42.4-147.44,6.75,2c4,1.18,8.93,2.5,14.63,4,38.69,10.35,110.71,29.61,134.41,71.5,8.51,15,10.23,31.71,5.11,49.53-4.84,16.87-14.73,29.45-29.4,37.39C795.75,894.07,779.26,896.85,761.78,896.85ZM652.64,860.31l5.14,1.59c34.74,10.71,107,33,144.79,12.55,11.4-6.16,18.8-15.63,22.61-28.93,4.11-14.28,2.85-27-3.84-38.78-20.8-36.78-89.13-55-125.84-64.87q-4.39-1.17-8.18-2.2Zm143-163.4c-31.51,0-65.94-10.71-87.69-17.49-3.75-1.16-7-2.17-9.76-3l-6.68-2,38.79-135,6.76,2c3.34,1,7.46,2.07,12.23,3.33,33.87,8.95,90.56,23.94,111.08,60.09,8,14.13,9.58,30,4.63,47.24-4.69,16.33-14.09,28.38-27.93,35.84C825,694.47,810.66,696.91,795.62,696.91ZM708.77,665l3.32,1c30.16,9.39,86.32,26.86,118.32,9.61C841,670,847.86,661,851.53,648.29c3.92-13.66,2.82-25.59-3.36-36.47-17.61-31-72.82-45.62-102.48-53.46l-5.81-1.55Z"/></svg>