<svg id="bitcoin" xmlns="http://www.w3.org/2000/svg" xmlns:xlink="http://www.w3.org/1999/xlink" viewBox="0 0 1500 1500"><defs><style>.cls-1{fill:none;}.cls-2{fill:#fff;}.cls-3{fill:#b3b3b3;}.cls-4{fill:#e6e6e6;}.cls-5{fill:#333;}.cls-6{fill:#999;}.cls-7{clip-path:url(#clip-path);}.cls-8{fill:#f7931a;}.cls-9{fill:#d6d238;}.cls-10{opacity:0.5;}</style><clipPath id="clip-path"><rect class="cls-1" x="267.14" y="461.69" width="110.22" height="88.95" rx="9.52" ry="9.52" transform="translate(-176.82 173.03) rotate(-23.79)"/></clipPath></defs><title>art-meets-bitcoin-illustrations-1Artboard 54 copy 36</title><g id="coin"><path d="M1298.22,1071.23C1259,1230,1100,1326.47,943,1286.78S690.67,1086.25,729.92,927.54,928.17,672.28,1085.09,712s252.36,200.55,213.13,359.28Z"/><path class="cls-2" d="M1014.52,1296.74a292.84,292.84,0,0,1-71.78-9c-76.14-19.25-140.32-67.36-180.7-135.44A298.12,298.12,0,0,1,729,927.3c19.16-77.58,67.17-142.78,135.17-183.59,67-40.22,145.6-51.85,221.21-32.73,76.17,19.26,140.36,67.36,180.75,135.45a298.24,298.24,0,0,1,33.11,225C1280,1149,1232,1214.22,1164,1255A289.74,289.74,0,0,1,1014.52,1296.74ZM1013.59,704a287.72,287.72,0,0,0-148.44,41.43C797.61,786,749.92,850.72,730.89,927.78a296.15,296.15,0,0,0,32.87,223.51c40.11,67.62,103.85,115.4,179.47,134.52a287.32,287.32,0,0,0,219.75-32.5c67.54-40.52,115.23-105.27,134.27-182.32l1,.24-1-.24a296.24,296.24,0,0,0-32.89-223.53c-40.12-67.64-103.87-115.42-179.52-134.54A290.39,290.39,0,0,0,1013.59,704Z"/></g><rect class="cls-3" x="120.93" y="331.83" width="487.27" height="320.02" rx="21.27" ry="21.27"/><path d="M586.93,656.85H142.19a26.3,26.3,0,0,1-26.26-26.27V353.1a26.29,26.29,0,0,1,26.26-26.27H586.93A26.29,26.29,0,0,1,613.2,353.1V630.58A26.3,26.3,0,0,1,586.93,656.85Zm-444.74-320a16.28,16.28,0,0,0-16.26,16.27V630.58a16.28,16.28,0,0,0,16.26,16.27H586.93a16.29,16.29,0,0,0,16.27-16.27V353.1a16.29,16.29,0,0,0-16.27-16.27Z"/><rect x="120.93" y="372.44" width="487.27" height="58.01"/><rect class="cls-4" x="140.26" y="466.22" width="309.38" height="56.08"/><rect class="cls-5" x="229.21" y="306.69" width="487.27" height="320.02" rx="33.73" ry="33.73" transform="translate(-148.1 230.44) rotate(-23.79)"/><path class="cls-2" d="M331.82,702.16A35.5,35.5,0,0,1,319,699.74a35,35,0,0,1-19.51-18.59L197.6,450.06a35.27,35.27,0,0,1,18-46.45L599.75,234.24a35.31,35.31,0,0,1,46.45,18L748.1,483.34a35.32,35.32,0,0,1-18,46.45l-.6-1.37.6,1.37L345.94,699.17A35,35,0,0,1,331.82,702.16ZM613.88,234.25A32,32,0,0,0,601,237L216.83,406.35a32.28,32.28,0,0,0-16.49,42.5l101.9,231.09a32.33,32.33,0,0,0,42.49,16.48L728.86,527.05a32.33,32.33,0,0,0,16.49-42.49L643.46,253.47a32,32,0,0,0-17.85-17A32.36,32.36,0,0,0,613.88,234.25Z"/><rect class="cls-2" x="628.38" y="459.01" width="84.11" height="60.91" transform="translate(-140.49 312.09) rotate(-23.79)"/><rect x="613.97" y="452.69" width="84.11" height="60.91" transform="translate(-139.16 305.74) rotate(-23.79)"/><rect class="cls-6" x="267.14" y="461.69" width="110.22" height="88.95" rx="9.52" ry="9.52" transform="translate(-176.82 173.03) rotate(-23.79)"/><g class="cls-7"><path class="cls-2" d="M279.12,528.47l-25.45-57.71,77.18-34,25.45,57.71ZM262.9,474.34l19.8,44.9,64.37-28.38L327.27,446Z"/><path class="cls-2" d="M315,573.93l-23.11-52.4,77.17-34,23.11,52.4Zm-13.88-48.82L318.6,564.7,383,536.32l-17.46-39.6Z"/><path class="cls-2" d="M341,520.21l-16.48-37.36,52.41-23.11,16.48,37.37Zm-7.25-33.78L344.57,511l39.6-17.45L373.34,469Z"/><path class="cls-2" d="M269.34,551.81l-16.48-37.37,58.6-25.84L327.93,526ZM262.09,518l10.83,24.56,45.79-20.19-10.83-24.56Z"/></g><g id="coin-2" data-name="coin"><path d="M1326.11,1081.19c-39.23,158.72-198.27,255.24-355.23,215.55S718.55,1096.21,757.81,937.5,956.06,682.24,1113,721.91s252.37,200.55,213.14,359.28Z"/><path class="cls-2" d="M1042.41,1306.7a292.84,292.84,0,0,1-71.78-9c-76.14-19.25-140.32-67.36-180.7-135.44a298.17,298.17,0,0,1-33.1-225C776,859.68,824,794.48,892,753.67c67-40.22,145.6-51.85,221.21-32.73,76.17,19.26,140.36,67.36,180.75,135.45a298.24,298.24,0,0,1,33.11,225C1307.91,1159,1259.9,1224.19,1191.9,1265A289.85,289.85,0,0,1,1042.41,1306.7ZM1041.48,714A287.72,287.72,0,0,0,893,755.39C825.5,795.92,777.81,860.68,758.78,937.74a296.15,296.15,0,0,0,32.87,223.51c40.11,67.62,103.85,115.4,179.47,134.52a287.32,287.32,0,0,0,219.75-32.5c67.54-40.52,115.22-105.27,134.27-182.32l1,.24-1-.24a296.24,296.24,0,0,0-32.89-223.53c-40.12-67.64-103.87-115.42-179.52-134.54A290.45,290.45,0,0,0,1041.48,714Z"/></g><path class="cls-2" d="M904.21,747.57H867.76a1.5,1.5,0,0,1,0-3h36.45a1.5,1.5,0,0,1,0,3Z"/><path class="cls-2" d="M869.75,769H835.89a1.5,1.5,0,0,1,0-3h33.86a1.5,1.5,0,0,1,0,3Z"/><path class="cls-2" d="M843.85,790.5H812.79a1.5,1.5,0,0,1,0-3h31.06a1.5,1.5,0,0,1,0,3Z"/><path class="cls-2" d="M821.94,812.76H790.07a1.5,1.5,0,1,1,0-3h31.87a1.5,1.5,0,0,1,0,3Z"/><path class="cls-2" d="M804,833.43H774.13a1.5,1.5,0,0,1,0-3H804a1.5,1.5,0,0,1,0,3Z"/><path class="cls-2" d="M790.07,854.89H760.19a1.5,1.5,0,0,1,0-3h29.88a1.5,1.5,0,0,1,0,3Z"/><path class="cls-2" d="M778.12,876.35H750.23a1.5,1.5,0,0,1,0-3h27.89a1.5,1.5,0,0,1,0,3Z"/><path class="cls-2" d="M768.16,897.82h-25.9a1.5,1.5,0,0,1,0-3h25.9a1.5,1.5,0,0,1,0,3Z"/><path class="cls-2" d="M762.7,919.28H736.47a1.5,1.5,0,0,1,0-3H762.7a1.5,1.5,0,0,1,0,3Z"/><path class="cls-2" d="M757.14,940.75H731.7a1.5,1.5,0,0,1,0-3h25.44a1.5,1.5,0,0,1,0,3Z"/><path class="cls-2" d="M753.17,963H727.73a1.5,1.5,0,0,1,0-3h25.44a1.5,1.5,0,0,1,0,3Z"/><path class="cls-2" d="M750,983.67H726.14a1.5,1.5,0,0,1,0-3H750a1.5,1.5,0,1,1,0,3Z"/><path class="cls-2" d="M749.19,1005.14H724.55a1.5,1.5,0,0,1,0-3h24.64a1.5,1.5,0,0,1,0,3Z"/><path class="cls-2" d="M749.19,1026.6H726.14a1.5,1.5,0,0,1,0-3h23.05a1.5,1.5,0,1,1,0,3Z"/><path class="cls-2" d="M751.58,1048.07H729.32a1.5,1.5,0,1,1,0-3h22.26a1.5,1.5,0,1,1,0,3Z"/><path class="cls-2" d="M754.75,1069.53H734.88a1.5,1.5,0,1,1,0-3h19.87a1.5,1.5,0,0,1,0,3Z"/><path class="cls-2" d="M760.32,1091H740.45a1.5,1.5,0,0,1,0-3h19.87a1.5,1.5,0,1,1,0,3Z"/><path class="cls-2" d="M766.68,1112.46H749.19a1.5,1.5,0,0,1,0-3h17.49a1.5,1.5,0,0,1,0,3Z"/><path class="cls-2" d="M775.42,1133.92H758.73a1.5,1.5,0,0,1,0-3h16.69a1.5,1.5,0,1,1,0,3Z"/><path class="cls-2" d="M786.55,1155.39H772.24a1.5,1.5,0,0,1,0-3h14.31a1.5,1.5,0,0,1,0,3Z"/><path class="cls-2" d="M799.27,1177.65H787.35a1.5,1.5,0,1,1,0-3h11.92a1.5,1.5,0,0,1,0,3Z"/><path class="cls-2" d="M815.17,1198.32h-9.54a1.5,1.5,0,1,1,0-3h9.54a1.5,1.5,0,0,1,0,3Z"/><path class="cls-2" d="M834.25,1219.78h-4.77a1.5,1.5,0,0,1,0-3h4.77a1.5,1.5,0,0,1,0,3Z"/><path class="cls-2" d="M955.09,726.9H907.6a1.5,1.5,0,0,1,0-3h47.49a1.5,1.5,0,0,1,0,3Z"/><path class="cls-2" d="M994.93,715H947.44a1.5,1.5,0,0,1,0-3h47.49a1.5,1.5,0,1,1,0,3Z"/><g id="coin-3" data-name="coin"><path class="cls-8" d="M1318.31,1079.06c-38.13,154.7-193,248.84-346,210.26s-246-195.25-207.84-349.93,193-248.87,346-210.3,246,195.27,207.91,350Z"/></g><g id="symbol"><path class="cls-2" d="M1167.21,968.07c5.69-38.42-23.24-59.08-62.79-72.86l12.83-52-31.33-7.9L1073.43,886c-8.24-2.08-16.69-4-25.1-6l12.58-51-31.31-7.89-12.84,52c-6.81-1.57-13.51-3.12-20-4.76l0-.16-43.2-10.91-8.33,33.84s23.24,5.39,22.75,5.72c12.69,3.2,15,11.69,14.6,18.43l-35.16,142.58c-1.55,3.9-5.48,9.74-14.35,7.52.31.46-22.77-5.74-22.77-5.74l-15.55,36.26,40.76,10.28c7.59,1.92,15,3.93,22.34,5.83l-13,52.64,31.29,7.9L989,1120.44c8.55,2.35,16.85,4.52,25,6.56l-12.8,51.84,31.33,7.89,13-52.54c53.42,10.22,93.59,6.1,110.5-42.77,13.62-39.34-.68-62-28.79-76.83,20.47-4.78,35.89-18.39,40-46.52Zm-71.57,101.51c-9.68,39.34-75.18,18.07-96.42,12.74l17.2-69.74C1037.66,1017.94,1105.75,1028.55,1095.64,1069.58Zm9.69-102.08c-8.84,35.79-63.35,17.61-81,13.15l15.6-63.26C1057.57,921.85,1114.53,930.17,1105.33,967.5Z"/></g><path class="cls-9" d="M1046.3,595.8l36.25-5.61a300.32,300.32,0,0,0-272.9-216.56c-4.92-.25-15.93-.41-21.65-.41H778V328h10c6.25,0,18.06.17,24,.48a346,346,0,0,1,315.56,254.74l44-6.81L1125.73,694.6Z"/><path d="M1127.57,706.46l-92.46-115,39.7-6.15A294.36,294.36,0,0,0,809.34,379.62c-4.82-.25-15.68-.4-21.34-.4H772V322h16c6.31,0,18.28.17,24.32.48a352,352,0,0,1,319.59,254l49-7.59Zm-70.08-106.32,66.41,82.61,38.34-98.82-39.06,6-1.4-5.18A339.56,339.56,0,0,0,811.69,334.47c-5.83-.31-17.51-.47-23.69-.47h-4v33.22h4c5.79,0,17,.16,22,.42a306.83,306.83,0,0,1,278.36,220.88l1.89,6.55Z"/><path class="cls-9" d="M695.78,1137.94c-6.22-.28-18-1-24-1.55a346,346,0,0,1-303.77-268.7l-44.28,4.83,51.12-116L449.8,858.79l-36.47,4a300.34,300.34,0,0,0,262.88,228.62c4.9.48,15.89,1.13,21.61,1.39l10,.45-2,45.17Z"/><path d="M712,1145.18l-16.48-.75c-6.3-.28-18.26-1-24.3-1.57A352.57,352.57,0,0,1,363,874.78l-49.74,5.42,60.21-136.62L461.7,864l-40.22,4.38a293.81,293.81,0,0,0,255.36,216.5c4.8.47,15.62,1.11,21.27,1.36l16.48.75Zm-15.9-13.73,3.5.16,1.45-32.19-3.5-.16c-5.78-.26-16.93-.92-21.94-1.41A307.35,307.35,0,0,1,407,864.29l-1.73-7.19,32.62-3.55-61.6-84.12-42.05,95.41,38.87-4.24,1.27,5.68a339.1,339.1,0,0,0,298.06,263.64c5.82.56,17.46,1.25,23.63,1.53Z"/><g class="cls-10"><path class="cls-3" d="M376,856.77a335.55,335.55,0,0,0,296.82,269.66c5.76.56,17.32,1.25,23.44,1.52l1.14-25.19c-5.71-.26-16.87-.91-22.13-1.43A310.8,310.8,0,0,1,401.15,854l30.35-3.31-27.22-37.16-27.22-37.17-18.58,42.15L339.9,860.7Z"/></g></svg>