<svg id="bitcoin" xmlns="http://www.w3.org/2000/svg" viewBox="0 0 1500 1500"><defs><style>.cls-1{fill:#fff;}.cls-2{fill:#d6d238;}.cls-3{fill:#fbb03b;}.cls-4{fill:#f7931a;}</style></defs><title>art-meets-bitcoin-illustrations-1Artboard 54 copy 41</title><path d="M930.28,976.64s-9,135.7.26,149.48,227.69,11.12,239.19,8.8,80.38-64.53,89.56-76.05-9.39-110.37-9.39-110.37l-296.65,9.7Z"/><path class="cls-1" d="M1085.55,1137.79c-11.77,0-24-.07-36.28-.23-51.69-.69-114.39-3.14-119.56-10.88-9.31-13.9-.79-144.55-.43-150.1l0-.44,23.57-18.92h.34l297.5-9.74.16.85c.76,4,18.55,99.44,9.19,111.18-8.48,10.63-77.89,73.92-90.15,76.4C1165.31,1136.83,1128.74,1137.79,1085.55,1137.79ZM931.25,977.15c-.55,8.51-8.56,135.46.12,148.42,1.71,2.55,16.61,8.63,117.92,10,57.07.76,114.45-.45,120.24-1.62,11.15-2.25,79.9-64.31,89-75.69,7.23-9.06-4.21-80.73-9.43-108.72l-295.46,9.66Z"/><path class="cls-1" d="M1169.73,1135.92a1,1,0,0,1-1-1l-.26-151.78a1,1,0,0,1,1-1h0a1,1,0,0,1,1,1l.26,151.79a1,1,0,0,1-1,1Z"/><path d="M529.75,940.71s9.2,135.69,0,149.48-227.67,11.5-239.17,9.2-80.49-64.39-89.69-75.89,9.2-110.39,9.2-110.39l296.67,9.2Z"/><path class="cls-1" d="M369.83,1102.13c-41,0-75-.87-79.45-1.76-12.26-2.45-81.77-65.62-90.27-76.24-9.38-11.72,8.24-107.14,9-111.2l.15-.84.86,0,297,9.21,23.6,18.89,0,.43c.38,5.56,9.12,136.19-.16,150.11-5.17,7.75-67.86,10.3-119.55,11.08C397.08,1102,383.08,1102.13,369.83,1102.13Zm-158.91-188c-5.17,28-16.49,99.69-9.25,108.74,9.09,11.36,78,73.3,89.11,75.53,5.79,1.16,63.17,2.28,120.23,1.42,101.31-1.53,116.21-7.63,117.91-10.19,2.54-3.81,5.18-20.67,3.28-79.32-1.06-33.06-3.14-65-3.41-69.1l-22.4-17.92Z"/><path class="cls-1" d="M380.41,1221.5a1,1,0,0,1-1-1v-99.8a1,1,0,0,1,2,0v99.8A1,1,0,0,1,380.41,1221.5Z"/><path d="M1022.38,1063.75v82.79l-32.19,55.2c-43.7,23-71.29,2.3-73.59-11.5s39.09-57.49,39.09-57.49c0-16.1-2.3-135.69-2.3-135.69"/><path class="cls-1" d="M953.19,1213.07a48.62,48.62,0,0,1-21.71-4.78c-8.54-4.24-14.77-11.26-15.87-17.89-2.28-13.68,35.16-53.88,39.08-58.05,0-17.38-2.27-134.08-2.3-135.27a1,1,0,0,1,1-1h0a1,1,0,0,1,1,1c0,1.2,2.3,119.78,2.3,135.71v.39l-.27.29c-.41.44-41,43.49-38.84,56.65,1,6,6.81,12.46,14.79,16.42,8.94,4.43,28.22,9.59,57.1-5.51l31.91-54.72v-82.52a1,1,0,0,1,2,0v83.06l-32.47,55.68-.26.13C975.66,1210.52,963.12,1213.07,953.19,1213.07Z"/><path d="M1059.18,997.06s2.3,119.59,2.3,135.69c0,0-41.4,43.69-39.1,57.49s29.9,34.5,73.6,11.5l32.19-55.2v-82.79"/><path class="cls-1" d="M1059,1213.07a48.62,48.62,0,0,1-21.71-4.78c-8.54-4.24-14.77-11.26-15.87-17.89-2.28-13.68,35.16-53.88,39.08-58.05,0-17.38-2.28-134.08-2.3-135.27a1,1,0,0,1,1-1,1,1,0,0,1,1,1c0,1.2,2.3,119.78,2.3,135.71v.39l-.27.29c-.41.44-41,43.49-38.84,56.65,1,6,6.81,12.46,14.79,16.42,8.93,4.43,28.22,9.6,57.1-5.51l31.91-54.72v-82.52a1,1,0,0,1,2,0v83.06l-32.47,55.68-.26.13C1081.44,1210.52,1068.91,1213.07,1059,1213.07Zm2.5-80.32h0Z"/><path d="M437.76,1028.1v82.79l32.2,55.2c43.7,23,71.29,2.3,73.59-11.5s-39.09-57.5-39.09-57.5c0-16.09,2.3-135.68,2.3-135.68"/><path class="cls-1" d="M507,1177.42c-9.93,0-22.47-2.55-37.47-10.45l-.25-.13-32.48-55.68V1028.1a1,1,0,0,1,2,0v82.52l31.92,54.71c28.88,15.11,48.16,10,57.1,5.51,8-3.95,13.78-10.4,14.79-16.42,2.19-13.15-38.43-56.21-38.84-56.64l-.27-.29v-.4c0-15.92,2.27-134.51,2.3-135.7a1,1,0,1,1,2,0c0,1.18-2.27,117.89-2.3,135.27,3.92,4.16,41.36,44.37,39.08,58-1.11,6.63-7.33,13.65-15.87,17.89A48.62,48.62,0,0,1,507,1177.42Z"/><path d="M401,961.41s-2.3,119.59-2.3,135.68c0,0,41.39,43.7,39.09,57.5s-29.89,34.49-73.59,11.5L332,1110.89V1028.1"/><path class="cls-1" d="M401.17,1177.42c-9.93,0-22.46-2.55-37.46-10.45l-.26-.13L331,1111.16V1028.1a1,1,0,0,1,2,0v82.52l31.91,54.71c28.88,15.11,48.16,10,57.1,5.51,8-3.95,13.79-10.4,14.79-16.42,2.19-13.15-38.43-56.21-38.84-56.64l-.27-.29v-.4c0-15.92,2.28-134.51,2.3-135.7a1,1,0,0,1,2,0c0,1.18-2.27,117.89-2.3,135.27,3.92,4.16,41.36,44.37,39.08,58-1.1,6.63-7.33,13.65-15.87,17.89A48.62,48.62,0,0,1,401.17,1177.42Z"/><path d="M1416.28,535.21c-.39-1.53-.83-3.05-1.33-4.54s-1.07-3-1.69-4.4A67.88,67.88,0,0,0,1386.89,496c-.7-.44-1.41-.87-2.12-1.29q-2.14-1.26-4.39-2.38t-4.58-2.12l-55.27-95.73-66.77-115.65L1187,394.43l-51.65,89.46h-105l-51.65-89.46L911.9,278.78,845.14,394.43l-55.28,95.73c-1.55.66-3.08,1.37-4.57,2.12s-3,1.54-4.39,2.38c-.71.42-1.42.85-2.12,1.29a67.88,67.88,0,0,0-26.37,30.32q-.93,2.16-1.69,4.4c-.5,1.49-.94,3-1.33,4.54a58.71,58.71,0,0,0-1.76,14.27V915.13a59.3,59.3,0,0,0,7.27,28.37c11.91,22,37.15,37.22,66.2,37.22h523.47c30.31,0,56.48-16.6,67.68-40.12a59.06,59.06,0,0,0,5.79-25.47V549.48A58.71,58.71,0,0,0,1416.28,535.21Z"/><path class="cls-1" d="M1344.57,983.72H821.1c-29.05,0-56.07-15.23-68.84-38.79a62,62,0,0,1-7.63-29.8V549.48a61.68,61.68,0,0,1,1.85-15c.4-1.6.87-3.2,1.4-4.77s1.12-3.1,1.77-4.62a70.42,70.42,0,0,1,27.53-31.67c.73-.46,1.46-.91,2.2-1.34,1.48-.87,3-1.71,4.56-2.48,1.25-.63,2.53-1.23,3.82-1.8l124.14-215,120.16,208.11h101.55l120.16-208.11,124.14,215c1.29.57,2.57,1.17,3.82,1.8,1.54.77,3.08,1.61,4.56,2.48.74.43,1.47.88,2.2,1.34A70.42,70.42,0,0,1,1416,525.09c.65,1.51,1.24,3.07,1.77,4.62s1,3.17,1.4,4.77h0a61.68,61.68,0,0,1,1.85,15V915.13a61.84,61.84,0,0,1-6.08,26.76C1402.86,967.3,1375.23,983.72,1344.57,983.72ZM911.9,284.78,792,492.53l-.93.4c-1.49.63-3,1.31-4.4,2s-2.84,1.49-4.21,2.29c-.69.4-1.37.82-2,1.24a64.45,64.45,0,0,0-25.22,29c-.59,1.37-1.13,2.78-1.6,4.18s-.91,2.87-1.27,4.31a55.66,55.66,0,0,0-1.67,13.54V915.13a55.94,55.94,0,0,0,6.91,26.94c11.73,21.66,36.68,35.65,63.56,35.65h523.47c28.36,0,53.86-15.08,65-38.41a55.94,55.94,0,0,0,5.5-24.18V549.48a55.66,55.66,0,0,0-1.67-13.54c-.36-1.44-.79-2.89-1.27-4.31s-1-2.81-1.6-4.18a64.45,64.45,0,0,0-25.22-29c-.67-.42-1.34-.84-2-1.24-1.37-.8-2.79-1.57-4.21-2.29s-2.91-1.4-4.4-2l-.93-.4L1253.77,284.78,1137.08,486.89H1028.59Z"/><path class="cls-1" d="M1069.09,882.55c-11.79,0-36-3.07-41.93-27.5l2.92-.72c6.53,26.74,37.21,25.6,43.86,25l.58-42.87,3,0-.61,45.49-1.28.18A56,56,0,0,1,1069.09,882.55Z"/><path class="cls-1" d="M1081.8,882.55a56.21,56.21,0,0,1-6.54-.34L1074,882l-.61-45.49,3,0,.58,42.87a61.45,61.45,0,0,0,18.76-1.31c13.61-3.28,22-11.26,25.1-23.73l2.91.72C1117.76,879.47,1093.6,882.55,1081.8,882.55Z"/><path class="cls-2" d="M1062.59,838.26c6.34,8.11,22.18,8.11,28.52,0l5.58-7.14,5.57-7.13c6.34-8.11-1.58-18.25-14.26-18.25h-22.3c-12.67,0-20.59,10.14-14.26,18.25l5.58,7.13Z"/><path class="cls-1" d="M1076.85,844.84c-6.1,0-11.58-2.34-14.65-6.27l-11.15-14.27a9.87,9.87,0,0,1-1.31-10.7c2.48-5.08,8.74-8.36,16-8.36H1088c7.22,0,13.49,3.28,16,8.36a9.85,9.85,0,0,1-1.3,10.7l-11.16,14.27C1088.43,842.5,1083,844.84,1076.85,844.84Zm-11.15-38.6c-6.84,0-12.75,3.06-15.06,7.8a8.76,8.76,0,0,0,1.2,9.64L1063,838c2.88,3.69,8.06,5.89,13.86,5.89s11-2.2,13.87-5.89l11.15-14.27a8.78,8.78,0,0,0,1.2-9.64c-2.31-4.74-8.23-7.8-15.07-7.8Z"/><ellipse class="cls-1" cx="1239.41" cy="702" rx="134.93" ry="124.39"/><path d="M1239.41,578.11c35.92,0,69.69,12.89,95.08,36.31s39.34,54.5,39.34,87.58-14,64.18-39.34,87.58-59.16,36.31-95.08,36.31-69.69-12.89-95.09-36.31S1105,735.08,1105,702s14-64.18,39.34-87.58,59.16-36.31,95.09-36.31m0-1C1164.61,577.11,1104,633,1104,702s60.63,124.89,135.43,124.89S1374.83,771,1374.83,702s-60.63-124.89-135.42-124.89Z"/><path class="cls-1" d="M1239.41,567.64c38.94,0,75.55,14,103.08,39.37s42.67,59.11,42.67,95-15.15,69.61-42.67,95-64.14,39.37-103.08,39.37-75.56-14-103.09-39.37-42.67-59.11-42.67-95,15.15-69.61,42.67-95,64.14-39.37,103.09-39.37m0-.75c-80.92,0-146.51,60.49-146.51,135.11s65.59,135.11,146.51,135.11,146.5-60.49,146.5-135.11-65.59-135.11-146.5-135.11Z"/><ellipse class="cls-3" cx="1239.41" cy="702" rx="124.09" ry="114.4"/><path class="cls-1" d="M1239.41,588.1c33,0,64.07,11.86,87.42,33.39S1363,671.59,1363,702s-12.85,59-36.17,80.51-54.4,33.39-87.42,33.39S1175.33,804,1152,782.51s-36.17-50.1-36.17-80.51,12.85-59,36.17-80.51,54.4-33.39,87.43-33.39m0-1c-68.81,0-124.6,51.44-124.6,114.9s55.79,114.9,124.6,114.9S1364,765.46,1364,702s-55.78-114.9-124.59-114.9Z"/><ellipse cx="1240.51" cy="702" rx="85.38" ry="114.4"/><path class="cls-1" d="M1240.51,588.1c46.8,0,84.88,51.1,84.88,113.9s-38.08,113.9-84.88,113.9-84.88-51.09-84.88-113.9,38.07-113.9,84.88-113.9m0-1c-47.43,0-85.88,51.44-85.88,114.9s38.45,114.9,85.88,114.9,85.88-51.44,85.88-114.9-38.45-114.9-85.88-114.9Z"/><ellipse class="cls-1" cx="1241.61" cy="777.14" rx="42.94" ry="11.17"/><ellipse class="cls-1" cx="918.08" cy="702" rx="134.93" ry="124.39"/><path d="M918.08,578.11c35.93,0,69.69,12.89,95.09,36.31s39.34,54.5,39.34,87.58-14,64.18-39.34,87.58S954,825.89,918.08,825.89,848.39,813,823,789.58s-39.34-54.5-39.34-87.58,14-64.18,39.34-87.58,59.16-36.31,95.08-36.31m0-1C843.29,577.11,782.66,633,782.66,702s60.63,124.89,135.42,124.89S1053.51,771,1053.51,702,992.88,577.11,918.08,577.11Z"/><path class="cls-1" d="M918.08,567.64c38.95,0,75.56,14,103.09,39.37s42.67,59.11,42.67,95-15.15,69.61-42.67,95S957,836.36,918.08,836.36,842.53,822.38,815,797s-42.67-59.11-42.67-95,15.15-69.61,42.67-95,64.14-39.37,103.08-39.37m0-.75c-80.91,0-146.5,60.49-146.5,135.11s65.59,135.11,146.5,135.11S1064.59,776.62,1064.59,702,999,566.89,918.08,566.89Z"/><ellipse class="cls-3" cx="918.08" cy="702" rx="124.09" ry="114.4"/><path class="cls-1" d="M918.08,588.1c33,0,64.08,11.86,87.43,33.39s36.17,50.1,36.17,80.51-12.85,59-36.17,80.51-54.4,33.39-87.43,33.39S854,804,830.66,782.51s-36.17-50.1-36.17-80.51,12.85-59,36.17-80.51,54.4-33.39,87.42-33.39m0-1c-68.81,0-124.59,51.44-124.59,114.9s55.78,114.9,124.59,114.9,124.6-51.44,124.6-114.9S986.9,587.1,918.08,587.1Z"/><ellipse cx="919.19" cy="702" rx="85.38" ry="114.4"/><path class="cls-1" d="M919.19,588.1c46.8,0,84.88,51.1,84.88,113.9S966,815.9,919.19,815.9,834.3,764.81,834.3,702s38.08-113.9,84.89-113.9m0-1c-47.44,0-85.89,51.44-85.89,114.9s38.45,114.9,85.89,114.9,85.88-51.44,85.88-114.9-38.45-114.9-85.88-114.9Z"/><ellipse class="cls-1" cx="920.29" cy="777.14" rx="42.94" ry="11.17"/><path d="M700.93,543.64a58,58,0,0,0-2-6.24c-.26-.68-.54-1.35-.82-2-6.28-14.69-18.79-26.68-34.61-33.37l-51.08-88.46-61.7-106.87-61.7,106.87-47.72,82.67H344.28l-47.73-82.67-61.7-106.87-61.7,106.87L122.08,502c-15.82,6.69-28.34,18.68-34.61,33.37-.29.67-.56,1.34-.82,2a54.34,54.34,0,0,0-3.6,19.43V894.71a54.51,54.51,0,0,0,5.36,23.53,57.92,57.92,0,0,0,4.5,7.83c1.14,1.67,2.37,3.29,3.67,4.84,12.41,14.79,32.19,24.41,54.36,24.41H634.66c22.18,0,42-9.62,54.36-24.41.66-.78,1.29-1.57,1.9-2.37a58.86,58.86,0,0,0,6.28-10.3,54.51,54.51,0,0,0,5.36-23.53V556.83A54.4,54.4,0,0,0,700.93,543.64Z"/><path class="cls-1" d="M634.67,958.32H150.94c-22.09,0-43.27-9.53-56.66-25.48-1.36-1.63-2.66-3.34-3.84-5.07a61.13,61.13,0,0,1-4.74-8.24,57.31,57.31,0,0,1-5.65-24.82V556.83a57.21,57.21,0,0,1,3.8-20.5c.27-.72.56-1.43.86-2.13,6.39-15,19.21-27.49,35.27-34.55l114.87-199L346,493.22h93.58L550.75,300.68l114.88,199c16.06,7.06,28.88,19.6,35.27,34.55.3.7.59,1.41.86,2.13a59.06,59.06,0,0,1,2.08,6.58,57.31,57.31,0,0,1,1.72,13.92V894.71a57.31,57.31,0,0,1-5.65,24.82,62.9,62.9,0,0,1-6.6,10.82c-.63.83-1.3,1.67-2,2.49C677.94,948.79,656.76,958.32,634.67,958.32ZM234.85,312.68,124.17,504.38l-.92.4c-15.08,6.37-27.12,18-33,31.78-.27.63-.53,1.27-.78,1.91a51.46,51.46,0,0,0-3.4,18.36V894.71A51.24,51.24,0,0,0,91.12,917a55.69,55.69,0,0,0,4.27,7.43,57.34,57.34,0,0,0,3.49,4.6c12.26,14.61,31.72,23.34,52.06,23.34H634.67c20.33,0,39.8-8.73,52.06-23.34.62-.74,1.23-1.5,1.8-2.26a55.65,55.65,0,0,0,6-9.77,51.41,51.41,0,0,0,5.07-22.24V556.83A51.29,51.29,0,0,0,698,544.37h0a51.76,51.76,0,0,0-1.87-5.9c-.24-.64-.5-1.28-.77-1.91-5.91-13.82-17.94-25.41-33-31.78l-.93-.4L550.75,312.68,443.06,499.22H342.55Z"/><ellipse class="cls-1" cx="552.23" cy="729.58" rx="131.96" ry="121.66"/><path d="M552.23,608.42c35.13,0,68.15,12.62,93,35.52s38.47,53.29,38.47,85.64S670,792.35,645.22,815.23s-57.86,35.51-93,35.51-68.15-12.61-93-35.51-38.47-53.3-38.47-85.65,13.66-62.76,38.47-85.64,57.86-35.52,93-35.52m0-1c-73.16,0-132.46,54.7-132.46,122.16s59.3,122.16,132.46,122.16,132.46-54.69,132.46-122.16-59.3-122.16-132.46-122.16Z"/><path class="cls-1" d="M552.23,598.43c38,0,73.77,13.65,100.65,38.44s41.65,57.7,41.65,92.71-14.79,67.95-41.65,92.71-62.62,38.45-100.65,38.45-73.77-13.66-100.65-38.45-41.65-57.69-41.65-92.71,14.79-67.94,41.65-92.71,62.63-38.44,100.65-38.44m0-1c-79.14,0-143.3,59.17-143.3,132.15s64.16,132.16,143.3,132.16,143.3-59.17,143.3-132.16-64.16-132.15-143.3-132.15Z"/><ellipse class="cls-3" cx="552.23" cy="729.58" rx="121.37" ry="111.89"/><path class="cls-1" d="M552.23,618.2c32.3,0,62.66,11.59,85.49,32.65s35.38,49,35.38,78.73-12.57,57.7-35.38,78.74S584.53,841,552.23,841s-62.66-11.6-85.49-32.65-35.37-49-35.37-78.74,12.56-57.7,35.37-78.73,53.19-32.65,85.49-32.65m0-1c-67.3,0-121.86,50.31-121.86,112.38S484.93,842,552.23,842,674.1,791.65,674.1,729.58,619.54,617.2,552.23,617.2Z"/><ellipse cx="553.31" cy="729.58" rx="83.5" ry="111.89"/><path class="cls-1" d="M553.31,618.2c45.76,0,83,50,83,111.38S599.07,841,553.31,841s-83-50-83-111.39,37.23-111.38,83-111.38m0-1c-46.39,0-84,50.31-84,112.38S506.92,842,553.31,842s84-50.32,84-112.39-37.61-112.38-84-112.38Z"/><ellipse class="cls-1" cx="554.38" cy="803.08" rx="42" ry="10.92"/><ellipse class="cls-1" cx="237.94" cy="729.58" rx="131.96" ry="121.66"/><path d="M237.94,608.42c35.13,0,68.16,12.62,93,35.52s38.47,53.29,38.47,85.64-13.66,62.77-38.47,85.65-57.86,35.51-93,35.51-68.15-12.61-93-35.51-38.48-53.3-38.48-85.65,13.66-62.76,38.48-85.64,57.85-35.52,93-35.52m0-1c-73.15,0-132.46,54.7-132.46,122.16s59.31,122.16,132.46,122.16S370.4,797.05,370.4,729.58,311.1,607.42,237.94,607.42Z"/><path class="cls-1" d="M237.94,598.43c38,0,73.77,13.65,100.65,38.44s41.65,57.7,41.65,92.71-14.79,67.95-41.65,92.71S276,860.74,237.94,860.74s-73.77-13.66-100.65-38.45S95.64,764.6,95.64,729.58s14.79-67.94,41.65-92.71,62.63-38.44,100.65-38.44m0-1c-79.14,0-143.3,59.17-143.3,132.15s64.16,132.16,143.3,132.16,143.3-59.17,143.3-132.16-64.16-132.15-143.3-132.15Z"/><ellipse class="cls-3" cx="237.94" cy="729.58" rx="121.37" ry="111.89"/><path class="cls-1" d="M237.94,618.2c32.3,0,62.66,11.59,85.5,32.65s35.37,49,35.37,78.73-12.56,57.7-35.37,78.74S270.24,841,237.94,841s-62.66-11.6-85.49-32.65-35.37-49-35.37-78.74,12.56-57.7,35.37-78.73,53.19-32.65,85.49-32.65m0-1c-67.3,0-121.86,50.31-121.86,112.38S170.64,842,237.94,842s121.87-50.32,121.87-112.39S305.25,617.2,237.94,617.2Z"/><ellipse cx="239.02" cy="729.58" rx="83.5" ry="111.89"/><path class="cls-1" d="M239,618.2c45.77,0,83,50,83,111.38S284.79,841,239,841s-83-50-83-111.39S193.25,618.2,239,618.2m0-1c-46.39,0-84,50.31-84,112.38S192.63,842,239,842s84-50.32,84-112.39S285.41,617.2,239,617.2Z"/><ellipse class="cls-1" cx="240.1" cy="803.08" rx="42" ry="10.92"/><path class="cls-1" d="M392,872.51a52.38,52.38,0,0,1-9.69-.87c-9.55-1.83-15.5-6.44-17.22-13.32l1.94-.49c3.3,13.22,23.46,12.84,27.95,12.59l.49-26.36,2,0L397,872.26l-.88.09C396,872.36,394.4,872.51,392,872.51Z"/><path class="cls-1" d="M402.25,872.51c-2.38,0-3.94-.15-4.07-.16l-.88-.09-.52-28.16,2,0,.48,26.36c4.49.25,24.65.63,28-12.59l1.94.49c-1.72,6.88-7.68,11.49-17.22,13.32A52.38,52.38,0,0,1,402.25,872.51Z"/><path class="cls-2" d="M384.49,844.32c5.16,6.6,18.06,6.6,23.23,0l4.54-5.82,4.54-5.81c5.16-6.6-1.29-14.86-11.61-14.86H387c-10.33,0-16.78,8.26-11.62,14.86L380,838.5Z"/><path class="cls-1" d="M396.1,849.77c-5,0-9.49-1.92-12-5.15L375,833a8.12,8.12,0,0,1-1.08-8.81c2-4.17,7.17-6.86,13.09-6.86h18.17c5.91,0,11.05,2.69,13.08,6.86a8.1,8.1,0,0,1-1.08,8.81l-9.08,11.62C405.59,847.85,401.1,849.77,396.1,849.77ZM387,818.33c-5.54,0-10.32,2.47-12.19,6.3a7,7,0,0,0,1,7.75L384.88,844c2.33,3,6.53,4.76,11.22,4.76S405,847,407.32,844l9.09-11.63a7.06,7.06,0,0,0,1-7.75c-1.86-3.83-6.65-6.3-12.18-6.3Z"/><circle class="cls-4" cx="1028.13" cy="1044.82" r="148.91"/><path class="cls-1" d="M1028.13,1197.23c-84,0-152.41-68.37-152.41-152.41s68.37-152.41,152.41-152.41,152.41,68.37,152.41,152.41S1112.17,1197.23,1028.13,1197.23Zm0-297.82c-80.18,0-145.41,65.23-145.41,145.41s65.23,145.41,145.41,145.41,145.41-65.23,145.41-145.41S1108.31,899.41,1028.13,899.41Z"/><circle class="cls-4" cx="1028.13" cy="1044.82" r="134.02"/><path d="M1028.13,1181.33c-75.28,0-136.52-61.24-136.52-136.51S952.85,908.3,1028.13,908.3s136.52,61.24,136.52,136.52S1103.41,1181.33,1028.13,1181.33Zm0-268c-72.52,0-131.52,59-131.52,131.52s59,131.51,131.52,131.51,131.52-59,131.52-131.51S1100.65,913.3,1028.13,913.3Z"/><path class="cls-1" d="M1070,1051.1c-3.14-2.73-2.14-2.67-2.14-2.67,10-5.5,21.41-12.36,14.53-33.63-4.73-14.64-23.72-20.26-26.55-21l6.47-24.17-.35-.1-12.8-3.42-6.47,24.16-13.15-3.52,6.47-24.17-13.86-3.71L1015.72,983l-29.86-8-4.32,15.41,19.19,5.14-20.57,76.77-14.93-4-8.8,16.5,29.86,8L980,1116.3l13.15,3.52,6.29-23.45,13.86,3.71-6.29,23.46,13.15,3.52,6.39-23.81c7.53,3.16,33.68,5.79,47.45-11.48C1084.88,1078.13,1081.48,1061,1070,1051.1Zm-44.91-49.18,18.48,5c10.24,3.7,15.16,11,13,19.1s-8.71,13.28-21.69,10.57l-17.77-4.77Zm4.22,83.41-.09,0h0l-24.88-6.67,8.76-32.7,24.88,6.67h0l.09,0c10.16,2.73,16.43,12.25,14,21.28S1039.5,1088.05,1029.35,1085.33Z"/><circle class="cls-4" cx="453.13" cy="1018.82" r="148.91"/><path class="cls-1" d="M453.13,1171.23c-84,0-152.41-68.37-152.41-152.41s68.37-152.41,152.41-152.41,152.41,68.37,152.41,152.41S537.17,1171.23,453.13,1171.23Zm0-297.82c-80.18,0-145.41,65.23-145.41,145.41S373,1164.23,453.13,1164.23,598.54,1099,598.54,1018.82,533.31,873.41,453.13,873.41Z"/><circle class="cls-4" cx="453.13" cy="1018.82" r="134.02"/><path d="M453.13,1155.33c-75.28,0-136.52-61.24-136.52-136.51S377.85,882.3,453.13,882.3s136.52,61.24,136.52,136.52S528.41,1155.33,453.13,1155.33Zm0-268c-72.52,0-131.52,59-131.52,131.52s59,131.51,131.52,131.51,131.52-59,131.52-131.51S525.65,887.3,453.13,887.3Z"/><path class="cls-1" d="M495,1025.1c-3.14-2.73-2.14-2.67-2.14-2.67,10.05-5.5,21.41-12.36,14.53-33.63-4.73-14.64-23.72-20.26-26.55-21l6.47-24.17-.35-.1-12.8-3.42-6.47,24.16-13.15-3.52,6.47-24.17-13.86-3.71L440.72,957l-29.86-8-4.32,15.41,19.19,5.14-20.57,76.77-14.93-4-8.8,16.5,29.86,8L405,1090.3l13.15,3.52,6.29-23.45,13.86,3.71L432,1097.54l13.15,3.52,6.39-23.81c7.53,3.16,33.68,5.79,47.45-11.48C509.88,1052.13,506.48,1035,495,1025.1Zm-44.91-49.18,18.48,5c10.24,3.7,15.16,11,13,19.1s-8.71,13.28-21.69,10.57l-17.77-4.77Zm4.22,83.41-.09,0h0l-24.88-6.67,8.76-32.7,24.88,6.67h0l.09,0c10.16,2.73,16.43,12.25,14,21.28S464.5,1062.05,454.35,1059.33Z"/><path d="M907.4,1141.94l9.2,52.9s20.69,16.1,73.59,6.9v-52.9C990.19,1146.54,958,1112.05,907.4,1141.94Z"/><path class="cls-1" d="M959,1212c-30.11,0-42.35-15.85-43-16.37l-.3-.24-9.39-54,.6-.36c14.36-8.48,42.63-20.34,70.61-4.37,7.94,4.53,13.69,10.39,13.69,12.13v53.74l-.83.14C978.44,1204.8,967.79,1212,959,1212Zm-41.49-17.74c1.26.87,6.62,8,16.49,10.74,25,7,29,4,55-4l.19-52c-.59-1.34-8-9.65-21.41-14.57-12.74-4.68-33.33-7.05-59.28,8.07Zm71.7-45.25Z"/><path d="M1015.49,1146.54l9.19,52.9s11.5,16.1,64.4,6.9c0,0,9.2-50.6,9.2-52.9S1066.08,1116.65,1015.49,1146.54Z"/><path class="cls-1" d="M1059.51,1210.19c-28,0-35.26-9.64-35.64-10.17l-.13-.19-9.36-53.8.6-.35c14.36-8.48,42.63-20.34,70.61-4.37,7.94,4.53,13.69,10.39,13.69,12.13,0,2.33-8.28,47.89-9.22,53.08l-.12.68-.69.12A173.91,173.91,0,0,1,1059.51,1210.19ZM1025.62,1199c1.39,1.58,14.54,14.67,62.6,6.46,3.62-19.93,8.87-49.39,9-51.93-.62-1.36-8-9.65-21.4-14.55-12.74-4.68-33.33-7-59.28,8.07Zm71.68-45.4Z"/><polygon class="cls-1" points="933.84 1133.9 926.95 1148.13 940.74 1148.13 933.84 1133.9"/><polygon class="cls-1" points="959.14 1134.61 952.24 1148.84 966.04 1148.84 959.14 1134.61"/><polygon class="cls-1" points="1044.23 1136.19 1037.33 1150.43 1051.13 1150.43 1044.23 1136.19"/><polygon class="cls-1" points="1069.53 1136.91 1062.63 1151.14 1076.43 1151.14 1069.53 1136.91"/><path d="M551.4,1107.44l-9,57.48s-20.37,17.5-72.41,7.5v-57.48C469.94,1112.44,501.62,1075,551.4,1107.44Z"/><path class="cls-1" d="M500.28,1176.53a161.64,161.64,0,0,1-30.53-3.13l-.81-.15v-58.31c0-1.77,6.48-9.46,16.69-15,14-7.58,36.86-12.57,66.32,6.65l.54.36-9.21,58.48-.28.24C542.34,1166.24,529.93,1176.53,500.28,1176.53Zm-29.34-4.94c47.23,8.87,67.91-5.26,70.48-7.21l8.89-56.45c-13.85-8.92-34.79-17.59-56.89-9.33-14,5.24-22,15-22.48,16.42Z"/><path d="M444.66,1110.89l-9.2,52.9s-11.49,16.09-64.39,6.9c0,0-9.2-50.6-9.2-52.9S394.07,1081,444.66,1110.89Z"/><path class="cls-1" d="M400.64,1174.54a174.93,174.93,0,0,1-29.74-2.87l-.69-.12-.12-.69c-.95-5.18-9.22-50.75-9.22-53.07,0-1.74,5.75-7.6,13.69-12.13,28-16,56.25-4.11,70.61,4.37l.6.35-9.36,53.8-.13.19C435.9,1164.89,428.6,1174.54,400.64,1174.54Zm-28.71-4.72c48.27,8.24,61.22-4.85,62.59-6.46l9-52c-25.95-15.11-46.54-12.74-59.28-8.06-13.36,4.9-20.78,13.19-21.4,14.55C363.06,1120.42,368.31,1149.88,371.93,1169.82ZM362.85,1118Z"/><polygon class="cls-1" points="526.3 1098.24 533.2 1112.48 519.4 1112.48 526.3 1098.24"/><polygon class="cls-1" points="501.01 1098.95 507.91 1113.19 494.11 1113.19 501.01 1098.95"/><polygon class="cls-1" points="415.92 1100.54 422.82 1114.78 409.02 1114.78 415.92 1100.54"/><polygon class="cls-1" points="390.62 1101.26 397.52 1115.49 383.72 1115.49 390.62 1101.26"/><polygon class="cls-2" points="781.62 1007.91 747.52 988.23 747.52 1008.49 651.95 1008.49 651.95 1046.72 747.52 1046.72 747.52 1066.97 781.62 1047.29 815.72 1027.6 781.62 1007.91"/><path d="M742.52,1075.63v-23.91H647v-48.23h95.57V979.57l83.2,48ZM657,1041.72h95.57v16.59l53.2-30.71-53.2-30.71v16.6H657Z"/><polygon class="cls-2" points="813.12 1096.42 722.1 1096.42 722.1 1077.13 689.62 1095.88 657.15 1114.62 689.62 1133.37 722.1 1152.12 722.1 1132.83 813.12 1132.83 813.12 1096.42"/><path d="M727.1,1160.78l-80-46.16,80-46.15v23h91v46.41h-91Zm-60-46.16,50,28.84v-15.63h91v-26.41h-91v-15.63Z"/><circle class="cls-1" cx="594.49" cy="679.48" r="22.05"/><circle class="cls-1" cx="282.48" cy="679.48" r="22.05"/><circle class="cls-1" cx="1273.63" cy="657.43" r="22.05"/><circle class="cls-1" cx="958.32" cy="657.43" r="22.05"/></svg>