<svg id="bitcoin" xmlns="http://www.w3.org/2000/svg" viewBox="0 0 1500 1500"><defs><style>.cls-1{opacity:0.5;}.cls-2{fill:#d6d238;}.cls-3{fill:#fff;}.cls-4{fill:#f7931a;}</style></defs><title>art-meets-bitcoin-illustrations-1Artboard 54 copy 33</title><g class="cls-1"><g class="cls-1"><polygon class="cls-2" points="928.45 772.65 264.61 1003.85 264.18 1003.62 263.5 1003.86 279.05 1025.36 292.55 1044.03 928.45 772.65"/></g><polygon class="cls-2" points="1054.28 728.83 1042.02 733.1 1041.85 733.97 1054.28 728.83"/><polygon class="cls-2" points="903 782 264 1008 279.05 1025.36 292.55 1044.03 903 782"/><polygon class="cls-2" points="928.45 772.65 978.03 753.36 264.18 1003.62 264.61 1003.85 928.45 772.65"/></g><g class="cls-1"><path d="M764.38,836.15,294.61,1036.63l-10.7-14.79-10.61-14.66,491.08-171m164.07-63.5-663.84,231.2-.43-.23-.68.24,15.55,21.5,13.5,18.67,635.9-271.38Z"/></g><polygon points="1054.28 728.83 1042.02 733.1 1041.85 733.97 1054.28 728.83 1054.28 728.83"/><path d="M732.37,848.71,294.6,1036.62l-10.69-14.78-.15-.21-.18-.2-9.28-10.71,458.07-162M903,782,264,1008l15.05,17.36,13.5,18.67L903,782Z"/><polygon points="978.03 753.36 264.18 1003.62 264.61 1003.85 928.45 772.65 978.03 753.36 978.03 753.36"/><polygon points="1041.17 734.79 1041.59 732.72 1054.12 728.35 1054.47 729.29 1041.17 734.79"/><path d="M264.57,1004.4l-1.62-.87L977.87,752.88l.34.94-49.59,19.3ZM950.36,763.59,559,900.8,928.29,772.18Z"/><polygon class="cls-3" points="1305 620 293.55 684.5 292.96 685.52 152.85 948.19 254.18 1003.83 968.03 752.36 1305 620"/><path d="M253.56,1011.47,143.41,951,287.48,681l1.87-3.27,1059.83-67.58L970.36,759Zm-91.28-66.09,92.53,50.81,710.78-250.4,295.23-116-963,61.4Z"/><g id="g16"><g id="coin"><path class="cls-4" d="M831.86,749.83c-13.45,169.44-160.29,295.29-328,281.09S211.18,867.83,224.64,698.4,384.9,403.08,552.56,417.28s292.74,163.1,279.3,332.55Z"/><path class="cls-3" d="M529.79,1033.52q-13,0-26-1.1c-81.48-6.91-155.55-45.47-208.55-108.59A312.66,312.66,0,0,1,257,579.6a306,306,0,0,1,74-92.78c62.06-52.66,140.8-77.89,221.72-71,81.5,6.9,155.58,45.46,208.59,108.58a312.57,312.57,0,0,1,38.21,344.24,306.23,306.23,0,0,1-74,92.77C670.13,1008.37,601.44,1033.52,529.79,1033.52Zm-3.14-615.84c-70.93,0-138.9,24.9-193.74,71.43C270.56,542,232.64,616.38,226.14,698.51A307.44,307.44,0,0,0,297.49,921.9C350,984.4,423.31,1022.59,504,1029.42c80.14,6.8,158.12-18.19,219.59-70.33,62.34-52.9,100.26-127.25,106.78-209.38l1.5.12-1.5-.12A307.53,307.53,0,0,0,759,526.3c-52.5-62.51-125.85-100.69-206.56-107.53Q539.5,417.68,526.65,417.68Z"/></g><g id="symbol"><path class="cls-3" d="M653.62,659.07c-.65-41.43-34.67-58.19-78.68-65.86l4.52-57-34.34-2.91-4.41,55.51c-9-.76-18.27-1.37-27.45-2L517.7,531l-34.33-2.91-4.53,57c-7.45-.47-14.76-.95-21.88-1.55v-.18l-47.37-4-2.93,37.07s25.4,1.66,24.94,2.09c13.91,1.19,17.79,9.73,18.55,16.88l-12.4,156.18c-1,4.37-4.09,11.2-13.81,10.4.41.43-25-2.12-25-2.12l-10.11,40.86,44.69,3.78c8.32.72,16.49,1.55,24.52,2.29l-4.56,57.66,34.31,2.91,4.52-57c9.41,1,18.52,1.84,27.42,2.59l-4.53,56.78,34.35,2.9L554.16,855c58,1.54,99.58-9.73,109-64.09,7.55-43.78-11.42-65.2-43.57-75.93,20.73-8.56,34.61-25.55,34.08-55.87ZM595.79,778.29c-3.4,43.09-76,32-99.3,30.05L502.56,732C525.84,733.93,599.36,733.34,595.79,778.29Zm-7.42-109.14c-3.12,39.2-63.65,29.47-83,27.83l5.5-69.28C530.22,629.34,591.61,628.26,588.37,669.15Z"/></g></g><polygon class="cls-3" points="978.03 753.36 292.55 1044.03 281.85 1048.46 243.28 1157.34 523.61 1257.55 524.74 1257.91 1318 626 978.03 753.36"/><path d="M525.35,1261.26l-2.66-.86L239.45,1159.16l40-113,11.93-4.94L976.92,750.57l.06,0,357.7-134ZM247.1,1155.53l277,99,777.18-619.1L979.15,756.14,293.72,1046.79l-9.49,3.93Z"/><path d="M526.16,1265.73l-4.91-1.59-286.9-102.55,41.94-118.41,13.59-5.62L975.47,746.84l371.39-135.06ZM252.21,1153.1,523.39,1250l747.75-595.82L980.6,759.87l-685.32,290.6-7.87,3.26Z"/></svg>