<svg id="bitcoin" xmlns="http://www.w3.org/2000/svg" xmlns:xlink="http://www.w3.org/1999/xlink" viewBox="0 0 1500 1500"><defs><style>.cls-1{fill:none;}.cls-2{opacity:0.5;}.cls-3{fill:#b3b3b3;}.cls-4{fill:#f7931a;}.cls-5{fill:#fff;}.cls-6{clip-path:url(#clip-path);}.cls-7{fill:#d6d238;}</style><clipPath id="clip-path"><path class="cls-1" d="M795.88,337.32C1010.16,432.05,1182.8,558.13,1278.21,678c7.4-165.23-162.28-366-420.63-480.23S336.51,93.19,219.3,209.87C372.15,199.77,581.59,242.59,795.88,337.32Z"/></clipPath></defs><title>art-meets-bitcoin-illustrations-1Artboard 54 copy 21</title><g class="cls-2"><path class="cls-3" d="M461.48,1243.53C483.83,1183.38,820.78,440,844,401.37l-7.87-3.48L735,353.22l-7.87-3.48c-12.95,43.11-336,792.67-365.44,849.68-5.68,11-11.8,22.73-17.87,34.56-29.25,50.1-53.54,85.5-39.37,107,8.58,13,24.39,22.51,41.58,28.78,16.21,8.5,33.88,13.8,49.28,11.39,25.43-4,35.26-45.78,52.63-101.13C452.62,1267.55,457.18,1255.13,461.48,1243.53Z"/></g><g class="cls-2"><path class="cls-3" d="M461.48,1243.53C483.83,1183.38,820.78,440,844,401.37l-7.87-3.48L735,353.22l-7.87-3.48c-12.95,43.11-336,792.67-365.44,849.68-5.68,11-11.8,22.73-17.87,34.56-29.25,50.1-53.54,85.5-39.37,107,8.58,13,24.39,22.51,41.58,28.78,16.21,8.5,33.88,13.8,49.28,11.39,25.43-4,35.26-45.78,52.63-101.13C452.62,1267.55,457.18,1255.13,461.48,1243.53Z"/></g><path d="M387.6,1388.71c-16.42,0-32.74-6.5-44.38-12.55-14.52-5.35-33.87-15.09-44.59-31.34-15-22.77,3.75-54.48,29.74-98.37q4.53-7.67,9.33-15.84c3.79-7.39,7.6-14.74,11.32-21.9,2.2-4.25,4.37-8.42,6.47-12.5C371,1166.28,464.14,952.53,544.19,766.6,627.25,573.67,714,369.33,720.45,347.73l2.28-7.6,131.3,58L850,405c-11.61,19.34-104.38,221-191.17,412.29-83.64,184.34-179,397.13-190.73,428.71h0c-1.62,4.34-3.26,8.8-4.94,13.33-2.78,7.52-5.63,15.25-8.53,23q-2.83,9-5.43,17.56c-15,48.76-25.79,84-52.74,88.2A56.63,56.63,0,0,1,387.6,1388.71ZM731.23,359.2c-33.23,88.38-332.46,783.72-363.3,843.44q-3.17,6.12-6.49,12.51c-3.73,7.2-7.56,14.59-11.37,22l-.19.34q-4.85,8.29-9.47,16.07c-22.51,38-40.3,68.07-30.1,83.53,8.73,13.22,25.56,21.47,38.14,26.06l.44.16.41.21c11.87,6.22,29.29,13.12,44.94,10.67,18.3-2.86,28.55-36.23,41.52-78.48,1.77-5.75,3.6-11.71,5.52-17.82l.12-.36c2.91-7.78,5.78-15.54,8.58-23.1l4.94-13.36h0c23.41-63,336.29-752.31,379.29-836.37Z"/><rect class="cls-4" x="716.27" y="294.81" width="173.07" height="113.52" rx="17.17" ry="17.17" transform="translate(210.69 -294.57) rotate(23.85)"/><path d="M850.19,435a19,19,0,0,1-7.71-1.63L715.6,377.27A19.21,19.21,0,0,1,705.82,352l32-72.41a19.19,19.19,0,0,1,25.29-9.78L890,325.87a19.19,19.19,0,0,1,9.78,25.29l-32,72.42A19.29,19.29,0,0,1,850.19,435Zm-6.09-5.29a15.23,15.23,0,0,0,20-7.74l32-72.42a15.19,15.19,0,0,0-7.74-20L761.5,273.44a15.19,15.19,0,0,0-20,7.75l-32,72.41a15.19,15.19,0,0,0,7.74,20Z"/><rect class="cls-4" x="782.48" y="145.03" width="173.07" height="113.52" rx="9.96" ry="9.96" transform="translate(155.79 -334.13) rotate(23.85)"/><path d="M920.1,287.51a11.88,11.88,0,0,1-4.81-1h0L775.22,224.57a12,12,0,0,1-6.1-15.77L807,123.19a12,12,0,0,1,15.78-6.1L962.81,179a12,12,0,0,1,6.1,15.77l-37.84,85.61a11.9,11.9,0,0,1-6.63,6.31A12.13,12.13,0,0,1,920.1,287.51ZM817.93,120.07a8.1,8.1,0,0,0-2.9.54,7.91,7.91,0,0,0-4.41,4.2l-37.84,85.61a8,8,0,0,0,4.06,10.49l140.07,61.93a8,8,0,0,0,10.5-4.07l37.84-85.6a8,8,0,0,0-4.06-10.5L821.12,120.75A7.92,7.92,0,0,0,817.93,120.07Z"/><path d="M795.88,337.32C1010.16,432.05,1182.8,558.13,1278.21,678c7.4-165.23-162.28-366-420.63-480.23S336.51,93.19,219.3,209.87C372.15,199.77,581.59,242.59,795.88,337.32Z"/><path class="cls-5" d="M1280,683.4l-3.33-4.18c-47.61-59.81-115.45-121.84-196.18-179.36-84.73-60.38-180.75-114.45-285.39-160.71S585.81,258.26,484.13,236.24c-96.88-21-188.42-29.42-264.7-24.38l-5.33.35,3.78-3.76c29.11-29,67.34-51.74,113.62-67.65,45.34-15.6,97.14-24.2,154-25.57,57.27-1.39,117.93,4.62,180.29,17.87,64.51,13.69,129.32,34.83,192.63,62.82S981,257.62,1034.5,296.11c51.77,37.21,97,78,134.56,121.31,37.23,42.95,65.73,87.05,84.72,131.09,19.37,44.94,28.26,88.53,26.43,129.55Zm-1014.8-477c153,0,343.53,46,531.52,129.09,205,90.63,379.45,213.25,479.7,337,.84-38.84-8-80-26.29-122.42-18.82-43.66-47.1-87.41-84.06-130-37.32-43.05-82.36-83.65-133.87-120.68-53.33-38.33-112.34-71.9-175.4-99.78S729.16,150.65,664.92,137c-62.06-13.18-122.41-19.16-179.36-17.79-56.41,1.37-107.81,9.9-152.76,25.36-43.69,15-80.07,36.19-108.24,63C237.76,206.77,251.33,206.4,265.17,206.4Z"/><g class="cls-6"><g id="g16"><g id="coin"><path class="cls-5" d="M736.23,322.61a93.35,93.35,0,0,1-65.46-26.54c-37.56-36.46-38.31-97.13-1.68-135.25a95.17,95.17,0,0,1,67.39-29.54,93.32,93.32,0,0,1,67.14,26.51c37.56,36.46,38.31,97.14,1.69,135.27l-.72-.69.72.69a95.13,95.13,0,0,1-67.39,29.53Zm1.94-189.35-1.66,0a93.21,93.21,0,0,0-66,28.92c-35.87,37.33-35.13,96.74,1.63,132.44a91.42,91.42,0,0,0,65.73,25.95,93.17,93.17,0,0,0,66-28.91c35.86-37.34,35.13-96.76-1.64-132.46A91.41,91.41,0,0,0,738.17,133.26Z"/></g><g id="symbol"><path class="cls-5" d="M779.8,235.91c7.94-10,3.1-20.65-5.9-31.07l12.21-12.72-7.62-7.4L766.6,197.1c-2-1.94-4.09-3.89-6.17-5.83l12-12.46-7.62-7.39-12.21,12.7c-1.68-1.56-3.33-3.11-4.91-4.64l0,0-10.51-10.21-7.93,8.27s5.73,5.35,5.53,5.37c3.09,3,2.35,5.79,1.13,7.64l-33.46,34.83a3.73,3.73,0,0,1-5.32-.21c0,.18-5.54-5.39-5.54-5.39l-10.39,7.78,9.92,9.63c1.84,1.79,3.63,3.59,5.4,5.33l-12.35,12.86,7.61,7.4L704,250c2,2.08,4.06,4.06,6,6l-12.17,12.66,7.62,7.4,12.33-12.83c13.54,11.7,25.66,17.13,38.51,6,10.35-9,10-17.78,4.43-26.62,6.62,2,13.25.67,19-6.67Zm-37.07,17.14c-9.23,9.62-24.39-7.21-29.56-12.22l16.37-17C734.71,228.81,752.36,243,742.73,253.05Zm19.54-27.48c-8.4,8.74-20.94-5.4-25.24-9.58l14.84-15.45C756.18,204.72,771,216.45,762.27,225.57Z"/></g></g></g><path class="cls-5" d="M387.05,1370.45s-45-28.65-47.21-60.22c-1.84-26,53.08-126.34,53.08-126.34s-69.5,114.95-72.19,122.69-5.08,20.33,7.67,30.3S387.05,1370.45,387.05,1370.45Z"/><path class="cls-7" d="M1258.64,620.57c-62.55-87.75-152.72-169.37-244.37-239.86-124.19-95.53,78.81,16.71,0-38.22,21.49,4.78-189.93-141.88-169.56-131.35,69.26,35.83,124,59.11,199.44,116.78,78.14,59.75,144.77,140.8,187.63,228.21A563.22,563.22,0,0,1,1258.64,620.57Z"/></svg>