<svg id="bitcoin" xmlns="http://www.w3.org/2000/svg" viewBox="0 0 1500 1500"><defs><style>.cls-1{fill:#d6d238;}.cls-2{fill:#f5852e;}.cls-3{fill:#fff;}.cls-4{fill:#f7931a;}.cls-5{fill:#5d5241;}</style></defs><title>art-meets-bitcoin-illustrations-1Artboard 54 copy 28</title><path class="cls-1" d="M1453.73,810.18c-137.38-367.36-602.51-785.74-764.28-756C662.3,84.9,212.57,1096.62,132.48,1277l-23,49.9,1.87-.56-9.53,22.28,1320-467.41,32.14-70Z"/><path class="cls-1" d="M70.06,1378.46l10.54-24.63-3.2,1,39.13-85c38.11-85.84,172-387.12,298.33-667.53C657.31,64.13,670.65,49.06,676.34,42.62l4-4.52,5.93-1.1C730,29,790.72,47.82,866.75,93.08c69.81,41.55,148,102.94,226.08,177.54,80.62,77,156.85,164.16,220.45,252,70.83,97.86,123.6,192.54,156.84,281.43l.36,1,2,8-37.77,82.29Zm72.09-79.57-8.52,19.94L1409,867.21l26.08-56.81c-32.26-84.24-82.76-174.11-150.17-267.24C1222.55,457,1147.76,371.5,1068.65,295.93c-76.22-72.81-152.22-132.55-219.8-172.78-62.17-37-114.66-55.47-149.14-52.65C685.91,94.64,632.63,204.05,444.36,622c-125.67,279-258.25,577.33-295.89,662.12l-.1.22-6.77,14.7Z"/><path class="cls-2" d="M131.58,1293.84c27.25-61.4,146.68-330.34,267.6-599.43C629.29,182.32,682.64,74.89,692.8,59.74a93,93,0,0,1,14.1-1c41.2,0,99.58,23.35,168.82,67.51,67.86,43.27,142.69,104.28,216.42,176.42,76.66,75,148.82,159,208.69,242.94,64.82,90.87,113.63,178.67,145.15,261.08Z"/><path d="M706.9,64.71c81.1,0,230.67,95.08,381,242.22,76.41,74.77,148.34,158.5,208,242.14a1413.48,1413.48,0,0,1,84.29,132.5c23.19,41.66,42.65,82.49,58,121.58L142.84,1283.27C178.29,1203.4,290.06,951.9,403.4,699.65c80.18-178.43,145.43-322.3,194-427.62,28.79-62.5,51.93-111.92,68.77-146.89,18.74-38.93,26.82-54,30.28-59.84a90.62,90.62,0,0,1,10.49-.59m0-12a96.25,96.25,0,0,0-17.45,1.51C659.64,87.91,120.33,1304.41,120.33,1304.41l1333.4-494.23C1321,455.27,882.35,52.71,706.9,52.71Z"/><polygon class="cls-2" points="126.57 1308.63 1440.58 823.63 1416.71 875.63 114.56 1336.72 126.57 1308.63"/><path d="M1427.19,836l-15.61,34L127.27,1324.79l4.55-10.64L1427.19,836M1454,811.22,121.32,1303.1l-19.48,45.55,1320-467.41,32.14-70Z"/><path class="cls-2" d="M131.58,1293.84c27.25-61.4,146.68-330.34,267.6-599.43C629.29,182.32,682.64,74.89,692.8,59.74a93,93,0,0,1,14.1-1c41.2,0,99.58,23.35,168.82,67.51,67.86,43.27,142.69,104.28,216.42,176.42,76.66,75,148.82,159,208.69,242.94,64.82,90.87,113.63,178.67,145.15,261.08Z"/><path d="M706.9,64.71c81.1,0,230.67,95.08,381,242.22,76.41,74.77,148.34,158.5,208,242.14a1413.48,1413.48,0,0,1,84.29,132.5c23.19,41.66,42.65,82.49,58,121.58L142.84,1283.27C178.29,1203.4,290.06,951.9,403.4,699.65c80.18-178.43,145.43-322.3,194-427.62,28.79-62.5,51.93-111.92,68.77-146.89,18.74-38.93,26.82-54,30.28-59.84a90.62,90.62,0,0,1,10.49-.59m0-12a96.25,96.25,0,0,0-17.45,1.51C659.64,87.91,120.33,1304.41,120.33,1304.41l1333.4-494.23C1321,455.27,882.35,52.71,706.9,52.71Z"/><polygon class="cls-2" points="126.57 1308.63 1440.58 823.63 1416.71 875.63 114.56 1336.72 126.57 1308.63"/><path d="M1427.19,836l-15.61,34L127.27,1324.79l4.55-10.64L1427.19,836M1454,811.22,121.32,1303.1l-19.48,45.55,1320-467.41,32.14-70Z"/><path class="cls-3" d="M616.88,234.8c162,62.5,276.8,153.26,409.1,279.15,54.33,51.7,106.74,103.07,150.75,163,48.35,65.88,80.86,135.27,99.36,212-9,8.58-30.38,26.28-43.32,26.28h0a8.56,8.56,0,0,1-5.43-1.63,13.35,13.35,0,0,0-8.3-2.52c-12,0-31.1,11.31-53.22,24.41-22.52,13.34-48,28.45-67.16,31.66-47.33,7.94-90.79,28.92-129.14,47.42-32,15.44-59.61,28.77-79.07,28.77a33.12,33.12,0,0,1-8.42-1,47.51,47.51,0,0,0-12-1.48c-28.9,0-62.95,23.32-90.31,42.07-16.5,11.3-32.09,22-39.2,22a3.45,3.45,0,0,1-1.26-.19,41.68,41.68,0,0,0-15-2.43c-33,0-88,25.46-132.23,45.92-24.35,11.26-47.35,21.9-54.2,21.9-.29,0-.42,0-.45,0a47.38,47.38,0,0,0-9.63-.94c-23.07,0-50.75,14.58-77.52,28.68-25.11,13.24-48.83,25.73-66.85,25.73-.68,0-1.36,0-2-.05-.43,0-.87,0-1.32,0-12.7,0-30.92,9.88-48.54,19.43-12.53,6.79-25.5,13.82-31.48,14-32.07,1-54,13.21-75.27,25-10.87,6-21.15,11.72-32.26,15.54-7.85,2.7-55.86,17.12-75.63,23Z"/><path d="M618.94,239.89c73.62,28.68,138.75,63.49,204.4,109.17C884,391.25,945.62,443,1023.23,516.85c54.19,51.57,106.46,102.8,150.28,162.52a601.5,601.5,0,0,1,58.43,96.8,567.48,567.48,0,0,1,39.72,111.55c-10.11,9.26-28.64,23.6-38.89,23.6a4.6,4.6,0,0,1-3-.8,17.15,17.15,0,0,0-10.73-3.35c-13.08,0-31.69,11-55.25,25-22.22,13.15-47.4,28.06-65.79,31.15-47.9,8-91.63,29.15-130.22,47.77-31.54,15.23-58.78,28.37-77.33,28.37a29.18,29.18,0,0,1-7.4-.87,51.47,51.47,0,0,0-13-1.61c-30.14,0-64.76,23.71-92.57,42.77-13.84,9.48-31.06,21.27-36.94,21.27h0a45.8,45.8,0,0,0-16.27-2.62c-33.85,0-89.33,25.66-133.91,46.28-13,6-25.19,11.66-34.73,15.63-12.43,5.18-16.47,5.88-17.7,5.91a52.16,52.16,0,0,0-10.17-1c-24.06,0-52.18,14.82-79.38,29.15-23.58,12.42-48,25.26-65,25.26-.61,0-1.22,0-1.81-.05s-1,0-1.54,0c-13.71,0-32.39,10.12-50.45,19.91-11,6-24.66,13.37-29.71,13.54-33,1.09-56.42,14-77.06,25.48-10.72,5.93-20.85,11.54-31.64,15.25-6.81,2.35-44.48,13.69-67,20.45L618.94,239.89m-4.12-10.17L109.5,1326.93s74.2-22.17,84.26-25.63c33.07-11.39,58.8-38.74,106.36-40.3,15.35-.51,58.59-33.45,79.89-33.45.37,0,.73,0,1.09,0,.74,0,1.5.06,2.26.06,39,0,101.28-54.41,144.37-54.41a44.08,44.08,0,0,1,8.83.85,5.87,5.87,0,0,0,1.25.11c20.15,0,134.38-67.83,186.43-67.83a37.41,37.41,0,0,1,13.57,2.17,7.57,7.57,0,0,0,2.72.46c20.8,0,83.29-64,129.51-64a43.4,43.4,0,0,1,11,1.35,37.15,37.15,0,0,0,9.43,1.13c43.69,0,121.22-61.54,208.87-76.25,38-6.38,96.92-56,119.73-56a9.38,9.38,0,0,1,5.86,1.7,12.58,12.58,0,0,0,7.86,2.45c18.48,0,47.75-29,47.75-29-41-172.72-143.3-276.05-251.78-379.27C887.26,376.43,772.64,290,614.82,229.72Z"/><g id="coin"><path class="cls-4" d="M939,712.59c-39.37,85-139.31,121.89-223.24,82.46s-120-140.26-80.63-225.22,139.31-121.91,223.21-82.49,120,140.28,80.66,225.25Z"/></g><g id="symbol"><path class="cls-3" d="M864.25,631.59c7.6-21.53-6.77-36.69-28-49.08l13.25-28.59-17.19-8.07-12.89,27.84c-4.52-2.13-9.18-4.21-13.81-6.27l13-28-17.18-8.06-13.24,28.57c-3.76-1.67-7.45-3.32-11-5l0-.09-23.7-11.14-8.61,18.59s12.81,5.71,12.49,5.85c7,3.27,7.33,8.43,6.35,12.27l-36.29,78.31c-1.33,2.08-4.26,5-9.12,2.73.12.3-12.5-5.87-12.5-5.87l-13,19.18,22.37,10.5c4.16,2,8.22,4,12.23,5.87L713.94,720l17.16,8.07,13.26-28.61c4.67,2.31,9.21,4.49,13.66,6.58l-13.2,28.47L762,742.63l13.38-28.86c29.67,11.89,53.31,14,68.55-12.27,12.27-21.17,6.57-35.87-8-47.56,12.35-.46,22.77-6.58,28.3-22.35Zm-52.69,50.53c-10,21.61-45.4,2-57-3.47l17.75-38.31C783.91,645.82,822,659.58,811.56,682.12Zm17.05-57.8c-9.11,19.65-38.52,3-48.22-1.51l16.1-34.75C806.19,592.62,838.11,603.81,828.61,624.32Z"/></g><path d="M670.37,821.34S658.22,806.81,572.31,775s-103.25,41.89-103.25,41.89l.34,1.18,17.91-1.64,46.46-35.21L499.2,814.89h15l92.61-4.6L563.94,815h4.8l-9.35.49-20.48,2.23,37.65,30.25-49.9-30.77-56.56,3c3.82,10.85,20,45.31,70.34,40.72C559.31,859.14,670.37,821.34,670.37,821.34Z"/><path d="M531.42,861.53c-17.57,0-32.26-5-43.77-15a63.14,63.14,0,0,1-17.78-26.26l-.12-.32h.34l56.64-3,.06,0,46.48,28.66-35-28.11,21.08-2.3,4.56-.24,0-.25L598.32,811l-84.11,4.18H498.58l.44-.43,31.7-30.92L487.4,816.62h-.07l-18.11,1.65-.06-.19-.34-1.18v-.12c.07-.29,7.05-28.92,32.72-42.69,18.77-10.07,42.61-9.86,70.85.61,85,31.52,98.05,46.32,98.17,46.47l.23.28-.34.12c-1.11.38-111.31,37.82-130,39.53C537.37,861.39,534.36,861.53,531.42,861.53Zm-61-41.16c4,11,20.26,44.77,70,40.24,18.07-1.65,122.38-37,129.5-39.38-2.18-2.14-19.19-16.93-97.7-46.05-28.11-10.42-51.8-10.64-70.44-.64-24.9,13.36-32.09,40.81-32.46,42.3,0,.13.13.47.26.91l17.64-1.61L533.62,781l.32.38-34.13,33.29H514.2l92.59-4.6,0,.49-38.34,4.18h.25v.5l-9.34.49-19.87,2.16,37.17,29.88-.28.4L526.6,817.43Z"/><path d="M560.38,639.19s-18.68,3.13-89.63,61.12-16.1,110.25-16.1,110.25l1.18.3,7.66-16.28-6.87-57.89,11.59,46.88,7.61-12.93,42.88-82.21L501,727.77l2.43-4.14-4.31,8.31-8.43,18.8,45.13-17.17L484.08,761,458,811.33c11.3,2.2,49.19,5.7,70.71-40.07C536.79,754.11,560.38,639.19,560.38,639.19Z"/><path d="M469.91,812.69A63,63,0,0,1,458,811.57l-.33-.06.16-.3,26.1-50.35.06,0,48.24-25.59-42,15.95,8.69-19.34,2.1-4.06-.23-.11L515,696.09,476,770.76l-7.92,13.47-10.78-43.58,6.41,54,0,.06L456,811.15l-.2,0-1.18-.3-.11-.06c-.21-.21-21.37-20.72-20.26-49.82.81-21.29,13-41.75,36.37-60.81C540.78,642.75,560.16,639,560.34,639l.36-.06-.07.35c-.24,1.15-23.69,115.15-31.67,132.12-9.23,19.64-22.47,32.48-39.34,38.16A61.73,61.73,0,0,1,469.91,812.69Zm-11.51-1.55c11.5,2.17,48.87,5.17,70.11-40,7.72-16.42,30-124.27,31.55-131.62-2.95.8-24.31,8-89.15,61-23.21,19-35.39,39.3-36.19,60.44-1.08,28.23,19,48.32,20.06,49.39l.92.24,7.53-16-6.86-57.82.49-.09,11.45,46.29,7.29-12.4,42.88-82.21.45.22-15.8,35.19.12-.21.44.24-4.3,8.31-8.19,18.23,44.58-16.95.2.45-51.71,27.44Z"/><path class="cls-5" d="M355.26,1016.9l93.57-48.21a38,38,0,0,1,51,16.33l1,1.87a38,38,0,0,1-16.33,51l-93.57,48.21C399,1051.21,336.73,1026.44,355.26,1016.9Z"/><path d="M386.56,1091.77l1.45-6.3c4.1-17.77-12-33-25-45.15-8.7-8.2-15-14.12-14.17-19.92.36-2.56,2.05-4.64,5-6.17L447.46,966a41,41,0,0,1,55.08,17.62l1,1.88a40.93,40.93,0,0,1-17.62,55.08Zm-29.93-72.2c-.64.33-1.72,1-1.82,1.67-.39,2.72,6.67,9.37,12.34,14.71,12.05,11.35,28.13,26.49,27.5,44.9l88.48-45.59a34.93,34.93,0,0,0,15-47l-1-1.87a34.94,34.94,0,0,0-47-15Z"/><path class="cls-5" d="M509,1113a55.17,55.17,0,0,0,17.37-14.16c23.53-27.82,25.24-78.19,1.35-124.55-.32-.63-.67-1.24-1-1.86s-.6-1.26-.93-1.88c-23.88-46.37-65.89-74.21-102.2-71.2a55.29,55.29,0,0,0-21.61,5.92c-.13.06-.29.15-.46.25l-.33.15c-6.67,3.44-23.43,21.55-14.75,38.39,4.77,9.25,9.7,23.42,25.64,17.58,7.42-8.56-9.41-17.41-3.07-19.73,3.91-1.44,8.7.48,13.86,4.47a195.91,195.91,0,0,1,21.92,25,324,324,0,0,1,20.19,32.88A324.78,324.78,0,0,1,480,1039.73a195.27,195.27,0,0,1,7.61,32.35c.26,6.52-1,11.53-4.39,13.89-5.58,3.81-3-15-14.3-14-14,9.58-6.32,22.41-.56,31.07,10.55,15.88,33.15,13.71,39.82,10.27.11,0,.21-.12.31-.17Z"/><path d="M495.12,1118.74c-10,0-22.12-3.23-29.27-14-4.68-7-15.65-23.56,1.37-35.21l.64-.44.77-.07c8.75-.84,11.49,7.26,13,11.61.21.64.49,1.45.75,2.12,2.08-2.3,2.4-6.79,2.27-10.4a193,193,0,0,0-7.47-31.7,323,323,0,0,0-14.89-35.12,323.78,323.78,0,0,0-20-32.49,192.49,192.49,0,0,0-21.43-24.43c-2.86-2.2-6.72-4.54-9.79-4.19.39.6.9,1.3,1.29,1.84,2.69,3.73,7.69,10.66,1.93,17.3l-.51.58-.72.27c-16.91,6.2-23.56-7.31-27.95-16.25-.47-1-.93-1.89-1.39-2.77-5.32-10.34-2-20.42,1.67-27.06,4.1-7.34,10.33-13.29,14.38-15.37l.31-.15h0l.47-.26a58.33,58.33,0,0,1,22.78-6.24c18.42-1.53,38.91,4.72,57.67,17.6,19.2,13.19,35.59,32.28,47.41,55.21.2.39.39.78.58,1.17l.73,1.41c.21.39.42.77.62,1.17,11.81,22.93,17.84,47.36,17.44,70.65-.4,22.75-7.21,43.06-19.17,57.2a58.07,58.07,0,0,1-18.27,14.89h0l-.49.24-.31.17C506.7,1117.5,501.32,1118.74,495.12,1118.74ZM469.93,1075c-9.31,6.83-6.55,15.22.92,26.46,9.61,14.48,30.59,12,35.95,9.27l.29-.17.12-.06.36-.17h0a52.34,52.34,0,0,0,16.42-13.4c23.24-27.47,23.64-77.33,1-121.27-.18-.35-.36-.69-.55-1s-.29-.53-.43-.79-.3-.61-.43-.88l-.51-1c-22.64-43.94-63.45-72.54-99.29-69.58a52.41,52.41,0,0,0-20.49,5.6l-.35.19-.13.07-.27.13c-2.75,1.41-8.23,6.35-11.92,13-3,5.36-5.68,13.41-1.57,21.39.47.92.94,1.88,1.43,2.87,5.1,10.38,9.27,17,19.72,13.54,1.66-2.42.49-4.83-2.72-9.28-1.85-2.56-3.59-5-2.79-7.59a4.82,4.82,0,0,1,3.23-3.14c4.67-1.72,10.3-.06,16.73,4.92l.23.2a198,198,0,0,1,22.26,25.36,328.52,328.52,0,0,1,20.43,33.27,329.32,329.32,0,0,1,15.24,35.94,198.29,198.29,0,0,1,7.75,32.92l0,.3c.33,8.13-1.59,13.67-5.7,16.48a4.88,4.88,0,0,1-4.43.81c-2.59-.86-3.55-3.69-4.56-6.69C474.15,1077.37,472.86,1075,469.93,1075Z"/><path class="cls-5" d="M995.34,895.25,1026,794.56a38,38,0,0,1,47.29-25.2l2,.61a38,38,0,0,1,25.21,47.29L1069.85,918C1050.42,887.83,989.26,915.19,995.34,895.25Z"/><path d="M1070.83,925l-3.5-5.44c-9.89-15.32-32-14.35-49.78-13.57-11.94.52-20.57.9-24.16-3.73-1.59-2-1.9-4.71-.92-7.9l30.68-100.69a41,41,0,0,1,51-27.2l2,.61a41,41,0,0,1,27.2,51ZM1030,899.65c13.93,0,29,1.87,38.66,12l29-95.22a35,35,0,0,0-23.21-43.55l-2-.61a35,35,0,0,0-43.55,23.2l-30.68,100.7c-.21.68-.5,1.92-.08,2.47,1.69,2.18,11.37,1.75,19.16,1.41C1021.27,899.84,1025.57,899.65,1030,899.65Z"/><path class="cls-5" d="M1171.36,852.05a55.28,55.28,0,0,0,2-22.32c-3.53-36.26-38.45-72.61-88.34-87.81-.67-.21-1.35-.38-2-.58l-2-.65c-49.88-15.2-99.14-4.5-122.29,23.63a55.22,55.22,0,0,0-10.83,19.62c0,.13-.09.31-.14.5s-.08.23-.11.34c-2.19,7.18-.9,31.82,17.23,37.34,10,3,23.55,9.38,30.47-6.12-1-11.29-19-5.39-16.28-11.56,1.7-3.8,6.41-5.9,12.87-6.81a195.49,195.49,0,0,1,33.19,1.69,326.32,326.32,0,0,1,37.65,8.46,322.83,322.83,0,0,1,36,14,194.93,194.93,0,0,1,28.5,17.1c4.85,4.35,7.59,8.72,6.88,12.83-1.15,6.66-12.87-8.32-20,.52-2.9,16.72,11.66,20.16,21.88,22.07,18.74,3.51,32.94-14.21,35.13-21.39l.09-.34C1171.26,852.36,1171.32,852.18,1171.36,852.05Z"/><path d="M1140.79,877.73a29.34,29.34,0,0,1-5.37-.5c-8.32-1.56-27.81-5.21-24.29-25.53l.13-.77.49-.6c5.5-6.86,13.21-3.17,17.36-1.19.6.28,1.38.66,2,.93-.2-3.09-3.19-6.45-5.87-8.88a193.29,193.29,0,0,0-27.93-16.74,255.05,255.05,0,0,0-72.77-22.16,192,192,0,0,0-32.45-1.67c-3.58.52-7.94,1.64-9.83,4.09.7.14,1.56.27,2.22.37,4.54.67,13,1.91,13.74,10.67l.07.77-.32.71c-7.35,16.45-21.66,11.79-31.13,8.7-1-.33-2-.65-3-.94-20.3-6.19-21.59-33.31-19.22-41.08,0-.11.07-.22.11-.33h0c.05-.2.1-.38.14-.52a58.27,58.27,0,0,1,11.41-20.68c11.74-14.27,30.51-24.6,52.82-29.06,22.84-4.57,48-3,72.64,4.5l1.26.41,1.5.46,1.27.36c24.67,7.52,46.39,20.23,62.8,36.76,16,16.15,25.85,35.19,27.65,53.63a58.22,58.22,0,0,1-2.07,23.48c0,.14-.1.32-.17.51s-.06.24-.09.34C1171.75,861.05,1158.65,877.73,1140.79,877.73Zm-23.87-24.19c-1.59,11.43,6.34,15.31,19.6,17.79a23,23,0,0,0,4.31.4c14.9,0,25.8-14.45,27.4-19.71,0-.13.06-.23.09-.33l0-.12c.05-.14.09-.28.12-.38h0a52.45,52.45,0,0,0,1.84-21.12c-3.49-35.81-38.95-70.86-86.23-85.27l-1.13-.32-.86-.25-.92-.3-1.12-.36c-47.28-14.4-96.26-5.08-119.1,22.67a52.44,52.44,0,0,0-10.28,18.58c0,.11-.07.24-.1.39l-.05.14-.09.29c-1.89,6.2-.82,28.73,15.22,33.62,1,.3,2,.64,3.06,1,11,3.58,18.64,5.19,23.45-4.7-.57-2.87-3.11-3.72-8.54-4.52-3.12-.46-6.08-.89-7.39-3.29a4.84,4.84,0,0,1,0-4.5c2-4.55,7.14-7.43,15.19-8.56l.31,0a198.78,198.78,0,0,1,33.7,1.72A260.85,260.85,0,0,1,1099.93,819a197.51,197.51,0,0,1,29,17.39l.24.19c6,5.43,8.69,10.67,7.84,15.58a4.86,4.86,0,0,1-2.51,3.74c-2.43,1.26-5.12,0-8-1.39C1121.58,852.19,1119,851.48,1116.92,853.54Z"/></svg>