<svg id="bitcoin" xmlns="http://www.w3.org/2000/svg" viewBox="0 0 1500 1500"><defs><style>.cls-1{fill:#f7931a;}.cls-2{fill:#fff;}.cls-3{fill:#d6d238;}.cls-4{fill:#ba7325;}</style></defs><title>art-meets-bitcoin-illustrations-1Artboard 54 copy 40</title><g id="coin"><path class="cls-1" d="M896.5,418.75c-23.34,94.68-118.16,152.31-211.78,128.69S534.15,427.94,557.5,333.26,675.65,181,769.25,204.55,919.84,324.07,896.5,418.75Z"/><path d="M727.28,556.76a177.87,177.87,0,0,1-43.54-5.44c-95.59-24.11-154-122.36-130.12-219a179.29,179.29,0,0,1,82.1-111.65,175.91,175.91,0,0,1,134.51-20c95.6,24.11,154,122.37,130.16,219h0a179.28,179.28,0,0,1-82.11,111.63A176.27,176.27,0,0,1,727.28,556.76Zm-.56-353.52a168.23,168.23,0,0,0-86.88,24.28,171.29,171.29,0,0,0-78.45,106.7c-22.79,92.4,33,186.31,124.3,209.35a168.05,168.05,0,0,0,128.47-19.09A171.3,171.3,0,0,0,892.62,417.8c22.78-92.42-33-186.34-124.35-209.37A169.83,169.83,0,0,0,726.72,203.24Z"/></g><g id="symbol"><path class="cls-2" d="M804,350.82c3.48-23.51-14.23-36.16-38.43-44.59l7.85-31.86-19.17-4.83-7.65,31c-5-1.27-10.22-2.47-15.36-3.66l7.7-31.22-19.16-4.83-7.86,31.84c-4.17-1-8.27-1.91-12.25-2.91l0-.1L673.27,283l-5.1,20.71s14.23,3.29,13.93,3.5c7.76,2,9.17,7.16,8.93,11.28l-21.51,87.26c-.95,2.39-3.36,6-8.79,4.61.19.28-13.94-3.52-13.94-3.52l-9.51,22.2,25,6.29c4.64,1.18,9.19,2.41,13.67,3.57L668,471.13,687.11,476,695,444.08c5.23,1.44,10.31,2.76,15.28,4l-7.83,31.73,19.17,4.83,7.94-32.16c32.69,6.26,57.28,3.74,67.63-26.17,8.34-24.08-.42-38-17.62-47,12.53-2.92,22-11.25,24.48-28.47ZM760.21,413c-5.92,24.08-46,11.06-59,7.8l10.53-42.69C724.73,381.34,766.41,387.84,760.21,413Zm5.93-62.48c-5.4,21.91-38.77,10.78-49.59,8l9.54-38.71C736.92,322.53,771.77,327.63,766.14,350.47Z"/></g><path d="M919,570s47-132,124-153,176-30,176-30-33,108-51,162-54,107-99,109S970,546,919,570Z"/><path class="cls-2" d="M1067.81,663c-21.64,0-43.33-21.83-66.27-44.91-27.11-27.28-55.15-55.49-80.41-43.6l-10.87,5.12,4-11.32a430.92,430.92,0,0,1,33.55-69.52c29-48.42,60.62-77.56,93.84-86.62,76.54-20.88,175.87-30.07,176.87-30.16l7.41-.67-2.18,7.11c-.33,1.08-33.22,108.68-51,162.12-9.77,29.33-24.08,56.18-40.27,75.62-19.24,23.09-41.11,35.81-63.25,36.8Zm-134-101.43c25.64,0,50.56,25.07,74.81,49.47,20.88,21,42.44,42.69,60.15,41.93,44.41-2,78.65-58.11,94.48-105.58,15.09-45.29,41.07-129.65,48.76-154.7-24.41,2.55-104.11,11.76-167.7,29.1-61.73,16.84-104.44,110-116.87,140.31A38.12,38.12,0,0,1,933.82,561.6Z"/><path d="M1068.2,627c-14,0-31-17.07-47.35-33.57-19.31-19.43-39.27-39.51-60-39.51a30.85,30.85,0,0,0-5,.4,351.7,351.7,0,0,1,23.27-46.7c15.21-25.33,39.75-57.27,70.25-65.59,50.9-13.88,114.64-21.24,134.17-23.28-6.15,20-26.93,87.53-39,123.76-12.66,38-40,82.89-75.58,84.47Z"/><path class="cls-3" d="M1068.2,629.5c-15,0-32.36-17.44-49.13-34.31-18.94-19.06-38.53-38.77-58.2-38.77a28.17,28.17,0,0,0-4.6.37l-4.4.72,1.68-4.13A356.73,356.73,0,0,1,977,506.33c15.45-25.72,40.43-58.17,71.74-66.71,51.29-14,116-21.41,134.56-23.35l3.76-.4-1.11,3.62c-6.11,19.9-27,87.66-39,123.81-12.91,38.73-41,84.54-77.84,86.18ZM960.87,551.42c21.75,0,42.08,20.46,61.75,40.25,16.31,16.4,33.13,33.38,46.23,32.81,15.28-.68,30.67-10.24,44.53-27.64,11.57-14.54,21.79-34.11,28.8-55.12,11.38-34.15,30.66-96.6,37.87-120.08-22.32,2.43-82.09,9.74-130,22.81-29.7,8.1-53.79,39.52-68.76,64.45a348.06,348.06,0,0,0-21.51,42.54C960.14,551.42,960.5,551.42,960.87,551.42Z"/><path d="M534,573S487,441,410,420s-176-30-176-30,33,108,51,162,54,107,99,109S483,549,534,573Z"/><path class="cls-2" d="M385.19,666l-1.41,0c-22.14-1-44-13.71-63.25-36.8-16.19-19.44-30.5-46.29-40.27-75.62-17.82-53.44-50.71-161-51-162.12L227,384.35l7.41.67c1,.09,100.33,9.28,176.87,30.16,33.22,9.06,64.79,38.2,93.84,86.62a430.92,430.92,0,0,1,33.55,69.52l4,11.32-10.87-5.12c-25.26-11.89-53.3,16.32-80.41,43.6C428.52,644.2,406.82,666,385.19,666ZM241,395.72c7.69,25,33.67,109.41,48.76,154.7C305.57,597.89,339.81,654,384.22,656c17.7.79,39.27-20.93,60.15-41.93,26.25-26.41,53.29-53.62,81.18-48.94-12.43-30.34-55.14-123.47-116.87-140.31C345.07,407.47,265.39,398.27,241,395.72Z"/><path d="M385.22,630c14,0,31-17.07,47.36-33.57,19.3-19.43,39.27-39.51,60-39.51a30.94,30.94,0,0,1,5,.4,352,352,0,0,0-23.28-46.7C459.07,485.29,434.53,453.35,404,445c-50.89-13.88-114.64-21.24-134.16-23.28,6.15,20,26.93,87.53,39,123.76,12.66,38,40.05,82.89,75.58,84.47Z"/><path class="cls-3" d="M385.22,632.5l-.88,0c-36.79-1.64-64.92-47.45-77.84-86.18-12-36.15-32.91-103.91-39-123.81l-1.11-3.62,3.76.4c18.6,1.94,83.27,9.36,134.56,23.35,31.3,8.54,56.29,41,71.73,66.71a354.19,354.19,0,0,1,23.45,47.05l1.69,4.13-4.41-.72a28.05,28.05,0,0,0-4.59-.37c-19.67,0-39.26,19.71-58.21,38.77C417.59,615.06,400.25,632.5,385.22,632.5ZM273.37,424.64c7.22,23.48,26.5,85.93,37.88,120.08,7,21,17.23,40.58,28.8,55.12,13.85,17.4,29.25,27,44.52,27.64l.65,0c12.95,0,29.54-16.69,45.58-32.83,19.67-19.79,40-40.25,61.76-40.25.36,0,.73,0,1.09,0a349.52,349.52,0,0,0-21.51-42.54c-15-24.93-39.06-56.35-68.77-64.45C355.46,434.38,295.69,427.07,273.37,424.64Z"/><path d="M662.79,1180.11c-70.15,0-98.4-3.07-105.57-5.28l.13-1.36-3.82-1.23c-81.39-26.21-150.06-70.47-198.58-128C305.92,986.12,280,917.22,280,845c0-47.77,11.83-94.12,35.17-137.77C337.76,665,370.12,627,411.37,594.36S500.85,536,554.48,518c55.58-18.6,114.64-28,175.52-28s119.94,9.43,175.52,28c53.63,18,101.78,43.63,143.11,76.33s73.61,70.61,96.2,112.87c23.34,43.65,35.17,90,35.17,137.77,0,64.11-25.43,128.32-73.54,185.68-45.49,54.22-107.87,99.08-180.41,129.71l-3.22,1.37.09,1.7c-3.6,1.75-20.22,7.12-93.53,11.69-49.89,3.11-112.16,5-166.58,5Z"/><path class="cls-2" d="M730,495c60.34,0,118.86,9.34,173.93,27.77,53.08,17.77,100.72,43.17,141.6,75.51,40.7,32.21,72.63,69.66,94.89,111.31C1163.37,752.5,1175,798.06,1175,845c0,62.92-25,126-72.38,182.47-22.35,26.65-49.19,51.28-79.78,73.2a511.22,511.22,0,0,1-98.73,55.12l-6.45,2.72.08,1.53c-7.1,2.11-28.7,6.48-91.84,10.31-49.18,3-110.15,4.76-163.11,4.76-60.35,0-89.34-2.27-100.19-4.18l.1-1-7.63-2.46c-80.51-25.93-148.38-69.65-196.3-126.45C310.51,983.81,285,916,285,845c0-46.94,11.63-92.5,34.58-135.41,22.26-41.65,54.19-79.1,94.89-111.31,40.88-32.34,88.52-57.74,141.6-75.51C611.14,504.34,669.66,495,730,495m0-10c-251.29,0-455,161.18-455,360,0,150.84,110.68,278.44,277,332-.52,5.62,48.25,8.11,110.79,8.11,111.13,0,265.83-7.87,265.21-20.11,143.43-60.58,257-182.37,257-320,0-198.82-203.71-360-455-360Z"/><ellipse class="cls-4" cx="716.6" cy="938.05" rx="183" ry="135.05"/><path d="M716.6,1076.11c-49.52,0-96.1-14.26-131.18-40.15-35.35-26.08-54.81-60.86-54.81-97.91s19.46-71.82,54.81-97.91C620.5,814.26,667.08,800,716.6,800s96.1,14.26,131.18,40.14c35.35,26.09,54.82,60.86,54.82,97.91s-19.47,71.83-54.82,97.91C812.7,1061.85,766.12,1076.11,716.6,1076.11Zm0-270.11c-99.25,0-180,59.24-180,132s80.74,132.06,180,132.06,180-59.24,180-132.06S815.85,806,716.6,806Z"/><ellipse class="cls-1" cx="716.6" cy="960.8" rx="183" ry="125.55"/><path d="M716.6,1089.35c-49.48,0-96-13.25-131.09-37.3-35.41-24.29-54.9-56.7-54.9-91.25s19.49-67,54.9-91.26c35-24,81.61-37.29,131.09-37.29s96,13.24,131.1,37.29c35.4,24.29,54.9,56.7,54.9,91.26s-19.5,67-54.9,91.25C812.64,1076.1,766.08,1089.35,716.6,1089.35Zm0-251.1c-99.25,0-180,55-180,122.55s80.74,122.55,180,122.55,180-55,180-122.55S815.85,838.25,716.6,838.25Z"/><ellipse cx="656.67" cy="964.74" rx="17.22" ry="44.74"/><ellipse cx="768.89" cy="964.74" rx="17.22" ry="44.74"/><circle class="cls-2" cx="975.77" cy="729.17" r="93.23"/><circle cx="975.77" cy="729.17" r="83.91"/><circle class="cls-3" cx="1008.59" cy="676.96" r="17.15"/><circle class="cls-2" cx="504.23" cy="729.17" r="93.23"/><circle cx="504.23" cy="729.17" r="83.91"/><circle class="cls-3" cx="537.05" cy="676.96" r="17.15"/><path d="M479.5,1110v130.88a23.69,23.69,0,0,0,23.62,23.62H604.88a23.69,23.69,0,0,0,23.62-23.62V1181Z"/><path class="cls-2" d="M604.88,1269.5H503.12a28.65,28.65,0,0,1-28.62-28.62v-138.8l159,75.76v63A28.65,28.65,0,0,1,604.88,1269.5ZM484.5,1117.92v123a18.64,18.64,0,0,0,18.62,18.62H604.88a18.64,18.64,0,0,0,18.62-18.62v-56.72Z"/><path d="M844.5,1175v58.5a31.09,31.09,0,0,0,31,31h87a31.09,31.09,0,0,0,31-31V1098Z"/><path class="cls-2" d="M962.5,1269.5h-87a36,36,0,0,1-36-36V1172l159-82.17V1233.5A36,36,0,0,1,962.5,1269.5ZM849.5,1178v55.46a26,26,0,0,0,26,26h87a26,26,0,0,0,26-26V1106.21Z"/></svg>