<svg id="bitcoin" xmlns="http://www.w3.org/2000/svg" viewBox="0 0 1500 1500"><defs><style>.cls-1{opacity:0.3;}.cls-2{fill:#d6d238;}.cls-3{fill:#fff;}.cls-4{fill:#f7931a;}</style></defs><title>art-meets-bitcoin-illustrations-1Artboard 54 copy 22</title><g class="cls-1"><rect class="cls-2" x="192.42" y="191.39" width="1107.99" height="1107.99" rx="65.37" ry="65.37"/><path class="cls-3" d="M1235,1302.88H257.79A69,69,0,0,1,188.92,1234V256.76a69,69,0,0,1,68.87-68.87H1235a69,69,0,0,1,68.88,68.87V1234A69,69,0,0,1,1235,1302.88Zm-977.25-1108a62,62,0,0,0-61.87,61.87V1234a61.94,61.94,0,0,0,61.87,61.87H1235a61.94,61.94,0,0,0,61.88-61.87V256.76A62,62,0,0,0,1235,194.89Z"/></g><path d="M1297.68,128.76H195.16a65.36,65.36,0,0,0-65.37,65.37V1296.65A65.37,65.37,0,0,0,195.16,1362H1297.68a65.37,65.37,0,0,0,65.37-65.37V194.13A65.37,65.37,0,0,0,1297.68,128.76ZM1317.37,1251a65.36,65.36,0,0,1-65.37,65.37H240.83A65.37,65.37,0,0,1,175.46,1251V239.8a65.37,65.37,0,0,1,65.37-65.37H1252a65.37,65.37,0,0,1,65.37,65.37Z"/><path class="cls-3" d="M1297.68,1365H195.16a68.45,68.45,0,0,1-68.37-68.37V194.13a68.45,68.45,0,0,1,68.37-68.37H1297.68a68.45,68.45,0,0,1,68.37,68.37V1296.65A68.45,68.45,0,0,1,1297.68,1365ZM195.16,131.76a62.44,62.44,0,0,0-62.37,62.37V1296.65A62.44,62.44,0,0,0,195.16,1359H1297.68a62.44,62.44,0,0,0,62.37-62.37V194.13a62.44,62.44,0,0,0-62.37-62.37ZM1252,1319.34H240.83A68.45,68.45,0,0,1,172.46,1251V239.8a68.45,68.45,0,0,1,68.37-68.37H1252a68.45,68.45,0,0,1,68.37,68.37V1251A68.45,68.45,0,0,1,1252,1319.34ZM240.83,177.43a62.44,62.44,0,0,0-62.37,62.37V1251a62.44,62.44,0,0,0,62.37,62.37H1252a62.44,62.44,0,0,0,62.37-62.37V239.8A62.44,62.44,0,0,0,1252,177.43Z"/><path d="M1252,1323.34H240.83A72.45,72.45,0,0,1,168.46,1251V239.8a72.46,72.46,0,0,1,72.37-72.37H1252a72.45,72.45,0,0,1,72.37,72.37V1251A72.45,72.45,0,0,1,1252,1323.34ZM240.83,181.43a58.44,58.44,0,0,0-58.37,58.37V1251a58.44,58.44,0,0,0,58.37,58.37H1252a58.43,58.43,0,0,0,58.37-58.37V239.8A58.44,58.44,0,0,0,1252,181.43Z"/><path class="cls-2" d="M746.42,1176.93a430.2,430.2,0,1,1,168-33.92A428.79,428.79,0,0,1,746.42,1176.93Zm0-838.08a405.22,405.22,0,1,0,158.24,31.94A403.89,403.89,0,0,0,746.42,338.85Z"/><path class="cls-2" d="M746.42,1096.5a350,350,0,1,1,136.67-27.59A348.91,348.91,0,0,1,746.42,1096.5Zm0-687.22a336.1,336.1,0,1,0,237.67,98.44A333.92,333.92,0,0,0,746.42,409.28Z"/><path class="cls-2" d="M746.42,1030.78a285.39,285.39,0,1,1,201.8-83.59A283.53,283.53,0,0,1,746.42,1030.78Zm0-549.78a264.4,264.4,0,1,0,187,77.44A262.63,262.63,0,0,0,746.42,481Z"/><path d="M1241.69,1241.82a9,9,0,0,1-6.31-2.58L244.84,264.37a9,9,0,0,1,12.62-12.83L1248,1226.41a9,9,0,0,1-6.31,15.41Z"/><path d="M259,1249.66a9,9,0,0,1-6.41-15.32l974.87-990.53a9,9,0,1,1,12.83,12.62L265.4,1247A9,9,0,0,1,259,1249.66Z"/><circle class="cls-4" cx="746.42" cy="745.39" r="194"/><path d="M746.42,945.39c-110.28,0-200-89.72-200-200s89.72-200,200-200,200,89.72,200,200S856.7,945.39,746.42,945.39Zm0-388c-103.66,0-188,84.33-188,188s84.34,188,188,188,188-84.34,188-188S850.08,557.39,746.42,557.39Z"/><g id="coin"><path class="cls-4" d="M915.92,788.14c-23.34,94.68-118.16,152.3-211.79,128.69S553.57,797.33,576.92,702.65,695.07,550.34,788.67,573.94s150.59,119.52,127.25,214.2Z"/></g><g id="symbol"><path class="cls-3" d="M823.44,720.21c3.48-23.52-14.23-36.16-38.43-44.59l7.85-31.86-19.18-4.83L766,670c-5-1.27-10.22-2.47-15.36-3.66l7.7-31.22-19.17-4.83-7.85,31.84c-4.18-1-8.27-1.91-12.25-2.91l0-.1-26.44-6.68-5.1,20.72s14.23,3.29,13.93,3.5c7.76,2,9.17,7.15,8.93,11.27l-21.51,87.27c-1,2.39-3.36,6-8.79,4.61.19.28-13.94-3.52-13.94-3.52l-9.52,22.2,25,6.29c4.64,1.17,9.19,2.41,13.66,3.57l-7.93,32.22,19.15,4.83,7.86-31.88c5.23,1.44,10.31,2.76,15.28,4l-7.83,31.73L741,854,749,821.88c32.69,6.26,57.28,3.74,67.62-26.17,8.34-24.08-.41-38-17.61-47,12.53-2.92,22-11.25,24.48-28.47Zm-43.81,62.13c-5.92,24.08-46,11.06-59,7.8l10.53-42.69C744.15,750.73,785.82,757.22,779.63,782.34Zm5.93-62.48c-5.4,21.91-38.77,10.78-49.59,8l9.54-38.72C756.34,691.92,791.19,697,785.56,719.86Z"/></g></svg>